<svg width="32" height="32" viewBox="0 0 32 32" fill="none" xmlns="http://www.w3.org/2000/svg">
<path d="M21.3333 21.3334C24.2789 21.3334 26.6667 18.9456 26.6667 16.0001C26.6667 13.0546 24.2789 10.6667 21.3333 10.6667C18.3878 10.6667 16 13.0546 16 16.0001C16 18.9456 18.3878 21.3334 21.3333 21.3334Z" fill="#19BCFE"/>
<path fill-rule="evenodd" clip-rule="evenodd" d="M10.6666 31.9999C12.0811 31.9999 13.4376 31.438 14.4378 30.4378C15.438 29.4376 15.9999 28.0811 15.9999 26.6666V21.3333H10.6666C9.2521 21.3333 7.89554 21.8952 6.89535 22.8954C5.89516 23.8955 5.33325 25.2521 5.33325 26.6666C5.33325 28.0811 5.89516 29.4376 6.89535 30.4378C7.89554 31.438 9.2521 31.9999 10.6666 31.9999Z" fill="#09CF83"/>
<path fill-rule="evenodd" clip-rule="evenodd" d="M10.6666 21.3334H15.9999V10.6667H10.6666C9.2521 10.6667 7.89554 11.2287 6.89535 12.2288C5.89516 13.229 5.33325 14.5856 5.33325 16.0001C5.33325 17.4146 5.89516 18.7711 6.89535 19.7713C7.89554 20.7715 9.2521 21.3334 10.6666 21.3334Z" fill="#A259FF"/>
<path fill-rule="evenodd" clip-rule="evenodd" d="M10.6666 10.6667H15.9999V0H10.6666C9.2521 0 7.89554 0.561903 6.89535 1.5621C5.89516 2.56229 5.33325 3.91885 5.33325 5.33333C5.33325 6.74782 5.89516 8.10438 6.89535 9.10457C7.89554 10.1048 9.2521 10.6667 10.6666 10.6667Z" fill="#F24E1E"/>
<path fill-rule="evenodd" clip-rule="evenodd" d="M21.3333 10.6667H16V0H21.3333C22.7478 0 24.1044 0.561903 25.1046 1.5621C26.1048 2.56229 26.6667 3.91885 26.6667 5.33333C26.6667 6.74782 26.1048 8.10438 25.1046 9.10457C24.1044 10.1048 22.7478 10.6667 21.3333 10.6667Z" fill="#FF7262"/>
</svg>
