<svg width="32" height="32" fill="none" xmlns="http://www.w3.org/2000/svg"><path d="M21.333 21.333a5.333 5.333 0 1 0 0-10.666 5.333 5.333 0 0 0 0 10.666z" fill="#19BCFE"/><path fill-rule="evenodd" clip-rule="evenodd" d="M10.667 32A5.333 5.333 0 0 0 16 26.667v-5.334h-5.333a5.333 5.333 0 1 0 0 10.667z" fill="#09CF83"/><path fill-rule="evenodd" clip-rule="evenodd" d="M10.667 21.333H16V10.667h-5.333a5.334 5.334 0 0 0 0 10.666z" fill="#A259FF"/><path fill-rule="evenodd" clip-rule="evenodd" d="M10.667 10.667H16V0h-5.333a5.333 5.333 0 1 0 0 10.667z" fill="#F24E1E"/><path fill-rule="evenodd" clip-rule="evenodd" d="M21.333 10.667H16V0h5.333a5.333 5.333 0 1 1 0 10.667z" fill="#FF7262"/></svg>