<svg width="32" height="32" fill="none" xmlns="http://www.w3.org/2000/svg"><path d="M3.167 3.517h25.666v24.966H3.167V3.517z" fill="#0C0824"/><path d="M3.167 3.517h25.666v24.966H3.167V3.517zM2 29.65h28V2.35H2v27.3zm18.877-16.1c-.922 0-1.237.467-1.237.852 0 .42.21.712 1.447 1.353 1.832.887 2.4 1.738 2.4 2.987 0 1.867-1.423 2.87-3.348 2.87a5.076 5.076 0 0 1-2.392-.5c-.082-.035-.093-.093-.093-.187v-1.717c0-.117.058-.152.14-.093.7.45 1.514.689 2.345.688.922 0 1.307-.385 1.307-.91 0-.42-.268-.793-1.447-1.4-1.657-.793-2.345-1.6-2.345-2.94 0-1.505 1.178-2.753 3.22-2.753.71-.03 1.42.08 2.088.327a.258.258 0 0 1 .117.233v1.6c0 .093-.058.152-.175.117a3.941 3.941 0 0 0-2.03-.525l.003-.002zm-10.034 1.388c.268.023.478.023.945.023 1.365 0 2.648-.478 2.648-2.333 0-1.482-.922-2.228-2.473-2.228-.467 0-.91.023-1.12.035v4.503zm-2.077-6.2c0-.082.163-.14.257-.14a69.769 69.769 0 0 1 3.01-.058c3.232 0 4.492 1.773 4.492 4.037 0 2.963-2.147 4.235-4.783 4.235-.443 0-.595-.023-.91-.023v4.48c0 .093-.035.14-.14.14H8.907c-.093 0-.14-.035-.14-.14V8.743l-.001-.005z" fill="#31C5F0"/></svg>