<svg width="169" height="128" fill="none" xmlns="http://www.w3.org/2000/svg"><g filter="url(#a)"><rect x=".311" y=".195" width="167.966" height="127.625" rx="10" fill="#fff" fill-opacity=".1"/><rect x=".811" y=".695" width="166.966" height="126.625" rx="9.5" stroke="url(#b)"/><rect x=".811" y=".695" width="166.966" height="126.625" rx="9.5" stroke="url(#c)"/></g><rect x="6.179" y="83.077" width="156.964" height="38.874" rx="5" fill="url(#d)"/><rect x="6.179" y="6.063" width="156.964" height="72.614" rx="5" fill="url(#e)"/><rect x="85.394" y="33.935" width="60.145" height="9.073" rx="4.537" fill="#fff" fill-opacity=".3"/><rect x="85.394" y="50.072" width="44.742" height="3.667" rx="1.834" fill="#fff" fill-opacity=".3"/><path d="M56.615 28.392a2.053 2.053 0 0 0-2.64-1.623L39.6 31.263a2.054 2.054 0 0 0-1.441 1.961v16.701a5.135 5.135 0 1 0 2.053 4.108V39.385l14.377-4.493v10.926a5.134 5.134 0 1 0 2.053 4.107V28.731c0-.116-.01-.228-.026-.34z" fill="#F6D365"/><rect x="45.053" y="97.014" width="1.467" height="11.736" rx=".733" fill="#667EEA"/><path d="M49.016 103.675a1 1 0 0 1 0-1.585l5.612-4.32a1 1 0 0 1 1.61.792v8.641a1 1 0 0 1-1.61.792l-5.612-4.32z" fill="#667EEA"/><rect width="1.467" height="11.736" rx=".733" transform="matrix(-1 0 0 1 125.002 97.015)" fill="#667EEA"/><path d="M121.039 103.675a1 1 0 0 0 0-1.585l-5.613-4.32a1 1 0 0 0-1.61.792v8.641a1 1 0 0 0 1.61.792l5.613-4.32zM80.555 103.675a1 1 0 0 1 0-1.585l5.613-4.32a1 1 0 0 1 1.61.792v8.641a1 1 0 0 1-1.61.792l-5.613-4.32z" fill="#667EEA"/><defs><linearGradient id="b" x1="156.714" y1="127.82" x2="153.282" y2="103.898" gradientUnits="userSpaceOnUse"><stop stop-color="#fff" stop-opacity=".2"/><stop offset="1" stop-color="#fff" stop-opacity="0"/></linearGradient><linearGradient id="c" x1=".311" y1=".195" x2="15.7" y2="31.626" gradientUnits="userSpaceOnUse"><stop stop-color="#fff" stop-opacity=".2"/><stop offset="1" stop-color="#fff" stop-opacity="0"/></linearGradient><linearGradient id="d" x1="84.661" y1="83.077" x2="84.661" y2="121.951" gradientUnits="userSpaceOnUse"><stop stop-color="#251C45"/><stop offset="1" stop-color="#32265B"/></linearGradient><linearGradient id="e" x1="84.661" y1="6.063" x2="84.661" y2="78.677" gradientUnits="userSpaceOnUse"><stop stop-color="#251C45"/><stop offset="1" stop-color="#110831"/></linearGradient><filter id="a" x="-3.689" y="-3.805" width="175.966" height="135.625" filterUnits="userSpaceOnUse" color-interpolation-filters="sRGB"><feFlood flood-opacity="0" result="BackgroundImageFix"/><feGaussianBlur in="BackgroundImage" stdDeviation="2"/><feComposite in2="SourceAlpha" operator="in" result="effect1_backgroundBlur_1_119"/><feBlend in="SourceGraphic" in2="effect1_backgroundBlur_1_119" result="shape"/></filter></defs></svg>