<svg width="485" height="511" viewBox="0 0 485 511" fill="none" xmlns="http://www.w3.org/2000/svg">
<path d="M306.585 233.082C310.23 233.082 313.186 236.037 313.186 239.683C313.186 243.329 310.23 246.284 306.585 246.284H125.416C121.77 246.284 118.815 243.329 118.815 239.683C118.815 236.037 121.77 233.082 125.416 233.082H181.16H250.84H306.585Z" fill="white" fill-opacity="0.1"/>
<g filter="url(#filter0_b_1_62)">
<rect x="258.175" y="313.031" width="101.22" height="56.4777" rx="10" fill="white" fill-opacity="0.1"/>
<rect x="258.675" y="313.531" width="100.22" height="55.4777" rx="9.5" stroke="url(#paint0_linear_1_62)"/>
<rect x="258.675" y="313.531" width="100.22" height="55.4777" rx="9.5" stroke="url(#paint1_linear_1_62)"/>
</g>
<g filter="url(#filter1_f_1_62)">
<ellipse cx="435.024" cy="50.0627" rx="35.4666" ry="35.9202" transform="rotate(37.2721 435.024 50.0627)" fill="url(#paint2_linear_1_62)"/>
</g>
<ellipse cx="434.379" cy="49.7318" rx="33.0923" ry="33.5155" transform="rotate(37.2721 434.379 49.7318)" fill="url(#paint3_linear_1_62)"/>
<path d="M316.657 30.4421C326.598 30.4421 334.657 38.501 334.657 48.4421V463.197C334.657 473.138 326.598 481.197 316.657 481.197H114.61C104.669 481.197 96.6099 473.139 96.6099 463.197V48.4422C96.6099 38.501 104.669 30.4421 114.61 30.4421H172.248H259.019H316.657Z" fill="#667EEA" stroke="#081758" stroke-width="4"/>
<path fill-rule="evenodd" clip-rule="evenodd" d="M173.299 31.376H113.543C104.707 31.376 97.5435 38.5394 97.5435 47.376V464.263C97.5435 473.1 104.707 480.263 113.543 480.263H317.723C326.559 480.263 333.723 473.1 333.723 464.263V47.376C333.723 38.5394 326.559 31.376 317.723 31.376H257.967L251.551 38.0735C248.533 41.2238 244.36 43.0052 239.997 43.0052H191.269C186.907 43.0052 182.733 41.2238 179.715 38.0735L173.299 31.376Z" fill="#130936"/>
<path d="M306.388 219.88C317.434 219.88 326.388 228.834 326.388 239.88V334.106C326.388 345.152 317.434 354.106 306.388 354.106H126.345C115.3 354.106 106.345 345.152 106.345 334.106V239.88C106.345 228.834 115.3 219.88 126.345 219.88H176.925H255.809H306.388Z" fill="url(#paint4_linear_1_62)" fill-opacity="0.1"/>
<path d="M306.388 220.38C317.158 220.38 325.888 229.11 325.888 239.88V334.106C325.888 344.876 317.158 353.606 306.388 353.606H126.345C115.576 353.606 106.845 344.876 106.845 334.106V239.88C106.845 229.11 115.576 220.38 126.345 220.38H176.925H255.809H306.388Z" stroke="url(#paint5_linear_1_62)" stroke-opacity="0.1"/>
<path d="M293.186 233.082C304.231 233.082 313.186 242.036 313.186 253.082V317.236C313.186 328.281 304.231 337.236 293.186 337.236H138.814C127.769 337.236 118.814 328.281 118.814 317.236V253.082C118.814 242.036 127.769 233.082 138.814 233.082H181.16H250.84H293.186Z" fill="white" fill-opacity="0.1"/>
<path d="M306.388 362.173C317.434 362.173 326.388 371.127 326.388 382.173V451.461C326.388 462.507 317.434 471.461 306.388 471.461H126.345C115.3 471.461 106.345 462.507 106.345 451.461V382.173C106.345 371.127 115.3 362.173 126.345 362.173H176.925H255.808H306.388Z" fill="url(#paint6_linear_1_62)" fill-opacity="0.1"/>
<path d="M306.388 362.673C317.158 362.673 325.888 371.404 325.888 382.173V451.461C325.888 462.231 317.158 470.961 306.388 470.961H126.345C115.576 470.961 106.845 462.231 106.845 451.461V382.173C106.845 371.404 115.576 362.673 126.345 362.673H176.925H255.808H306.388Z" stroke="url(#paint7_linear_1_62)" stroke-opacity="0.1"/>
<path d="M193.374 373.175C204.42 373.175 213.374 382.129 213.374 393.175V437.525C213.374 448.571 204.42 457.525 193.374 457.525H138.815C127.769 457.525 118.815 448.571 118.815 437.525V393.175C118.815 382.129 127.769 373.175 138.815 373.175H149.145H183.044H193.374Z" fill="white" fill-opacity="0.1"/>
<path d="M293.186 373.175C304.232 373.175 313.186 382.129 313.186 393.175V437.525C313.186 448.571 304.232 457.525 293.186 457.525H238.627C227.581 457.525 218.627 448.571 218.627 437.525V393.175C218.627 382.129 227.581 373.175 238.627 373.175H248.957H282.856H293.186Z" fill="white" fill-opacity="0.1"/>
<path d="M306.388 53.3804C317.434 53.3804 326.388 62.3347 326.388 73.3804V191.078C326.388 202.123 317.434 211.078 306.388 211.078H126.345C115.3 211.078 106.345 202.123 106.345 191.078V73.3804C106.345 62.3347 115.3 53.3804 126.345 53.3804H176.925H255.808H306.388Z" fill="url(#paint8_linear_1_62)" fill-opacity="0.1"/>
<path d="M306.388 53.8804C317.158 53.8804 325.888 62.6108 325.888 73.3804V191.078C325.888 201.847 317.158 210.578 306.388 210.578H126.345C115.576 210.578 106.845 201.847 106.845 191.078V73.3804C106.845 62.6108 115.576 53.8804 126.345 53.8804H176.925H255.808H306.388Z" stroke="url(#paint9_linear_1_62)" stroke-opacity="0.1"/>
<g clip-path="url(#clip0_1_62)">
<path d="M160.059 83.7854C156.502 83.7854 153.723 85.0922 151.722 87.7057C149.721 90.3192 148.72 93.6601 148.72 97.7283C148.696 102.783 150.326 106.789 153.611 109.748C154.031 110.143 154.18 110.648 154.056 111.264L153.204 113.04C152.932 113.631 152.531 114.094 152 114.427C151.469 114.759 150.351 115.234 148.646 115.85C148.572 115.875 147.01 116.381 143.959 117.367C140.908 118.353 139.284 118.895 139.086 118.994C137.011 119.857 135.653 120.757 135.01 121.694C134.319 123.247 133.973 127.18 133.973 133.492H186.145C186.145 127.18 185.799 123.247 185.107 121.694C184.465 120.757 183.106 119.857 181.031 118.994C180.834 118.895 179.21 118.353 176.159 117.367C173.108 116.381 171.546 115.875 171.471 115.85C169.767 115.234 168.649 114.759 168.118 114.427C167.587 114.094 167.186 113.631 166.914 113.04L166.062 111.264C165.938 110.648 166.086 110.143 166.506 109.748C169.792 106.789 171.422 102.783 171.397 97.7283C171.397 93.6601 170.397 90.3192 168.396 87.7057C166.395 85.0922 163.616 83.7854 160.059 83.7854Z" fill="white" fill-opacity="0.3"/>
</g>
<rect x="206.56" y="99.4666" width="90.7337" height="9.07337" rx="4.53669" fill="white" fill-opacity="0.3"/>
<rect x="206.56" y="115.345" width="31.7568" height="2.26834" rx="1.13417" fill="white" fill-opacity="0.3"/>
<rect x="133.973" y="147.102" width="163.321" height="4.53669" rx="2.26834" fill="white" fill-opacity="0.3"/>
<rect x="133.973" y="158.444" width="163.321" height="4.53669" rx="2.26834" fill="white" fill-opacity="0.3"/>
<rect x="133.973" y="169.786" width="163.321" height="4.53669" rx="2.26834" fill="white" fill-opacity="0.3"/>
<g filter="url(#filter2_b_1_62)">
<rect x="238.371" y="432.587" width="139.36" height="77.7485" rx="10" fill="white" fill-opacity="0.1"/>
<rect x="238.871" y="433.087" width="138.36" height="76.7485" rx="9.5" stroke="url(#paint10_linear_1_62)"/>
<rect x="238.871" y="433.087" width="138.36" height="76.7485" rx="9.5" stroke="url(#paint11_linear_1_62)"/>
</g>
<rect x="243.24" y="456.628" width="130.232" height="49.6158" rx="5" fill="#332B50"/>
<rect x="254.802" y="469.416" width="60.8561" height="3.06902" rx="1.53451" fill="white" fill-opacity="0.3"/>
<rect x="254.802" y="480.157" width="60.8561" height="3.06902" rx="1.53451" fill="white" fill-opacity="0.3"/>
<rect x="254.802" y="490.899" width="60.8561" height="3.06902" rx="1.53451" fill="white" fill-opacity="0.3"/>
<rect x="243.24" y="436.679" width="130.232" height="15.3451" rx="5" fill="#615B78"/>
<path d="M345.56 472.26C346.33 470.927 348.254 470.927 349.024 472.26L359.852 491.015C360.622 492.348 359.659 494.015 358.12 494.015H336.464C334.924 494.015 333.962 492.348 334.732 491.015L345.56 472.26Z" fill="#667EEA"/>
<path d="M346.082 479.929H348.314L347.942 485.413H346.454L346.082 479.929ZM347.198 488.425C346.87 488.425 346.594 488.321 346.37 488.113C346.154 487.897 346.046 487.637 346.046 487.333C346.046 487.029 346.154 486.777 346.37 486.577C346.586 486.369 346.862 486.265 347.198 486.265C347.534 486.265 347.81 486.369 348.026 486.577C348.242 486.777 348.35 487.029 348.35 487.333C348.35 487.637 348.238 487.897 348.014 488.113C347.798 488.321 347.526 488.425 347.198 488.425Z" fill="#F6D365"/>
<g filter="url(#filter3_b_1_62)">
<rect x="48.4011" y="255.82" width="167.966" height="127.625" rx="10" fill="white" fill-opacity="0.1"/>
<rect x="48.9011" y="256.32" width="166.966" height="126.625" rx="9.5" stroke="url(#paint12_linear_1_62)"/>
<rect x="48.9011" y="256.32" width="166.966" height="126.625" rx="9.5" stroke="url(#paint13_linear_1_62)"/>
</g>
<rect x="54.269" y="290.293" width="156.964" height="87.2837" rx="5" fill="#332B50"/>
<rect x="68.2043" y="308.63" width="129.092" height="4.40086" rx="2.20043" fill="white" fill-opacity="0.3"/>
<rect x="68.2043" y="324.033" width="129.092" height="4.40086" rx="2.20043" fill="white" fill-opacity="0.3"/>
<rect x="68.2043" y="339.435" width="129.092" height="4.40086" rx="2.20043" fill="white" fill-opacity="0.3"/>
<rect x="68.2043" y="354.838" width="129.092" height="4.40086" rx="2.20043" fill="white" fill-opacity="0.3"/>
<rect x="54.269" y="261.688" width="156.964" height="22.0043" rx="5" fill="#605A77"/>
<g filter="url(#filter4_b_1_62)">
<rect x="44" y="45.312" width="101.22" height="94.6184" rx="10" fill="white" fill-opacity="0.1"/>
<rect x="44.5" y="45.812" width="100.22" height="93.6184" rx="9.5" stroke="url(#paint14_linear_1_62)"/>
<rect x="44.5" y="45.812" width="100.22" height="93.6184" rx="9.5" stroke="url(#paint15_linear_1_62)"/>
</g>
<circle cx="78.8403" cy="52.2797" r="1.83369" fill="white" fill-opacity="0.7"/>
<circle cx="86.9086" cy="52.2797" r="1.83369" fill="white" fill-opacity="0.7"/>
<circle cx="94.977" cy="52.2797" r="1.83369" fill="white" fill-opacity="0.7"/>
<circle cx="103.045" cy="52.2797" r="1.83369" fill="white" fill-opacity="0.7"/>
<circle cx="111.113" cy="52.2797" r="1.83369" fill="white" fill-opacity="0.7"/>
<g filter="url(#filter5_b_1_62)">
<rect x="274.311" y="128.195" width="167.966" height="127.625" rx="10" fill="white" fill-opacity="0.1"/>
<rect x="274.811" y="128.695" width="166.966" height="126.625" rx="9.5" stroke="url(#paint16_linear_1_62)"/>
<rect x="274.811" y="128.695" width="166.966" height="126.625" rx="9.5" stroke="url(#paint17_linear_1_62)"/>
</g>
<rect x="280.179" y="211.077" width="156.964" height="38.8742" rx="5" fill="url(#paint18_linear_1_62)"/>
<rect x="280.179" y="134.063" width="156.964" height="72.6141" rx="5" fill="url(#paint19_linear_1_62)"/>
<rect x="359.394" y="161.936" width="60.145" height="9.07337" rx="4.53669" fill="white" fill-opacity="0.3"/>
<rect x="359.394" y="178.072" width="44.7421" height="3.66738" rx="1.83369" fill="white" fill-opacity="0.3"/>
<path d="M330.615 156.392C330.566 156.102 330.457 155.826 330.293 155.583C330.129 155.339 329.915 155.133 329.665 154.98C329.414 154.826 329.134 154.728 328.843 154.691C328.552 154.655 328.256 154.682 327.976 154.769L313.6 159.263C313.182 159.393 312.816 159.654 312.557 160.007C312.297 160.36 312.158 160.786 312.158 161.224V177.925C311.233 177.231 310.1 176.87 308.944 176.9C307.788 176.93 306.675 177.35 305.787 178.091C304.899 178.832 304.288 179.851 304.051 180.983C303.815 182.115 303.968 183.294 304.485 184.329C305.002 185.363 305.854 186.193 306.901 186.683C307.949 187.173 309.131 187.295 310.257 187.03C311.383 186.764 312.385 186.126 313.103 185.219C313.821 184.312 314.212 183.189 314.212 182.033V167.385L328.588 162.892V173.818C327.662 173.124 326.53 172.762 325.374 172.792C324.217 172.823 323.105 173.242 322.217 173.983C321.329 174.724 320.718 175.743 320.481 176.876C320.245 178.008 320.398 179.187 320.915 180.221C321.432 181.256 322.283 182.085 323.331 182.575C324.379 183.066 325.561 183.188 326.687 182.922C327.812 182.656 328.815 182.018 329.533 181.111C330.251 180.204 330.641 179.082 330.641 177.925V156.731C330.641 156.616 330.631 156.503 330.615 156.392Z" fill="#F6D365"/>
<rect x="319.053" y="225.014" width="1.46695" height="11.7356" rx="0.733476" fill="#667EEA"/>
<path d="M323.016 231.675C322.496 231.275 322.496 230.49 323.016 230.09L328.628 225.77C329.286 225.264 330.238 225.732 330.238 226.562V235.203C330.238 236.033 329.286 236.501 328.628 235.995L323.016 231.675Z" fill="#667EEA"/>
<rect width="1.46695" height="11.7356" rx="0.733476" transform="matrix(-1 0 0 1 399.002 225.015)" fill="#667EEA"/>
<path d="M395.039 231.675C395.559 231.275 395.559 230.49 395.039 230.09L389.426 225.77C388.769 225.264 387.816 225.732 387.816 226.562V235.203C387.816 236.033 388.769 236.501 389.426 235.995L395.039 231.675Z" fill="#667EEA"/>
<path d="M354.555 231.675C354.035 231.275 354.035 230.49 354.555 230.09L360.168 225.77C360.825 225.264 361.778 225.732 361.778 226.562V235.203C361.778 236.033 360.825 236.501 360.168 235.995L354.555 231.675Z" fill="#667EEA"/>
<g filter="url(#filter6_f_1_62)">
<circle cx="32.0043" cy="209.004" r="22.0043" fill="url(#paint20_linear_1_62)"/>
</g>
<circle cx="32.0043" cy="209.004" r="22.0043" fill="url(#paint21_linear_1_62)"/>
<defs>
<filter id="filter0_b_1_62" x="254.175" y="309.031" width="109.22" height="64.4778" filterUnits="userSpaceOnUse" color-interpolation-filters="sRGB">
<feFlood flood-opacity="0" result="BackgroundImageFix"/>
<feGaussianBlur in="BackgroundImage" stdDeviation="2"/>
<feComposite in2="SourceAlpha" operator="in" result="effect1_backgroundBlur_1_62"/>
<feBlend mode="normal" in="SourceGraphic" in2="effect1_backgroundBlur_1_62" result="shape"/>
</filter>
<filter id="filter1_f_1_62" x="389.388" y="4.30615" width="91.2705" height="91.5132" filterUnits="userSpaceOnUse" color-interpolation-filters="sRGB">
<feFlood flood-opacity="0" result="BackgroundImageFix"/>
<feBlend mode="normal" in="SourceGraphic" in2="BackgroundImageFix" result="shape"/>
<feGaussianBlur stdDeviation="5" result="effect1_foregroundBlur_1_62"/>
</filter>
<filter id="filter2_b_1_62" x="234.371" y="428.587" width="147.36" height="85.7485" filterUnits="userSpaceOnUse" color-interpolation-filters="sRGB">
<feFlood flood-opacity="0" result="BackgroundImageFix"/>
<feGaussianBlur in="BackgroundImage" stdDeviation="2"/>
<feComposite in2="SourceAlpha" operator="in" result="effect1_backgroundBlur_1_62"/>
<feBlend mode="normal" in="SourceGraphic" in2="effect1_backgroundBlur_1_62" result="shape"/>
</filter>
<filter id="filter3_b_1_62" x="44.4011" y="251.82" width="175.966" height="135.625" filterUnits="userSpaceOnUse" color-interpolation-filters="sRGB">
<feFlood flood-opacity="0" result="BackgroundImageFix"/>
<feGaussianBlur in="BackgroundImage" stdDeviation="2"/>
<feComposite in2="SourceAlpha" operator="in" result="effect1_backgroundBlur_1_62"/>
<feBlend mode="normal" in="SourceGraphic" in2="effect1_backgroundBlur_1_62" result="shape"/>
</filter>
<filter id="filter4_b_1_62" x="40" y="41.312" width="109.22" height="102.618" filterUnits="userSpaceOnUse" color-interpolation-filters="sRGB">
<feFlood flood-opacity="0" result="BackgroundImageFix"/>
<feGaussianBlur in="BackgroundImage" stdDeviation="2"/>
<feComposite in2="SourceAlpha" operator="in" result="effect1_backgroundBlur_1_62"/>
<feBlend mode="normal" in="SourceGraphic" in2="effect1_backgroundBlur_1_62" result="shape"/>
</filter>
<filter id="filter5_b_1_62" x="270.311" y="124.195" width="175.966" height="135.625" filterUnits="userSpaceOnUse" color-interpolation-filters="sRGB">
<feFlood flood-opacity="0" result="BackgroundImageFix"/>
<feGaussianBlur in="BackgroundImage" stdDeviation="2"/>
<feComposite in2="SourceAlpha" operator="in" result="effect1_backgroundBlur_1_62"/>
<feBlend mode="normal" in="SourceGraphic" in2="effect1_backgroundBlur_1_62" result="shape"/>
</filter>
<filter id="filter6_f_1_62" x="0" y="177" width="64.0085" height="64.0085" filterUnits="userSpaceOnUse" color-interpolation-filters="sRGB">
<feFlood flood-opacity="0" result="BackgroundImageFix"/>
<feBlend mode="normal" in="SourceGraphic" in2="BackgroundImageFix" result="shape"/>
<feGaussianBlur stdDeviation="5" result="effect1_foregroundBlur_1_62"/>
</filter>
<linearGradient id="paint0_linear_1_62" x1="352.427" y1="369.508" x2="351.301" y2="358.823" gradientUnits="userSpaceOnUse">
<stop stop-color="white" stop-opacity="0.2"/>
<stop offset="1" stop-color="white" stop-opacity="0"/>
</linearGradient>
<linearGradient id="paint1_linear_1_62" x1="258.175" y1="313.031" x2="263.666" y2="328.3" gradientUnits="userSpaceOnUse">
<stop stop-color="white" stop-opacity="0.2"/>
<stop offset="1" stop-color="white" stop-opacity="0"/>
</linearGradient>
<linearGradient id="paint2_linear_1_62" x1="399.557" y1="50.0627" x2="470.49" y2="50.0627" gradientUnits="userSpaceOnUse">
<stop stop-color="#667EEA"/>
<stop offset="1" stop-color="#764BA2"/>
</linearGradient>
<linearGradient id="paint3_linear_1_62" x1="401.286" y1="49.7318" x2="467.471" y2="49.7318" gradientUnits="userSpaceOnUse">
<stop stop-color="#667EEA"/>
<stop offset="1" stop-color="#764BA2"/>
</linearGradient>
<linearGradient id="paint4_linear_1_62" x1="216.367" y1="219.88" x2="216.367" y2="354.106" gradientUnits="userSpaceOnUse">
<stop stop-color="white"/>
<stop offset="1" stop-opacity="0.8"/>
</linearGradient>
<linearGradient id="paint5_linear_1_62" x1="319.366" y1="354.106" x2="233.207" y2="209.824" gradientUnits="userSpaceOnUse">
<stop stop-color="white"/>
<stop offset="1" stop-color="white" stop-opacity="0"/>
</linearGradient>
<linearGradient id="paint6_linear_1_62" x1="216.367" y1="362.173" x2="216.367" y2="471.461" gradientUnits="userSpaceOnUse">
<stop stop-color="white"/>
<stop offset="1" stop-opacity="0.8"/>
</linearGradient>
<linearGradient id="paint7_linear_1_62" x1="319.365" y1="471.461" x2="256.696" y2="342.565" gradientUnits="userSpaceOnUse">
<stop stop-color="white"/>
<stop offset="1" stop-color="white" stop-opacity="0"/>
</linearGradient>
<linearGradient id="paint8_linear_1_62" x1="216.367" y1="53.3804" x2="216.367" y2="211.078" gradientUnits="userSpaceOnUse">
<stop stop-color="white" stop-opacity="0.8"/>
<stop offset="1"/>
</linearGradient>
<linearGradient id="paint9_linear_1_62" x1="319.365" y1="211.078" x2="211.249" y2="56.9709" gradientUnits="userSpaceOnUse">
<stop stop-color="white"/>
<stop offset="1" stop-color="white" stop-opacity="0"/>
</linearGradient>
<linearGradient id="paint10_linear_1_62" x1="368.137" y1="510.335" x2="366.588" y2="495.626" gradientUnits="userSpaceOnUse">
<stop stop-color="white" stop-opacity="0.2"/>
<stop offset="1" stop-color="white" stop-opacity="0"/>
</linearGradient>
<linearGradient id="paint11_linear_1_62" x1="238.371" y1="432.587" x2="245.928" y2="453.608" gradientUnits="userSpaceOnUse">
<stop stop-color="white" stop-opacity="0.2"/>
<stop offset="1" stop-color="white" stop-opacity="0"/>
</linearGradient>
<linearGradient id="paint12_linear_1_62" x1="204.804" y1="383.444" x2="201.372" y2="359.523" gradientUnits="userSpaceOnUse">
<stop stop-color="white" stop-opacity="0.2"/>
<stop offset="1" stop-color="white" stop-opacity="0"/>
</linearGradient>
<linearGradient id="paint13_linear_1_62" x1="48.4011" y1="255.82" x2="63.7906" y2="287.25" gradientUnits="userSpaceOnUse">
<stop stop-color="white" stop-opacity="0.2"/>
<stop offset="1" stop-color="white" stop-opacity="0"/>
</linearGradient>
<linearGradient id="paint14_linear_1_62" x1="138.252" y1="139.93" x2="135.153" y2="122.377" gradientUnits="userSpaceOnUse">
<stop stop-color="white" stop-opacity="0.2"/>
<stop offset="1" stop-color="white" stop-opacity="0"/>
</linearGradient>
<linearGradient id="paint15_linear_1_62" x1="44" y1="45.312" x2="56.7685" y2="66.5091" gradientUnits="userSpaceOnUse">
<stop stop-color="white" stop-opacity="0.2"/>
<stop offset="1" stop-color="white" stop-opacity="0"/>
</linearGradient>
<linearGradient id="paint16_linear_1_62" x1="430.714" y1="255.82" x2="427.282" y2="231.898" gradientUnits="userSpaceOnUse">
<stop stop-color="white" stop-opacity="0.2"/>
<stop offset="1" stop-color="white" stop-opacity="0"/>
</linearGradient>
<linearGradient id="paint17_linear_1_62" x1="274.311" y1="128.195" x2="289.7" y2="159.626" gradientUnits="userSpaceOnUse">
<stop stop-color="white" stop-opacity="0.2"/>
<stop offset="1" stop-color="white" stop-opacity="0"/>
</linearGradient>
<linearGradient id="paint18_linear_1_62" x1="358.661" y1="211.077" x2="358.661" y2="249.951" gradientUnits="userSpaceOnUse">
<stop stop-color="#251C45"/>
<stop offset="1" stop-color="#32265B"/>
</linearGradient>
<linearGradient id="paint19_linear_1_62" x1="358.661" y1="134.063" x2="358.661" y2="206.677" gradientUnits="userSpaceOnUse">
<stop stop-color="#251C45"/>
<stop offset="1" stop-color="#110831"/>
</linearGradient>
<linearGradient id="paint20_linear_1_62" x1="10" y1="209.004" x2="54.0086" y2="209.004" gradientUnits="userSpaceOnUse">
<stop stop-color="#F6D365"/>
<stop offset="1" stop-color="#FDA085"/>
</linearGradient>
<linearGradient id="paint21_linear_1_62" x1="10" y1="209.004" x2="54.0086" y2="209.004" gradientUnits="userSpaceOnUse">
<stop stop-color="#F6D365"/>
<stop offset="1" stop-color="#FDA085"/>
</linearGradient>
<clipPath id="clip0_1_62">
<rect x="133.973" y="79.0515" width="52.1719" height="54.4402" rx="2" fill="white"/>
</clipPath>
</defs>
</svg>
