<svg xmlns="http://www.w3.org/2000/svg" fill="none" viewBox="0 0 136 91"><rect width="36.194" height="25.998" fill="url(#paint0_linear_160_666)" rx="4"/><rect width="36.194" height="25.998" x="6.627" y="32.115" fill="url(#paint1_linear_160_666)" rx="4"/><rect width="36.194" height="25.998" x="13.254" y="64.231" fill="url(#paint2_linear_160_666)" rx="4"/><rect width="36.194" height="25.998" x="42.821" fill="url(#paint3_linear_160_666)" rx="4"/><rect width="36.194" height="25.998" x="49.448" y="32.115" fill="url(#paint4_linear_160_666)" rx="4"/><rect width="36.194" height="25.998" x="56.075" y="64.231" fill="url(#paint5_linear_160_666)" rx="4"/><rect width="36.194" height="25.998" x="85.641" fill="url(#paint6_linear_160_666)" rx="4"/><rect width="36.194" height="25.998" x="92.268" y="32.115" fill="url(#paint7_linear_160_666)" rx="4"/><rect width="36.194" height="25.998" x="98.895" y="64.231" fill="url(#paint8_linear_160_666)" rx="4"/><defs><linearGradient id="paint0_linear_160_666" x1="10" x2="122.5" y1="87" y2="0" gradientUnits="userSpaceOnUse"><stop stop-color="#6A11CB"/><stop offset="1" stop-color="#2575FC"/></linearGradient><linearGradient id="paint1_linear_160_666" x1="15.5" x2="123.5" y1="88.5" y2="-1.5" gradientUnits="userSpaceOnUse"><stop stop-color="#6A11CB"/><stop offset="1" stop-color="#2575FC"/></linearGradient><linearGradient id="paint2_linear_160_666" x1="13" x2="122.5" y1="90" y2="1.5" gradientUnits="userSpaceOnUse"><stop stop-color="#6A11CB"/><stop offset="1" stop-color="#2575FC"/></linearGradient><linearGradient id="paint3_linear_160_666" x1="17" x2="121" y1="91.5" y2="0" gradientUnits="userSpaceOnUse"><stop stop-color="#6A11CB"/><stop offset="1" stop-color="#2575FC"/></linearGradient><linearGradient id="paint4_linear_160_666" x1="17" x2="119.5" y1="87" y2="-1.5" gradientUnits="userSpaceOnUse"><stop stop-color="#6A11CB"/><stop offset="1" stop-color="#2575FC"/></linearGradient><linearGradient id="paint5_linear_160_666" x1="13" x2="121" y1="90" y2="0" gradientUnits="userSpaceOnUse"><stop stop-color="#6A11CB"/><stop offset="1" stop-color="#2575FC"/></linearGradient><linearGradient id="paint6_linear_160_666" x1="11.5" x2="122" y1="88.5" y2="0" gradientUnits="userSpaceOnUse"><stop stop-color="#6A11CB"/><stop offset="1" stop-color="#2575FC"/></linearGradient><linearGradient id="paint7_linear_160_666" x1="14" x2="119.5" y1="90" y2="-1.5" gradientUnits="userSpaceOnUse"><stop stop-color="#6A11CB"/><stop offset="1" stop-color="#2575FC"/></linearGradient><linearGradient id="paint8_linear_160_666" x1="17" x2="126.5" y1="90" y2="-2.5" gradientUnits="userSpaceOnUse"><stop stop-color="#6A11CB"/><stop offset="1" stop-color="#2575FC"/></linearGradient></defs></svg>