<svg width="315" height="326" viewBox="0 0 315 326" fill="none" xmlns="http://www.w3.org/2000/svg">
<path fill-rule="evenodd" clip-rule="evenodd" d="M221.518 160.884C264.851 160.884 300.182 126.621 301.895 83.7078C301.955 82.2159 300.383 81.2447 299.053 81.9221L275.876 93.7212C275.359 93.9844 274.983 94.4613 274.834 95.022C268.626 118.378 247.335 135.588 222.024 135.588C191.847 135.588 167.384 111.125 167.384 80.9485C167.384 50.7718 191.847 26.3086 222.024 26.3086C241.654 26.3086 258.867 36.6606 268.5 52.2032C268.524 52.2415 268.584 52.2205 268.578 52.1758V52.1758C268.574 52.1454 268.603 52.1212 268.632 52.1307L285.21 57.5072C286.327 57.8695 287.514 57.1959 287.776 56.0513L291.17 41.2368C291.282 40.7464 291.206 40.2306 290.951 39.7966C276.983 15.9867 251.118 0 221.518 0C177.091 0 141.076 36.0151 141.076 80.442C141.076 124.869 177.091 160.884 221.518 160.884Z" fill="url(#paint0_linear_1_343)"/>
<path fill-rule="evenodd" clip-rule="evenodd" d="M155.843 326C100.508 326 55.4467 282.012 53.7206 227.095C53.6737 225.603 55.246 224.629 56.5766 225.306L87.0201 240.805C87.5372 241.068 87.9133 241.545 88.0604 242.106C95.8635 271.895 122.966 293.872 155.201 293.872C193.53 293.872 224.602 262.8 224.602 224.47C224.602 186.141 193.53 155.069 155.201 155.069C130.267 155.069 108.405 168.218 96.169 187.959C96.1386 188.008 96.0626 187.981 96.0701 187.924V187.924C96.0752 187.885 96.038 187.854 96.0008 187.867L74.3834 194.878C73.2664 195.24 72.0791 194.566 71.8169 193.422L67.328 173.823C67.2156 173.333 67.2918 172.817 67.5455 172.383C85.262 142.04 118.172 121.652 155.843 121.652C212.272 121.652 258.017 167.397 258.017 223.826C258.017 280.255 212.272 326 155.843 326Z" fill="url(#paint1_linear_1_343)"/>
<path d="M4.02503 297.618C2.64076 296.399 3.50235 294.116 5.34629 294.116H154.568C155.672 294.116 156.568 295.012 156.568 296.116V324C156.568 325.105 155.672 326 154.568 326H5.34629C3.50235 326 2.64076 323.717 4.02503 322.499L16.4559 311.56C17.3609 310.763 17.3609 309.353 16.4559 308.557L4.02503 297.618Z" fill="url(#paint2_linear_1_343)"/>
<path d="M174.427 311.56C175.332 310.763 175.332 309.353 174.427 308.557L161.996 297.618C160.612 296.399 161.473 294.116 163.317 294.116H294.966C295.439 294.116 295.896 294.284 296.258 294.589L312.734 308.531C313.679 309.33 313.679 310.786 312.734 311.585L296.258 325.527C295.896 325.833 295.439 326 294.966 326H163.317C161.473 326 160.612 323.717 161.996 322.499L174.427 311.56Z" fill="url(#paint3_linear_1_343)"/>
<path d="M195.901 69.2H202.741C204.517 69.2 206.085 69.56 207.445 70.28C208.805 70.984 209.861 71.976 210.613 73.256C211.365 74.52 211.741 75.968 211.741 77.6C211.741 79.232 211.365 80.688 210.613 81.968C209.861 83.232 208.805 84.224 207.445 84.944C206.085 85.648 204.517 86 202.741 86H195.901V69.2ZM202.645 84.464C204.117 84.464 205.405 84.176 206.509 83.6C207.613 83.008 208.469 82.2 209.077 81.176C209.685 80.136 209.989 78.944 209.989 77.6C209.989 76.256 209.685 75.072 209.077 74.048C208.469 73.008 207.613 72.2 206.509 71.624C205.405 71.032 204.117 70.736 202.645 70.736H197.677V84.464H202.645ZM220.505 73.28C222.153 73.28 223.417 73.696 224.297 74.528C225.177 75.344 225.617 76.56 225.617 78.176V86H223.985V84.032C223.601 84.688 223.033 85.2 222.281 85.568C221.545 85.936 220.665 86.12 219.641 86.12C218.233 86.12 217.113 85.784 216.281 85.112C215.449 84.44 215.033 83.552 215.033 82.448C215.033 81.376 215.417 80.512 216.185 79.856C216.969 79.2 218.209 78.872 219.905 78.872H223.913V78.104C223.913 77.016 223.609 76.192 223.001 75.632C222.393 75.056 221.505 74.768 220.337 74.768C219.537 74.768 218.769 74.904 218.033 75.176C217.297 75.432 216.665 75.792 216.137 76.256L215.369 74.984C216.009 74.44 216.777 74.024 217.673 73.736C218.569 73.432 219.513 73.28 220.505 73.28ZM219.905 84.776C220.865 84.776 221.689 84.56 222.377 84.128C223.065 83.68 223.577 83.04 223.913 82.208V80.144H219.953C217.793 80.144 216.713 80.896 216.713 82.4C216.713 83.136 216.993 83.72 217.553 84.152C218.113 84.568 218.897 84.776 219.905 84.776ZM230.965 73.376H232.669V86H230.965V73.376ZM231.829 70.616C231.477 70.616 231.181 70.496 230.941 70.256C230.701 70.016 230.581 69.728 230.581 69.392C230.581 69.072 230.701 68.792 230.941 68.552C231.181 68.312 231.477 68.192 231.829 68.192C232.181 68.192 232.477 68.312 232.717 68.552C232.957 68.776 233.077 69.048 233.077 69.368C233.077 69.72 232.957 70.016 232.717 70.256C232.477 70.496 232.181 70.616 231.829 70.616ZM238.13 68.192H239.834V86H238.13V68.192ZM255.904 73.376L249.592 87.512C249.08 88.696 248.488 89.536 247.816 90.032C247.144 90.528 246.336 90.776 245.392 90.776C244.784 90.776 244.216 90.68 243.688 90.488C243.16 90.296 242.704 90.008 242.32 89.624L243.112 88.352C243.752 88.992 244.52 89.312 245.416 89.312C245.992 89.312 246.48 89.152 246.88 88.832C247.296 88.512 247.68 87.968 248.032 87.2L248.584 85.976L242.944 73.376H244.72L249.472 84.104L254.224 73.376H255.904Z" fill="#F4F4F4"/>
<path d="M145.132 204.2V221H143.404V205.736H139.444V204.2H145.132ZM150.06 213.752H156.348V215.24H150.06V213.752ZM170.943 219.464V221H159.159V219.776L166.143 212.936C167.023 212.072 167.615 211.328 167.919 210.704C168.239 210.064 168.399 209.424 168.399 208.784C168.399 207.792 168.055 207.024 167.367 206.48C166.695 205.92 165.727 205.64 164.463 205.64C162.495 205.64 160.967 206.264 159.879 207.512L158.655 206.456C159.311 205.688 160.143 205.096 161.151 204.68C162.175 204.264 163.327 204.056 164.607 204.056C166.319 204.056 167.671 204.464 168.663 205.28C169.671 206.08 170.175 207.184 170.175 208.592C170.175 209.456 169.983 210.288 169.599 211.088C169.215 211.888 168.487 212.808 167.415 213.848L161.703 219.464H170.943ZM137.264 232.376L132.488 245H130.88L126.896 234.656L122.912 245H121.304L116.552 232.376H118.184L122.144 243.104L126.2 232.376H127.664L131.696 243.104L135.704 232.376H137.264ZM151.19 239.216H140.63C140.726 240.528 141.23 241.592 142.142 242.408C143.054 243.208 144.206 243.608 145.598 243.608C146.382 243.608 147.102 243.472 147.758 243.2C148.414 242.912 148.982 242.496 149.462 241.952L150.422 243.056C149.862 243.728 149.158 244.24 148.31 244.592C147.478 244.944 146.558 245.12 145.55 245.12C144.254 245.12 143.102 244.848 142.094 244.304C141.102 243.744 140.326 242.976 139.766 242C139.206 241.024 138.926 239.92 138.926 238.688C138.926 237.456 139.19 236.352 139.718 235.376C140.262 234.4 140.998 233.64 141.926 233.096C142.87 232.552 143.926 232.28 145.094 232.28C146.262 232.28 147.31 232.552 148.238 233.096C149.166 233.64 149.894 234.4 150.422 235.376C150.95 236.336 151.214 237.44 151.214 238.688L151.19 239.216ZM145.094 233.744C143.878 233.744 142.854 234.136 142.022 234.92C141.206 235.688 140.742 236.696 140.63 237.944H149.582C149.47 236.696 148.998 235.688 148.166 234.92C147.35 234.136 146.326 233.744 145.094 233.744ZM166.395 239.216H155.835C155.931 240.528 156.435 241.592 157.347 242.408C158.259 243.208 159.411 243.608 160.803 243.608C161.587 243.608 162.307 243.472 162.963 243.2C163.619 242.912 164.187 242.496 164.667 241.952L165.627 243.056C165.067 243.728 164.363 244.24 163.515 244.592C162.683 244.944 161.763 245.12 160.755 245.12C159.459 245.12 158.307 244.848 157.299 244.304C156.307 243.744 155.531 242.976 154.971 242C154.411 241.024 154.131 239.92 154.131 238.688C154.131 237.456 154.395 236.352 154.923 235.376C155.467 234.4 156.203 233.64 157.131 233.096C158.075 232.552 159.131 232.28 160.299 232.28C161.467 232.28 162.515 232.552 163.443 233.096C164.371 233.64 165.099 234.4 165.627 235.376C166.155 236.336 166.419 237.44 166.419 238.688L166.395 239.216ZM160.299 233.744C159.083 233.744 158.059 234.136 157.227 234.92C156.411 235.688 155.947 236.696 155.835 237.944H164.787C164.675 236.696 164.203 235.688 163.371 234.92C162.555 234.136 161.531 233.744 160.299 233.744ZM175.287 238.664L172.311 241.4V245H170.607V227.192H172.311V239.264L179.847 232.376H181.959L176.559 237.536L182.463 245H180.375L175.287 238.664ZM188.75 245.12C187.726 245.12 186.742 244.976 185.798 244.688C184.87 244.384 184.142 244.008 183.614 243.56L184.382 242.216C184.91 242.632 185.574 242.976 186.374 243.248C187.174 243.504 188.006 243.632 188.87 243.632C190.022 243.632 190.87 243.456 191.414 243.104C191.974 242.736 192.254 242.224 192.254 241.568C192.254 241.104 192.102 240.744 191.798 240.488C191.494 240.216 191.11 240.016 190.646 239.888C190.182 239.744 189.566 239.608 188.798 239.48C187.774 239.288 186.95 239.096 186.326 238.904C185.702 238.696 185.166 238.352 184.718 237.872C184.286 237.392 184.07 236.728 184.07 235.88C184.07 234.824 184.51 233.96 185.39 233.288C186.27 232.616 187.494 232.28 189.062 232.28C189.878 232.28 190.694 232.392 191.51 232.616C192.326 232.824 192.998 233.104 193.526 233.456L192.782 234.824C191.742 234.104 190.502 233.744 189.062 233.744C187.974 233.744 187.15 233.936 186.59 234.32C186.046 234.704 185.774 235.208 185.774 235.832C185.774 236.312 185.926 236.696 186.23 236.984C186.55 237.272 186.942 237.488 187.406 237.632C187.87 237.76 188.51 237.896 189.326 238.04C190.334 238.232 191.142 238.424 191.75 238.616C192.358 238.808 192.878 239.136 193.31 239.6C193.742 240.064 193.958 240.704 193.958 241.52C193.958 242.624 193.494 243.504 192.566 244.16C191.654 244.8 190.382 245.12 188.75 245.12Z" fill="#F4F4F4"/>
<defs>
<linearGradient id="paint0_linear_1_343" x1="252.543" y1="8.50001" x2="174.543" y2="161" gradientUnits="userSpaceOnUse">
<stop stop-color="#2672FA"/>
<stop offset="1" stop-color="#621BD0"/>
</linearGradient>
<linearGradient id="paint1_linear_1_343" x1="210.543" y1="136" x2="8.54333" y2="326" gradientUnits="userSpaceOnUse">
<stop stop-color="#2671FA"/>
<stop offset="1" stop-color="#611CD1"/>
</linearGradient>
<linearGradient id="paint2_linear_1_343" x1="233.043" y1="149" x2="0.543459" y2="326" gradientUnits="userSpaceOnUse">
<stop stop-color="#2671FA"/>
<stop offset="1" stop-color="#621ACF"/>
</linearGradient>
<linearGradient id="paint3_linear_1_343" x1="225.043" y1="150.5" x2="2.04343" y2="326" gradientUnits="userSpaceOnUse">
<stop stop-color="#286FF9"/>
<stop offset="1" stop-color="#621BD0"/>
</linearGradient>
</defs>
</svg>
