<svg xmlns="http://www.w3.org/2000/svg" fill="none" viewBox="0 0 213 221"><path fill="url(#paint0_linear_2_377)" fill-rule="evenodd" d="M149.999 108.964c28.994 0 52.698-22.649 54.386-51.22.088-1.49-1.481-2.46-2.812-1.782l-14.496 7.38c-.517.263-.891.74-1.045 1.3-4.301 15.673-18.651 27.19-35.691 27.19-20.438 0-37.006-16.569-37.006-37.007s16.568-37.007 37.006-37.007c13.296 0 24.953 7.011 31.478 17.538.016.026.056.012.052-.018-.002-.02.018-.037.037-.03l10.557 3.423a2 2 0 0 0 2.567-1.456l2.084-9.1a1.962 1.962 0 0 0-.22-1.44C187.406 10.73 169.956 0 149.999 0c-30.09 0-54.482 24.392-54.482 54.482S119.91 108.964 150 108.964z" clip-rule="evenodd"/><path fill="url(#paint1_linear_2_377)" fill-rule="evenodd" d="M105.518 220.794c-37.125 0-67.421-29.234-69.125-65.937-.07-1.492 1.501-2.461 2.832-1.783l19.418 9.885c.517.263.892.74 1.043 1.3 5.382 20.03 23.668 34.775 45.397 34.775 25.959 0 47.004-21.045 47.004-47.005 0-25.959-21.045-47.004-47.004-47.004-16.887 0-31.694 8.906-39.981 22.276-.021.033-.072.015-.067-.023a.036.036 0 0 0-.047-.039l-13.97 4.531a2 2 0 0 1-2.567-1.456l-2.826-12.34a1.97 1.97 0 0 1 .218-1.44c12.03-20.43 34.251-34.14 59.675-34.14 38.218 0 69.2 30.981 69.2 69.199 0 38.219-30.982 69.201-69.2 69.201z" clip-rule="evenodd"/><path fill="url(#paint2_linear_2_377)" d="M3.979 202.701c-1.384-1.219-.523-3.502 1.321-3.502h98.709a2 2 0 0 1 2 2v17.595a2 2 0 0 1-2 2H5.3c-1.844 0-2.705-2.284-1.321-3.502l6.584-5.794a2 2 0 0 0 0-3.003l-6.584-5.794z"/><path fill="url(#paint3_linear_2_377)" d="M117.554 211.498a2 2 0 0 0 0-3.003l-6.584-5.794c-1.385-1.219-.523-3.502 1.321-3.502h87.216c.473 0 .931.168 1.292.473l10.397 8.798a2 2 0 0 1 0 3.053l-10.397 8.797a1.999 1.999 0 0 1-1.292.474h-87.216c-1.844 0-2.706-2.284-1.321-3.502l6.584-5.794z"/><path fill="#F4F4F4" d="M137.97 57.5v3.095h-.966v-2.198h-8.554l-.014 2.198h-.966l.014-3.094h.49c.644-.038 1.092-.546 1.344-1.526.252-.99.406-2.39.462-4.2l.112-3.178h6.608V57.5h1.47zm-7.266-5.627c-.046 1.493-.163 2.725-.35 3.696-.177.961-.48 1.605-.91 1.932h6.034v-8.008h-4.69l-.084 2.38zm15.796 3.15h-6.16c.056.765.35 1.386.882 1.862.532.466 1.204.7 2.016.7.458 0 .878-.08 1.26-.238.383-.168.714-.41.994-.728l.56.644c-.326.392-.737.69-1.232.896a4.09 4.09 0 0 1-1.61.308c-.756 0-1.428-.159-2.016-.476a3.55 3.55 0 0 1-1.358-1.344c-.326-.57-.49-1.214-.49-1.932 0-.719.154-1.363.462-1.932a3.469 3.469 0 0 1 1.288-1.33 3.636 3.636 0 0 1 1.848-.476c.682 0 1.293.158 1.834.476.542.317.966.76 1.274 1.33.308.56.462 1.204.462 1.932l-.014.308zm-3.556-3.192c-.709 0-1.306.228-1.792.686-.476.448-.746 1.036-.812 1.764h5.222c-.065-.728-.34-1.316-.826-1.764-.476-.458-1.073-.686-1.792-.686zm6.191-.798h.994v5.852l4.914-5.852h.882v7.364h-.994v-5.852l-4.9 5.852h-.896v-7.364zm3.346-1.064c-.635 0-1.139-.159-1.512-.476-.374-.318-.565-.766-.574-1.344h.714c.009.364.14.658.392.882.252.214.578.322.98.322.401 0 .728-.108.98-.322a1.15 1.15 0 0 0 .406-.882h.714c-.01.578-.206 1.026-.588 1.344-.374.317-.878.476-1.512.476zm12.732 1.064v7.364h-.994v-6.482h-3.528l-.098 1.82c-.074 1.53-.252 2.706-.532 3.528-.28.821-.779 1.232-1.498 1.232-.196 0-.434-.038-.714-.112l.07-.854c.168.037.285.056.35.056.383 0 .672-.178.868-.532.196-.355.327-.794.392-1.316.066-.523.122-1.214.168-2.072l.126-2.632h5.39zm3.246 0h.994v5.852l4.914-5.852h.882v7.364h-.994v-5.852l-4.9 5.852h-.896v-7.364zM100.425 138.597v9.8h-1.008v-8.904h-2.31v-.896h3.318zm2.875 5.572h3.668v.868H103.3v-.868zm12.182 3.332v.896h-6.874v-.714l4.074-3.99c.513-.504.858-.938 1.036-1.302.186-.374.28-.747.28-1.12 0-.579-.201-1.027-.602-1.344-.392-.327-.957-.49-1.694-.49-1.148 0-2.04.364-2.674 1.092l-.714-.616a3.758 3.758 0 0 1 1.456-1.036c.597-.243 1.269-.364 2.016-.364.998 0 1.787.238 2.366.714.588.466.882 1.11.882 1.932 0 .504-.112.989-.336 1.456-.224.466-.649 1.003-1.274 1.61l-3.332 3.276h5.39zm-35.647 7.532h.994v3.262h4.634v-3.262h.994v7.364h-.994v-3.248h-4.634v3.248h-.994v-7.364zm16.307 3.99h-6.16c.056.765.35 1.386.882 1.862.532.466 1.204.7 2.016.7.457 0 .877-.08 1.26-.238.383-.168.714-.411.994-.728l.56.644a3.15 3.15 0 0 1-1.232.896 4.098 4.098 0 0 1-1.61.308c-.756 0-1.428-.159-2.016-.476a3.549 3.549 0 0 1-1.358-1.344c-.327-.57-.49-1.214-.49-1.932 0-.719.154-1.363.462-1.932a3.453 3.453 0 0 1 1.288-1.33 3.627 3.627 0 0 1 1.848-.476c.681 0 1.293.158 1.834.476.541.317.966.76 1.274 1.33.308.56.462 1.204.462 1.932l-.014.308zm-3.556-3.192c-.71 0-1.307.228-1.792.686-.476.448-.747 1.036-.812 1.764h5.222c-.065-.728-.34-1.316-.826-1.764-.476-.458-1.073-.686-1.792-.686zm13.222 5.698v2.646h-.938v-1.778h-6.594v1.778h-.938v-2.646h.42c.495-.028.83-.392 1.008-1.092.177-.7.298-1.68.364-2.94l.098-2.464h5.432v6.496h1.148zm-5.768-3.976c-.047 1.045-.136 1.908-.266 2.59-.13.672-.364 1.134-.7 1.386h4.592v-5.614h-3.542l-.084 1.638zm14.565 1.47h-6.16c.056.765.35 1.386.882 1.862.532.466 1.204.7 2.016.7.457 0 .877-.08 1.26-.238.383-.168.714-.411.994-.728l.56.644a3.15 3.15 0 0 1-1.232.896 4.096 4.096 0 0 1-1.61.308c-.756 0-1.428-.159-2.016-.476a3.55 3.55 0 0 1-1.358-1.344c-.327-.57-.49-1.214-.49-1.932 0-.719.154-1.363.462-1.932a3.454 3.454 0 0 1 1.288-1.33 3.629 3.629 0 0 1 1.848-.476c.681 0 1.293.158 1.834.476.541.317.966.76 1.274 1.33.308.56.462 1.204.462 1.932l-.014.308zm-3.556-3.192c-.709 0-1.307.228-1.792.686-.476.448-.747 1.036-.812 1.764h5.222c-.065-.728-.341-1.316-.826-1.764-.476-.458-1.073-.686-1.792-.686zm12.06-.798v7.364h-.994v-6.482h-3.528l-.098 1.82c-.075 1.53-.252 2.706-.532 3.528-.28.821-.779 1.232-1.498 1.232-.196 0-.434-.038-.714-.112l.07-.854c.168.037.285.056.35.056.383 0 .672-.178.868-.532.196-.355.327-.794.392-1.316.065-.523.121-1.214.168-2.072l.126-2.632h5.39zm3.246 0h.994v5.852l4.914-5.852h.882v7.364h-.994v-5.852l-4.9 5.852h-.896v-7.364z"/><defs><linearGradient id="paint0_linear_2_377" x1="170.977" x2="118.135" y1="5.757" y2="109.023" gradientUnits="userSpaceOnUse"><stop stop-color="#2672FA"/><stop offset="1" stop-color="#621BD0"/></linearGradient><linearGradient id="paint1_linear_2_377" x1="142.574" x2="5.766" y1="92.111" y2="220.755" gradientUnits="userSpaceOnUse"><stop stop-color="#2671FA"/><stop offset="1" stop-color="#611CD1"/></linearGradient><linearGradient id="paint2_linear_2_377" x1="157.805" x2=".337" y1="100.915" y2="220.793" gradientUnits="userSpaceOnUse"><stop stop-color="#2671FA"/><stop offset="1" stop-color="#621ACF"/></linearGradient><linearGradient id="paint3_linear_2_377" x1="152.386" x2="1.353" y1="101.931" y2="220.793" gradientUnits="userSpaceOnUse"><stop stop-color="#286FF9"/><stop offset="1" stop-color="#621BD0"/></linearGradient></defs></svg>