<svg width="50" height="50" fill="none" xmlns="http://www.w3.org/2000/svg"><circle cx="14.583" cy="14.583" r="6.25" transform="rotate(90 14.583 14.583)" stroke="#fff" stroke-width="2" stroke-linecap="round"/><path d="M19.792 10.417h17.875c1.885 0 2.828 0 3.414.585.586.586.586 1.53.586 3.415v.333c0 1.886 0 2.828-.586 3.414-.586.586-1.529.586-3.414.586H19.792" stroke="#fff" stroke-width="2" stroke-linecap="round"/><circle transform="matrix(0 1 1 0 35.417 35.417)" stroke="#fff" stroke-width="2" stroke-linecap="round" r="6.25"/><path d="M30.208 31.25H12.333c-1.885 0-2.828 0-3.414.586-.586.586-.586 1.528-.586 3.414v.333c0 1.886 0 2.829.586 3.415.586.585 1.529.585 3.414.585h17.875" stroke="#fff" stroke-width="2" stroke-linecap="round"/></svg>