<svg width="136" height="91" fill="none" xmlns="http://www.w3.org/2000/svg"><rect x=".543" width="36.194" height="25.998" rx="4" fill="url(#a)"/><rect x="7.17" y="32.115" width="36.194" height="25.998" rx="4" fill="url(#b)"/><rect x="13.797" y="64.231" width="36.194" height="25.998" rx="4" fill="url(#c)"/><rect x="43.364" width="36.194" height="25.998" rx="4" fill="url(#d)"/><rect x="49.991" y="32.115" width="36.194" height="25.998" rx="4" fill="url(#e)"/><rect x="56.618" y="64.231" width="36.194" height="25.998" rx="4" fill="url(#f)"/><rect x="86.185" width="36.194" height="25.998" rx="4" fill="url(#g)"/><rect x="92.812" y="32.115" width="36.194" height="25.998" rx="4" fill="url(#h)"/><rect x="99.439" y="64.231" width="36.194" height="25.998" rx="4" fill="url(#i)"/><defs><linearGradient id="a" x1="10.543" y1="87" x2="123.043" y2="0" gradientUnits="userSpaceOnUse"><stop stop-color="#6A11CB"/><stop offset="1" stop-color="#2575FC"/></linearGradient><linearGradient id="b" x1="16.043" y1="88.5" x2="124.043" y2="-1.5" gradientUnits="userSpaceOnUse"><stop stop-color="#6A11CB"/><stop offset="1" stop-color="#2575FC"/></linearGradient><linearGradient id="c" x1="13.543" y1="90" x2="123.043" y2="1.5" gradientUnits="userSpaceOnUse"><stop stop-color="#6A11CB"/><stop offset="1" stop-color="#2575FC"/></linearGradient><linearGradient id="d" x1="17.543" y1="91.5" x2="121.543" y2="0" gradientUnits="userSpaceOnUse"><stop stop-color="#6A11CB"/><stop offset="1" stop-color="#2575FC"/></linearGradient><linearGradient id="e" x1="17.544" y1="87" x2="120.043" y2="-1.5" gradientUnits="userSpaceOnUse"><stop stop-color="#6A11CB"/><stop offset="1" stop-color="#2575FC"/></linearGradient><linearGradient id="f" x1="13.543" y1="90" x2="121.543" y2="0" gradientUnits="userSpaceOnUse"><stop stop-color="#6A11CB"/><stop offset="1" stop-color="#2575FC"/></linearGradient><linearGradient id="g" x1="12.043" y1="88.5" x2="122.543" y2="0" gradientUnits="userSpaceOnUse"><stop stop-color="#6A11CB"/><stop offset="1" stop-color="#2575FC"/></linearGradient><linearGradient id="h" x1="14.543" y1="90" x2="120.043" y2="-1.5" gradientUnits="userSpaceOnUse"><stop stop-color="#6A11CB"/><stop offset="1" stop-color="#2575FC"/></linearGradient><linearGradient id="i" x1="17.544" y1="90" x2="127.044" y2="-2.5" gradientUnits="userSpaceOnUse"><stop stop-color="#6A11CB"/><stop offset="1" stop-color="#2575FC"/></linearGradient></defs></svg>