<svg width="136" height="91" viewBox="0 0 136 91" fill="none" xmlns="http://www.w3.org/2000/svg">
<rect x="0.543457" width="36.1936" height="25.9982" rx="4" fill="url(#paint0_linear_1_328)"/>
<rect x="7.17041" y="32.1152" width="36.1936" height="25.9982" rx="4" fill="url(#paint1_linear_1_328)"/>
<rect x="13.7974" y="64.2305" width="36.1936" height="25.9982" rx="4" fill="url(#paint2_linear_1_328)"/>
<rect x="43.364" width="36.1936" height="25.9982" rx="4" fill="url(#paint3_linear_1_328)"/>
<rect x="49.9911" y="32.1152" width="36.1936" height="25.9982" rx="4" fill="url(#paint4_linear_1_328)"/>
<rect x="56.618" y="64.2305" width="36.1936" height="25.9982" rx="4" fill="url(#paint5_linear_1_328)"/>
<rect x="86.1847" width="36.1936" height="25.9982" rx="4" fill="url(#paint6_linear_1_328)"/>
<rect x="92.8116" y="32.1152" width="36.1936" height="25.9982" rx="4" fill="url(#paint7_linear_1_328)"/>
<rect x="99.4387" y="64.2305" width="36.1936" height="25.9982" rx="4" fill="url(#paint8_linear_1_328)"/>
<defs>
<linearGradient id="paint0_linear_1_328" x1="10.5435" y1="87" x2="123.043" y2="3.74589e-07" gradientUnits="userSpaceOnUse">
<stop stop-color="#6A11CB"/>
<stop offset="1" stop-color="#2575FC"/>
</linearGradient>
<linearGradient id="paint1_linear_1_328" x1="16.0434" y1="88.5" x2="124.043" y2="-1.5" gradientUnits="userSpaceOnUse">
<stop stop-color="#6A11CB"/>
<stop offset="1" stop-color="#2575FC"/>
</linearGradient>
<linearGradient id="paint2_linear_1_328" x1="13.5434" y1="90" x2="123.043" y2="1.49999" gradientUnits="userSpaceOnUse">
<stop stop-color="#6A11CB"/>
<stop offset="1" stop-color="#2575FC"/>
</linearGradient>
<linearGradient id="paint3_linear_1_328" x1="17.5434" y1="91.5" x2="121.543" y2="3.68395e-06" gradientUnits="userSpaceOnUse">
<stop stop-color="#6A11CB"/>
<stop offset="1" stop-color="#2575FC"/>
</linearGradient>
<linearGradient id="paint4_linear_1_328" x1="17.5435" y1="87" x2="120.043" y2="-1.5" gradientUnits="userSpaceOnUse">
<stop stop-color="#6A11CB"/>
<stop offset="1" stop-color="#2575FC"/>
</linearGradient>
<linearGradient id="paint5_linear_1_328" x1="13.5435" y1="90" x2="121.543" y2="-3.27951e-06" gradientUnits="userSpaceOnUse">
<stop stop-color="#6A11CB"/>
<stop offset="1" stop-color="#2575FC"/>
</linearGradient>
<linearGradient id="paint6_linear_1_328" x1="12.0435" y1="88.5" x2="122.543" y2="-3.26041e-06" gradientUnits="userSpaceOnUse">
<stop stop-color="#6A11CB"/>
<stop offset="1" stop-color="#2575FC"/>
</linearGradient>
<linearGradient id="paint7_linear_1_328" x1="14.5435" y1="90" x2="120.043" y2="-1.49999" gradientUnits="userSpaceOnUse">
<stop stop-color="#6A11CB"/>
<stop offset="1" stop-color="#2575FC"/>
</linearGradient>
<linearGradient id="paint8_linear_1_328" x1="17.5435" y1="90" x2="127.044" y2="-2.5" gradientUnits="userSpaceOnUse">
<stop stop-color="#6A11CB"/>
<stop offset="1" stop-color="#2575FC"/>
</linearGradient>
</defs>
</svg>
