<svg width="52" height="51" fill="none" xmlns="http://www.w3.org/2000/svg"><g opacity=".7" stroke="#fff" stroke-width="3"><path d="M20.862 22.007a86.19 86.19 0 0 1 .039-5.17 89.96 89.96 0 0 1 4.584 2.552c1.178.708 2.297 1.434 3.192 2.11.945.715 1.469 1.25 1.647 1.552.179.304.389 1.015.547 2.176.15 1.098.231 2.411.267 3.766.05 1.87.012 3.76-.038 5.17a90.046 90.046 0 0 1-4.585-2.553c-1.178-.707-2.297-1.433-3.192-2.11-.945-.714-1.468-1.249-1.647-1.552-.178-.303-.388-1.015-.546-2.175-.15-1.098-.232-2.412-.268-3.766z"/><ellipse cx="26" cy="25.5" rx="19.5" ry="19.125"/></g></svg>