<svg width="35" height="48" fill="none" xmlns="http://www.w3.org/2000/svg"><path d="M11.287 37.106s-1.805 1.065 1.284 1.425c3.742.433 5.654.371 9.778-.42 0 0 1.084.689 2.598 1.286-9.244 4.02-20.921-.233-13.66-2.291zM10.157 31.86s-2.024 1.52 1.067 1.845c3.997.418 7.154.452 12.616-.615 0 0 .756.777 1.944 1.202-11.177 3.316-23.625.262-15.627-2.432z" fill="#5382A1"/><path d="M19.68 22.962c2.277 2.66-.599 5.055-.599 5.055s5.784-3.03 3.128-6.823c-2.481-3.538-4.384-5.296 5.915-11.356 0 0-16.165 4.097-8.444 13.124" fill="#E76F00"/><path d="M31.905 40.986s1.336 1.116-1.47 1.98c-5.336 1.64-22.208 2.136-26.895.066-1.685-.744 1.475-1.776 2.469-1.993 1.036-.228 1.629-.185 1.629-.185-1.874-1.34-12.111 2.63-5.2 3.766 18.847 3.102 34.356-1.396 29.467-3.634zM12.154 26.425s-8.582 2.069-3.039 2.82c2.34.317 7.006.245 11.352-.124 3.552-.304 7.118-.95 7.118-.95s-1.252.544-2.158 1.172c-8.715 2.325-25.551 1.244-20.704-1.136 4.099-2.01 7.431-1.782 7.431-1.782M27.55 35.157c8.859-4.671 4.763-9.16 1.904-8.555-.701.147-1.014.276-1.014.276s.26-.414.758-.593c5.655-2.018 10.005 5.951-1.826 9.107 0 0 .137-.124.178-.235z" fill="#5382A1"/><path d="M22.208.051s4.907 4.98-4.653 12.639c-7.666 6.143-1.748 9.646-.003 13.647-4.475-4.096-7.759-7.703-5.556-11.059C15.23 10.351 24.188 7.962 22.208.051" fill="#E76F00"/><path d="M13.025 47.815c8.504.552 21.562-.307 21.871-4.39 0 0-.594 1.549-7.027 2.778-7.259 1.386-16.21 1.224-21.52.335 0 0 1.087.913 6.676 1.277" fill="#5382A1"/></svg>