<svg width="150" height="100" viewBox="0 0 150 100" fill="none" xmlns="http://www.w3.org/2000/svg">
<path fill-rule="evenodd" clip-rule="evenodd" d="M137.438 81.6492C137.438 88.558 131.875 94.2107 125 94.2107H150C150 100.197 145.777 100.096 140.177 99.9624C139.314 99.9418 138.418 99.9204 137.5 99.9204H12.5C11.5821 99.9204 10.6865 99.9418 9.82355 99.9624C4.2235 100.096 0 100.197 0 94.2107H25C18.125 94.2107 12.5 88.558 12.5 81.6492V12.5614C12.5 5.65264 18.125 0 25 0H125C131.875 0 137.5 5.65264 137.5 12.5614L137.438 81.6492ZM76.9231 95.2107C78.5162 95.2107 80.8077 94 80.8077 91.326C80.8077 89 79.5 87.4414 76.9231 87.4414C74.5 87.4414 73.0385 89 73.0385 91.326C73.0385 93.6521 75.3299 95.2107 76.9231 95.2107Z" fill="url(#paint0_linear_501_45)"/>
<path d="M80.8077 91.326C80.8077 94 78.5162 95.2107 76.9231 95.2107C75.3299 95.2107 73.0385 93.6521 73.0385 91.326C73.0385 89 74.5 87.4414 76.9231 87.4414C79.5 87.4414 80.8077 89 80.8077 91.326Z" fill="url(#paint1_linear_501_45)"/>
<path d="M75.2497 84.7532C94.7176 84.7532 110.499 68.9714 110.499 49.5035C110.499 30.0356 94.7176 14.2538 75.2497 14.2538C55.7818 14.2538 40 30.0356 40 49.5035C40 68.9714 55.7818 84.7532 75.2497 84.7532Z" stroke="#0F111D" stroke-width="6" stroke-linecap="round" stroke-linejoin="round"/>
<path d="M75.2543 84.7533V14.2493M40 49.5036H110.499H40ZM44.808 31.736H105.696H44.808ZM44.8126 67.2666H105.696H44.8126Z" stroke="#0F111D" stroke-width="6" stroke-linecap="round" stroke-linejoin="round"/>
<path d="M75.2496 84.7532C85.0598 84.7532 93.0126 68.9714 93.0126 49.5035C93.0126 30.0356 85.0598 14.2538 75.2496 14.2538C65.4393 14.2538 57.4866 30.0356 57.4866 49.5035C57.4866 68.9714 65.4393 84.7532 75.2496 84.7532Z" stroke="#0F111D" stroke-width="6" stroke-linecap="round" stroke-linejoin="round"/>
<defs>
<linearGradient id="paint0_linear_501_45" x1="75" y1="0" x2="75" y2="100" gradientUnits="userSpaceOnUse">
<stop stop-color="#FDA283"/>
<stop offset="1" stop-color="#F7CF67"/>
</linearGradient>
<linearGradient id="paint1_linear_501_45" x1="75" y1="0" x2="75" y2="100" gradientUnits="userSpaceOnUse">
<stop stop-color="#FDA283"/>
<stop offset="1" stop-color="#F7CF67"/>
</linearGradient>
</defs>
</svg>
