<svg width="32" height="28" fill="none" xmlns="http://www.w3.org/2000/svg"><path d="M26.31 9.066c-.34-.115-.684-.221-1.03-.319.058-.233.112-.464.16-.69.78-3.719.27-6.715-1.472-7.701-1.669-.946-4.4.04-7.156 2.398-.272.233-.538.472-.797.718-.174-.164-.35-.324-.53-.481C12.595.47 9.698-.592 7.959.397c-1.668.949-2.162 3.765-1.46 7.29.07.348.15.696.237 1.04-.41.115-.806.237-1.184.367C2.164 10.254 0 12.073 0 13.959c0 1.949 2.323 3.903 5.851 5.088.287.095.575.184.866.266-.095.371-.179.745-.252 1.122-.669 3.463-.146 6.213 1.517 7.155 1.718.974 4.602-.027 7.41-2.438.227-.196.45-.398.667-.605.28.267.57.525.865.776 2.72 2.299 5.406 3.227 7.067 2.282 1.717-.976 2.275-3.93 1.55-7.524a17.535 17.535 0 0 0-.191-.84c.202-.06.4-.12.595-.183C29.613 17.864 32 15.934 32 13.96c0-1.893-2.233-3.724-5.69-4.893zm-.795 8.717a18.41 18.41 0 0 1-.538.166 31.196 31.196 0 0 0-1.62-3.983 31.17 31.17 0 0 0 1.557-3.925c.328.093.645.191.951.295 2.962 1.002 4.768 2.482 4.768 3.623 0 1.216-1.95 2.793-5.118 3.824zM24.2 20.342c.32 1.59.365 3.026.153 4.15-.19 1.009-.573 1.681-1.047 1.951-1.009.573-3.165-.172-5.491-2.138a19.497 19.497 0 0 1-.805-.721 31.61 31.61 0 0 0 2.682-3.346 32.428 32.428 0 0 0 4.334-.657c.066.26.123.513.174.761zm-13.292 6.002c-.985.342-1.77.351-2.244.083-1.01-.572-1.429-2.78-.856-5.742.068-.35.145-.698.233-1.043 1.31.285 2.762.49 4.312.613a32.815 32.815 0 0 0 2.747 3.334c-.198.189-.402.373-.61.552-1.24 1.066-2.485 1.823-3.582 2.203zm-4.615-8.568c-1.56-.524-2.85-1.205-3.732-1.948-.794-.668-1.195-1.33-1.195-1.869 0-1.145 1.737-2.605 4.635-3.597.351-.12.72-.234 1.101-.34.4 1.279.926 2.617 1.56 3.97a32.364 32.364 0 0 0-1.58 4.027 17.074 17.074 0 0 1-.79-.243zM7.84 7.428c-.601-3.02-.202-5.297.803-5.869 1.07-.608 3.438.26 5.933 2.436.163.143.323.288.48.436-.93.98-1.848 2.097-2.726 3.314a33.951 33.951 0 0 0-4.27.652 19.401 19.401 0 0 1-.22-.969zm13.803 3.349a42.56 42.56 0 0 0-.973-1.572c1.021.126 2 .295 2.918.5a28.34 28.34 0 0 1-1.024 2.708 46.72 46.72 0 0 0-.92-1.636zM16.015 5.39c.63.672 1.262 1.42 1.883 2.234a40.974 40.974 0 0 0-3.782 0 29.748 29.748 0 0 1 1.9-2.234zm-5.665 5.396a39.442 39.442 0 0 0-.903 1.626 29.308 29.308 0 0 1-1.017-2.72c.913-.201 1.887-.365 2.901-.49a39.3 39.3 0 0 0-.98 1.584zm1.01 8.026a29.55 29.55 0 0 1-2.949-.466c.283-.896.63-1.828 1.037-2.775a39.29 39.29 0 0 0 1.912 3.24zm4.693 3.81a30.22 30.22 0 0 1-1.925-2.263c.613.023 1.237.035 1.872.035.652 0 1.297-.014 1.932-.042a28.66 28.66 0 0 1-1.879 2.27zm6.525-7.1a28.2 28.2 0 0 1 1.074 2.766c-.927.208-1.93.375-2.985.5.339-.527.666-1.06.983-1.6.322-.548.631-1.104.928-1.666zm-2.112.995a43.907 43.907 0 0 1-1.536 2.434c-.975.067-1.952.101-2.93.1-.996 0-1.964-.03-2.897-.09a37.534 37.534 0 0 1-2.93-4.97 37.634 37.634 0 0 1 2.913-4.961 39.172 39.172 0 0 1 5.833 0 40.35 40.35 0 0 1 1.542 2.42 43.7 43.7 0 0 1 1.38 2.522 40.14 40.14 0 0 1-1.375 2.545zm2.82-14.998c1.071.608 1.488 3.056.815 6.267-.043.205-.092.413-.144.625a33.268 33.268 0 0 0-4.279-.664 31.631 31.631 0 0 0-2.705-3.317c.24-.227.485-.448.736-.663 2.363-2.02 4.57-2.818 5.577-2.248zM16 11.152c1.578 0 2.858 1.257 2.858 2.807s-1.28 2.808-2.858 2.808-2.857-1.257-2.857-2.808c0-1.55 1.279-2.807 2.857-2.807z" fill="#00D8FF"/></svg>