<svg width="32" height="31" fill="none" xmlns="http://www.w3.org/2000/svg"><g clip-path="url(#a)"><path d="M22.173 21.564c1.18-.124 2.076-1.159 2.036-2.4-.041-1.242-1.06-2.235-2.28-2.235h-.082c-1.263.041-2.24 1.117-2.2 2.4.042.621.286 1.16.652 1.532-1.384 2.773-3.502 4.801-6.678 6.498-2.158 1.159-4.398 1.573-6.637 1.283-1.833-.248-3.258-1.076-4.154-2.442-1.303-2.028-1.425-4.222-.326-6.415.774-1.573 1.996-2.732 2.77-3.312a22.616 22.616 0 0 1-.53-2.11C-1.161 18.709-.55 24.586 1.242 27.358c1.344 2.07 4.072 3.353 7.085 3.353.815 0 1.63-.083 2.444-.29 5.212-1.035 9.162-4.18 11.402-8.858zm7.167-5.132c-3.095-3.684-7.656-5.712-12.868-5.712h-.652a2.234 2.234 0 0 0-1.995-1.242h-.082c-1.262.042-2.24 1.118-2.199 2.401.041 1.242 1.06 2.235 2.28 2.235h.082a2.295 2.295 0 0 0 1.995-1.407h.733c3.095 0 6.027.91 8.674 2.69 2.036 1.366 3.502 3.146 4.317 5.298.692 1.739.651 3.436-.082 4.884-1.14 2.194-3.054 3.394-5.579 3.394-1.628 0-3.176-.496-3.99-.869a24.097 24.097 0 0 1-1.833 1.49c1.751.828 3.543 1.283 5.253 1.283 3.91 0 6.8-2.194 7.9-4.387 1.181-2.4 1.1-6.54-1.954-10.058zM8.653 22.268c.04 1.242 1.059 2.235 2.28 2.235h.082c1.262-.041 2.24-1.118 2.199-2.4-.04-1.242-1.059-2.236-2.28-2.236h-.082c-.081 0-.204 0-.285.042-1.67-2.815-2.362-5.878-2.117-9.189.162-2.483.977-4.636 2.402-6.416 1.181-1.531 3.461-2.276 5.009-2.317 4.316-.083 6.149 5.38 6.27 7.574.53.124 1.426.414 2.037.621C23.679 3.477 19.608 0 15.698 0c-3.665 0-7.045 2.69-8.389 6.664-1.873 5.298-.651 10.389 1.63 14.404-.204.29-.327.745-.286 1.2z" fill="#764ABC"/></g><defs><clipPath id="a"><path fill="#fff" d="M0 0h32v31H0z"/></clipPath></defs></svg>