<svg width="274" height="1119" fill="none" xmlns="http://www.w3.org/2000/svg"><rect y="235" width="108.071" height="25.998" rx="4" fill="url(#a)"/><rect x="6.627" y="267.115" width="107.561" height="25.998" rx="4" fill="url(#b)"/><rect x="13.254" y="299.23" width="108.071" height="25.998" rx="4" fill="url(#c)"/><path d="M1.782 343.629h9.81v1.926H4.086v3.096h3.726c1.512 0 2.658.318 3.438.954.792.624 1.188 1.53 1.188 2.718 0 1.248-.432 2.214-1.296 2.898-.864.672-2.094 1.008-3.69 1.008h-5.67v-12.6Zm5.544 10.8c.9 0 1.584-.174 2.052-.522.468-.348.702-.852.702-1.512 0-1.296-.918-1.944-2.754-1.944h-3.24v3.978h3.24Zm11.958-10.98c1.224 0 2.322.282 3.294.846a5.907 5.907 0 0 1 2.304 2.304c.552.984.828 2.094.828 3.33 0 1.236-.276 2.346-.828 3.33a6.033 6.033 0 0 1-2.304 2.322c-.972.552-2.07.828-3.294.828-1.068 0-2.04-.18-2.916-.54a5.58 5.58 0 0 1-2.16-1.566l1.476-1.44c.924.996 2.082 1.494 3.474 1.494 1.08 0 1.992-.33 2.736-.99.756-.66 1.218-1.53 1.386-2.61h-5.634v-1.854h5.598c-.204-1.02-.678-1.842-1.422-2.466-.732-.624-1.62-.936-2.664-.936-1.392 0-2.55.498-3.474 1.494l-1.476-1.44a5.58 5.58 0 0 1 2.16-1.566c.876-.36 1.848-.54 2.916-.54Zm14.22 7.47h-2.34v5.31H28.86v-12.6h2.304v5.274h2.412l3.618-5.274h2.484l-4.302 6.102 4.464 6.498h-2.646l-3.69-5.31Zm19.527-7.29v12.6h-2.304v-10.62h-4.968l-.108 3.15c-.06 1.764-.204 3.198-.432 4.302-.228 1.092-.594 1.926-1.098 2.502-.504.564-1.2.846-2.088.846-.312 0-.738-.06-1.278-.18l.162-2.034c.156.048.336.072.54.072.732 0 1.248-.432 1.548-1.296.312-.876.504-2.25.576-4.122l.18-5.22h9.27Zm9.916 12.78c-1.284 0-2.442-.276-3.474-.828a6.283 6.283 0 0 1-2.43-2.322c-.588-.996-.882-2.106-.882-3.33 0-1.224.294-2.328.882-3.312a6.116 6.116 0 0 1 2.43-2.322c1.032-.564 2.19-.846 3.474-.846 1.284 0 2.442.282 3.474.846a6.154 6.154 0 0 1 2.43 2.304c.588.984.882 2.094.882 3.33 0 1.236-.294 2.346-.882 3.33a6.283 6.283 0 0 1-2.43 2.322c-1.032.552-2.19.828-3.474.828Zm0-2.052c.84 0 1.596-.186 2.268-.558a4.183 4.183 0 0 0 1.584-1.584c.384-.684.576-1.446.576-2.286 0-.84-.192-1.596-.576-2.268a4.022 4.022 0 0 0-1.584-1.584c-.672-.384-1.428-.576-2.268-.576-.84 0-1.596.192-2.268.576-.672.372-1.2.9-1.584 1.584-.384.672-.576 1.428-.576 2.268 0 .84.192 1.602.576 2.286.384.672.912 1.2 1.584 1.584.672.372 1.428.558 2.268.558Zm18.463-8.748h-6.245l.017 10.62H72.88v-12.6h8.55l-.019 1.98Zm-73.85 32.8c-1.272 0-2.424-.276-3.456-.828a6.318 6.318 0 0 1-2.412-2.322c-.576-.984-.864-2.094-.864-3.33 0-1.236.294-2.346.882-3.33a6.187 6.187 0 0 1 2.412-2.304c1.032-.564 2.184-.846 3.456-.846 1.032 0 1.974.18 2.826.54.852.36 1.572.882 2.16 1.566l-1.512 1.422c-.912-.984-2.034-1.476-3.366-1.476-.864 0-1.638.192-2.322.576a4.023 4.023 0 0 0-1.602 1.566c-.384.672-.576 1.434-.576 2.286 0 .852.192 1.614.576 2.286.384.672.918 1.2 1.602 1.584.684.372 1.458.558 2.322.558 1.332 0 2.454-.498 3.366-1.494l1.512 1.44a5.734 5.734 0 0 1-2.178 1.566c-.852.36-1.794.54-2.826.54Zm18.877-12.78v12.6h-2.304v-10.62h-6.534v10.62h-2.304v-12.6h11.142Zm9.277 0c1.092 0 2.04.18 2.843.54.816.36 1.44.876 1.872 1.548.432.672.648 1.47.648 2.394 0 .912-.215 1.71-.648 2.394-.431.672-1.056 1.188-1.872 1.548-.803.36-1.752.54-2.843.54H32.87v3.636h-2.34v-12.6h5.184Zm-.108 6.984c1.02 0 1.794-.216 2.322-.648.528-.432.791-1.05.791-1.854s-.264-1.422-.791-1.854c-.528-.432-1.302-.648-2.322-.648H32.87v5.004h2.736Zm8.243-6.984h2.304v8.946l6.768-8.946H55.1v12.6h-2.304v-8.928l-6.768 8.928H43.85v-12.6Zm26.519 0v12.6h-2.34v-5.4h-6.516v5.4h-2.34v-12.6h2.34v5.202h6.516v-5.202h2.34Zm13.219 1.98H79.41v10.62h-2.322v-10.62h-4.157v-1.98h10.656v1.98Zm10.277 7.704h-6.3l-1.242 2.916H83.91l5.67-12.6h2.304l5.688 12.6h-2.448l-1.26-2.916Zm-.774-1.836-2.376-5.508-2.358 5.508h4.734ZM1.782 108.629h9.81v1.926H4.086v3.096h3.726c1.512 0 2.658.318 3.438.954.792.624 1.188 1.53 1.188 2.718 0 1.248-.432 2.214-1.296 2.898-.864.672-2.094 1.008-3.69 1.008h-5.67v-12.6Zm5.544 10.8c.9 0 1.584-.174 2.052-.522.468-.348.702-.852.702-1.512 0-1.296-.918-1.944-2.754-1.944h-3.24v3.978h3.24Zm11.958-10.98c1.224 0 2.322.282 3.294.846a5.907 5.907 0 0 1 2.304 2.304c.552.984.828 2.094.828 3.33 0 1.236-.276 2.346-.828 3.33a6.033 6.033 0 0 1-2.304 2.322c-.972.552-2.07.828-3.294.828-1.068 0-2.04-.18-2.916-.54a5.58 5.58 0 0 1-2.16-1.566l1.476-1.44c.924.996 2.082 1.494 3.474 1.494 1.08 0 1.992-.33 2.736-.99.756-.66 1.218-1.53 1.386-2.61h-5.634v-1.854h5.598c-.204-1.02-.678-1.842-1.422-2.466-.732-.624-1.62-.936-2.664-.936-1.392 0-2.55.498-3.474 1.494l-1.476-1.44a5.58 5.58 0 0 1 2.16-1.566c.876-.36 1.848-.54 2.916-.54Zm14.22 7.47h-2.34v5.31H28.86v-12.6h2.304v5.274h2.412l3.618-5.274h2.484l-4.302 6.102 4.464 6.498h-2.646l-3.69-5.31Zm19.527-7.29v12.6h-2.304v-10.62h-4.968l-.108 3.15c-.06 1.764-.204 3.198-.432 4.302-.228 1.092-.594 1.926-1.098 2.502-.504.564-1.2.846-2.088.846-.312 0-.738-.06-1.278-.18l.162-2.034c.156.048.336.072.54.072.732 0 1.248-.432 1.548-1.296.312-.876.504-2.25.576-4.122l.18-5.22h9.27Zm9.916 12.78c-1.284 0-2.442-.276-3.474-.828a6.283 6.283 0 0 1-2.43-2.322c-.588-.996-.882-2.106-.882-3.33 0-1.224.294-2.328.882-3.312a6.116 6.116 0 0 1 2.43-2.322c1.032-.564 2.19-.846 3.474-.846 1.284 0 2.442.282 3.474.846a6.154 6.154 0 0 1 2.43 2.304c.588.984.882 2.094.882 3.33 0 1.236-.294 2.346-.882 3.33a6.283 6.283 0 0 1-2.43 2.322c-1.032.552-2.19.828-3.474.828Zm0-2.052c.84 0 1.596-.186 2.268-.558a4.183 4.183 0 0 0 1.584-1.584c.384-.684.576-1.446.576-2.286 0-.84-.192-1.596-.576-2.268a4.022 4.022 0 0 0-1.584-1.584c-.672-.384-1.428-.576-2.268-.576-.84 0-1.596.192-2.268.576-.672.372-1.2.9-1.584 1.584-.384.672-.576 1.428-.576 2.268 0 .84.192 1.602.576 2.286.384.672.912 1.2 1.584 1.584.672.372 1.428.558 2.268.558Zm18.463-8.748h-6.245l.017 10.62H72.88v-12.6h8.55l-.019 1.98Zm-68.486 20.02v12.6H10.62v-10.62H4.086v10.62H1.782v-12.6h11.142Zm9.277 0c1.092 0 2.04.18 2.844.54.816.36 1.44.876 1.872 1.548.432.672.648 1.47.648 2.394 0 .912-.216 1.71-.648 2.394-.432.672-1.056 1.188-1.872 1.548-.804.36-1.752.54-2.844.54h-2.844v3.636h-2.34v-12.6H22.2Zm-.108 6.984c1.02 0 1.794-.216 2.322-.648.528-.432.792-1.05.792-1.854s-.264-1.422-.792-1.854c-.528-.432-1.302-.648-2.322-.648h-2.736v5.004h2.736Zm14.233 5.796c-1.284 0-2.442-.276-3.474-.828a6.283 6.283 0 0 1-2.43-2.322c-.588-.996-.882-2.106-.882-3.33 0-1.224.294-2.328.882-3.312a6.116 6.116 0 0 1 2.43-2.322c1.032-.564 2.19-.846 3.474-.846 1.284 0 2.442.282 3.474.846a6.154 6.154 0 0 1 2.43 2.304c.588.984.882 2.094.882 3.33 0 1.236-.294 2.346-.882 3.33a6.283 6.283 0 0 1-2.43 2.322c-1.032.552-2.19.828-3.474.828Zm0-2.052c.84 0 1.596-.186 2.268-.558a4.183 4.183 0 0 0 1.584-1.584c.384-.684.576-1.446.576-2.286 0-.84-.192-1.596-.576-2.268a4.022 4.022 0 0 0-1.584-1.584c-.672-.384-1.428-.576-2.268-.576-.84 0-1.596.192-2.268.576-.672.372-1.2.9-1.584 1.584-.384.672-.576 1.428-.576 2.268 0 .84.192 1.602.576 2.286.384.672.912 1.2 1.584 1.584.672.372 1.428.558 2.268.558Zm19.364-.09v1.962h-9.45v-12.6h9.197v1.962H48.58v3.276h6.084v1.926H48.58v3.474h7.11Zm7.792-3.348h-2.34v5.31h-2.304v-12.6h2.304v5.274h2.412l3.618-5.274h2.484l-4.302 6.102 4.464 6.498h-2.646l-3.69-5.31Zm17.485-5.31h-4.176v10.62H74.47v-10.62h-4.158v-1.98h10.656v1.98Zm10.278 7.704h-6.3l-1.242 2.916H81.29l5.67-12.6h2.304l5.688 12.6h-2.448l-1.26-2.916Zm-.774-1.836-2.376-5.508-2.358 5.508h4.734Z" fill="#F4F4F4"/><rect width="36.194" height="25.998" rx="4" fill="url(#d)"/><rect x="6.627" y="32.115" width="36.194" height="25.998" rx="4" fill="url(#e)"/><rect x="13.254" y="64.231" width="36.194" height="25.998" rx="4" fill="url(#f)"/><rect x="42.821" width="36.194" height="25.998" rx="4" fill="url(#g)"/><rect x="49.448" y="32.115" width="36.194" height="25.998" rx="4" fill="url(#h)"/><rect x="56.075" y="64.231" width="36.194" height="25.998" rx="4" fill="url(#i)"/><rect x="85.641" width="36.194" height="25.998" rx="4" fill="url(#j)"/><rect x="92.268" y="32.115" width="36.194" height="25.998" rx="4" fill="url(#k)"/><rect x="98.895" y="64.231" width="36.194" height="25.998" rx="4" fill="url(#l)"/><path d="m62 215 8.66-15H53.34L62 215Zm-1.5-47v33.5h3V168h-3Z" fill="url(#m)"/><path d="m62 450 8.66-15H53.34L62 450Zm-1.5-47v33.5h3V403h-3Z" fill="url(#n)"/><path d="m62 929 8.66-15H53.34L62 929Zm-1.5-47v33.5h3V882h-3Z" fill="url(#o)"/><path d="M7.948 1057.4c1.092 0 2.04.18 2.844.54.816.36 1.44.88 1.872 1.55.432.67.648 1.47.648 2.39 0 .91-.216 1.71-.648 2.4-.432.67-1.056 1.18-1.872 1.54-.804.36-1.752.54-2.844.54H5.104v3.64h-2.34v-12.6h5.184Zm-.108 6.98c1.02 0 1.794-.21 2.322-.64.528-.44.792-1.05.792-1.86 0-.8-.264-1.42-.792-1.85-.528-.43-1.302-.65-2.322-.65H5.104v5H7.84Zm15.945 2.7h-6.3l-1.242 2.92H13.83l5.67-12.6h2.304l5.688 12.6h-2.448l-1.26-2.92Zm-.774-1.83-2.376-5.51-2.358 5.51h4.734Zm6.972-7.85h9.81v1.93h-7.506v3.09h3.726c1.512 0 2.658.32 3.438.96.792.62 1.188 1.53 1.188 2.71 0 1.25-.432 2.22-1.296 2.9-.864.67-2.094 1.01-3.69 1.01h-5.67v-12.6Zm5.544 10.8c.9 0 1.584-.17 2.052-.52.468-.35.702-.85.702-1.51 0-1.3-.918-1.95-2.754-1.95h-3.24v3.98h3.24Zm14.046 1.98c-1.284 0-2.442-.28-3.474-.83a6.278 6.278 0 0 1-2.43-2.32c-.588-1-.882-2.11-.882-3.33 0-1.22.294-2.33.882-3.31a6.07 6.07 0 0 1 2.43-2.32c1.032-.57 2.19-.85 3.474-.85 1.284 0 2.442.28 3.474.85a6.159 6.159 0 0 1 2.43 2.3c.588.98.882 2.09.882 3.33 0 1.24-.294 2.35-.882 3.33a6.278 6.278 0 0 1-2.43 2.32c-1.032.55-2.19.83-3.474.83Zm0-2.05c.84 0 1.596-.19 2.268-.56.672-.38 1.2-.91 1.584-1.58a4.62 4.62 0 0 0 .576-2.29c0-.84-.192-1.6-.576-2.27a4.025 4.025 0 0 0-1.584-1.58c-.672-.39-1.428-.58-2.268-.58-.84 0-1.596.19-2.268.58-.672.37-1.2.9-1.584 1.58-.384.67-.576 1.43-.576 2.27 0 .84.192 1.6.576 2.29.384.67.912 1.2 1.584 1.58.672.37 1.428.56 2.268.56Zm18.882-8.75h-4.176V1070h-2.322v-10.62h-4.158v-1.98h10.656v1.98Zm10.277 7.7h-6.3L71.19 1070h-2.412l5.67-12.6h2.304l5.688 12.6h-2.448l-1.26-2.92Zm-.774-1.83-2.376-5.51-2.358 5.51h4.734Zm17.736-8.03c1.236 0 2.346.28 3.33.85a6.003 6.003 0 0 1 2.34 2.3c.564.98.846 2.09.846 3.33 0 1.24-.282 2.35-.846 3.33a6.122 6.122 0 0 1-2.34 2.32c-.984.55-2.094.83-3.33.83-1.128 0-2.16-.23-3.096-.7a6.238 6.238 0 0 1-2.286-1.96c-.588-.84-.954-1.8-1.098-2.87h-1.98v5.35H84.93v-12.6h2.304v5.17h2.016a6.354 6.354 0 0 1 1.134-2.78 6.19 6.19 0 0 1 2.268-1.89 6.857 6.857 0 0 1 3.042-.68Zm0 10.91c.78 0 1.488-.19 2.124-.56a3.862 3.862 0 0 0 1.494-1.57c.36-.67.54-1.44.54-2.3 0-.86-.18-1.63-.54-2.3-.36-.68-.858-1.2-1.494-1.57a4.15 4.15 0 0 0-2.124-.56c-.78 0-1.488.19-2.124.56-.624.37-1.122.89-1.494 1.57-.36.67-.54 1.44-.54 2.3 0 .86.18 1.63.54 2.3.372.68.87 1.2 1.494 1.57a4.15 4.15 0 0 0 2.124.56Zm25.874-10.73v12.6h-16.182v-12.6h2.304v10.62h4.644v-10.62h2.304v10.62h4.626v-10.62h2.304Zm1.818 10.62v4.66h-2.16V1070h-2.016v-1.98h4.176Zm12.24.02v1.96h-9.45v-12.6h9.198v1.96h-6.858v3.28h6.084v1.92h-6.084v3.48h7.11Zm12.598 0v1.96h-9.45v-12.6h9.198v1.96h-6.858v3.28h6.084v1.92h-6.084v3.48h7.11Zm-134.3 11.36v12.6H11.62v-10.62H5.086V1092H2.782v-12.6h11.142Zm9.925 12.78c-1.284 0-2.442-.28-3.474-.83a6.278 6.278 0 0 1-2.43-2.32c-.588-1-.882-2.11-.882-3.33 0-1.22.294-2.33.882-3.31a6.07 6.07 0 0 1 2.43-2.32c1.032-.57 2.19-.85 3.474-.85 1.284 0 2.442.28 3.474.85a6.159 6.159 0 0 1 2.43 2.3c.588.98.882 2.09.882 3.33 0 1.24-.294 2.35-.882 3.33a6.278 6.278 0 0 1-2.43 2.32c-1.032.55-2.19.83-3.474.83Zm0-2.05c.84 0 1.596-.19 2.268-.56.672-.38 1.2-.91 1.584-1.58a4.62 4.62 0 0 0 .576-2.29c0-.84-.192-1.6-.576-2.27a4.025 4.025 0 0 0-1.584-1.58c-.672-.39-1.428-.58-2.268-.58-.84 0-1.596.19-2.268.58-.672.37-1.2.9-1.584 1.58-.384.67-.576 1.43-.576 2.27 0 .84.192 1.6.576 2.29.384.67.912 1.2 1.584 1.58.672.37 1.428.56 2.268.56Zm21.224 2.05c-1.272 0-2.424-.28-3.456-.83a6.313 6.313 0 0 1-2.412-2.32c-.576-.98-.864-2.09-.864-3.33 0-1.24.294-2.35.882-3.33a6.19 6.19 0 0 1 2.412-2.3c1.032-.57 2.184-.85 3.456-.85 1.032 0 1.974.18 2.826.54a5.71 5.71 0 0 1 2.16 1.57l-1.512 1.42c-.912-.99-2.034-1.48-3.366-1.48-.864 0-1.638.19-2.322.58-.684.37-1.218.89-1.602 1.56-.384.68-.576 1.44-.576 2.29 0 .85.192 1.61.576 2.29.384.67.918 1.2 1.602 1.58.684.37 1.458.56 2.322.56 1.332 0 2.454-.5 3.366-1.5l1.512 1.44a5.68 5.68 0 0 1-2.178 1.57c-.852.36-1.794.54-2.826.54ZM69.5 1079.4v12.6h-2.34v-5.4h-6.516v5.4h-2.34v-12.6h2.34v5.2h6.516v-5.2h2.34Zm9.906 12.78c-1.284 0-2.442-.28-3.474-.83a6.278 6.278 0 0 1-2.43-2.32c-.588-1-.882-2.11-.882-3.33 0-1.22.294-2.33.882-3.31a6.07 6.07 0 0 1 2.43-2.32c1.032-.57 2.19-.85 3.474-.85 1.284 0 2.442.28 3.474.85a6.159 6.159 0 0 1 2.43 2.3c.588.98.882 2.09.882 3.33 0 1.24-.294 2.35-.882 3.33a6.278 6.278 0 0 1-2.43 2.32c-1.032.55-2.19.83-3.474.83Zm0-2.05c.84 0 1.596-.19 2.268-.56.672-.38 1.2-.91 1.584-1.58a4.62 4.62 0 0 0 .576-2.29c0-.84-.192-1.6-.576-2.27a4.025 4.025 0 0 0-1.584-1.58c-.672-.39-1.428-.58-2.268-.58-.84 0-1.596.19-2.268.58-.672.37-1.2.9-1.584 1.58-.384.67-.576 1.43-.576 2.27 0 .84.192 1.6.576 2.29.384.67.912 1.2 1.584 1.58.672.37 1.428.56 2.268.56Zm18.211-4.68c.804.21 1.416.59 1.836 1.11.42.52.63 1.17.63 1.95 0 1.1-.408 1.96-1.224 2.57-.816.61-1.998.92-3.546.92h-5.976v-12.6h5.634c1.416 0 2.52.28 3.312.85.792.56 1.188 1.36 1.188 2.39 0 .66-.162 1.23-.486 1.71-.312.48-.768.85-1.368 1.1Zm-5.976-.67h3.132c.756 0 1.332-.15 1.728-.45.396-.3.594-.74.594-1.33 0-.59-.198-1.03-.594-1.33-.396-.31-.972-.47-1.728-.47h-3.132v3.58Zm3.6 5.42c1.656 0 2.484-.62 2.484-1.87 0-1.23-.828-1.84-2.484-1.84h-3.6v3.71h3.6Zm13.862-6.53c1.512 0 2.67.34 3.474 1.02.816.67 1.224 1.68 1.224 3.01 0 1.39-.444 2.46-1.332 3.2-.888.73-2.136 1.1-3.744 1.1h-5.418v-12.6h2.304v4.27h3.492Zm-.486 6.53c.912 0 1.614-.21 2.106-.63.492-.42.738-1.03.738-1.84 0-1.52-.948-2.28-2.844-2.28h-3.006v4.75h3.006Zm7.002-10.8h2.304v12.6h-2.304v-12.6Zm17.96 12.6-.018-8.35-4.14 6.91h-1.044l-4.14-6.8v8.24h-2.214v-12.6h1.926l4.986 8.33 4.932-8.33h1.908l.036 12.6h-2.232Zm6.316-12.6h2.304v8.95l6.768-8.95h2.178v12.6h-2.304v-8.93l-6.768 8.93h-2.178v-12.6Zm-128.833 28.05c.804.21 1.416.59 1.836 1.11.42.52.63 1.17.63 1.95 0 1.1-.408 1.96-1.224 2.57-.816.61-1.998.92-3.546.92H2.782v-12.6h5.634c1.416 0 2.52.28 3.312.85.792.56 1.188 1.36 1.188 2.39 0 .66-.162 1.23-.486 1.71-.312.48-.768.85-1.368 1.1Zm-5.976-.67h3.132c.756 0 1.332-.15 1.728-.45.396-.3.594-.74.594-1.33 0-.59-.198-1.03-.594-1.33-.396-.31-.972-.47-1.728-.47H5.086v3.58Zm3.6 5.42c1.656 0 2.484-.62 2.484-1.87 0-1.23-.828-1.84-2.484-1.84h-3.6v3.71h3.6Zm13.88 1.98c-1.284 0-2.442-.28-3.474-.83a6.278 6.278 0 0 1-2.43-2.32c-.588-1-.882-2.11-.882-3.33 0-1.22.294-2.33.882-3.31a6.07 6.07 0 0 1 2.43-2.32c1.032-.57 2.19-.85 3.474-.85 1.284 0 2.442.28 3.474.85a6.159 6.159 0 0 1 2.43 2.3c.588.98.882 2.09.882 3.33 0 1.24-.294 2.35-.882 3.33a6.278 6.278 0 0 1-2.43 2.32c-1.032.55-2.19.83-3.474.83Zm0-2.05c.84 0 1.596-.19 2.268-.56.672-.38 1.2-.91 1.584-1.58a4.62 4.62 0 0 0 .576-2.29c0-.84-.192-1.6-.576-2.27a4.025 4.025 0 0 0-1.584-1.58c-.672-.39-1.428-.58-2.268-.58-.84 0-1.596.19-2.268.58-.672.37-1.2.9-1.584 1.58-.384.67-.576 1.43-.576 2.27 0 .84.192 1.6.576 2.29.384.67.912 1.2 1.584 1.58.672.37 1.428.56 2.268.56Zm16.185-4.7c.756.24 1.344.63 1.764 1.17.432.53.648 1.15.648 1.87 0 .76-.246 1.42-.738 1.98-.492.55-1.152.98-1.98 1.28-.816.3-1.71.45-2.682.45-.84 0-1.686-.11-2.538-.34-.84-.24-1.62-.6-2.34-1.06l.756-1.71c.552.37 1.164.66 1.836.86.672.19 1.338.29 1.998.29.948 0 1.734-.19 2.358-.56.636-.37.954-.88.954-1.53 0-.55-.228-.97-.684-1.26-.456-.29-1.086-.43-1.89-.43H33.28v-1.84h2.754c.696 0 1.242-.14 1.638-.43.396-.29.594-.68.594-1.17 0-.59-.27-1.04-.81-1.37-.528-.32-1.206-.48-2.034-.48-.564 0-1.146.08-1.746.25-.6.15-1.164.39-1.692.7l-.738-1.89a7.919 7.919 0 0 1 2.052-.77 9.095 9.095 0 0 1 2.178-.27c.936 0 1.794.14 2.574.43.792.29 1.422.7 1.89 1.24.468.53.702 1.15.702 1.87 0 .63-.168 1.17-.504 1.64-.336.47-.798.83-1.386 1.08Zm17.18 6.57-.018-8.35-4.14 6.91h-1.044l-4.14-6.8v8.24h-2.214v-12.6H46.3l4.986 8.33 4.932-8.33h1.908l.036 12.6H55.93Zm12.13.18c-1.284 0-2.442-.28-3.474-.83a6.278 6.278 0 0 1-2.43-2.32c-.588-1-.882-2.11-.882-3.33 0-1.22.294-2.33.882-3.31a6.07 6.07 0 0 1 2.43-2.32c1.032-.57 2.19-.85 3.474-.85 1.284 0 2.442.28 3.474.85a6.159 6.159 0 0 1 2.43 2.3c.588.98.882 2.09.882 3.33 0 1.24-.294 2.35-.882 3.33a6.278 6.278 0 0 1-2.43 2.32c-1.032.55-2.19.83-3.474.83Zm0-2.05c.84 0 1.596-.19 2.268-.56.672-.38 1.2-.91 1.584-1.58a4.62 4.62 0 0 0 .576-2.29c0-.84-.192-1.6-.576-2.27a4.025 4.025 0 0 0-1.584-1.58c-.672-.39-1.428-.58-2.268-.58-.84 0-1.596.19-2.268.58-.672.37-1.2.9-1.584 1.58-.384.67-.576 1.43-.576 2.27 0 .84.192 1.6.576 2.29.384.67.912 1.2 1.584 1.58.672.37 1.428.56 2.268.56Zm20.472-3.44h-2.16v5.31h-2.286v-5.31h-2.16L78.74 1114h-2.7l3.96-6.57-3.69-6.03h2.484l3.078 5.27h2.214v-5.27h2.286v5.27h2.178l3.096-5.27h2.484l-3.672 6.05L94.4 1114h-2.7l-3.168-5.31Zm19.229-7.29v12.6h-2.34v-5.4h-6.516v5.4h-2.34v-12.6h2.34v5.2h6.516v-5.2h2.34Zm9.907 12.78c-1.284 0-2.442-.28-3.474-.83a6.278 6.278 0 0 1-2.43-2.32c-.588-1-.882-2.11-.882-3.33 0-1.22.294-2.33.882-3.31a6.07 6.07 0 0 1 2.43-2.32c1.032-.57 2.19-.85 3.474-.85 1.284 0 2.442.28 3.474.85a6.159 6.159 0 0 1 2.43 2.3c.588.98.882 2.09.882 3.33 0 1.24-.294 2.35-.882 3.33a6.278 6.278 0 0 1-2.43 2.32c-1.032.55-2.19.83-3.474.83Zm0-2.05c.84 0 1.596-.19 2.268-.56.672-.38 1.2-.91 1.584-1.58a4.62 4.62 0 0 0 .576-2.29c0-.84-.192-1.6-.576-2.27a4.025 4.025 0 0 0-1.584-1.58c-.672-.39-1.428-.58-2.268-.58-.84 0-1.596.19-2.268.58-.672.37-1.2.9-1.584 1.58-.384.67-.576 1.43-.576 2.27 0 .84.192 1.6.576 2.29.384.67.912 1.2 1.584 1.58.672.37 1.428.56 2.268.56Zm15.709 2.05c-1.272 0-2.424-.28-3.456-.83a6.313 6.313 0 0 1-2.412-2.32c-.576-.98-.864-2.09-.864-3.33 0-1.24.294-2.35.882-3.33a6.19 6.19 0 0 1 2.412-2.3c1.032-.57 2.184-.85 3.456-.85 1.032 0 1.974.18 2.826.54a5.71 5.71 0 0 1 2.16 1.57l-1.512 1.42c-.912-.99-2.034-1.48-3.366-1.48-.864 0-1.638.19-2.322.58-.684.37-1.218.89-1.602 1.56-.384.68-.576 1.44-.576 2.29 0 .85.192 1.61.576 2.29.384.67.918 1.2 1.602 1.58.684.37 1.458.56 2.322.56 1.332 0 2.454-.5 3.366-1.5l1.512 1.44a5.68 5.68 0 0 1-2.178 1.57c-.852.36-1.794.54-2.826.54Zm16.72-10.8h-4.176V1114H143.6v-10.62h-4.158v-1.98h10.656v1.98Zm11.643-1.98v12.6h-2.304v-3.51H156.071l-2.34 3.51h-2.466l2.7-3.89c-.876-.32-1.554-.83-2.034-1.53-.468-.71-.702-1.56-.702-2.55 0-.96.216-1.79.648-2.49.432-.69 1.044-1.22 1.836-1.58.792-.37 1.722-.56 2.79-.56h5.238Zm-5.166 1.98c-.96 0-1.698.22-2.214.67-.504.44-.756 1.09-.756 1.94 0 .83.246 1.47.738 1.93.492.44 1.206.66 2.142.66h2.952v-5.2h-2.862Zm20.834 10.62-.018-8.35-4.14 6.91h-1.044l-4.14-6.8v8.24h-2.214v-12.6h1.926l4.986 8.33 4.932-8.33h1.908l.036 12.6h-2.232Zm6.316-12.6h2.304v8.95l6.768-8.95h2.178v12.6h-2.304v-8.93l-6.768 8.93h-2.178v-12.6Z" fill="#F4F4F4"/><rect x="1" y="949" width="121" height="90" rx="4" fill="url(#p)"/><path d="M7.56 721.974c-1.272 0-2.424-.276-3.456-.828a6.318 6.318 0 0 1-2.412-2.322c-.576-.984-.864-2.094-.864-3.33 0-1.236.294-2.346.882-3.33a6.187 6.187 0 0 1 2.412-2.304c1.032-.564 2.184-.846 3.456-.846 1.032 0 1.974.18 2.826.54.852.36 1.572.882 2.16 1.566l-1.512 1.422c-.912-.984-2.034-1.476-3.366-1.476-.864 0-1.638.192-2.322.576a4.023 4.023 0 0 0-1.602 1.566c-.384.672-.576 1.434-.576 2.286 0 .852.192 1.614.576 2.286.384.672.918 1.2 1.602 1.584.684.372 1.458.558 2.322.558 1.332 0 2.454-.498 3.366-1.494l1.512 1.44a5.734 5.734 0 0 1-2.178 1.566c-.852.36-1.794.54-2.826.54Zm18.877-12.78v12.6h-2.304v-10.62h-6.534v10.62h-2.304v-12.6h11.142Zm9.277 0c1.092 0 2.04.18 2.843.54.816.36 1.44.876 1.872 1.548.432.672.648 1.47.648 2.394 0 .912-.215 1.71-.648 2.394-.431.672-1.056 1.188-1.872 1.548-.803.36-1.752.54-2.843.54H32.87v3.636h-2.34v-12.6h5.184Zm-.108 6.984c1.02 0 1.794-.216 2.322-.648.528-.432.791-1.05.791-1.854s-.264-1.422-.791-1.854c-.528-.432-1.302-.648-2.322-.648H32.87v5.004h2.736Zm8.243-6.984h2.304v8.946l6.768-8.946H55.1v12.6h-2.304v-8.928l-6.768 8.928H43.85v-12.6Zm26.519 0v12.6h-2.34v-5.4h-6.516v5.4h-2.34v-12.6h2.34v5.202h6.516v-5.202h2.34Zm13.219 1.98H79.41v10.62h-2.322v-10.62h-4.157v-1.98h10.656v1.98Z" fill="#F4F4F4"/><path fill-rule="evenodd" clip-rule="evenodd" d="M149.999 578.964c28.994 0 52.698-22.649 54.386-51.219.088-1.491-1.481-2.46-2.812-1.783l-14.496 7.38c-.517.263-.891.74-1.045 1.299-4.301 15.674-18.651 27.19-35.691 27.19-20.438 0-37.006-16.568-37.006-37.006s16.568-37.007 37.006-37.007c13.296 0 24.953 7.012 31.478 17.538.016.026.056.012.052-.018a.03.03 0 0 1 .037-.031l10.557 3.424a2 2 0 0 0 2.567-1.456l2.084-9.1a1.962 1.962 0 0 0-.22-1.439C187.406 480.73 169.956 470 149.999 470c-30.09 0-54.482 24.392-54.482 54.482 0 30.089 24.392 54.482 54.482 54.482Z" fill="url(#q)"/><path fill-rule="evenodd" clip-rule="evenodd" d="M105.518 690.794c-37.125 0-67.421-29.234-69.125-65.937-.07-1.492 1.501-2.461 2.832-1.783l19.418 9.885c.517.263.892.74 1.043 1.3 5.382 20.03 23.668 34.775 45.397 34.775 25.959 0 47.004-21.045 47.004-47.005 0-25.959-21.045-47.004-47.004-47.004-16.887 0-31.694 8.906-39.981 22.276-.021.033-.072.015-.067-.023a.036.036 0 0 0-.047-.039l-13.97 4.531a2 2 0 0 1-2.567-1.456l-2.826-12.34a1.97 1.97 0 0 1 .218-1.44c12.03-20.431 34.251-34.141 59.675-34.141 38.218 0 69.2 30.982 69.2 69.2 0 38.219-30.982 69.201-69.2 69.201Z" fill="url(#r)"/><path d="M3.979 672.701c-1.384-1.219-.523-3.502 1.321-3.502h98.709a2 2 0 0 1 2 2v17.595a2 2 0 0 1-2 2H5.3c-1.844 0-2.705-2.284-1.321-3.502l6.584-5.794a2 2 0 0 0 0-3.003l-6.584-5.794Z" fill="url(#s)"/><path d="M117.554 681.498a2 2 0 0 0 0-3.003l-6.584-5.794c-1.385-1.219-.523-3.502 1.321-3.502h87.216c.473 0 .931.168 1.292.473l10.397 8.798a2 2 0 0 1 0 3.053l-10.397 8.797a1.999 1.999 0 0 1-1.292.474h-87.216c-1.844 0-2.706-2.284-1.321-3.502l6.584-5.794Z" fill="url(#t)"/><path d="M137.97 527.501v3.094h-.966v-2.198h-8.554l-.014 2.198h-.966l.014-3.094h.49c.644-.038 1.092-.546 1.344-1.526.252-.99.406-2.39.462-4.2l.112-3.178h6.608v8.904h1.47Zm-7.266-5.628c-.046 1.493-.163 2.725-.35 3.696-.177.961-.48 1.605-.91 1.932h6.034v-8.008h-4.69l-.084 2.38Zm15.796 3.15h-6.16c.056.765.35 1.386.882 1.862.532.466 1.204.7 2.016.7.458 0 .878-.08 1.26-.238.383-.168.714-.411.994-.728l.56.644c-.326.392-.737.69-1.232.896a4.096 4.096 0 0 1-1.61.308c-.756 0-1.428-.159-2.016-.476a3.556 3.556 0 0 1-1.358-1.344c-.326-.57-.49-1.214-.49-1.932 0-.719.154-1.363.462-1.932a3.461 3.461 0 0 1 1.288-1.33 3.629 3.629 0 0 1 1.848-.476c.682 0 1.293.158 1.834.476.542.317.966.76 1.274 1.33.308.56.462 1.204.462 1.932l-.014.308Zm-3.556-3.192c-.709 0-1.306.228-1.792.686-.476.448-.746 1.036-.812 1.764h5.222c-.065-.728-.34-1.316-.826-1.764-.476-.458-1.073-.686-1.792-.686Zm6.191-.798h.994v5.852l4.914-5.852h.882v7.364h-.994v-5.852l-4.9 5.852h-.896v-7.364Zm3.346-1.064c-.635 0-1.139-.159-1.512-.476-.374-.318-.565-.766-.574-1.344h.714c.009.364.14.658.392.882.252.214.578.322.98.322.401 0 .728-.108.98-.322a1.15 1.15 0 0 0 .406-.882h.714c-.01.578-.206 1.026-.588 1.344-.374.317-.878.476-1.512.476Zm12.732 1.064v7.364h-.994v-6.482h-3.528l-.098 1.82c-.074 1.53-.252 2.706-.532 3.528-.28.821-.779 1.232-1.498 1.232-.196 0-.434-.038-.714-.112l.07-.854c.168.037.285.056.35.056.383 0 .672-.178.868-.532.196-.355.327-.794.392-1.316.066-.523.122-1.214.168-2.072l.126-2.632h5.39Zm3.246 0h.994v5.852l4.914-5.852h.882v7.364h-.994v-5.852l-4.9 5.852h-.896v-7.364ZM100.425 608.597v9.8h-1.008v-8.904h-2.31v-.896h3.318Zm2.875 5.572h3.668v.868H103.3v-.868Zm12.182 3.332v.896h-6.874v-.714l4.074-3.99c.513-.504.858-.938 1.036-1.302.186-.374.28-.747.28-1.12 0-.579-.201-1.027-.602-1.344-.392-.327-.957-.49-1.694-.49-1.148 0-2.04.364-2.674 1.092l-.714-.616a3.758 3.758 0 0 1 1.456-1.036c.597-.243 1.269-.364 2.016-.364.998 0 1.787.238 2.366.714.588.466.882 1.11.882 1.932 0 .504-.112.989-.336 1.456-.224.466-.649 1.003-1.274 1.61l-3.332 3.276h5.39Zm-35.647 7.532h.994v3.262h4.634v-3.262h.994v7.364h-.994v-3.248h-4.634v3.248h-.994v-7.364Zm16.307 3.99h-6.16c.056.765.35 1.386.882 1.862.532.466 1.204.7 2.016.7.457 0 .877-.08 1.26-.238.383-.168.714-.411.994-.728l.56.644a3.15 3.15 0 0 1-1.232.896 4.098 4.098 0 0 1-1.61.308c-.756 0-1.428-.159-2.016-.476a3.549 3.549 0 0 1-1.358-1.344c-.327-.57-.49-1.214-.49-1.932 0-.719.154-1.363.462-1.932a3.453 3.453 0 0 1 1.288-1.33 3.627 3.627 0 0 1 1.848-.476c.681 0 1.293.158 1.834.476.541.317.966.76 1.274 1.33.308.56.462 1.204.462 1.932l-.014.308Zm-3.556-3.192c-.71 0-1.307.228-1.792.686-.476.448-.747 1.036-.812 1.764h5.222c-.065-.728-.34-1.316-.826-1.764-.476-.458-1.073-.686-1.792-.686Zm13.222 5.698v2.646h-.938v-1.778h-6.594v1.778h-.938v-2.646h.42c.495-.028.83-.392 1.008-1.092.177-.7.298-1.68.364-2.94l.098-2.464h5.432v6.496h1.148Zm-5.768-3.976c-.047 1.045-.136 1.908-.266 2.59-.13.672-.364 1.134-.7 1.386h4.592v-5.614h-3.542l-.084 1.638Zm14.565 1.47h-6.16c.056.765.35 1.386.882 1.862.532.466 1.204.7 2.016.7.457 0 .877-.08 1.26-.238.383-.168.714-.411.994-.728l.56.644a3.15 3.15 0 0 1-1.232.896 4.096 4.096 0 0 1-1.61.308c-.756 0-1.428-.159-2.016-.476a3.55 3.55 0 0 1-1.358-1.344c-.327-.57-.49-1.214-.49-1.932 0-.719.154-1.363.462-1.932a3.454 3.454 0 0 1 1.288-1.33 3.629 3.629 0 0 1 1.848-.476c.681 0 1.293.158 1.834.476.541.317.966.76 1.274 1.33.308.56.462 1.204.462 1.932l-.014.308Zm-3.556-3.192c-.709 0-1.307.228-1.792.686-.476.448-.747 1.036-.812 1.764h5.222c-.065-.728-.341-1.316-.826-1.764-.476-.458-1.073-.686-1.792-.686Zm12.06-.798v7.364h-.994v-6.482h-3.528l-.098 1.82c-.075 1.53-.252 2.706-.532 3.528-.28.821-.779 1.232-1.498 1.232-.196 0-.434-.038-.714-.112l.07-.854c.168.037.285.056.35.056.383 0 .672-.178.868-.532.196-.355.327-.794.392-1.316.065-.523.121-1.214.168-2.072l.126-2.632h5.39Zm3.246 0h.994v5.852l4.914-5.852h.882v7.364h-.994v-5.852l-4.9 5.852h-.896v-7.364Z" fill="#F4F4F4"/><path opacity=".7" d="M27.654 749.898v3.094h-.966v-2.198h-8.554l-.014 2.198h-.966l.014-3.094h.49c.644-.038 1.092-.546 1.344-1.526.252-.99.406-2.39.462-4.2l.112-3.178h6.608v8.904h1.47Zm-7.266-5.628c-.047 1.493-.163 2.725-.35 3.696-.177.961-.48 1.605-.91 1.932h6.034v-8.008h-4.69l-.084 2.38Zm9.8-3.276h1.021v8.12l6.272-8.12h.938v9.8h-1.022v-8.106l-6.272 8.106h-.938v-9.8Zm16.214 4.676c.644.158 1.148.448 1.512.868.374.42.56.924.56 1.512 0 .569-.177 1.068-.532 1.498-.354.429-.826.76-1.414.994a5.344 5.344 0 0 1-1.918.336 6.25 6.25 0 0 1-1.932-.308 5.33 5.33 0 0 1-1.694-.952l.378-.742c.43.364.92.644 1.47.84.551.186 1.106.28 1.666.28.532 0 1.022-.084 1.47-.252.448-.168.803-.406 1.064-.714.271-.318.406-.691.406-1.12 0-.57-.224-1.008-.672-1.316-.448-.308-1.078-.462-1.89-.462h-2.1v-.84h2.044c.691 0 1.228-.145 1.61-.434.392-.299.588-.71.588-1.232 0-.579-.247-1.032-.742-1.358-.494-.336-1.115-.504-1.862-.504-.466 0-.938.07-1.414.21-.476.13-.928.331-1.358.602l-.35-.854a6.04 6.04 0 0 1 3.15-.868c.663 0 1.27.107 1.82.322.551.214.985.522 1.302.924.327.401.49.872.49 1.414 0 .522-.144.975-.434 1.358-.289.373-.695.639-1.218.798Zm11.337 2.506h-5.46l-1.176 2.618h-1.078l4.48-9.8h1.022l4.48 9.8h-1.092l-1.176-2.618Zm-.378-.84-2.352-5.264-2.352 5.264h4.704Zm4.944-6.342h1.022v8.12l6.272-8.12h.938v9.8h-1.022v-8.106l-6.272 8.106h-.938v-9.8Zm4.088-.714c-.7 0-1.256-.159-1.666-.476-.402-.318-.607-.761-.616-1.33h.77c.009.373.149.667.42.882.27.214.634.322 1.092.322.448 0 .807-.108 1.078-.322.28-.215.424-.509.434-.882h.77c-.01.569-.22 1.012-.63 1.33-.411.317-.962.476-1.652.476Zm16.06.714v9.8h-1.021v-4.522H75.3v4.522h-1.036v-9.8H75.3v4.368h6.132v-4.368h1.022Z" fill="#F4F4F4"/><circle cx="3" cy="745.794" r="3" fill="url(#u)"/><path opacity=".7" d="M25.064 795.89H21.62v8.904h-1.022v-8.904h-3.444v-.896h7.91v.896Zm9.169 8.008v.896h-6.93v-9.8h6.72v.896h-5.685v3.486h5.069v.882h-5.068v3.64h5.894Zm6.947.98c-.97 0-1.848-.215-2.632-.644a4.8 4.8 0 0 1-1.834-1.778c-.438-.766-.658-1.62-.658-2.562 0-.943.22-1.792.658-2.548a4.731 4.731 0 0 1 1.848-1.792c.784-.43 1.662-.644 2.632-.644.728 0 1.4.121 2.016.364a4.167 4.167 0 0 1 1.568 1.064l-.658.658c-.765-.775-1.731-1.162-2.898-1.162-.774 0-1.479.177-2.114.532a3.934 3.934 0 0 0-1.498 1.456c-.354.616-.532 1.306-.532 2.072 0 .765.178 1.456.532 2.072a3.94 3.94 0 0 0 1.498 1.456c.635.354 1.34.532 2.114.532 1.176 0 2.142-.392 2.898-1.176l.658.658c-.429.466-.956.826-1.582 1.078a5.466 5.466 0 0 1-2.016.364Zm12.447-8.988h-3.444v8.904H49.16v-8.904h-3.444v-.896h7.91v.896Zm2.238-.896h1.022v8.12l6.272-8.12h.938v9.8h-1.022v-8.106l-6.272 8.106h-.938v-9.8Zm15.627 0c1.25 0 2.23.298 2.94.896.71.597 1.064 1.418 1.064 2.464 0 1.045-.354 1.866-1.064 2.464-.71.588-1.69.882-2.94.882H68.86v3.094h-1.036v-9.8h3.668Zm-.028 5.796c.97 0 1.713-.21 2.226-.63.514-.43.77-1.032.77-1.806 0-.794-.256-1.4-.77-1.82-.513-.43-1.255-.644-2.226-.644H68.86v4.9h2.604Zm11.018 4.088c-.97 0-1.853-.215-2.646-.644a4.873 4.873 0 0 1-1.848-1.792c-.439-.756-.658-1.606-.658-2.548 0-.943.22-1.792.658-2.548a4.766 4.766 0 0 1 1.848-1.778c.793-.439 1.675-.658 2.646-.658.97 0 1.843.214 2.618.644a4.731 4.731 0 0 1 1.848 1.792c.448.756.672 1.605.672 2.548 0 .942-.224 1.796-.672 2.562a4.773 4.773 0 0 1-1.848 1.778c-.775.429-1.648.644-2.618.644Zm0-.924c.774 0 1.474-.173 2.1-.518a3.866 3.866 0 0 0 1.47-1.456 4.156 4.156 0 0 0 .532-2.086c0-.766-.178-1.456-.532-2.072a3.73 3.73 0 0 0-1.47-1.456c-.626-.355-1.326-.532-2.1-.532-.775 0-1.48.177-2.114.532-.626.345-1.12.83-1.484 1.456-.355.616-.532 1.306-.532 2.072 0 .765.177 1.46.532 2.086a3.97 3.97 0 0 0 1.484 1.456c.634.345 1.34.518 2.114.518Zm13.84-4.214c.681.14 1.2.415 1.554.826.355.401.532.928.532 1.582 0 .849-.303 1.502-.91 1.96-.597.457-1.48.686-2.646.686h-4.34v-9.8h4.074c1.045 0 1.862.214 2.45.644.588.429.882 1.05.882 1.862 0 .55-.14 1.017-.42 1.4-.28.373-.672.653-1.176.84Zm-4.788-.308h2.996c.756 0 1.335-.154 1.736-.462.41-.308.616-.756.616-1.344 0-.588-.205-1.036-.616-1.344-.401-.308-.98-.462-1.736-.462h-2.996v3.612Zm3.318 4.536c1.69 0 2.534-.63 2.534-1.89 0-1.232-.845-1.848-2.534-1.848h-3.318v3.738h3.318Zm12.838-1.792h-5.46l-1.176 2.618h-1.078l4.48-9.8h1.022l4.48 9.8h-1.092l-1.176-2.618Zm-.378-.84-2.352-5.264-2.352 5.264h4.704Zm13.134-6.342v9.8h-1.022v-4.522h-6.132v4.522h-1.036v-9.8h1.036v4.368h6.132v-4.368h1.022Zm3.728 0h1.022v8.12l6.272-8.12h.938v9.8h-1.022v-8.106l-6.272 8.106h-.938v-9.8Zm18.889 8.904v.896h-6.93v-9.8h6.72v.896h-5.684v3.486h5.068v.882h-5.068v3.64h5.894Z" fill="#F4F4F4"/><circle cx="3" cy="799.794" r="3" fill="url(#v)"/><path opacity=".7" d="M22.32 767.994c1.25 0 2.23.298 2.94.896.71.597 1.064 1.418 1.064 2.464 0 1.045-.355 1.866-1.064 2.464-.71.588-1.69.882-2.94.882h-2.632v3.094h-1.036v-9.8h3.668Zm-.028 5.796c.97 0 1.713-.21 2.226-.63.513-.43.77-1.032.77-1.806 0-.794-.257-1.4-.77-1.82-.513-.43-1.255-.644-2.226-.644h-2.604v4.9h2.604Zm12.362 1.386h-5.46l-1.175 2.618H26.94l4.48-9.8h1.022l4.48 9.8H35.83l-1.175-2.618Zm-.378-.84-2.352-5.264-2.351 5.264h4.703Zm9.2-1.666c.645.158 1.148.448 1.513.868.373.42.56.924.56 1.512 0 .569-.178 1.068-.532 1.498-.355.429-.827.76-1.415.994a5.344 5.344 0 0 1-1.917.336 6.25 6.25 0 0 1-1.933-.308 5.33 5.33 0 0 1-1.694-.952l.379-.742c.429.364.919.644 1.47.84.55.186 1.106.28 1.666.28.532 0 1.021-.084 1.47-.252.447-.168.802-.406 1.063-.714.271-.318.407-.691.407-1.12 0-.57-.224-1.008-.672-1.316-.449-.308-1.078-.462-1.89-.462h-2.1v-.84h2.044c.69 0 1.227-.145 1.61-.434.392-.299.587-.71.587-1.232 0-.579-.247-1.032-.742-1.358-.494-.336-1.115-.504-1.861-.504-.467 0-.938.07-1.414.21-.477.13-.93.331-1.358.602l-.35-.854a6.04 6.04 0 0 1 3.15-.868c.662 0 1.269.107 1.82.322.55.214.984.522 1.301.924.327.401.49.872.49 1.414 0 .522-.144.975-.434 1.358-.289.373-.695.639-1.218.798Zm8.733-4.676c1.25 0 2.23.298 2.94.896.71.597 1.064 1.418 1.064 2.464 0 1.045-.355 1.866-1.064 2.464-.71.588-1.69.882-2.94.882h-2.632v3.094H48.54v-9.8h3.668Zm-.028 5.796c.97 0 1.713-.21 2.226-.63.513-.43.77-1.032.77-1.806 0-.794-.257-1.4-.77-1.82-.513-.43-1.255-.644-2.226-.644h-2.604v4.9h2.604Zm12.362 1.386h-5.46l-1.175 2.618H56.83l4.48-9.8h1.021l4.48 9.8H65.72l-1.175-2.618Zm-.378-.84-2.352-5.264-2.352 5.264h4.704Zm4.944-6.342h7.168v.882h-6.146v3.206h3.206c1.158 0 2.035.238 2.632.714.607.476.91 1.166.91 2.072 0 .942-.326 1.666-.98 2.17-.644.504-1.572.756-2.786.756H69.11v-9.8Zm3.99 8.974c.906 0 1.587-.173 2.044-.518.467-.346.7-.859.7-1.54 0-.672-.228-1.172-.686-1.498-.448-.336-1.134-.504-2.058-.504h-2.968v4.06H73.1Zm10.9.91c-.97 0-1.852-.215-2.646-.644a4.873 4.873 0 0 1-1.848-1.792c-.438-.756-.658-1.606-.658-2.548 0-.943.22-1.792.658-2.548a4.766 4.766 0 0 1 1.848-1.778c.794-.439 1.676-.658 2.646-.658.971 0 1.844.214 2.618.644a4.731 4.731 0 0 1 1.848 1.792c.448.756.672 1.605.672 2.548 0 .942-.224 1.796-.672 2.562a4.773 4.773 0 0 1-1.848 1.778c-.774.429-1.647.644-2.618.644Zm0-.924c.775 0 1.475-.173 2.1-.518a3.867 3.867 0 0 0 1.47-1.456 4.156 4.156 0 0 0 .532-2.086c0-.766-.177-1.456-.532-2.072a3.731 3.731 0 0 0-1.47-1.456c-.625-.355-1.325-.532-2.1-.532-.774 0-1.479.177-2.114.532-.625.345-1.12.83-1.484 1.456-.354.616-.532 1.306-.532 2.072 0 .765.178 1.46.532 2.086a3.97 3.97 0 0 0 1.484 1.456c.635.345 1.34.518 2.114.518Zm14.306-8.064H94.86v8.904h-1.022v-8.904h-3.444v-.896h7.91v.896Zm5.486 4.41h-2.24v4.494h-1.008v-9.8h1.008v4.396h2.24l3.318-4.396h1.12l-3.64 4.76 3.85 5.04h-1.19l-3.458-4.494Zm12.823 1.876h-5.46l-1.176 2.618H108.9l4.48-9.8h1.022l4.48 9.8h-1.092l-1.176-2.618Zm-.378-.84-2.352-5.264-2.352 5.264h4.704Z" fill="#F4F4F4"/><circle cx="3" cy="772.794" r="3" fill="url(#w)"/><path opacity=".7" d="M26.898 848.994v9.8h-1.022v-8.904h-6.202v8.904h-1.022v-9.8h8.246Zm8.025 9.884c-.97 0-1.853-.215-2.646-.644a4.873 4.873 0 0 1-1.848-1.792c-.439-.756-.658-1.606-.658-2.548 0-.943.22-1.792.658-2.548a4.766 4.766 0 0 1 1.848-1.778c.793-.439 1.675-.658 2.646-.658.97 0 1.843.214 2.618.644a4.731 4.731 0 0 1 1.848 1.792c.448.756.672 1.605.672 2.548 0 .942-.224 1.796-.672 2.562a4.773 4.773 0 0 1-1.848 1.778c-.775.429-1.648.644-2.618.644Zm0-.924c.774 0 1.474-.173 2.1-.518a3.866 3.866 0 0 0 1.47-1.456 4.156 4.156 0 0 0 .532-2.086c0-.766-.178-1.456-.532-2.072a3.73 3.73 0 0 0-1.47-1.456c-.626-.355-1.326-.532-2.1-.532-.775 0-1.48.177-2.114.532-.626.345-1.12.83-1.484 1.456-.355.616-.532 1.306-.532 2.072 0 .765.177 1.46.532 2.086a3.97 3.97 0 0 0 1.484 1.456c.634.345 1.34.518 2.114.518Zm16.758-.056v3.094h-.965v-2.198H42.16l-.014 2.198h-.965l.014-3.094h.49c.644-.038 1.092-.546 1.343-1.526.252-.99.406-2.39.462-4.2l.112-3.178h6.608v8.904h1.47Zm-7.265-5.628c-.047 1.493-.164 2.725-.35 3.696-.178.961-.481 1.605-.91 1.932h6.034v-8.008H44.5l-.084 2.38Zm18.8 5.628v3.094h-.965v-2.198h-8.554l-.014 2.198h-.966l.014-3.094h.49c.644-.038 1.092-.546 1.344-1.526.252-.99.406-2.39.462-4.2l.112-3.178h6.608v8.904h1.47Zm-7.265-5.628c-.047 1.493-.164 2.725-.35 3.696-.178.961-.48 1.605-.91 1.932h6.034v-8.008h-4.69l-.084 2.38Zm16.729 5.628v.896h-6.93v-9.8h6.72v.896h-5.684v3.486h5.068v.882h-5.068v3.64h5.894Zm6.386-8.904c1.251 0 2.231.298 2.94.896.71.597 1.064 1.418 1.064 2.464 0 1.045-.354 1.866-1.063 2.464-.71.588-1.69.882-2.94.882h-2.632v3.094h-1.037v-9.8h3.669Zm-.028 5.796c.971 0 1.713-.21 2.227-.63.513-.43.77-1.032.77-1.806 0-.794-.257-1.4-.77-1.82-.514-.43-1.256-.644-2.227-.644h-2.603v4.9h2.603Zm14.33-.49h-2.03v4.494h-1.007V854.3h-2.044l-2.997 4.494h-1.204l3.36-5.054-3.108-4.746h1.12l2.814 4.396h2.058v-4.396h1.008v4.396h2.03l2.829-4.396h1.12l-3.108 4.746 3.36 5.054h-1.204l-2.996-4.494Zm9.511 0h-2.24v4.494h-1.008v-9.8h1.008v4.396h2.24l3.318-4.396h1.12l-3.64 4.76 3.85 5.04h-1.19l-3.458-4.494Zm12.823 1.876h-5.46l-1.176 2.618h-1.078l4.48-9.8h1.022l4.48 9.8h-1.092l-1.176-2.618Zm-.378-.84-2.352-5.264-2.352 5.264h4.704Z" fill="#F4F4F4"/><circle cx="3" cy="853.794" r="3" fill="url(#x)"/><path opacity=".7" d="M26.842 821.994v9.8H25.82v-4.522h-6.132v4.522h-1.036v-9.8h1.036v4.368h6.132v-4.368h1.022Zm10 7.182h-5.46l-1.176 2.618h-1.078l4.48-9.8h1.022l4.48 9.8h-1.092l-1.176-2.618Zm-.378-.84-2.352-5.264-2.352 5.264h4.704Zm12.657-6.342v9.8H48.1v-8.904h-4.732l-.112 3.276c-.046 1.353-.158 2.445-.336 3.276-.168.821-.429 1.437-.784 1.848-.354.401-.826.602-1.414.602-.252 0-.513-.033-.784-.098l.084-.924c.159.037.313.056.462.056.411 0 .742-.164.994-.49.262-.327.458-.831.588-1.512.131-.691.22-1.601.266-2.73l.14-4.2h6.65Zm9.998 7.182h-5.46l-1.175 2.618h-1.078l4.48-9.8h1.021l4.48 9.8h-1.092l-1.175-2.618Zm-.377-.84-2.352-5.264-2.352 5.264h4.704Zm13.973 2.562v3.094h-.966v-2.198h-8.554l-.014 2.198h-.966l.014-3.094h.49c.644-.038 1.092-.546 1.344-1.526.252-.99.406-2.39.462-4.2l.112-3.178h6.608v8.904h1.47Zm-7.266-5.628c-.047 1.493-.163 2.725-.35 3.696-.178.961-.48 1.605-.91 1.932h6.034v-8.008h-4.69l-.084 2.38Zm13.047 2.03h-2.24v4.494h-1.008v-9.8h1.008v4.396h2.24l3.318-4.396h1.12l-3.64 4.76 3.85 5.04h-1.19l-3.458-4.494Zm12.823 1.876h-5.46l-1.176 2.618h-1.078l4.48-9.8h1.022l4.48 9.8h-1.092l-1.176-2.618Zm-.378-.84-2.352-5.264-2.352 5.264h4.704Z" fill="#F4F4F4"/><circle cx="3" cy="826.794" r="3" fill="url(#y)"/><defs><linearGradient id="m" x1="62" y1="167.911" x2="62" y2="214.911" gradientUnits="userSpaceOnUse"><stop stop-color="#6516CE"/><stop offset="1" stop-color="#2671FA"/></linearGradient><linearGradient id="a" x1="16.322" y1="322" x2="107.822" y2="235" gradientUnits="userSpaceOnUse"><stop stop-color="#6A11CB"/><stop offset="1" stop-color="#2575FC"/></linearGradient><linearGradient id="c" x1="3.822" y1="325" x2="107.822" y2="239.5" gradientUnits="userSpaceOnUse"><stop stop-color="#6A11CB"/><stop offset="1" stop-color="#2575FC"/></linearGradient><linearGradient id="d" x1="10" y1="87" x2="122.5" y2="0" gradientUnits="userSpaceOnUse"><stop stop-color="#6A11CB"/><stop offset="1" stop-color="#2575FC"/></linearGradient><linearGradient id="e" x1="15.5" y1="88.5" x2="123.5" y2="-1.5" gradientUnits="userSpaceOnUse"><stop stop-color="#6A11CB"/><stop offset="1" stop-color="#2575FC"/></linearGradient><linearGradient id="f" x1="13" y1="90" x2="122.5" y2="1.5" gradientUnits="userSpaceOnUse"><stop stop-color="#6A11CB"/><stop offset="1" stop-color="#2575FC"/></linearGradient><linearGradient id="g" x1="17" y1="91.5" x2="121" y2="0" gradientUnits="userSpaceOnUse"><stop stop-color="#6A11CB"/><stop offset="1" stop-color="#2575FC"/></linearGradient><linearGradient id="h" x1="17" y1="87" x2="119.5" y2="-1.5" gradientUnits="userSpaceOnUse"><stop stop-color="#6A11CB"/><stop offset="1" stop-color="#2575FC"/></linearGradient><linearGradient id="i" x1="13" y1="90" x2="121" y2="0" gradientUnits="userSpaceOnUse"><stop stop-color="#6A11CB"/><stop offset="1" stop-color="#2575FC"/></linearGradient><linearGradient id="j" x1="11.5" y1="88.5" x2="122" y2="0" gradientUnits="userSpaceOnUse"><stop stop-color="#6A11CB"/><stop offset="1" stop-color="#2575FC"/></linearGradient><linearGradient id="k" x1="14" y1="90" x2="119.5" y2="-1.5" gradientUnits="userSpaceOnUse"><stop stop-color="#6A11CB"/><stop offset="1" stop-color="#2575FC"/></linearGradient><linearGradient id="l" x1="17" y1="90" x2="126.5" y2="-2.5" gradientUnits="userSpaceOnUse"><stop stop-color="#6A11CB"/><stop offset="1" stop-color="#2575FC"/></linearGradient><linearGradient id="b" x1="6.822" y1="327.5" x2="113.822" y2="235" gradientUnits="userSpaceOnUse"><stop stop-color="#6A11CB"/><stop offset="1" stop-color="#2575FC"/></linearGradient><linearGradient id="n" x1="62" y1="402.911" x2="62" y2="449.911" gradientUnits="userSpaceOnUse"><stop stop-color="#6516CE"/><stop offset="1" stop-color="#2671FA"/></linearGradient><linearGradient id="o" x1="62" y1="881.911" x2="62" y2="928.911" gradientUnits="userSpaceOnUse"><stop stop-color="#6516CE"/><stop offset="1" stop-color="#2671FA"/></linearGradient><linearGradient id="p" x1="122.005" y1="949" x2="1.005" y2="1039" gradientUnits="userSpaceOnUse"><stop stop-color="#266EF9"/><stop offset="1" stop-color="#5D1ED1"/></linearGradient><linearGradient id="q" x1="170.977" y1="475.757" x2="118.135" y2="579.023" gradientUnits="userSpaceOnUse"><stop stop-color="#2672FA"/><stop offset="1" stop-color="#621BD0"/></linearGradient><linearGradient id="r" x1="142.574" y1="562.11" x2="5.766" y2="690.755" gradientUnits="userSpaceOnUse"><stop stop-color="#2671FA"/><stop offset="1" stop-color="#611CD1"/></linearGradient><linearGradient id="s" x1="157.805" y1="570.915" x2=".337" y2="690.793" gradientUnits="userSpaceOnUse"><stop stop-color="#2671FA"/><stop offset="1" stop-color="#621ACF"/></linearGradient><linearGradient id="t" x1="152.386" y1="571.931" x2="1.353" y2="690.793" gradientUnits="userSpaceOnUse"><stop stop-color="#286FF9"/><stop offset="1" stop-color="#621BD0"/></linearGradient><linearGradient id="u" x1="3" y1="742.794" x2="3" y2="748.794" gradientUnits="userSpaceOnUse"><stop stop-color="#286BF8"/><stop offset="1" stop-color="#5F1BD0"/></linearGradient><linearGradient id="v" x1="3" y1="796.794" x2="3" y2="802.794" gradientUnits="userSpaceOnUse"><stop stop-color="#286BF8"/><stop offset="1" stop-color="#5F1BD0"/></linearGradient><linearGradient id="w" x1="3" y1="769.794" x2="3" y2="775.794" gradientUnits="userSpaceOnUse"><stop stop-color="#286BF8"/><stop offset="1" stop-color="#5F1BD0"/></linearGradient><linearGradient id="x" x1="3" y1="850.794" x2="3" y2="856.794" gradientUnits="userSpaceOnUse"><stop stop-color="#286BF8"/><stop offset="1" stop-color="#5F1BD0"/></linearGradient><linearGradient id="y" x1="3" y1="823.794" x2="3" y2="829.794" gradientUnits="userSpaceOnUse"><stop stop-color="#286BF8"/><stop offset="1" stop-color="#5F1BD0"/></linearGradient></defs></svg>