<svg width="274" height="1119" viewBox="0 0 274 1119" fill="none" xmlns="http://www.w3.org/2000/svg">
<rect y="235" width="108.071" height="25.9982" rx="4" fill="url(#paint0_linear_444_42)"/>
<rect x="6.62695" y="267.115" width="107.561" height="25.9982" rx="4" fill="url(#paint1_linear_444_42)"/>
<rect x="13.2539" y="299.23" width="108.071" height="25.9982" rx="4" fill="url(#paint2_linear_444_42)"/>
<path d="M1.782 343.629H11.592V345.555H4.086V348.651H7.812C9.324 348.651 10.47 348.969 11.25 349.605C12.042 350.229 12.438 351.135 12.438 352.323C12.438 353.571 12.006 354.537 11.142 355.221C10.278 355.893 9.048 356.229 7.452 356.229H1.782V343.629ZM7.326 354.429C8.226 354.429 8.91 354.255 9.378 353.907C9.846 353.559 10.08 353.055 10.08 352.395C10.08 351.099 9.162 350.451 7.326 350.451H4.086V354.429H7.326ZM19.2843 343.449C20.5083 343.449 21.6063 343.731 22.5783 344.295C23.5623 344.847 24.3303 345.615 24.8823 346.599C25.4343 347.583 25.7103 348.693 25.7103 349.929C25.7103 351.165 25.4343 352.275 24.8823 353.259C24.3303 354.243 23.5623 355.017 22.5783 355.581C21.6063 356.133 20.5083 356.409 19.2843 356.409C18.2163 356.409 17.2443 356.229 16.3683 355.869C15.5043 355.509 14.7843 354.987 14.2083 354.303L15.6843 352.863C16.6083 353.859 17.7663 354.357 19.1583 354.357C20.2383 354.357 21.1503 354.027 21.8943 353.367C22.6503 352.707 23.1123 351.837 23.2803 350.757H17.6463V348.903H23.2443C23.0403 347.883 22.5663 347.061 21.8223 346.437C21.0903 345.813 20.2023 345.501 19.1583 345.501C17.7663 345.501 16.6083 345.999 15.6843 346.995L14.2083 345.555C14.7843 344.871 15.5043 344.349 16.3683 343.989C17.2443 343.629 18.2163 343.449 19.2843 343.449ZM33.5036 350.919H31.1636V356.229H28.8596V343.629H31.1636V348.903H33.5756L37.1936 343.629H39.6776L35.3756 349.731L39.8396 356.229H37.1936L33.5036 350.919ZM53.0308 343.629V356.229H50.7268V345.609H45.7588L45.6508 348.759C45.5908 350.523 45.4468 351.957 45.2188 353.061C44.9908 354.153 44.6248 354.987 44.1208 355.563C43.6168 356.127 42.9208 356.409 42.0328 356.409C41.7208 356.409 41.2948 356.349 40.7548 356.229L40.9168 354.195C41.0728 354.243 41.2528 354.267 41.4568 354.267C42.1888 354.267 42.7048 353.835 43.0048 352.971C43.3168 352.095 43.5088 350.721 43.5808 348.849L43.7608 343.629H53.0308ZM62.9474 356.409C61.6634 356.409 60.5054 356.133 59.4734 355.581C58.4414 355.017 57.6314 354.243 57.0434 353.259C56.4554 352.263 56.1614 351.153 56.1614 349.929C56.1614 348.705 56.4554 347.601 57.0434 346.617C57.6314 345.621 58.4414 344.847 59.4734 344.295C60.5054 343.731 61.6634 343.449 62.9474 343.449C64.2314 343.449 65.3894 343.731 66.4214 344.295C67.4534 344.847 68.2634 345.615 68.8514 346.599C69.4394 347.583 69.7334 348.693 69.7334 349.929C69.7334 351.165 69.4394 352.275 68.8514 353.259C68.2634 354.243 67.4534 355.017 66.4214 355.581C65.3894 356.133 64.2314 356.409 62.9474 356.409ZM62.9474 354.357C63.7874 354.357 64.5434 354.171 65.2154 353.799C65.8874 353.415 66.4154 352.887 66.7994 352.215C67.1834 351.531 67.3754 350.769 67.3754 349.929C67.3754 349.089 67.1834 348.333 66.7994 347.661C66.4154 346.977 65.8874 346.449 65.2154 346.077C64.5434 345.693 63.7874 345.501 62.9474 345.501C62.1074 345.501 61.3514 345.693 60.6794 346.077C60.0074 346.449 59.4794 346.977 59.0954 347.661C58.7114 348.333 58.5194 349.089 58.5194 349.929C58.5194 350.769 58.7114 351.531 59.0954 352.215C59.4794 352.887 60.0074 353.415 60.6794 353.799C61.3514 354.171 62.1074 354.357 62.9474 354.357ZM81.4105 345.609H75.1645L75.1825 356.229H72.8785V343.629H81.4285L81.4105 345.609ZM7.56 378.409C6.288 378.409 5.136 378.133 4.104 377.581C3.084 377.017 2.28 376.243 1.692 375.259C1.116 374.275 0.828 373.165 0.828 371.929C0.828 370.693 1.122 369.583 1.71 368.599C2.298 367.615 3.102 366.847 4.122 366.295C5.154 365.731 6.306 365.449 7.578 365.449C8.61 365.449 9.552 365.629 10.404 365.989C11.256 366.349 11.976 366.871 12.564 367.555L11.052 368.977C10.14 367.993 9.018 367.501 7.686 367.501C6.822 367.501 6.048 367.693 5.364 368.077C4.68 368.449 4.146 368.971 3.762 369.643C3.378 370.315 3.186 371.077 3.186 371.929C3.186 372.781 3.378 373.543 3.762 374.215C4.146 374.887 4.68 375.415 5.364 375.799C6.048 376.171 6.822 376.357 7.686 376.357C9.018 376.357 10.14 375.859 11.052 374.863L12.564 376.303C11.976 376.987 11.25 377.509 10.386 377.869C9.534 378.229 8.592 378.409 7.56 378.409ZM26.4367 365.629V378.229H24.1327V367.609H17.5987V378.229H15.2947V365.629H26.4367ZM35.7135 365.629C36.8055 365.629 37.7535 365.809 38.5575 366.169C39.3735 366.529 39.9975 367.045 40.4295 367.717C40.8615 368.389 41.0775 369.187 41.0775 370.111C41.0775 371.023 40.8615 371.821 40.4295 372.505C39.9975 373.177 39.3735 373.693 38.5575 374.053C37.7535 374.413 36.8055 374.593 35.7135 374.593H32.8695V378.229H30.5295V365.629H35.7135ZM35.6055 372.613C36.6255 372.613 37.3995 372.397 37.9275 371.965C38.4555 371.533 38.7195 370.915 38.7195 370.111C38.7195 369.307 38.4555 368.689 37.9275 368.257C37.3995 367.825 36.6255 367.609 35.6055 367.609H32.8695V372.613H35.6055ZM43.8493 365.629H46.1533V374.575L52.9213 365.629H55.0993V378.229H52.7953V369.301L46.0273 378.229H43.8493V365.629ZM70.368 365.629V378.229H68.028V372.829H61.512V378.229H59.172V365.629H61.512V370.831H68.028V365.629H70.368ZM83.5865 367.609H79.4105V378.229H77.0885V367.609H72.9305V365.629H83.5865V367.609ZM93.8638 375.313H87.5638L86.3218 378.229H83.9098L89.5798 365.629H91.8838L97.5718 378.229H95.1238L93.8638 375.313ZM93.0898 373.477L90.7138 367.969L88.3558 373.477H93.0898Z" fill="#F4F4F4"/>
<path d="M1.782 108.629H11.592V110.555H4.086V113.651H7.812C9.324 113.651 10.47 113.969 11.25 114.605C12.042 115.229 12.438 116.135 12.438 117.323C12.438 118.571 12.006 119.537 11.142 120.221C10.278 120.893 9.048 121.229 7.452 121.229H1.782V108.629ZM7.326 119.429C8.226 119.429 8.91 119.255 9.378 118.907C9.846 118.559 10.08 118.055 10.08 117.395C10.08 116.099 9.162 115.451 7.326 115.451H4.086V119.429H7.326ZM19.2843 108.449C20.5083 108.449 21.6063 108.731 22.5783 109.295C23.5623 109.847 24.3303 110.615 24.8823 111.599C25.4343 112.583 25.7103 113.693 25.7103 114.929C25.7103 116.165 25.4343 117.275 24.8823 118.259C24.3303 119.243 23.5623 120.017 22.5783 120.581C21.6063 121.133 20.5083 121.409 19.2843 121.409C18.2163 121.409 17.2443 121.229 16.3683 120.869C15.5043 120.509 14.7843 119.987 14.2083 119.303L15.6843 117.863C16.6083 118.859 17.7663 119.357 19.1583 119.357C20.2383 119.357 21.1503 119.027 21.8943 118.367C22.6503 117.707 23.1123 116.837 23.2803 115.757H17.6463V113.903H23.2443C23.0403 112.883 22.5663 112.061 21.8223 111.437C21.0903 110.813 20.2023 110.501 19.1583 110.501C17.7663 110.501 16.6083 110.999 15.6843 111.995L14.2083 110.555C14.7843 109.871 15.5043 109.349 16.3683 108.989C17.2443 108.629 18.2163 108.449 19.2843 108.449ZM33.5036 115.919H31.1636V121.229H28.8596V108.629H31.1636V113.903H33.5756L37.1936 108.629H39.6776L35.3756 114.731L39.8396 121.229H37.1936L33.5036 115.919ZM53.0308 108.629V121.229H50.7268V110.609H45.7588L45.6508 113.759C45.5908 115.523 45.4468 116.957 45.2188 118.061C44.9908 119.153 44.6248 119.987 44.1208 120.563C43.6168 121.127 42.9208 121.409 42.0328 121.409C41.7208 121.409 41.2948 121.349 40.7548 121.229L40.9168 119.195C41.0728 119.243 41.2528 119.267 41.4568 119.267C42.1888 119.267 42.7048 118.835 43.0048 117.971C43.3168 117.095 43.5088 115.721 43.5808 113.849L43.7608 108.629H53.0308ZM62.9474 121.409C61.6634 121.409 60.5054 121.133 59.4734 120.581C58.4414 120.017 57.6314 119.243 57.0434 118.259C56.4554 117.263 56.1614 116.153 56.1614 114.929C56.1614 113.705 56.4554 112.601 57.0434 111.617C57.6314 110.621 58.4414 109.847 59.4734 109.295C60.5054 108.731 61.6634 108.449 62.9474 108.449C64.2314 108.449 65.3894 108.731 66.4214 109.295C67.4534 109.847 68.2634 110.615 68.8514 111.599C69.4394 112.583 69.7334 113.693 69.7334 114.929C69.7334 116.165 69.4394 117.275 68.8514 118.259C68.2634 119.243 67.4534 120.017 66.4214 120.581C65.3894 121.133 64.2314 121.409 62.9474 121.409ZM62.9474 119.357C63.7874 119.357 64.5434 119.171 65.2154 118.799C65.8874 118.415 66.4154 117.887 66.7994 117.215C67.1834 116.531 67.3754 115.769 67.3754 114.929C67.3754 114.089 67.1834 113.333 66.7994 112.661C66.4154 111.977 65.8874 111.449 65.2154 111.077C64.5434 110.693 63.7874 110.501 62.9474 110.501C62.1074 110.501 61.3514 110.693 60.6794 111.077C60.0074 111.449 59.4794 111.977 59.0954 112.661C58.7114 113.333 58.5194 114.089 58.5194 114.929C58.5194 115.769 58.7114 116.531 59.0954 117.215C59.4794 117.887 60.0074 118.415 60.6794 118.799C61.3514 119.171 62.1074 119.357 62.9474 119.357ZM81.4105 110.609H75.1645L75.1825 121.229H72.8785V108.629H81.4285L81.4105 110.609ZM12.924 130.629V143.229H10.62V132.609H4.086V143.229H1.782V130.629H12.924ZM22.2009 130.629C23.2929 130.629 24.2409 130.809 25.0449 131.169C25.8609 131.529 26.4849 132.045 26.9169 132.717C27.3489 133.389 27.5649 134.187 27.5649 135.111C27.5649 136.023 27.3489 136.821 26.9169 137.505C26.4849 138.177 25.8609 138.693 25.0449 139.053C24.2409 139.413 23.2929 139.593 22.2009 139.593H19.3569V143.229H17.0169V130.629H22.2009ZM22.0929 137.613C23.1129 137.613 23.8869 137.397 24.4149 136.965C24.9429 136.533 25.2069 135.915 25.2069 135.111C25.2069 134.307 24.9429 133.689 24.4149 133.257C23.8869 132.825 23.1129 132.609 22.0929 132.609H19.3569V137.613H22.0929ZM36.3264 143.409C35.0424 143.409 33.8844 143.133 32.8524 142.581C31.8204 142.017 31.0104 141.243 30.4224 140.259C29.8344 139.263 29.5404 138.153 29.5404 136.929C29.5404 135.705 29.8344 134.601 30.4224 133.617C31.0104 132.621 31.8204 131.847 32.8524 131.295C33.8844 130.731 35.0424 130.449 36.3264 130.449C37.6104 130.449 38.7684 130.731 39.8004 131.295C40.8324 131.847 41.6424 132.615 42.2304 133.599C42.8184 134.583 43.1124 135.693 43.1124 136.929C43.1124 138.165 42.8184 139.275 42.2304 140.259C41.6424 141.243 40.8324 142.017 39.8004 142.581C38.7684 143.133 37.6104 143.409 36.3264 143.409ZM36.3264 141.357C37.1664 141.357 37.9224 141.171 38.5944 140.799C39.2664 140.415 39.7944 139.887 40.1784 139.215C40.5624 138.531 40.7544 137.769 40.7544 136.929C40.7544 136.089 40.5624 135.333 40.1784 134.661C39.7944 133.977 39.2664 133.449 38.5944 133.077C37.9224 132.693 37.1664 132.501 36.3264 132.501C35.4864 132.501 34.7304 132.693 34.0584 133.077C33.3864 133.449 32.8584 133.977 32.4744 134.661C32.0904 135.333 31.8984 136.089 31.8984 136.929C31.8984 137.769 32.0904 138.531 32.4744 139.215C32.8584 139.887 33.3864 140.415 34.0584 140.799C34.7304 141.171 35.4864 141.357 36.3264 141.357ZM55.6895 141.267V143.229H46.2395V130.629H55.4375V132.591H48.5795V135.867H54.6635V137.793H48.5795V141.267H55.6895ZM63.4821 137.919H61.1421V143.229H58.8381V130.629H61.1421V135.903H63.5541L67.1721 130.629H69.6561L65.3541 136.731L69.8181 143.229H67.1721L63.4821 137.919ZM80.9674 132.609H76.7914V143.229H74.4694V132.609H70.3114V130.629H80.9674V132.609ZM91.2447 140.313H84.9447L83.7027 143.229H81.2907L86.9607 130.629H89.2647L94.9527 143.229H92.5047L91.2447 140.313ZM90.4707 138.477L88.0947 132.969L85.7367 138.477H90.4707Z" fill="#F4F4F4"/>
<rect width="36.1936" height="25.9982" rx="4" fill="url(#paint3_linear_444_42)"/>
<rect x="6.62695" y="32.1152" width="36.1936" height="25.9982" rx="4" fill="url(#paint4_linear_444_42)"/>
<rect x="13.2539" y="64.2305" width="36.1936" height="25.9982" rx="4" fill="url(#paint5_linear_444_42)"/>
<rect x="42.8208" width="36.1936" height="25.9982" rx="4" fill="url(#paint6_linear_444_42)"/>
<rect x="49.4478" y="32.1152" width="36.1936" height="25.9982" rx="4" fill="url(#paint7_linear_444_42)"/>
<rect x="56.0747" y="64.2305" width="36.1936" height="25.9982" rx="4" fill="url(#paint8_linear_444_42)"/>
<rect x="85.6411" width="36.1936" height="25.9982" rx="4" fill="url(#paint9_linear_444_42)"/>
<rect x="92.2681" y="32.1152" width="36.1936" height="25.9982" rx="4" fill="url(#paint10_linear_444_42)"/>
<rect x="98.895" y="64.2305" width="36.1936" height="25.9982" rx="4" fill="url(#paint11_linear_444_42)"/>
<path d="M62 215L70.6603 200H53.3397L62 215ZM60.5 168V201.5H63.5V168H60.5Z" fill="url(#paint12_linear_444_42)"/>
<path d="M62 450L70.6603 435H53.3397L62 450ZM60.5 403V436.5H63.5V403H60.5Z" fill="url(#paint13_linear_444_42)"/>
<path d="M62 929L70.6603 914H53.3397L62 929ZM60.5 882V915.5H63.5V882H60.5Z" fill="url(#paint14_linear_444_42)"/>
<path d="M7.948 1057.4C9.04 1057.4 9.988 1057.58 10.792 1057.94C11.608 1058.3 12.232 1058.82 12.664 1059.49C13.096 1060.16 13.312 1060.96 13.312 1061.88C13.312 1062.79 13.096 1063.59 12.664 1064.28C12.232 1064.95 11.608 1065.46 10.792 1065.82C9.988 1066.18 9.04 1066.36 7.948 1066.36H5.104V1070H2.764V1057.4H7.948ZM7.84 1064.38C8.86 1064.38 9.634 1064.17 10.162 1063.74C10.69 1063.3 10.954 1062.69 10.954 1061.88C10.954 1061.08 10.69 1060.46 10.162 1060.03C9.634 1059.6 8.86 1059.38 7.84 1059.38H5.104V1064.38H7.84ZM23.7849 1067.08H17.4849L16.2429 1070H13.8309L19.5009 1057.4H21.8049L27.4929 1070H25.0449L23.7849 1067.08ZM23.0109 1065.25L20.6349 1059.74L18.2769 1065.25H23.0109ZM29.9831 1057.4H39.7931V1059.33H32.2871V1062.42H36.0131C37.5251 1062.42 38.6711 1062.74 39.4511 1063.38C40.2431 1064 40.6391 1064.91 40.6391 1066.09C40.6391 1067.34 40.2071 1068.31 39.3431 1068.99C38.4791 1069.66 37.2491 1070 35.6531 1070H29.9831V1057.4ZM35.5271 1068.2C36.4271 1068.2 37.1111 1068.03 37.5791 1067.68C38.0471 1067.33 38.2811 1066.83 38.2811 1066.17C38.2811 1064.87 37.3631 1064.22 35.5271 1064.22H32.2871V1068.2H35.5271ZM49.5734 1070.18C48.2894 1070.18 47.1314 1069.9 46.0994 1069.35C45.0674 1068.79 44.2574 1068.01 43.6694 1067.03C43.0814 1066.03 42.7874 1064.92 42.7874 1063.7C42.7874 1062.48 43.0814 1061.37 43.6694 1060.39C44.2574 1059.39 45.0674 1058.62 46.0994 1058.07C47.1314 1057.5 48.2894 1057.22 49.5734 1057.22C50.8574 1057.22 52.0154 1057.5 53.0474 1058.07C54.0794 1058.62 54.8894 1059.39 55.4774 1060.37C56.0654 1061.35 56.3594 1062.46 56.3594 1063.7C56.3594 1064.94 56.0654 1066.05 55.4774 1067.03C54.8894 1068.01 54.0794 1068.79 53.0474 1069.35C52.0154 1069.9 50.8574 1070.18 49.5734 1070.18ZM49.5734 1068.13C50.4134 1068.13 51.1694 1067.94 51.8414 1067.57C52.5134 1067.19 53.0414 1066.66 53.4254 1065.99C53.8094 1065.3 54.0014 1064.54 54.0014 1063.7C54.0014 1062.86 53.8094 1062.1 53.4254 1061.43C53.0414 1060.75 52.5134 1060.22 51.8414 1059.85C51.1694 1059.46 50.4134 1059.27 49.5734 1059.27C48.7334 1059.27 47.9774 1059.46 47.3054 1059.85C46.6334 1060.22 46.1054 1060.75 45.7214 1061.43C45.3374 1062.1 45.1454 1062.86 45.1454 1063.7C45.1454 1064.54 45.3374 1065.3 45.7214 1065.99C46.1054 1066.66 46.6334 1067.19 47.3054 1067.57C47.9774 1067.94 48.7334 1068.13 49.5734 1068.13ZM68.4547 1059.38H64.2787V1070H61.9567V1059.38H57.7987V1057.4H68.4547V1059.38ZM78.732 1067.08H72.432L71.19 1070H68.778L74.448 1057.4H76.752L82.44 1070H79.992L78.732 1067.08ZM77.958 1065.25L75.582 1059.74L73.224 1065.25H77.958ZM95.6942 1057.22C96.9302 1057.22 98.0402 1057.5 99.0242 1058.07C100.02 1058.62 100.8 1059.39 101.364 1060.37C101.928 1061.35 102.21 1062.46 102.21 1063.7C102.21 1064.94 101.928 1066.05 101.364 1067.03C100.8 1068.01 100.02 1068.79 99.0242 1069.35C98.0402 1069.9 96.9302 1070.18 95.6942 1070.18C94.5662 1070.18 93.5342 1069.95 92.5982 1069.48C91.6742 1069.01 90.9122 1068.36 90.3122 1067.52C89.7242 1066.68 89.3582 1065.72 89.2142 1064.65H87.2342V1070H84.9302V1057.4H87.2342V1062.57H89.2502C89.4182 1061.52 89.7962 1060.6 90.3842 1059.79C90.9842 1058.98 91.7402 1058.35 92.6522 1057.9C93.5762 1057.45 94.5902 1057.22 95.6942 1057.22ZM95.6942 1068.13C96.4742 1068.13 97.1822 1067.94 97.8182 1067.57C98.4542 1067.2 98.9522 1066.68 99.3122 1066C99.6722 1065.33 99.8522 1064.56 99.8522 1063.7C99.8522 1062.84 99.6722 1062.07 99.3122 1061.4C98.9522 1060.72 98.4542 1060.2 97.8182 1059.83C97.1822 1059.46 96.4742 1059.27 95.6942 1059.27C94.9142 1059.27 94.2062 1059.46 93.5702 1059.83C92.9462 1060.2 92.4482 1060.72 92.0762 1061.4C91.7162 1062.07 91.5362 1062.84 91.5362 1063.7C91.5362 1064.56 91.7162 1065.33 92.0762 1066C92.4482 1066.68 92.9462 1067.2 93.5702 1067.57C94.2062 1067.94 94.9142 1068.13 95.6942 1068.13ZM121.568 1057.4V1070H105.386V1057.4H107.69V1068.02H112.334V1057.4H114.638V1068.02H119.264V1057.4H121.568ZM123.386 1068.02V1072.68H121.226V1070H119.21V1068.02H123.386ZM135.626 1068.04V1070H126.176V1057.4H135.374V1059.36H128.516V1062.64H134.6V1064.56H128.516V1068.04H135.626ZM148.224 1068.04V1070H138.774V1057.4H147.972V1059.36H141.114V1062.64H147.198V1064.56H141.114V1068.04H148.224ZM13.924 1079.4V1092H11.62V1081.38H5.086V1092H2.782V1079.4H13.924ZM23.8489 1092.18C22.5649 1092.18 21.4069 1091.9 20.3749 1091.35C19.3429 1090.79 18.5329 1090.01 17.9449 1089.03C17.3569 1088.03 17.0629 1086.92 17.0629 1085.7C17.0629 1084.48 17.3569 1083.37 17.9449 1082.39C18.5329 1081.39 19.3429 1080.62 20.3749 1080.07C21.4069 1079.5 22.5649 1079.22 23.8489 1079.22C25.1329 1079.22 26.2909 1079.5 27.3229 1080.07C28.3549 1080.62 29.1649 1081.39 29.7529 1082.37C30.3409 1083.35 30.6349 1084.46 30.6349 1085.7C30.6349 1086.94 30.3409 1088.05 29.7529 1089.03C29.1649 1090.01 28.3549 1090.79 27.3229 1091.35C26.2909 1091.9 25.1329 1092.18 23.8489 1092.18ZM23.8489 1090.13C24.6889 1090.13 25.4449 1089.94 26.1169 1089.57C26.7889 1089.19 27.3169 1088.66 27.7009 1087.99C28.0849 1087.3 28.2769 1086.54 28.2769 1085.7C28.2769 1084.86 28.0849 1084.1 27.7009 1083.43C27.3169 1082.75 26.7889 1082.22 26.1169 1081.85C25.4449 1081.46 24.6889 1081.27 23.8489 1081.27C23.0089 1081.27 22.2529 1081.46 21.5809 1081.85C20.9089 1082.22 20.3809 1082.75 19.9969 1083.43C19.6129 1084.1 19.4209 1084.86 19.4209 1085.7C19.4209 1086.54 19.6129 1087.3 19.9969 1087.99C20.3809 1088.66 20.9089 1089.19 21.5809 1089.57C22.2529 1089.94 23.0089 1090.13 23.8489 1090.13ZM45.0726 1092.18C43.8006 1092.18 42.6486 1091.9 41.6166 1091.35C40.5966 1090.79 39.7926 1090.01 39.2046 1089.03C38.6286 1088.05 38.3406 1086.94 38.3406 1085.7C38.3406 1084.46 38.6346 1083.35 39.2226 1082.37C39.8106 1081.39 40.6146 1080.62 41.6346 1080.07C42.6666 1079.5 43.8186 1079.22 45.0906 1079.22C46.1226 1079.22 47.0646 1079.4 47.9166 1079.76C48.7686 1080.12 49.4886 1080.64 50.0766 1081.33L48.5646 1082.75C47.6526 1081.76 46.5306 1081.27 45.1986 1081.27C44.3346 1081.27 43.5606 1081.46 42.8766 1081.85C42.1926 1082.22 41.6586 1082.74 41.2746 1083.41C40.8906 1084.09 40.6986 1084.85 40.6986 1085.7C40.6986 1086.55 40.8906 1087.31 41.2746 1087.99C41.6586 1088.66 42.1926 1089.19 42.8766 1089.57C43.5606 1089.94 44.3346 1090.13 45.1986 1090.13C46.5306 1090.13 47.6526 1089.63 48.5646 1088.63L50.0766 1090.07C49.4886 1090.76 48.7626 1091.28 47.8986 1091.64C47.0466 1092 46.1046 1092.18 45.0726 1092.18ZM69.4998 1079.4V1092H67.1598V1086.6H60.6438V1092H58.3038V1079.4H60.6438V1084.6H67.1598V1079.4H69.4998ZM79.4063 1092.18C78.1223 1092.18 76.9643 1091.9 75.9323 1091.35C74.9003 1090.79 74.0903 1090.01 73.5023 1089.03C72.9143 1088.03 72.6203 1086.92 72.6203 1085.7C72.6203 1084.48 72.9143 1083.37 73.5023 1082.39C74.0903 1081.39 74.9003 1080.62 75.9323 1080.07C76.9643 1079.5 78.1223 1079.22 79.4063 1079.22C80.6903 1079.22 81.8483 1079.5 82.8803 1080.07C83.9123 1080.62 84.7223 1081.39 85.3103 1082.37C85.8983 1083.35 86.1923 1084.46 86.1923 1085.7C86.1923 1086.94 85.8983 1088.05 85.3103 1089.03C84.7223 1090.01 83.9123 1090.79 82.8803 1091.35C81.8483 1091.9 80.6903 1092.18 79.4063 1092.18ZM79.4063 1090.13C80.2463 1090.13 81.0023 1089.94 81.6743 1089.57C82.3463 1089.19 82.8743 1088.66 83.2583 1087.99C83.6423 1087.3 83.8343 1086.54 83.8343 1085.7C83.8343 1084.86 83.6423 1084.1 83.2583 1083.43C82.8743 1082.75 82.3463 1082.22 81.6743 1081.85C81.0023 1081.46 80.2463 1081.27 79.4063 1081.27C78.5663 1081.27 77.8103 1081.46 77.1383 1081.85C76.4663 1082.22 75.9383 1082.75 75.5543 1083.43C75.1703 1084.1 74.9783 1084.86 74.9783 1085.7C74.9783 1086.54 75.1703 1087.3 75.5543 1087.99C75.9383 1088.66 76.4663 1089.19 77.1383 1089.57C77.8103 1089.94 78.5663 1090.13 79.4063 1090.13ZM97.6174 1085.45C98.4214 1085.66 99.0334 1086.04 99.4534 1086.56C99.8734 1087.08 100.083 1087.73 100.083 1088.51C100.083 1089.61 99.6754 1090.47 98.8594 1091.08C98.0434 1091.69 96.8614 1092 95.3134 1092H89.3374V1079.4H94.9714C96.3874 1079.4 97.4914 1079.68 98.2834 1080.25C99.0754 1080.81 99.4714 1081.61 99.4714 1082.64C99.4714 1083.3 99.3094 1083.87 98.9854 1084.35C98.6734 1084.83 98.2174 1085.2 97.6174 1085.45ZM91.6414 1084.78H94.7734C95.5294 1084.78 96.1054 1084.63 96.5014 1084.33C96.8974 1084.03 97.0954 1083.59 97.0954 1083C97.0954 1082.41 96.8974 1081.97 96.5014 1081.67C96.1054 1081.36 95.5294 1081.2 94.7734 1081.2H91.6414V1084.78ZM95.2414 1090.2C96.8974 1090.2 97.7254 1089.58 97.7254 1088.33C97.7254 1087.1 96.8974 1086.49 95.2414 1086.49H91.6414V1090.2H95.2414ZM109.103 1083.67C110.615 1083.67 111.773 1084.01 112.577 1084.69C113.393 1085.36 113.801 1086.37 113.801 1087.7C113.801 1089.09 113.357 1090.16 112.469 1090.9C111.581 1091.63 110.333 1092 108.725 1092H103.307V1079.4H105.611V1083.67H109.103ZM108.617 1090.2C109.529 1090.2 110.231 1089.99 110.723 1089.57C111.215 1089.15 111.461 1088.54 111.461 1087.73C111.461 1086.21 110.513 1085.45 108.617 1085.45H105.611V1090.2H108.617ZM115.619 1079.4H117.923V1092H115.619V1079.4ZM133.579 1092L133.561 1083.65L129.421 1090.56H128.377L124.237 1083.76V1092H122.023V1079.4H123.949L128.935 1087.73L133.867 1079.4H135.775L135.811 1092H133.579ZM139.895 1079.4H142.199V1088.35L148.967 1079.4H151.145V1092H148.841V1083.07L142.073 1092H139.895V1079.4ZM11.062 1107.45C11.866 1107.66 12.478 1108.04 12.898 1108.56C13.318 1109.08 13.528 1109.73 13.528 1110.51C13.528 1111.61 13.12 1112.47 12.304 1113.08C11.488 1113.69 10.306 1114 8.758 1114H2.782V1101.4H8.416C9.832 1101.4 10.936 1101.68 11.728 1102.25C12.52 1102.81 12.916 1103.61 12.916 1104.64C12.916 1105.3 12.754 1105.87 12.43 1106.35C12.118 1106.83 11.662 1107.2 11.062 1107.45ZM5.086 1106.78H8.218C8.974 1106.78 9.55 1106.63 9.946 1106.33C10.342 1106.03 10.54 1105.59 10.54 1105C10.54 1104.41 10.342 1103.97 9.946 1103.67C9.55 1103.36 8.974 1103.2 8.218 1103.2H5.086V1106.78ZM8.686 1112.2C10.342 1112.2 11.17 1111.58 11.17 1110.33C11.17 1109.1 10.342 1108.49 8.686 1108.49H5.086V1112.2H8.686ZM22.5657 1114.18C21.2817 1114.18 20.1237 1113.9 19.0917 1113.35C18.0597 1112.79 17.2497 1112.01 16.6617 1111.03C16.0737 1110.03 15.7797 1108.92 15.7797 1107.7C15.7797 1106.48 16.0737 1105.37 16.6617 1104.39C17.2497 1103.39 18.0597 1102.62 19.0917 1102.07C20.1237 1101.5 21.2817 1101.22 22.5657 1101.22C23.8497 1101.22 25.0077 1101.5 26.0397 1102.07C27.0717 1102.62 27.8817 1103.39 28.4697 1104.37C29.0577 1105.35 29.3517 1106.46 29.3517 1107.7C29.3517 1108.94 29.0577 1110.05 28.4697 1111.03C27.8817 1112.01 27.0717 1112.79 26.0397 1113.35C25.0077 1113.9 23.8497 1114.18 22.5657 1114.18ZM22.5657 1112.13C23.4057 1112.13 24.1617 1111.94 24.8337 1111.57C25.5057 1111.19 26.0337 1110.66 26.4177 1109.99C26.8017 1109.3 26.9937 1108.54 26.9937 1107.7C26.9937 1106.86 26.8017 1106.1 26.4177 1105.43C26.0337 1104.75 25.5057 1104.22 24.8337 1103.85C24.1617 1103.46 23.4057 1103.27 22.5657 1103.27C21.7257 1103.27 20.9697 1103.46 20.2977 1103.85C19.6257 1104.22 19.0977 1104.75 18.7137 1105.43C18.3297 1106.1 18.1377 1106.86 18.1377 1107.7C18.1377 1108.54 18.3297 1109.3 18.7137 1109.99C19.0977 1110.66 19.6257 1111.19 20.2977 1111.57C20.9697 1111.94 21.7257 1112.13 22.5657 1112.13ZM38.7512 1107.43C39.5072 1107.67 40.0952 1108.06 40.5152 1108.6C40.9472 1109.13 41.1632 1109.75 41.1632 1110.47C41.1632 1111.23 40.9172 1111.89 40.4252 1112.45C39.9332 1113 39.2732 1113.43 38.4452 1113.73C37.6292 1114.03 36.7352 1114.18 35.7632 1114.18C34.9232 1114.18 34.0772 1114.07 33.2252 1113.84C32.3852 1113.6 31.6052 1113.24 30.8852 1112.78L31.6412 1111.07C32.1932 1111.44 32.8052 1111.73 33.4772 1111.93C34.1492 1112.12 34.8152 1112.22 35.4752 1112.22C36.4232 1112.22 37.2092 1112.03 37.8332 1111.66C38.4692 1111.29 38.7872 1110.78 38.7872 1110.13C38.7872 1109.58 38.5592 1109.16 38.1032 1108.87C37.6472 1108.58 37.0172 1108.44 36.2132 1108.44H33.2792V1106.6H36.0332C36.7292 1106.6 37.2752 1106.46 37.6712 1106.17C38.0672 1105.88 38.2652 1105.49 38.2652 1105C38.2652 1104.41 37.9952 1103.96 37.4552 1103.63C36.9272 1103.31 36.2492 1103.15 35.4212 1103.15C34.8572 1103.15 34.2752 1103.23 33.6752 1103.4C33.0752 1103.55 32.5112 1103.79 31.9832 1104.1L31.2452 1102.21C31.8932 1101.86 32.5772 1101.6 33.2972 1101.44C34.0292 1101.26 34.7552 1101.17 35.4752 1101.17C36.4112 1101.17 37.2692 1101.31 38.0492 1101.6C38.8412 1101.89 39.4712 1102.3 39.9392 1102.84C40.4072 1103.37 40.6412 1103.99 40.6412 1104.71C40.6412 1105.34 40.4732 1105.88 40.1372 1106.35C39.8012 1106.82 39.3392 1107.18 38.7512 1107.43ZM55.9307 1114L55.9127 1105.65L51.7727 1112.56H50.7287L46.5887 1105.76V1114H44.3747V1101.4H46.3007L51.2867 1109.73L56.2187 1101.4H58.1267L58.1627 1114H55.9307ZM68.0607 1114.18C66.7767 1114.18 65.6187 1113.9 64.5867 1113.35C63.5547 1112.79 62.7447 1112.01 62.1567 1111.03C61.5687 1110.03 61.2747 1108.92 61.2747 1107.7C61.2747 1106.48 61.5687 1105.37 62.1567 1104.39C62.7447 1103.39 63.5547 1102.62 64.5867 1102.07C65.6187 1101.5 66.7767 1101.22 68.0607 1101.22C69.3447 1101.22 70.5027 1101.5 71.5347 1102.07C72.5667 1102.62 73.3767 1103.39 73.9647 1104.37C74.5527 1105.35 74.8467 1106.46 74.8467 1107.7C74.8467 1108.94 74.5527 1110.05 73.9647 1111.03C73.3767 1112.01 72.5667 1112.79 71.5347 1113.35C70.5027 1113.9 69.3447 1114.18 68.0607 1114.18ZM68.0607 1112.13C68.9007 1112.13 69.6567 1111.94 70.3287 1111.57C71.0007 1111.19 71.5287 1110.66 71.9127 1109.99C72.2967 1109.3 72.4887 1108.54 72.4887 1107.7C72.4887 1106.86 72.2967 1106.1 71.9127 1105.43C71.5287 1104.75 71.0007 1104.22 70.3287 1103.85C69.6567 1103.46 68.9007 1103.27 68.0607 1103.27C67.2207 1103.27 66.4647 1103.46 65.7927 1103.85C65.1207 1104.22 64.5927 1104.75 64.2087 1105.43C63.8247 1106.1 63.6327 1106.86 63.6327 1107.7C63.6327 1108.54 63.8247 1109.3 64.2087 1109.99C64.5927 1110.66 65.1207 1111.19 65.7927 1111.57C66.4647 1111.94 67.2207 1112.13 68.0607 1112.13ZM88.5327 1108.69H86.3727V1114H84.0867V1108.69H81.9267L78.7407 1114H76.0407L80.0007 1107.43L76.3107 1101.4H78.7947L81.8727 1106.67H84.0867V1101.4H86.3727V1106.67H88.5507L91.6467 1101.4H94.1307L90.4587 1107.45L94.4007 1114H91.7007L88.5327 1108.69ZM107.762 1101.4V1114H105.422V1108.6H98.9065V1114H96.5665V1101.4H98.9065V1106.6H105.422V1101.4H107.762ZM117.669 1114.18C116.385 1114.18 115.227 1113.9 114.195 1113.35C113.163 1112.79 112.353 1112.01 111.765 1111.03C111.177 1110.03 110.883 1108.92 110.883 1107.7C110.883 1106.48 111.177 1105.37 111.765 1104.39C112.353 1103.39 113.163 1102.62 114.195 1102.07C115.227 1101.5 116.385 1101.22 117.669 1101.22C118.953 1101.22 120.111 1101.5 121.143 1102.07C122.175 1102.62 122.985 1103.39 123.573 1104.37C124.161 1105.35 124.455 1106.46 124.455 1107.7C124.455 1108.94 124.161 1110.05 123.573 1111.03C122.985 1112.01 122.175 1112.79 121.143 1113.35C120.111 1113.9 118.953 1114.18 117.669 1114.18ZM117.669 1112.13C118.509 1112.13 119.265 1111.94 119.937 1111.57C120.609 1111.19 121.137 1110.66 121.521 1109.99C121.905 1109.3 122.097 1108.54 122.097 1107.7C122.097 1106.86 121.905 1106.1 121.521 1105.43C121.137 1104.75 120.609 1104.22 119.937 1103.85C119.265 1103.46 118.509 1103.27 117.669 1103.27C116.829 1103.27 116.073 1103.46 115.401 1103.85C114.729 1104.22 114.201 1104.75 113.817 1105.43C113.433 1106.1 113.241 1106.86 113.241 1107.7C113.241 1108.54 113.433 1109.3 113.817 1109.99C114.201 1110.66 114.729 1111.19 115.401 1111.57C116.073 1111.94 116.829 1112.13 117.669 1112.13ZM133.378 1114.18C132.106 1114.18 130.954 1113.9 129.922 1113.35C128.902 1112.79 128.098 1112.01 127.51 1111.03C126.934 1110.05 126.646 1108.94 126.646 1107.7C126.646 1106.46 126.94 1105.35 127.528 1104.37C128.116 1103.39 128.92 1102.62 129.94 1102.07C130.972 1101.5 132.124 1101.22 133.396 1101.22C134.428 1101.22 135.37 1101.4 136.222 1101.76C137.074 1102.12 137.794 1102.64 138.382 1103.33L136.87 1104.75C135.958 1103.76 134.836 1103.27 133.504 1103.27C132.64 1103.27 131.866 1103.46 131.182 1103.85C130.498 1104.22 129.964 1104.74 129.58 1105.41C129.196 1106.09 129.004 1106.85 129.004 1107.7C129.004 1108.55 129.196 1109.31 129.58 1109.99C129.964 1110.66 130.498 1111.19 131.182 1111.57C131.866 1111.94 132.64 1112.13 133.504 1112.13C134.836 1112.13 135.958 1111.63 136.87 1110.63L138.382 1112.07C137.794 1112.76 137.068 1113.28 136.204 1113.64C135.352 1114 134.41 1114.18 133.378 1114.18ZM150.098 1103.38H145.922V1114H143.6V1103.38H139.442V1101.4H150.098V1103.38ZM161.741 1101.4V1114H159.437V1110.49H156.323H156.071L153.731 1114H151.265L153.965 1110.11C153.089 1109.79 152.411 1109.28 151.931 1108.58C151.463 1107.87 151.229 1107.02 151.229 1106.03C151.229 1105.07 151.445 1104.24 151.877 1103.54C152.309 1102.85 152.921 1102.32 153.713 1101.96C154.505 1101.59 155.435 1101.4 156.503 1101.4H161.741ZM156.575 1103.38C155.615 1103.38 154.877 1103.6 154.361 1104.05C153.857 1104.49 153.605 1105.14 153.605 1105.99C153.605 1106.82 153.851 1107.46 154.343 1107.92C154.835 1108.36 155.549 1108.58 156.485 1108.58H159.437V1103.38H156.575ZM177.409 1114L177.391 1105.65L173.251 1112.56H172.207L168.067 1105.76V1114H165.853V1101.4H167.779L172.765 1109.73L177.697 1101.4H179.605L179.641 1114H177.409ZM183.725 1101.4H186.029V1110.35L192.797 1101.4H194.975V1114H192.671V1105.07L185.903 1114H183.725V1101.4Z" fill="#F4F4F4"/>
<rect x="1" y="949" width="121" height="90" rx="4" fill="url(#paint15_linear_444_42)"/>
<path d="M7.56 721.974C6.288 721.974 5.136 721.698 4.104 721.146C3.084 720.582 2.28 719.808 1.692 718.824C1.116 717.84 0.828 716.73 0.828 715.494C0.828 714.258 1.122 713.148 1.71 712.164C2.298 711.18 3.102 710.412 4.122 709.86C5.154 709.296 6.306 709.014 7.578 709.014C8.61 709.014 9.552 709.194 10.404 709.554C11.256 709.914 11.976 710.436 12.564 711.12L11.052 712.542C10.14 711.558 9.018 711.066 7.686 711.066C6.822 711.066 6.048 711.258 5.364 711.642C4.68 712.014 4.146 712.536 3.762 713.208C3.378 713.88 3.186 714.642 3.186 715.494C3.186 716.346 3.378 717.108 3.762 717.78C4.146 718.452 4.68 718.98 5.364 719.364C6.048 719.736 6.822 719.922 7.686 719.922C9.018 719.922 10.14 719.424 11.052 718.428L12.564 719.868C11.976 720.552 11.25 721.074 10.386 721.434C9.534 721.794 8.592 721.974 7.56 721.974ZM26.4367 709.194V721.794H24.1327V711.174H17.5987V721.794H15.2947V709.194H26.4367ZM35.7135 709.194C36.8055 709.194 37.7535 709.374 38.5575 709.734C39.3735 710.094 39.9975 710.61 40.4295 711.282C40.8615 711.954 41.0775 712.752 41.0775 713.676C41.0775 714.588 40.8615 715.386 40.4295 716.07C39.9975 716.742 39.3735 717.258 38.5575 717.618C37.7535 717.978 36.8055 718.158 35.7135 718.158H32.8695V721.794H30.5295V709.194H35.7135ZM35.6055 716.178C36.6255 716.178 37.3995 715.962 37.9275 715.53C38.4555 715.098 38.7195 714.48 38.7195 713.676C38.7195 712.872 38.4555 712.254 37.9275 711.822C37.3995 711.39 36.6255 711.174 35.6055 711.174H32.8695V716.178H35.6055ZM43.8493 709.194H46.1533V718.14L52.9213 709.194H55.0993V721.794H52.7953V712.866L46.0273 721.794H43.8493V709.194ZM70.368 709.194V721.794H68.028V716.394H61.512V721.794H59.172V709.194H61.512V714.396H68.028V709.194H70.368ZM83.5865 711.174H79.4105V721.794H77.0885V711.174H72.9305V709.194H83.5865V711.174Z" fill="#F4F4F4"/>
<path fill-rule="evenodd" clip-rule="evenodd" d="M149.999 578.964C178.993 578.964 202.697 556.315 204.385 527.745C204.473 526.254 202.904 525.285 201.573 525.962L187.077 533.342C186.56 533.605 186.186 534.082 186.032 534.641C181.731 550.315 167.381 561.831 150.341 561.831C129.903 561.831 113.335 545.263 113.335 524.825C113.335 504.387 129.903 487.818 150.341 487.818C163.637 487.818 175.294 494.83 181.819 505.356C181.835 505.382 181.875 505.368 181.871 505.338V505.338C181.869 505.317 181.889 505.301 181.908 505.307L192.465 508.731C193.582 509.093 194.77 508.42 195.032 507.275L197.116 498.175C197.228 497.685 197.153 497.169 196.896 496.736C187.406 480.73 169.956 470 149.999 470C119.909 470 95.5171 494.392 95.5171 524.482C95.5171 554.571 119.909 578.964 149.999 578.964Z" fill="url(#paint16_linear_444_42)"/>
<path fill-rule="evenodd" clip-rule="evenodd" d="M105.518 690.794C68.3933 690.794 38.0968 661.56 36.393 624.857C36.3238 623.365 37.8942 622.396 39.2248 623.074L58.6427 632.959C59.1598 633.222 59.5351 633.699 59.6856 634.259C65.0683 654.289 83.3537 669.034 105.083 669.034C131.042 669.034 152.087 647.989 152.087 622.029C152.087 596.07 131.042 575.025 105.083 575.025C88.1958 575.025 73.3887 583.931 65.1015 597.301C65.081 597.334 65.0297 597.316 65.0347 597.278V597.278C65.0381 597.251 65.013 597.23 64.9878 597.239L51.0175 601.77C49.9005 602.132 48.7132 601.458 48.451 600.314L45.6246 587.974C45.5122 587.483 45.588 586.967 45.8433 586.534C57.8724 566.103 80.094 552.393 105.518 552.393C143.736 552.393 174.718 583.375 174.718 621.593C174.718 659.812 143.736 690.794 105.518 690.794Z" fill="url(#paint17_linear_444_42)"/>
<path d="M3.97889 672.701C2.59462 671.482 3.4562 669.199 5.30015 669.199H104.009C105.114 669.199 106.009 670.095 106.009 671.199V688.794C106.009 689.898 105.114 690.794 104.009 690.794H5.30014C3.4562 690.794 2.59462 688.51 3.97889 687.292L10.5634 681.498C11.4684 680.701 11.4684 679.291 10.5634 678.495L3.97889 672.701Z" fill="url(#paint18_linear_444_42)"/>
<path d="M117.554 681.498C118.459 680.701 118.459 679.291 117.554 678.495L110.97 672.701C109.585 671.482 110.447 669.199 112.291 669.199H199.507C199.98 669.199 200.438 669.367 200.799 669.672L211.196 678.47C212.14 679.269 212.14 680.724 211.196 681.523L200.799 690.32C200.438 690.626 199.98 690.794 199.507 690.794H112.291C110.447 690.794 109.585 688.51 110.97 687.292L117.554 681.498Z" fill="url(#paint19_linear_444_42)"/>
<path d="M137.97 527.501V530.595H137.004V528.397H128.45L128.436 530.595H127.47L127.484 527.501H127.974C128.618 527.463 129.066 526.955 129.318 525.975C129.57 524.985 129.724 523.585 129.78 521.775L129.892 518.597H136.5V527.501H137.97ZM130.704 521.873C130.658 523.366 130.541 524.598 130.354 525.569C130.177 526.53 129.874 527.174 129.444 527.501H135.478V519.493H130.788L130.704 521.873ZM146.5 525.023H140.34C140.396 525.788 140.69 526.409 141.222 526.885C141.754 527.351 142.426 527.585 143.238 527.585C143.696 527.585 144.116 527.505 144.498 527.347C144.881 527.179 145.212 526.936 145.492 526.619L146.052 527.263C145.726 527.655 145.315 527.953 144.82 528.159C144.335 528.364 143.798 528.467 143.21 528.467C142.454 528.467 141.782 528.308 141.194 527.991C140.616 527.664 140.163 527.216 139.836 526.647C139.51 526.077 139.346 525.433 139.346 524.715C139.346 523.996 139.5 523.352 139.808 522.783C140.126 522.213 140.555 521.77 141.096 521.453C141.647 521.135 142.263 520.977 142.944 520.977C143.626 520.977 144.237 521.135 144.778 521.453C145.32 521.77 145.744 522.213 146.052 522.783C146.36 523.343 146.514 523.987 146.514 524.715L146.5 525.023ZM142.944 521.831C142.235 521.831 141.638 522.059 141.152 522.517C140.676 522.965 140.406 523.553 140.34 524.281H145.562C145.497 523.553 145.222 522.965 144.736 522.517C144.26 522.059 143.663 521.831 142.944 521.831ZM149.135 521.033H150.129V526.885L155.043 521.033H155.925V528.397H154.931V522.545L150.031 528.397H149.135V521.033ZM152.481 519.969C151.846 519.969 151.342 519.81 150.969 519.493C150.595 519.175 150.404 518.727 150.395 518.149H151.109C151.118 518.513 151.249 518.807 151.501 519.031C151.753 519.245 152.079 519.353 152.481 519.353C152.882 519.353 153.209 519.245 153.461 519.031C153.722 518.807 153.857 518.513 153.867 518.149H154.581C154.571 518.727 154.375 519.175 153.993 519.493C153.619 519.81 153.115 519.969 152.481 519.969ZM165.213 521.033V528.397H164.219V521.915H160.691L160.593 523.735C160.519 525.265 160.341 526.441 160.061 527.263C159.781 528.084 159.282 528.495 158.563 528.495C158.367 528.495 158.129 528.457 157.849 528.383L157.919 527.529C158.087 527.566 158.204 527.585 158.269 527.585C158.652 527.585 158.941 527.407 159.137 527.053C159.333 526.698 159.464 526.259 159.529 525.737C159.595 525.214 159.651 524.523 159.697 523.665L159.823 521.033H165.213ZM168.459 521.033H169.453V526.885L174.367 521.033H175.249V528.397H174.255V522.545L169.355 528.397H168.459V521.033Z" fill="#F4F4F4"/>
<path d="M100.425 608.597V618.397H99.4174V609.493H97.1074V608.597H100.425ZM103.3 614.169H106.968V615.037H103.3V614.169ZM115.482 617.501V618.397H108.608V617.683L112.682 613.693C113.195 613.189 113.54 612.755 113.718 612.391C113.904 612.017 113.998 611.644 113.998 611.271C113.998 610.692 113.797 610.244 113.396 609.927C113.004 609.6 112.439 609.437 111.702 609.437C110.554 609.437 109.662 609.801 109.028 610.529L108.314 609.913C108.696 609.465 109.182 609.119 109.77 608.877C110.367 608.634 111.039 608.513 111.786 608.513C112.784 608.513 113.573 608.751 114.152 609.227C114.74 609.693 115.034 610.337 115.034 611.159C115.034 611.663 114.922 612.148 114.698 612.615C114.474 613.081 114.049 613.618 113.424 614.225L110.092 617.501H115.482ZM79.8347 625.033H80.8287V628.295H85.4627V625.033H86.4567V632.397H85.4627V629.149H80.8287V632.397H79.8347V625.033ZM96.142 629.023H89.982C90.038 629.788 90.332 630.409 90.864 630.885C91.396 631.351 92.068 631.585 92.88 631.585C93.3373 631.585 93.7573 631.505 94.14 631.347C94.5226 631.179 94.854 630.936 95.134 630.619L95.694 631.263C95.3673 631.655 94.9566 631.953 94.462 632.159C93.9766 632.364 93.44 632.467 92.852 632.467C92.096 632.467 91.424 632.308 90.836 631.991C90.2573 631.664 89.8046 631.216 89.478 630.647C89.1513 630.077 88.988 629.433 88.988 628.715C88.988 627.996 89.142 627.352 89.45 626.783C89.7673 626.213 90.1966 625.77 90.738 625.453C91.2886 625.135 91.9046 624.977 92.586 624.977C93.2673 624.977 93.8786 625.135 94.42 625.453C94.9613 625.77 95.386 626.213 95.694 626.783C96.002 627.343 96.156 627.987 96.156 628.715L96.142 629.023ZM92.586 625.831C91.8766 625.831 91.2793 626.059 90.794 626.517C90.318 626.965 90.0473 627.553 89.982 628.281H95.204C95.1386 627.553 94.8633 626.965 94.378 626.517C93.902 626.059 93.3046 625.831 92.586 625.831ZM105.808 631.529V634.175H104.87V632.397H98.2759V634.175H97.3379V631.529H97.7579C98.2525 631.501 98.5885 631.137 98.7659 630.437C98.9432 629.737 99.0645 628.757 99.1299 627.497L99.2279 625.033H104.66V631.529H105.808ZM100.04 627.553C99.9932 628.598 99.9045 629.461 99.7739 630.143C99.6432 630.815 99.4099 631.277 99.0739 631.529H103.666V625.915H100.124L100.04 627.553ZM114.605 629.023H108.445C108.501 629.788 108.795 630.409 109.327 630.885C109.859 631.351 110.531 631.585 111.343 631.585C111.8 631.585 112.22 631.505 112.603 631.347C112.986 631.179 113.317 630.936 113.597 630.619L114.157 631.263C113.83 631.655 113.42 631.953 112.925 632.159C112.44 632.364 111.903 632.467 111.315 632.467C110.559 632.467 109.887 632.308 109.299 631.991C108.72 631.664 108.268 631.216 107.941 630.647C107.614 630.077 107.451 629.433 107.451 628.715C107.451 627.996 107.605 627.352 107.913 626.783C108.23 626.213 108.66 625.77 109.201 625.453C109.752 625.135 110.368 624.977 111.049 624.977C111.73 624.977 112.342 625.135 112.883 625.453C113.424 625.77 113.849 626.213 114.157 626.783C114.465 627.343 114.619 627.987 114.619 628.715L114.605 629.023ZM111.049 625.831C110.34 625.831 109.742 626.059 109.257 626.517C108.781 626.965 108.51 627.553 108.445 628.281H113.667C113.602 627.553 113.326 626.965 112.841 626.517C112.365 626.059 111.768 625.831 111.049 625.831ZM123.109 625.033V632.397H122.115V625.915H118.587L118.489 627.735C118.414 629.265 118.237 630.441 117.957 631.263C117.677 632.084 117.178 632.495 116.459 632.495C116.263 632.495 116.025 632.457 115.745 632.383L115.815 631.529C115.983 631.566 116.1 631.585 116.165 631.585C116.548 631.585 116.837 631.407 117.033 631.053C117.229 630.698 117.36 630.259 117.425 629.737C117.49 629.214 117.546 628.523 117.593 627.665L117.719 625.033H123.109ZM126.355 625.033H127.349V630.885L132.263 625.033H133.145V632.397H132.151V626.545L127.251 632.397H126.355V625.033Z" fill="#F4F4F4"/>
<path opacity="0.7" d="M27.654 749.898V752.992H26.688V750.794H18.134L18.12 752.992H17.154L17.168 749.898H17.658C18.302 749.86 18.75 749.352 19.002 748.372C19.254 747.382 19.408 745.982 19.464 744.172L19.576 740.994H26.184V749.898H27.654ZM20.388 744.27C20.3413 745.763 20.2247 746.995 20.038 747.966C19.8607 748.927 19.5573 749.571 19.128 749.898H25.162V741.89H20.472L20.388 744.27ZM30.1872 740.994H31.2092V749.114L37.4812 740.994H38.4192V750.794H37.3972V742.688L31.1252 750.794H30.1872V740.994ZM46.4023 745.67C47.0463 745.828 47.5503 746.118 47.9143 746.538C48.2876 746.958 48.4743 747.462 48.4743 748.05C48.4743 748.619 48.297 749.118 47.9423 749.548C47.5876 749.977 47.1163 750.308 46.5283 750.542C45.9403 750.766 45.301 750.878 44.6103 750.878C43.957 750.878 43.313 750.775 42.6783 750.57C42.053 750.355 41.4883 750.038 40.9843 749.618L41.3623 748.876C41.7916 749.24 42.2816 749.52 42.8323 749.716C43.383 749.902 43.9383 749.996 44.4983 749.996C45.0303 749.996 45.5203 749.912 45.9683 749.744C46.4163 749.576 46.771 749.338 47.0323 749.03C47.303 748.712 47.4383 748.339 47.4383 747.91C47.4383 747.34 47.2143 746.902 46.7663 746.594C46.3183 746.286 45.6883 746.132 44.8763 746.132H42.7763V745.292H44.8203C45.511 745.292 46.0476 745.147 46.4303 744.858C46.8223 744.559 47.0183 744.148 47.0183 743.626C47.0183 743.047 46.771 742.594 46.2763 742.268C45.7816 741.932 45.161 741.764 44.4143 741.764C43.9476 741.764 43.4763 741.834 43.0003 741.974C42.5243 742.104 42.0716 742.305 41.6423 742.576L41.2923 741.722C42.263 741.143 43.313 740.854 44.4423 740.854C45.105 740.854 45.7116 740.961 46.2623 741.176C46.813 741.39 47.247 741.698 47.5643 742.1C47.891 742.501 48.0543 742.972 48.0543 743.514C48.0543 744.036 47.9096 744.489 47.6203 744.872C47.331 745.245 46.925 745.511 46.4023 745.67ZM57.7387 748.176H52.2787L51.1027 750.794H50.0247L54.5047 740.994H55.5267L60.0067 750.794H58.9147L57.7387 748.176ZM57.3607 747.336L55.0087 742.072L52.6567 747.336H57.3607ZM62.3047 740.994H63.3267V749.114L69.5987 740.994H70.5367V750.794H69.5147V742.688L63.2427 750.794H62.3047V740.994ZM66.3927 740.28C65.6927 740.28 65.1373 740.121 64.7267 739.804C64.3253 739.486 64.12 739.043 64.1107 738.474H64.8807C64.89 738.847 65.03 739.141 65.3007 739.356C65.5713 739.57 65.9353 739.678 66.3927 739.678C66.8407 739.678 67.2 739.57 67.4707 739.356C67.7507 739.141 67.8953 738.847 67.9047 738.474H68.6747C68.6653 739.043 68.4553 739.486 68.0447 739.804C67.634 740.121 67.0833 740.28 66.3927 740.28ZM82.4537 740.994V750.794H81.4317V746.272H75.2997V750.794H74.2637V740.994H75.2997V745.362H81.4317V740.994H82.4537Z" fill="#F4F4F4"/>
<circle cx="3" cy="745.794" r="3" fill="url(#paint20_linear_444_42)"/>
<path opacity="0.7" d="M25.064 795.89H21.62V804.794H20.598V795.89H17.154V794.994H25.064V795.89ZM34.2325 803.898V804.794H27.3025V794.994H34.0225V795.89H28.3385V799.376H33.4065V800.258H28.3385V803.898H34.2325ZM41.1803 804.878C40.2096 804.878 39.3323 804.663 38.5483 804.234C37.7736 803.804 37.1623 803.212 36.7143 802.456C36.2756 801.69 36.0563 800.836 36.0563 799.894C36.0563 798.951 36.2756 798.102 36.7143 797.346C37.1623 796.58 37.7783 795.983 38.5623 795.554C39.3463 795.124 40.2236 794.91 41.1943 794.91C41.9223 794.91 42.5943 795.031 43.2103 795.274C43.8263 795.516 44.349 795.871 44.7783 796.338L44.1203 796.996C43.355 796.221 42.389 795.834 41.2223 795.834C40.4476 795.834 39.743 796.011 39.1083 796.366C38.4736 796.72 37.9743 797.206 37.6103 797.822C37.2556 798.438 37.0783 799.128 37.0783 799.894C37.0783 800.659 37.2556 801.35 37.6103 801.966C37.9743 802.582 38.4736 803.067 39.1083 803.422C39.743 803.776 40.4476 803.954 41.2223 803.954C42.3983 803.954 43.3643 803.562 44.1203 802.778L44.7783 803.436C44.349 803.902 43.8216 804.262 43.1963 804.514C42.5803 804.756 41.9083 804.878 41.1803 804.878ZM53.6267 795.89H50.1827V804.794H49.1607V795.89H45.7167V794.994H53.6267V795.89ZM55.8652 794.994H56.8872V803.114L63.1592 794.994H64.0972V804.794H63.0752V796.688L56.8032 804.794H55.8652V794.994ZM71.4923 794.994C72.7429 794.994 73.7229 795.292 74.4323 795.89C75.1416 796.487 75.4963 797.308 75.4963 798.354C75.4963 799.399 75.1416 800.22 74.4323 800.818C73.7229 801.406 72.7429 801.7 71.4923 801.7H68.8603V804.794H67.8243V794.994H71.4923ZM71.4643 800.79C72.4349 800.79 73.1769 800.58 73.6903 800.16C74.2036 799.73 74.4603 799.128 74.4603 798.354C74.4603 797.56 74.2036 796.954 73.6903 796.534C73.1769 796.104 72.4349 795.89 71.4643 795.89H68.8603V800.79H71.4643ZM82.4817 804.878C81.5111 804.878 80.6291 804.663 79.8357 804.234C79.0517 803.795 78.4357 803.198 77.9877 802.442C77.5491 801.686 77.3297 800.836 77.3297 799.894C77.3297 798.951 77.5491 798.102 77.9877 797.346C78.4357 796.59 79.0517 795.997 79.8357 795.568C80.6291 795.129 81.5111 794.91 82.4817 794.91C83.4524 794.91 84.3251 795.124 85.0997 795.554C85.8837 795.983 86.4997 796.58 86.9477 797.346C87.3957 798.102 87.6197 798.951 87.6197 799.894C87.6197 800.836 87.3957 801.69 86.9477 802.456C86.4997 803.212 85.8837 803.804 85.0997 804.234C84.3251 804.663 83.4524 804.878 82.4817 804.878ZM82.4817 803.954C83.2564 803.954 83.9564 803.781 84.5817 803.436C85.2071 803.081 85.6971 802.596 86.0517 801.98C86.4064 801.354 86.5837 800.659 86.5837 799.894C86.5837 799.128 86.4064 798.438 86.0517 797.822C85.6971 797.196 85.2071 796.711 84.5817 796.366C83.9564 796.011 83.2564 795.834 82.4817 795.834C81.7071 795.834 81.0024 796.011 80.3677 796.366C79.7424 796.711 79.2477 797.196 78.8837 797.822C78.5291 798.438 78.3517 799.128 78.3517 799.894C78.3517 800.659 78.5291 801.354 78.8837 801.98C79.2477 802.596 79.7424 803.081 80.3677 803.436C81.0024 803.781 81.7071 803.954 82.4817 803.954ZM96.3219 799.74C97.0033 799.88 97.5213 800.155 97.8759 800.566C98.2306 800.967 98.4079 801.494 98.4079 802.148C98.4079 802.997 98.1046 803.65 97.4979 804.108C96.9006 804.565 96.0186 804.794 94.8519 804.794H90.5119V794.994H94.5859C95.6313 794.994 96.4479 795.208 97.0359 795.638C97.6239 796.067 97.9179 796.688 97.9179 797.5C97.9179 798.05 97.7779 798.517 97.4979 798.9C97.2179 799.273 96.8259 799.553 96.3219 799.74ZM91.5339 799.432H94.5299C95.2859 799.432 95.8646 799.278 96.2659 798.97C96.6766 798.662 96.8819 798.214 96.8819 797.626C96.8819 797.038 96.6766 796.59 96.2659 796.282C95.8646 795.974 95.2859 795.82 94.5299 795.82H91.5339V799.432ZM94.8519 803.968C96.5413 803.968 97.3859 803.338 97.3859 802.078C97.3859 800.846 96.5413 800.23 94.8519 800.23H91.5339V803.968H94.8519ZM107.69 802.176H102.23L101.054 804.794H99.9763L104.456 794.994H105.478L109.958 804.794H108.866L107.69 802.176ZM107.312 801.336L104.96 796.072L102.608 801.336H107.312ZM120.446 794.994V804.794H119.424V800.272H113.292V804.794H112.256V794.994H113.292V799.362H119.424V794.994H120.446ZM124.174 794.994H125.196V803.114L131.468 794.994H132.406V804.794H131.384V796.688L125.112 804.794H124.174V794.994ZM143.063 803.898V804.794H136.133V794.994H142.853V795.89H137.169V799.376H142.237V800.258H137.169V803.898H143.063Z" fill="#F4F4F4"/>
<circle cx="3" cy="799.794" r="3" fill="url(#paint21_linear_444_42)"/>
<path opacity="0.7" d="M22.32 767.994C23.5707 767.994 24.5507 768.292 25.26 768.89C25.9693 769.487 26.324 770.308 26.324 771.354C26.324 772.399 25.9693 773.22 25.26 773.818C24.5507 774.406 23.5707 774.7 22.32 774.7H19.688V777.794H18.652V767.994H22.32ZM22.292 773.79C23.2627 773.79 24.0047 773.58 24.518 773.16C25.0313 772.73 25.288 772.128 25.288 771.354C25.288 770.56 25.0313 769.954 24.518 769.534C24.0047 769.104 23.2627 768.89 22.292 768.89H19.688V773.79H22.292ZM34.6545 775.176H29.1945L28.0185 777.794H26.9405L31.4205 767.994H32.4425L36.9225 777.794H35.8305L34.6545 775.176ZM34.2765 774.336L31.9245 769.072L29.5725 774.336H34.2765ZM43.4765 772.67C44.1205 772.828 44.6245 773.118 44.9885 773.538C45.3618 773.958 45.5485 774.462 45.5485 775.05C45.5485 775.619 45.3712 776.118 45.0165 776.548C44.6618 776.977 44.1905 777.308 43.6025 777.542C43.0145 777.766 42.3752 777.878 41.6845 777.878C41.0312 777.878 40.3872 777.775 39.7525 777.57C39.1272 777.355 38.5625 777.038 38.0585 776.618L38.4365 775.876C38.8658 776.24 39.3558 776.52 39.9065 776.716C40.4572 776.902 41.0125 776.996 41.5725 776.996C42.1045 776.996 42.5945 776.912 43.0425 776.744C43.4905 776.576 43.8452 776.338 44.1065 776.03C44.3772 775.712 44.5125 775.339 44.5125 774.91C44.5125 774.34 44.2885 773.902 43.8405 773.594C43.3925 773.286 42.7625 773.132 41.9505 773.132H39.8505V772.292H41.8945C42.5852 772.292 43.1218 772.147 43.5045 771.858C43.8965 771.559 44.0925 771.148 44.0925 770.626C44.0925 770.047 43.8452 769.594 43.3505 769.268C42.8558 768.932 42.2352 768.764 41.4885 768.764C41.0218 768.764 40.5505 768.834 40.0745 768.974C39.5985 769.104 39.1458 769.305 38.7165 769.576L38.3665 768.722C39.3372 768.143 40.3872 767.854 41.5165 767.854C42.1792 767.854 42.7858 767.961 43.3365 768.176C43.8872 768.39 44.3212 768.698 44.6385 769.1C44.9652 769.501 45.1285 769.972 45.1285 770.514C45.1285 771.036 44.9838 771.489 44.6945 771.872C44.4052 772.245 43.9992 772.511 43.4765 772.67ZM52.2089 767.994C53.4596 767.994 54.4396 768.292 55.1489 768.89C55.8582 769.487 56.2129 770.308 56.2129 771.354C56.2129 772.399 55.8582 773.22 55.1489 773.818C54.4396 774.406 53.4596 774.7 52.2089 774.7H49.5769V777.794H48.5409V767.994H52.2089ZM52.1809 773.79C53.1516 773.79 53.8936 773.58 54.4069 773.16C54.9202 772.73 55.1769 772.128 55.1769 771.354C55.1769 770.56 54.9202 769.954 54.4069 769.534C53.8936 769.104 53.1516 768.89 52.1809 768.89H49.5769V773.79H52.1809ZM64.5435 775.176H59.0835L57.9075 777.794H56.8295L61.3095 767.994H62.3315L66.8115 777.794H65.7195L64.5435 775.176ZM64.1655 774.336L61.8135 769.072L59.4615 774.336H64.1655ZM69.1094 767.994H76.2774V768.876H70.1314V772.082H73.3374C74.4948 772.082 75.3721 772.32 75.9694 772.796C76.5761 773.272 76.8794 773.962 76.8794 774.868C76.8794 775.81 76.5528 776.534 75.8994 777.038C75.2554 777.542 74.3268 777.794 73.1134 777.794H69.1094V767.994ZM73.0994 776.968C74.0048 776.968 74.6861 776.795 75.1434 776.45C75.6101 776.104 75.8434 775.591 75.8434 774.91C75.8434 774.238 75.6148 773.738 75.1574 773.412C74.7094 773.076 74.0234 772.908 73.0994 772.908H70.1314V776.968H73.0994ZM83.9993 777.878C83.0286 777.878 82.1466 777.663 81.3533 777.234C80.5693 776.795 79.9533 776.198 79.5053 775.442C79.0666 774.686 78.8473 773.836 78.8473 772.894C78.8473 771.951 79.0666 771.102 79.5053 770.346C79.9533 769.59 80.5693 768.997 81.3533 768.568C82.1466 768.129 83.0286 767.91 83.9993 767.91C84.97 767.91 85.8426 768.124 86.6173 768.554C87.4013 768.983 88.0173 769.58 88.4653 770.346C88.9133 771.102 89.1373 771.951 89.1373 772.894C89.1373 773.836 88.9133 774.69 88.4653 775.456C88.0173 776.212 87.4013 776.804 86.6173 777.234C85.8426 777.663 84.97 777.878 83.9993 777.878ZM83.9993 776.954C84.774 776.954 85.474 776.781 86.0993 776.436C86.7246 776.081 87.2146 775.596 87.5693 774.98C87.924 774.354 88.1013 773.659 88.1013 772.894C88.1013 772.128 87.924 771.438 87.5693 770.822C87.2146 770.196 86.7246 769.711 86.0993 769.366C85.474 769.011 84.774 768.834 83.9993 768.834C83.2246 768.834 82.52 769.011 81.8853 769.366C81.26 769.711 80.7653 770.196 80.4013 770.822C80.0466 771.438 79.8693 772.128 79.8693 772.894C79.8693 773.659 80.0466 774.354 80.4013 774.98C80.7653 775.596 81.26 776.081 81.8853 776.436C82.52 776.781 83.2246 776.954 83.9993 776.954ZM98.3048 768.89H94.8608V777.794H93.8388V768.89H90.3948V767.994H98.3048V768.89ZM103.791 773.3H101.551V777.794H100.543V767.994H101.551V772.39H103.791L107.109 767.994H108.229L104.589 772.754L108.439 777.794H107.249L103.791 773.3ZM116.614 775.176H111.154L109.978 777.794H108.9L113.38 767.994H114.402L118.882 777.794H117.79L116.614 775.176ZM116.236 774.336L113.884 769.072L111.532 774.336H116.236Z" fill="#F4F4F4"/>
<circle cx="3" cy="772.794" r="3" fill="url(#paint22_linear_444_42)"/>
<path opacity="0.7" d="M26.898 848.994V858.794H25.876V849.89H19.674V858.794H18.652V848.994H26.898ZM34.9227 858.878C33.9521 858.878 33.0701 858.663 32.2767 858.234C31.4927 857.795 30.8767 857.198 30.4287 856.442C29.9901 855.686 29.7707 854.836 29.7707 853.894C29.7707 852.951 29.9901 852.102 30.4287 851.346C30.8767 850.59 31.4927 849.997 32.2767 849.568C33.0701 849.129 33.9521 848.91 34.9227 848.91C35.8934 848.91 36.7661 849.124 37.5407 849.554C38.3247 849.983 38.9407 850.58 39.3887 851.346C39.8367 852.102 40.0607 852.951 40.0607 853.894C40.0607 854.836 39.8367 855.69 39.3887 856.456C38.9407 857.212 38.3247 857.804 37.5407 858.234C36.7661 858.663 35.8934 858.878 34.9227 858.878ZM34.9227 857.954C35.6974 857.954 36.3974 857.781 37.0227 857.436C37.6481 857.081 38.1381 856.596 38.4927 855.98C38.8474 855.354 39.0247 854.659 39.0247 853.894C39.0247 853.128 38.8474 852.438 38.4927 851.822C38.1381 851.196 37.6481 850.711 37.0227 850.366C36.3974 850.011 35.6974 849.834 34.9227 849.834C34.1481 849.834 33.4434 850.011 32.8087 850.366C32.1834 850.711 31.6887 851.196 31.3247 851.822C30.9701 852.438 30.7927 853.128 30.7927 853.894C30.7927 854.659 30.9701 855.354 31.3247 855.98C31.6887 856.596 32.1834 857.081 32.8087 857.436C33.4434 857.781 34.1481 857.954 34.9227 857.954ZM51.6815 857.898V860.992H50.7155V858.794H42.1615L42.1475 860.992H41.1815L41.1955 857.898H41.6855C42.3295 857.86 42.7775 857.352 43.0295 856.372C43.2815 855.382 43.4355 853.982 43.4915 852.172L43.6035 848.994H50.2115V857.898H51.6815ZM44.4155 852.27C44.3688 853.763 44.2522 854.995 44.0655 855.966C43.8882 856.927 43.5848 857.571 43.1555 857.898H49.1895V849.89H44.4995L44.4155 852.27ZM63.2167 857.898V860.992H62.2507V858.794H53.6967L53.6827 860.992H52.7167L52.7307 857.898H53.2207C53.8647 857.86 54.3127 857.352 54.5647 856.372C54.8167 855.382 54.9707 853.982 55.0267 852.172L55.1387 848.994H61.7467V857.898H63.2167ZM55.9507 852.27C55.9041 853.763 55.7874 854.995 55.6007 855.966C55.4234 856.927 55.1201 857.571 54.6907 857.898H60.7247V849.89H56.0347L55.9507 852.27ZM72.68 857.898V858.794H65.75V848.994H72.47V849.89H66.786V853.376H71.854V854.258H66.786V857.898H72.68ZM79.0665 848.994C80.3171 848.994 81.2971 849.292 82.0065 849.89C82.7158 850.487 83.0705 851.308 83.0705 852.354C83.0705 853.399 82.7158 854.22 82.0065 854.818C81.2971 855.406 80.3171 855.7 79.0665 855.7H76.4345V858.794H75.3985V848.994H79.0665ZM79.0385 854.79C80.0091 854.79 80.7511 854.58 81.2645 854.16C81.7778 853.73 82.0345 853.128 82.0345 852.354C82.0345 851.56 81.7778 850.954 81.2645 850.534C80.7511 850.104 80.0091 849.89 79.0385 849.89H76.4345V854.79H79.0385ZM93.3685 854.3H91.3385V858.794H90.3305V854.3H88.2865L85.2905 858.794H84.0865L87.4465 853.74L84.3385 848.994H85.4585L88.2725 853.39H90.3305V848.994H91.3385V853.39H93.3685L96.1965 848.994H97.3165L94.2085 853.74L97.5685 858.794H96.3645L93.3685 854.3ZM102.879 854.3H100.639V858.794H99.6311V848.994H100.639V853.39H102.879L106.197 848.994H107.317L103.677 853.754L107.527 858.794H106.337L102.879 854.3ZM115.702 856.176H110.242L109.066 858.794H107.988L112.468 848.994H113.49L117.97 858.794H116.878L115.702 856.176ZM115.324 855.336L112.972 850.072L110.62 855.336H115.324Z" fill="#F4F4F4"/>
<circle cx="3" cy="853.794" r="3" fill="url(#paint23_linear_444_42)"/>
<path opacity="0.7" d="M26.842 821.994V831.794H25.82V827.272H19.688V831.794H18.652V821.994H19.688V826.362H25.82V821.994H26.842ZM36.842 829.176H31.382L30.206 831.794H29.128L33.608 821.994H34.63L39.11 831.794H38.018L36.842 829.176ZM36.464 828.336L34.112 823.072L31.76 828.336H36.464ZM49.1214 821.994V831.794H48.0994V822.89H43.3674L43.2554 826.166C43.2087 827.519 43.0967 828.611 42.9194 829.442C42.7514 830.263 42.49 830.879 42.1354 831.29C41.7807 831.691 41.3094 831.892 40.7214 831.892C40.4694 831.892 40.208 831.859 39.9374 831.794L40.0214 830.87C40.18 830.907 40.334 830.926 40.4834 830.926C40.894 830.926 41.2254 830.762 41.4774 830.436C41.7387 830.109 41.9347 829.605 42.0654 828.924C42.196 828.233 42.2847 827.323 42.3314 826.194L42.4714 821.994H49.1214ZM59.1195 829.176H53.6595L52.4835 831.794H51.4055L55.8855 821.994H56.9075L61.3875 831.794H60.2955L59.1195 829.176ZM58.7415 828.336L56.3895 823.072L54.0375 828.336H58.7415ZM72.7149 830.898V833.992H71.7489V831.794H63.1949L63.1809 833.992H62.2149L62.2289 830.898H62.7189C63.3629 830.86 63.8109 830.352 64.0629 829.372C64.3149 828.382 64.4689 826.982 64.5249 825.172L64.6369 821.994H71.2449V830.898H72.7149ZM65.4489 825.27C65.4022 826.763 65.2855 827.995 65.0989 828.966C64.9215 829.927 64.6182 830.571 64.1889 830.898H70.2229V822.89H65.5329L65.4489 825.27ZM78.4961 827.3H76.2561V831.794H75.2481V821.994H76.2561V826.39H78.4961L81.8141 821.994H82.9341L79.2941 826.754L83.1441 831.794H81.9541L78.4961 827.3ZM91.319 829.176H85.859L84.683 831.794H83.605L88.085 821.994H89.107L93.587 831.794H92.495L91.319 829.176ZM90.941 828.336L88.589 823.072L86.237 828.336H90.941Z" fill="#F4F4F4"/>
<circle cx="3" cy="826.794" r="3" fill="url(#paint24_linear_444_42)"/>
<defs>
<linearGradient id="paint0_linear_444_42" x1="16.3224" y1="322" x2="107.822" y2="235" gradientUnits="userSpaceOnUse">
<stop stop-color="#6A11CB"/>
<stop offset="1" stop-color="#2575FC"/>
</linearGradient>
<linearGradient id="paint1_linear_444_42" x1="6.82239" y1="327.5" x2="113.822" y2="235" gradientUnits="userSpaceOnUse">
<stop stop-color="#6A11CB"/>
<stop offset="1" stop-color="#2575FC"/>
</linearGradient>
<linearGradient id="paint2_linear_444_42" x1="3.82227" y1="325" x2="107.822" y2="239.5" gradientUnits="userSpaceOnUse">
<stop stop-color="#6A11CB"/>
<stop offset="1" stop-color="#2575FC"/>
</linearGradient>
<linearGradient id="paint3_linear_444_42" x1="10" y1="87" x2="122.5" y2="3.74589e-07" gradientUnits="userSpaceOnUse">
<stop stop-color="#6A11CB"/>
<stop offset="1" stop-color="#2575FC"/>
</linearGradient>
<linearGradient id="paint4_linear_444_42" x1="15.4999" y1="88.5" x2="123.5" y2="-1.5" gradientUnits="userSpaceOnUse">
<stop stop-color="#6A11CB"/>
<stop offset="1" stop-color="#2575FC"/>
</linearGradient>
<linearGradient id="paint5_linear_444_42" x1="12.9999" y1="90" x2="122.5" y2="1.49999" gradientUnits="userSpaceOnUse">
<stop stop-color="#6A11CB"/>
<stop offset="1" stop-color="#2575FC"/>
</linearGradient>
<linearGradient id="paint6_linear_444_42" x1="17.0002" y1="91.5" x2="121" y2="3.68395e-06" gradientUnits="userSpaceOnUse">
<stop stop-color="#6A11CB"/>
<stop offset="1" stop-color="#2575FC"/>
</linearGradient>
<linearGradient id="paint7_linear_444_42" x1="17.0001" y1="87" x2="119.5" y2="-1.5" gradientUnits="userSpaceOnUse">
<stop stop-color="#6A11CB"/>
<stop offset="1" stop-color="#2575FC"/>
</linearGradient>
<linearGradient id="paint8_linear_444_42" x1="13.0001" y1="90" x2="121" y2="-3.27951e-06" gradientUnits="userSpaceOnUse">
<stop stop-color="#6A11CB"/>
<stop offset="1" stop-color="#2575FC"/>
</linearGradient>
<linearGradient id="paint9_linear_444_42" x1="11.4999" y1="88.5" x2="122" y2="-3.26041e-06" gradientUnits="userSpaceOnUse">
<stop stop-color="#6A11CB"/>
<stop offset="1" stop-color="#2575FC"/>
</linearGradient>
<linearGradient id="paint10_linear_444_42" x1="13.9999" y1="90" x2="119.5" y2="-1.49999" gradientUnits="userSpaceOnUse">
<stop stop-color="#6A11CB"/>
<stop offset="1" stop-color="#2575FC"/>
</linearGradient>
<linearGradient id="paint11_linear_444_42" x1="16.9998" y1="90" x2="126.5" y2="-2.5" gradientUnits="userSpaceOnUse">
<stop stop-color="#6A11CB"/>
<stop offset="1" stop-color="#2575FC"/>
</linearGradient>
<linearGradient id="paint12_linear_444_42" x1="62" y1="167.911" x2="62" y2="214.911" gradientUnits="userSpaceOnUse">
<stop stop-color="#6516CE"/>
<stop offset="1" stop-color="#2671FA"/>
</linearGradient>
<linearGradient id="paint13_linear_444_42" x1="62" y1="402.911" x2="62" y2="449.911" gradientUnits="userSpaceOnUse">
<stop stop-color="#6516CE"/>
<stop offset="1" stop-color="#2671FA"/>
</linearGradient>
<linearGradient id="paint14_linear_444_42" x1="62" y1="881.911" x2="62" y2="928.911" gradientUnits="userSpaceOnUse">
<stop stop-color="#6516CE"/>
<stop offset="1" stop-color="#2671FA"/>
</linearGradient>
<linearGradient id="paint15_linear_444_42" x1="122.005" y1="949" x2="1.00463" y2="1039" gradientUnits="userSpaceOnUse">
<stop stop-color="#266EF9"/>
<stop offset="1" stop-color="#5D1ED1"/>
</linearGradient>
<linearGradient id="paint16_linear_444_42" x1="170.977" y1="475.757" x2="118.135" y2="579.023" gradientUnits="userSpaceOnUse">
<stop stop-color="#2672FA"/>
<stop offset="1" stop-color="#621BD0"/>
</linearGradient>
<linearGradient id="paint17_linear_444_42" x1="142.574" y1="562.11" x2="5.76601" y2="690.755" gradientUnits="userSpaceOnUse">
<stop stop-color="#2671FA"/>
<stop offset="1" stop-color="#611CD1"/>
</linearGradient>
<linearGradient id="paint18_linear_444_42" x1="157.805" y1="570.915" x2="0.336817" y2="690.793" gradientUnits="userSpaceOnUse">
<stop stop-color="#2671FA"/>
<stop offset="1" stop-color="#621ACF"/>
</linearGradient>
<linearGradient id="paint19_linear_444_42" x1="152.386" y1="571.931" x2="1.35276" y2="690.793" gradientUnits="userSpaceOnUse">
<stop stop-color="#286FF9"/>
<stop offset="1" stop-color="#621BD0"/>
</linearGradient>
<linearGradient id="paint20_linear_444_42" x1="3" y1="742.794" x2="3" y2="748.794" gradientUnits="userSpaceOnUse">
<stop stop-color="#286BF8"/>
<stop offset="1" stop-color="#5F1BD0"/>
</linearGradient>
<linearGradient id="paint21_linear_444_42" x1="3" y1="796.794" x2="3" y2="802.794" gradientUnits="userSpaceOnUse">
<stop stop-color="#286BF8"/>
<stop offset="1" stop-color="#5F1BD0"/>
</linearGradient>
<linearGradient id="paint22_linear_444_42" x1="3" y1="769.794" x2="3" y2="775.794" gradientUnits="userSpaceOnUse">
<stop stop-color="#286BF8"/>
<stop offset="1" stop-color="#5F1BD0"/>
</linearGradient>
<linearGradient id="paint23_linear_444_42" x1="3" y1="850.794" x2="3" y2="856.794" gradientUnits="userSpaceOnUse">
<stop stop-color="#286BF8"/>
<stop offset="1" stop-color="#5F1BD0"/>
</linearGradient>
<linearGradient id="paint24_linear_444_42" x1="3" y1="823.794" x2="3" y2="829.794" gradientUnits="userSpaceOnUse">
<stop stop-color="#286BF8"/>
<stop offset="1" stop-color="#5F1BD0"/>
</linearGradient>
</defs>
</svg>
