<svg width="1484" height="622" fill="none" xmlns="http://www.w3.org/2000/svg"><path d="M355.799 615.02v4.662h-2.16V617h-9.666v2.682h-2.178l.018-4.662h.54c.792-.036 1.344-.618 1.656-1.746.324-1.14.522-2.766.594-4.878l.144-3.996h9.234v10.62h1.818Zm-9.144-6.408c-.06 1.632-.192 2.994-.396 4.086-.204 1.08-.528 1.854-.972 2.322h6.39v-8.64h-4.932l-.09 2.232Zm11.906-4.212h2.304v8.946l6.768-8.946h2.178V617h-2.304v-8.928L360.739 617h-2.178v-12.6Zm21.947 6.03c.756.24 1.344.63 1.764 1.17.432.528.648 1.152.648 1.872 0 .756-.246 1.416-.738 1.98-.492.552-1.152.978-1.98 1.278-.816.3-1.71.45-2.682.45-.84 0-1.686-.114-2.538-.342a8.606 8.606 0 0 1-2.34-1.062l.756-1.71c.552.372 1.164.66 1.836.864a7.246 7.246 0 0 0 1.998.288c.948 0 1.734-.186 2.358-.558.636-.372.954-.882.954-1.53 0-.552-.228-.972-.684-1.26-.456-.288-1.086-.432-1.89-.432h-2.934v-1.836h2.754c.696 0 1.242-.144 1.638-.432.396-.288.594-.678.594-1.17 0-.588-.27-1.044-.81-1.368-.528-.324-1.206-.486-2.034-.486-.564 0-1.146.084-1.746.252-.6.156-1.164.39-1.692.702l-.738-1.89a8.308 8.308 0 0 1 2.052-.774 9.095 9.095 0 0 1 2.178-.27c.936 0 1.794.144 2.574.432.792.288 1.422.702 1.89 1.242a2.73 2.73 0 0 1 .702 1.872c0 .624-.168 1.17-.504 1.638-.336.468-.798.828-1.386 1.08Zm13.957 3.654h-6.3L386.923 617h-2.412l5.67-12.6h2.304l5.688 12.6h-2.448l-1.26-2.916Zm-.774-1.836-2.376-5.508-2.358 5.508h4.734Zm6.972-7.848h2.304v8.946l6.768-8.946h2.178V617h-2.304v-8.928L402.841 617h-2.178v-12.6Zm5.598-.846c-1.08 0-1.896-.222-2.448-.666-.54-.444-.816-1.092-.828-1.944h1.638c.012.444.156.786.432 1.026s.678.36 1.206.36c.516 0 .918-.12 1.206-.36.3-.24.456-.582.468-1.026h1.62c-.012.84-.3 1.488-.864 1.944-.552.444-1.362.666-2.43.666Zm20.921.846V617h-2.34v-5.4h-6.516v5.4h-2.34v-12.6h2.34v5.202h6.516V604.4h2.34ZM518.491 604.4c1.092 0 2.04.18 2.844.54.816.36 1.44.876 1.872 1.548.432.672.648 1.47.648 2.394 0 .912-.216 1.71-.648 2.394-.432.672-1.056 1.188-1.872 1.548-.804.36-1.752.54-2.844.54h-2.844V617h-2.34v-12.6h5.184Zm-.108 6.984c1.02 0 1.794-.216 2.322-.648.528-.432.792-1.05.792-1.854s-.264-1.422-.792-1.854c-.528-.432-1.302-.648-2.322-.648h-2.736v5.004h2.736Zm15.945 2.7h-6.3L526.786 617h-2.412l5.67-12.6h2.304l5.688 12.6h-2.448l-1.26-2.916Zm-.774-1.836-2.376-5.508-2.358 5.508h4.734Zm13.579-1.818c.756.24 1.344.63 1.764 1.17.432.528.648 1.152.648 1.872 0 .756-.246 1.416-.738 1.98-.492.552-1.152.978-1.98 1.278-.816.3-1.71.45-2.682.45-.84 0-1.686-.114-2.538-.342a8.606 8.606 0 0 1-2.34-1.062l.756-1.71c.552.372 1.164.66 1.836.864a7.246 7.246 0 0 0 1.998.288c.948 0 1.734-.186 2.358-.558.636-.372.954-.882.954-1.53 0-.552-.228-.972-.684-1.26-.456-.288-1.086-.432-1.89-.432h-2.934v-1.836h2.754c.696 0 1.242-.144 1.638-.432.396-.288.594-.678.594-1.17 0-.588-.27-1.044-.81-1.368-.528-.324-1.206-.486-2.034-.486-.564 0-1.146.084-1.746.252-.6.156-1.164.39-1.692.702l-.738-1.89a8.308 8.308 0 0 1 2.052-.774 9.095 9.095 0 0 1 2.178-.27c.936 0 1.794.144 2.574.432.792.288 1.422.702 1.89 1.242a2.73 2.73 0 0 1 .702 1.872c0 .624-.168 1.17-.504 1.638-.336.468-.798.828-1.386 1.08Zm10.789-6.03c1.092 0 2.04.18 2.844.54.816.36 1.44.876 1.872 1.548.432.672.648 1.47.648 2.394 0 .912-.216 1.71-.648 2.394-.432.672-1.056 1.188-1.872 1.548-.804.36-1.752.54-2.844.54h-2.844V617h-2.34v-12.6h5.184Zm-.108 6.984c1.02 0 1.794-.216 2.322-.648.528-.432.792-1.05.792-1.854s-.264-1.422-.792-1.854c-.528-.432-1.302-.648-2.322-.648h-2.736v5.004h2.736Zm15.945 2.7h-6.3L566.217 617h-2.412l5.67-12.6h2.304l5.688 12.6h-2.448l-1.26-2.916Zm-.774-1.836-2.376-5.508-2.358 5.508h4.734Zm6.972-7.848h9.81v1.926h-7.506v3.096h3.726c1.512 0 2.658.318 3.438.954.792.624 1.188 1.53 1.188 2.718 0 1.248-.432 2.214-1.296 2.898-.864.672-2.094 1.008-3.69 1.008h-5.67v-12.6Zm5.544 10.8c.9 0 1.584-.174 2.052-.522.468-.348.702-.852.702-1.512 0-1.296-.918-1.944-2.754-1.944h-3.24v3.978h3.24Zm14.046 1.98c-1.284 0-2.442-.276-3.474-.828a6.283 6.283 0 0 1-2.43-2.322c-.588-.996-.882-2.106-.882-3.33 0-1.224.294-2.328.882-3.312a6.116 6.116 0 0 1 2.43-2.322c1.032-.564 2.19-.846 3.474-.846 1.284 0 2.442.282 3.474.846a6.154 6.154 0 0 1 2.43 2.304c.588.984.882 2.094.882 3.33 0 1.236-.294 2.346-.882 3.33a6.283 6.283 0 0 1-2.43 2.322c-1.032.552-2.19.828-3.474.828Zm0-2.052c.84 0 1.596-.186 2.268-.558a4.183 4.183 0 0 0 1.584-1.584c.384-.684.576-1.446.576-2.286 0-.84-.192-1.596-.576-2.268a4.022 4.022 0 0 0-1.584-1.584c-.672-.384-1.428-.576-2.268-.576-.84 0-1.596.192-2.268.576-.672.372-1.2.9-1.584 1.584-.384.672-.576 1.428-.576 2.268 0 .84.192 1.602.576 2.286.384.672.912 1.2 1.584 1.584.672.372 1.428.558 2.268.558Zm18.882-8.748h-4.176V617h-2.322v-10.62h-4.158v-1.98h10.656v1.98Zm7.202 5.31h-2.34V617h-2.304v-12.6h2.304v5.274h2.412l3.618-5.274h2.484l-4.302 6.102 4.464 6.498h-2.646l-3.69-5.31Zm16.605 2.394h-6.3L634.694 617h-2.412l5.67-12.6h2.304l5.688 12.6h-2.448l-1.26-2.916Zm-.774-1.836-2.376-5.508-2.358 5.508h4.734ZM687.451 606.38h-4.176V617h-2.322v-10.62h-4.158v-1.98h10.656v1.98Zm12.009 8.658V617h-9.45v-12.6h9.198v1.962h-6.858v3.276h6.084v1.926h-6.084v3.474h7.11Zm8.891 2.142c-1.272 0-2.424-.276-3.456-.828a6.318 6.318 0 0 1-2.412-2.322c-.576-.984-.864-2.094-.864-3.33 0-1.236.294-2.346.882-3.33a6.187 6.187 0 0 1 2.412-2.304c1.032-.564 2.184-.846 3.456-.846 1.032 0 1.974.18 2.826.54.852.36 1.572.882 2.16 1.566l-1.512 1.422c-.912-.984-2.034-1.476-3.366-1.476-.864 0-1.638.192-2.322.576a4.023 4.023 0 0 0-1.602 1.566c-.384.672-.576 1.434-.576 2.286 0 .852.192 1.614.576 2.286.384.672.918 1.2 1.602 1.584.684.372 1.458.558 2.322.558 1.332 0 2.454-.498 3.366-1.494l1.512 1.44a5.734 5.734 0 0 1-2.178 1.566c-.852.36-1.794.54-2.826.54Zm16.72-10.8h-4.176V617h-2.322v-10.62h-4.158v-1.98h10.656v1.98Zm2.577-1.98h2.304v8.946l6.768-8.946h2.178V617h-2.304v-8.928L729.826 617h-2.178v-12.6Zm20.506 0c1.092 0 2.04.18 2.844.54.816.36 1.44.876 1.872 1.548.432.672.648 1.47.648 2.394 0 .912-.216 1.71-.648 2.394-.432.672-1.056 1.188-1.872 1.548-.804.36-1.752.54-2.844.54h-2.844V617h-2.34v-12.6h5.184Zm-.108 6.984c1.02 0 1.794-.216 2.322-.648.528-.432.792-1.05.792-1.854s-.264-1.422-.792-1.854c-.528-.432-1.302-.648-2.322-.648h-2.736v5.004h2.736Zm14.234 5.796c-1.284 0-2.442-.276-3.474-.828a6.283 6.283 0 0 1-2.43-2.322c-.588-.996-.882-2.106-.882-3.33 0-1.224.294-2.328.882-3.312a6.116 6.116 0 0 1 2.43-2.322c1.032-.564 2.19-.846 3.474-.846 1.284 0 2.442.282 3.474.846a6.154 6.154 0 0 1 2.43 2.304c.588.984.882 2.094.882 3.33 0 1.236-.294 2.346-.882 3.33a6.283 6.283 0 0 1-2.43 2.322c-1.032.552-2.19.828-3.474.828Zm0-2.052c.84 0 1.596-.186 2.268-.558a4.183 4.183 0 0 0 1.584-1.584c.384-.684.576-1.446.576-2.286 0-.84-.192-1.596-.576-2.268a4.022 4.022 0 0 0-1.584-1.584c-.672-.384-1.428-.576-2.268-.576-.84 0-1.596.192-2.268.576-.672.372-1.2.9-1.584 1.584-.384.672-.576 1.428-.576 2.268 0 .84.192 1.602.576 2.286.384.672.912 1.2 1.584 1.584.672.372 1.428.558 2.268.558Zm18.211-4.68c.804.216 1.416.588 1.836 1.116.42.516.63 1.164.63 1.944 0 1.104-.408 1.962-1.224 2.574-.816.612-1.998.918-3.546.918h-5.976v-12.6h5.634c1.416 0 2.52.282 3.312.846.792.564 1.188 1.362 1.188 2.394 0 .66-.162 1.23-.486 1.71-.312.48-.768.846-1.368 1.098Zm-5.976-.666h3.132c.756 0 1.332-.15 1.728-.45.396-.3.594-.744.594-1.332 0-.588-.198-1.032-.594-1.332-.396-.312-.972-.468-1.728-.468h-3.132v3.582Zm3.6 5.418c1.656 0 2.484-.624 2.484-1.872 0-1.224-.828-1.836-2.484-1.836h-3.6v3.708h3.6Zm16.4-1.116h-6.3L786.973 617h-2.412l5.67-12.6h2.304l5.688 12.6h-2.448l-1.26-2.916Zm-.774-1.836-2.376-5.508-2.358 5.508h4.734Zm18.15-7.848V617h-2.34v-5.4h-6.516v5.4h-2.34v-12.6h2.34v5.202h6.516V604.4h2.34Zm4.092 0h2.304v8.946l6.768-8.946h2.178V617h-2.304v-8.928L818.161 617h-2.178v-12.6Zm24.773 10.638V617h-9.45v-12.6h9.198v1.962h-6.858v3.276h6.084v1.926h-6.084v3.474h7.11ZM910.503 604.4V617h-2.34v-5.4h-6.516v5.4h-2.34v-12.6h2.34v5.202h6.516V604.4h2.34Zm12.427 9.684h-6.3L915.388 617h-2.412l5.67-12.6h2.304l5.688 12.6h-2.448l-1.26-2.916Zm-.774-1.836-2.376-5.508-2.358 5.508h4.734Zm17.806-7.848V617h-2.304v-10.62h-4.968l-.108 3.15c-.06 1.764-.204 3.198-.432 4.302-.228 1.092-.594 1.926-1.098 2.502-.504.564-1.2.846-2.088.846-.312 0-.738-.06-1.278-.18l.162-2.034c.156.048.336.072.54.072.732 0 1.248-.432 1.548-1.296.312-.876.504-2.25.576-4.122l.18-5.22h9.27Zm12.437 9.684h-6.3L944.857 617h-2.412l5.67-12.6h2.304l5.688 12.6h-2.448l-1.26-2.916Zm-.774-1.836-2.376-5.508-2.358 5.508h4.734Zm19.534 2.772v4.662h-2.16V617h-9.666v2.682h-2.178l.018-4.662h.54c.792-.036 1.344-.618 1.656-1.746.324-1.14.522-2.766.594-4.878l.144-3.996h9.234v10.62h1.818Zm-9.144-6.408c-.06 1.632-.192 2.994-.396 4.086-.204 1.08-.528 1.854-.972 2.322h6.39v-8.64h-4.932l-.09 2.232Zm16.531 3.078h-2.34V617h-2.304v-12.6h2.304v5.274h2.412l3.618-5.274h2.484l-4.302 6.102 4.464 6.498h-2.646l-3.69-5.31Zm16.605 2.394h-6.3L987.609 617h-2.412l5.67-12.6h2.304l5.688 12.6h-2.448l-1.26-2.916Zm-.774-1.836-2.376-5.508-2.358 5.508h4.734ZM1084.47 604.4V617h-2.31v-10.62h-6.53V617h-2.3v-12.6h11.14Zm9.92 12.78c-1.28 0-2.44-.276-3.47-.828a6.31 6.31 0 0 1-2.43-2.322c-.59-.996-.88-2.106-.88-3.33 0-1.224.29-2.328.88-3.312.59-.996 1.4-1.77 2.43-2.322 1.03-.564 2.19-.846 3.47-.846 1.29 0 2.44.282 3.48.846a6.181 6.181 0 0 1 2.43 2.304c.58.984.88 2.094.88 3.33 0 1.236-.3 2.346-.88 3.33a6.31 6.31 0 0 1-2.43 2.322c-1.04.552-2.19.828-3.48.828Zm0-2.052c.84 0 1.6-.186 2.27-.558.67-.384 1.2-.912 1.58-1.584.39-.684.58-1.446.58-2.286 0-.84-.19-1.596-.58-2.268a4 4 0 0 0-1.58-1.584c-.67-.384-1.43-.576-2.27-.576-.84 0-1.59.192-2.27.576a4 4 0 0 0-1.58 1.584 4.533 4.533 0 0 0-.58 2.268c0 .84.2 1.602.58 2.286.38.672.91 1.2 1.58 1.584.68.372 1.43.558 2.27.558Zm22.06-.108v4.662h-2.16V617h-9.67v2.682h-2.18l.02-4.662h.54c.79-.036 1.34-.618 1.66-1.746.32-1.14.52-2.766.59-4.878l.14-3.996h9.24v10.62h1.82Zm-9.15-6.408c-.06 1.632-.19 2.994-.39 4.086-.21 1.08-.53 1.854-.98 2.322h6.39v-8.64h-4.93l-.09 2.232Zm24.38 6.408v4.662h-2.16V617h-9.66v2.682h-2.18l.02-4.662h.54c.79-.036 1.34-.618 1.65-1.746.33-1.14.52-2.766.6-4.878l.14-3.996h9.23v10.62h1.82Zm-9.14-6.408c-.06 1.632-.19 2.994-.4 4.086-.2 1.08-.53 1.854-.97 2.322h6.39v-8.64h-4.93l-.09 2.232Zm21.33 6.426V617h-9.45v-12.6h9.2v1.962h-6.86v3.276h6.09v1.926h-6.09v3.474h7.11Zm8.34-10.638c1.09 0 2.04.18 2.84.54.82.36 1.44.876 1.87 1.548.44.672.65 1.47.65 2.394 0 .912-.21 1.71-.65 2.394-.43.672-1.05 1.188-1.87 1.548-.8.36-1.75.54-2.84.54h-2.85V617h-2.34v-12.6h5.19Zm-.11 6.984c1.02 0 1.79-.216 2.32-.648.53-.432.79-1.05.79-1.854s-.26-1.422-.79-1.854c-.53-.432-1.3-.648-2.32-.648h-2.74v5.004h2.74Zm18.96.306h-2.16V617h-2.29v-5.31h-2.16l-3.18 5.31h-2.7l3.96-6.57-3.69-6.03h2.48l3.08 5.274h2.21V604.4h2.29v5.274h2.18l3.09-5.274h2.49l-3.67 6.048 3.94 6.552h-2.7l-3.17-5.31Zm12.68 0h-2.34V617h-2.31v-12.6h2.31v5.274h2.41l3.62-5.274h2.48l-4.3 6.102 4.46 6.498h-2.64l-3.69-5.31Zm16.6 2.394h-6.3L1192.8 617h-2.41l5.67-12.6h2.3l5.69 12.6h-2.45l-1.26-2.916Zm-.77-1.836-2.38-5.508-2.36 5.508h4.74Z" fill="#F4F4F4"/><path d="M386.828 563v-91.5a5 5 0 0 1 5-5H571.84m0 0V563m0-96.5h188.149m0 0V563m0-96.5h-.142m189.858 0V563m0-96.5h183.145c2.77 0 5 2.239 5 5V563m-188.145-96.5H759.847m0 0V359" stroke="url(#a)" stroke-width="3"/><rect x="312.721" y="236" width="108.071" height="25.998" rx="4" fill="url(#b)"/><rect x="319.348" y="268.115" width="107.561" height="25.998" rx="4" fill="url(#c)"/><rect x="325.975" y="300.23" width="108.071" height="25.998" rx="4" fill="url(#d)"/><path d="M301.008 370.2h13.08v2.568H304.08v4.128h4.968c2.016 0 3.544.424 4.584 1.272 1.056.832 1.584 2.04 1.584 3.624 0 1.664-.576 2.952-1.728 3.864-1.152.896-2.792 1.344-4.92 1.344h-7.56v-16.8Zm7.392 14.4c1.2 0 2.112-.232 2.736-.696.624-.464.936-1.136.936-2.016 0-1.728-1.224-2.592-3.672-2.592h-4.32v5.304h4.32Zm15.945-14.64c1.632 0 3.096.376 4.392 1.128a7.876 7.876 0 0 1 3.072 3.072c.736 1.312 1.104 2.792 1.104 4.44 0 1.648-.368 3.128-1.104 4.44a8.044 8.044 0 0 1-3.072 3.096c-1.296.736-2.76 1.104-4.392 1.104-1.424 0-2.72-.24-3.888-.72-1.152-.48-2.112-1.176-2.88-2.088l1.968-1.92c1.232 1.328 2.776 1.992 4.632 1.992 1.44 0 2.656-.44 3.648-1.32 1.008-.88 1.624-2.04 1.848-3.48h-7.512v-2.472h7.464c-.272-1.36-.904-2.456-1.896-3.288-.976-.832-2.16-1.248-3.552-1.248-1.856 0-3.4.664-4.632 1.992l-1.968-1.92c.768-.912 1.728-1.608 2.88-2.088 1.168-.48 2.464-.72 3.888-.72Zm18.959 9.96h-3.12V387h-3.072v-16.8h3.072v7.032h3.216l4.824-7.032h3.312l-5.736 8.136 5.952 8.664h-3.528l-4.92-7.08Zm26.036-9.72V387h-3.072v-14.16h-6.624l-.144 4.2c-.08 2.352-.272 4.264-.576 5.736-.304 1.456-.792 2.568-1.464 3.336-.672.752-1.6 1.128-2.784 1.128-.416 0-.984-.08-1.704-.24l.216-2.712c.208.064.448.096.72.096.976 0 1.664-.576 2.064-1.728.416-1.168.672-3 .768-5.496l.24-6.96h12.36Zm13.222 17.04c-1.712 0-3.256-.368-4.632-1.104-1.376-.752-2.456-1.784-3.24-3.096-.784-1.328-1.176-2.808-1.176-4.44 0-1.632.392-3.104 1.176-4.416a8.155 8.155 0 0 1 3.24-3.096c1.376-.752 2.92-1.128 4.632-1.128 1.712 0 3.256.376 4.632 1.128a8.206 8.206 0 0 1 3.24 3.072c.784 1.312 1.176 2.792 1.176 4.44 0 1.648-.392 3.128-1.176 4.44-.784 1.312-1.864 2.344-3.24 3.096-1.376.736-2.92 1.104-4.632 1.104Zm0-2.736c1.12 0 2.128-.248 3.024-.744a5.578 5.578 0 0 0 2.112-2.112c.512-.912.768-1.928.768-3.048s-.256-2.128-.768-3.024a5.363 5.363 0 0 0-2.112-2.112c-.896-.512-1.904-.768-3.024-.768s-2.128.256-3.024.768c-.896.496-1.6 1.2-2.112 2.112-.512.896-.768 1.904-.768 3.024s.256 2.136.768 3.048a5.578 5.578 0 0 0 2.112 2.112c.896.496 1.904.744 3.024.744Zm24.618-11.664h-8.328l.024 14.16h-3.072v-16.8h11.4l-.024 2.64Zm-98.468 44.4c-1.696 0-3.232-.368-4.608-1.104a8.424 8.424 0 0 1-3.216-3.096c-.768-1.312-1.152-2.792-1.152-4.44 0-1.648.392-3.128 1.176-4.44a8.249 8.249 0 0 1 3.216-3.072c1.376-.752 2.912-1.128 4.608-1.128 1.376 0 2.632.24 3.768.72a7.685 7.685 0 0 1 2.88 2.088l-2.016 1.896c-1.216-1.312-2.712-1.968-4.488-1.968-1.152 0-2.184.256-3.096.768a5.364 5.364 0 0 0-2.136 2.088c-.512.896-.768 1.912-.768 3.048 0 1.136.256 2.152.768 3.048a5.53 5.53 0 0 0 2.136 2.112c.912.496 1.944.744 3.096.744 1.776 0 3.272-.664 4.488-1.992l2.016 1.92a7.645 7.645 0 0 1-2.904 2.088c-1.136.48-2.392.72-3.768.72Zm25.169-17.04V417h-3.072v-14.16h-8.712V417h-3.072v-16.8h14.856Zm12.369 0c1.456 0 2.72.24 3.792.72 1.088.48 1.92 1.168 2.496 2.064.576.896.864 1.96.864 3.192 0 1.216-.288 2.28-.864 3.192-.576.896-1.408 1.584-2.496 2.064-1.072.48-2.336.72-3.792.72h-3.792V417h-3.12v-16.8h6.912Zm-.144 9.312c1.36 0 2.392-.288 3.096-.864.704-.576 1.056-1.4 1.056-2.472s-.352-1.896-1.056-2.472c-.704-.576-1.736-.864-3.096-.864h-3.648v6.672h3.648Zm10.992-9.312h3.072v11.928l9.024-11.928h2.904V417h-3.072v-11.904L360.002 417h-2.904v-16.8Zm35.358 0V417h-3.12v-7.2h-8.688v7.2h-3.12v-16.8h3.12v6.936h8.688V400.2h3.12Zm17.625 2.64h-5.568V417h-3.096v-14.16h-5.544v-2.64h14.208v2.64Zm13.703 10.272h-8.4L413.728 417h-3.216l7.56-16.8h3.072l7.584 16.8h-3.264l-1.68-3.888Zm-1.032-2.448-3.168-7.344-3.144 7.344h6.312ZM2.92 370.2H16v2.568H5.99v4.128h4.969c2.015 0 3.543.424 4.583 1.272 1.056.832 1.585 2.04 1.585 3.624 0 1.664-.576 2.952-1.729 3.864-1.151.896-2.791 1.344-4.92 1.344H2.92v-16.8Zm7.392 14.4c1.2 0 2.112-.232 2.736-.696.623-.464.935-1.136.935-2.016 0-1.728-1.224-2.592-3.671-2.592h-4.32v5.304h4.32Zm15.944-14.64c1.632 0 3.096.376 4.392 1.128a7.876 7.876 0 0 1 3.072 3.072c.736 1.312 1.104 2.792 1.104 4.44 0 1.648-.368 3.128-1.104 4.44a8.044 8.044 0 0 1-3.072 3.096c-1.296.736-2.76 1.104-4.392 1.104-1.424 0-2.72-.24-3.888-.72-1.152-.48-2.112-1.176-2.88-2.088l1.968-1.92c1.232 1.328 2.776 1.992 4.632 1.992 1.44 0 2.656-.44 3.648-1.32 1.008-.88 1.624-2.04 1.848-3.48h-7.512v-2.472h7.464c-.272-1.36-.904-2.456-1.896-3.288-.976-.832-2.16-1.248-3.552-1.248-1.856 0-3.4.664-4.632 1.992l-1.968-1.92c.768-.912 1.728-1.608 2.88-2.088 1.168-.48 2.464-.72 3.888-.72Zm18.959 9.96h-3.12V387h-3.072v-16.8h3.072v7.032h3.216l4.824-7.032h3.312l-5.736 8.136L53.663 387h-3.528l-4.92-7.08Zm26.036-9.72V387H68.18v-14.16h-6.624l-.144 4.2c-.08 2.352-.272 4.264-.576 5.736-.304 1.456-.792 2.568-1.464 3.336-.672.752-1.6 1.128-2.784 1.128-.416 0-.984-.08-1.704-.24l.216-2.712c.208.064.448.096.72.096.976 0 1.664-.576 2.064-1.728.416-1.168.672-3 .768-5.496l.24-6.96h12.36Zm13.222 17.04c-1.712 0-3.256-.368-4.632-1.104-1.376-.752-2.456-1.784-3.24-3.096-.784-1.328-1.176-2.808-1.176-4.44 0-1.632.392-3.104 1.176-4.416a8.155 8.155 0 0 1 3.24-3.096c1.376-.752 2.92-1.128 4.632-1.128 1.712 0 3.256.376 4.632 1.128a8.206 8.206 0 0 1 3.24 3.072c.784 1.312 1.176 2.792 1.176 4.44 0 1.648-.392 3.128-1.176 4.44-.784 1.312-1.864 2.344-3.24 3.096-1.376.736-2.92 1.104-4.632 1.104Zm0-2.736c1.12 0 2.128-.248 3.024-.744a5.578 5.578 0 0 0 2.112-2.112c.512-.912.768-1.928.768-3.048s-.256-2.128-.768-3.024a5.363 5.363 0 0 0-2.112-2.112c-.896-.512-1.904-.768-3.024-.768s-2.128.256-3.024.768c-.896.496-1.6 1.2-2.112 2.112-.512.896-.768 1.904-.768 3.024s.256 2.136.768 3.048a5.578 5.578 0 0 0 2.112 2.112c.896.496 1.904.744 3.024.744Zm24.618-11.664h-8.328l.024 14.16h-3.072v-16.8h11.4l-.024 2.64ZM17.776 400.2V417h-3.072v-14.16H5.99V417H2.92v-16.8h14.857Zm12.369 0c1.456 0 2.72.24 3.792.72 1.088.48 1.92 1.168 2.496 2.064.576.896.864 1.96.864 3.192 0 1.216-.288 2.28-.864 3.192-.576.896-1.408 1.584-2.496 2.064-1.072.48-2.336.72-3.792.72h-3.792V417h-3.12v-16.8h6.912ZM30 409.512c1.36 0 2.392-.288 3.096-.864.704-.576 1.056-1.4 1.056-2.472s-.352-1.896-1.056-2.472c-.704-.576-1.736-.864-3.096-.864h-3.648v6.672H30Zm18.978 7.728c-1.712 0-3.256-.368-4.632-1.104-1.376-.752-2.456-1.784-3.24-3.096-.784-1.328-1.176-2.808-1.176-4.44 0-1.632.392-3.104 1.176-4.416a8.155 8.155 0 0 1 3.24-3.096c1.376-.752 2.92-1.128 4.632-1.128 1.712 0 3.256.376 4.632 1.128a8.206 8.206 0 0 1 3.24 3.072c.784 1.312 1.176 2.792 1.176 4.44 0 1.648-.392 3.128-1.176 4.44-.784 1.312-1.864 2.344-3.24 3.096-1.376.736-2.92 1.104-4.632 1.104Zm0-2.736c1.12 0 2.128-.248 3.024-.744a5.578 5.578 0 0 0 2.112-2.112c.512-.912.768-1.928.768-3.048s-.256-2.128-.768-3.024a5.363 5.363 0 0 0-2.112-2.112c-.896-.512-1.904-.768-3.024-.768s-2.128.256-3.024.768c-.896.496-1.6 1.2-2.112 2.112-.512.896-.768 1.904-.768 3.024s.256 2.136.768 3.048a5.578 5.578 0 0 0 2.112 2.112c.896.496 1.904.744 3.024.744Zm25.817-.12V417h-12.6v-16.8H74.46v2.616h-9.144v4.368h8.112v2.568h-8.112v4.632h9.48Zm10.39-4.464h-3.12V417h-3.072v-16.8h3.072v7.032h3.216l4.824-7.032h3.312l-5.736 8.136L93.634 417h-3.528l-4.92-7.08Zm23.314-7.08h-5.568V417h-3.096v-14.16h-5.544v-2.64H108.5v2.64Zm13.703 10.272h-8.4L112.147 417h-3.216l7.56-16.8h3.072l7.584 16.8h-3.264l-1.68-3.888Zm-1.032-2.448-3.168-7.344-3.144 7.344h6.312Z" fill="#F4F4F4"/><rect x=".543" y="236" width="36.194" height="25.998" rx="4" fill="url(#e)"/><rect x="7.17" y="268.115" width="36.194" height="25.998" rx="4" fill="url(#f)"/><rect x="13.797" y="300.23" width="36.194" height="25.998" rx="4" fill="url(#g)"/><rect x="43.364" y="236" width="36.194" height="25.998" rx="4" fill="url(#h)"/><rect x="49.991" y="268.115" width="36.194" height="25.998" rx="4" fill="url(#i)"/><rect x="56.618" y="300.23" width="36.194" height="25.998" rx="4" fill="url(#j)"/><rect x="86.185" y="236" width="36.194" height="25.998" rx="4" fill="url(#k)"/><rect x="92.812" y="268.115" width="36.194" height="25.998" rx="4" fill="url(#l)"/><rect x="99.439" y="300.23" width="36.194" height="25.998" rx="4" fill="url(#m)"/><path d="m240.632 393-15-8.66v17.32l15-8.66Zm-47 1.5h33.5v-3h-33.5v3Z" fill="url(#n)"/><path d="m1016.54 393-15-8.66v17.32l15-8.66Zm-47.001 1.5h33.501v-3h-33.501v3Z" fill="#0250C5"/><path d="m539.046 393-15-8.66v17.32l15-8.66Zm-47 1.5h33.5v-3h-33.5v3Z" fill="url(#o)"/><path d="M607.126 402.24c-1.696 0-3.232-.368-4.608-1.104a8.424 8.424 0 0 1-3.216-3.096c-.768-1.312-1.152-2.792-1.152-4.44 0-1.648.392-3.128 1.176-4.44a8.249 8.249 0 0 1 3.216-3.072c1.376-.752 2.912-1.128 4.608-1.128 1.376 0 2.632.24 3.768.72a7.685 7.685 0 0 1 2.88 2.088l-2.016 1.896c-1.216-1.312-2.712-1.968-4.488-1.968-1.152 0-2.184.256-3.096.768a5.364 5.364 0 0 0-2.136 2.088c-.512.896-.768 1.912-.768 3.048 0 1.136.256 2.152.768 3.048a5.53 5.53 0 0 0 2.136 2.112c.912.496 1.944.744 3.096.744 1.776 0 3.272-.664 4.488-1.992l2.016 1.92a7.645 7.645 0 0 1-2.904 2.088c-1.136.48-2.392.72-3.768.72Zm25.169-17.04V402h-3.072v-14.16h-8.712V402h-3.072v-16.8h14.856Zm12.369 0c1.456 0 2.72.24 3.792.72 1.088.48 1.92 1.168 2.496 2.064.576.896.864 1.96.864 3.192 0 1.216-.288 2.28-.864 3.192-.576.896-1.408 1.584-2.496 2.064-1.072.48-2.336.72-3.792.72h-3.792V402h-3.12v-16.8h6.912Zm-.144 9.312c1.36 0 2.392-.288 3.096-.864.704-.576 1.056-1.4 1.056-2.472s-.352-1.896-1.056-2.472c-.704-.576-1.736-.864-3.096-.864h-3.648v6.672h3.648Zm10.992-9.312h3.072v11.928l9.024-11.928h2.904V402h-3.072v-11.904L658.416 402h-2.904v-16.8Zm35.358 0V402h-3.12v-7.2h-8.688v7.2h-3.12v-16.8h3.12v6.936h8.688V385.2h3.12Zm17.625 2.64h-5.568V402h-3.096v-14.16h-5.544v-2.64h14.208v2.64Z" fill="#F4F4F4"/><path fill-rule="evenodd" clip-rule="evenodd" d="M818.518 160.884c43.333 0 78.664-34.263 80.377-77.176.06-1.492-1.512-2.463-2.842-1.786l-23.177 11.8c-.517.262-.893.74-1.042 1.3-6.208 23.356-27.499 40.566-52.81 40.566-30.177 0-54.64-24.463-54.64-54.64 0-30.176 24.463-54.64 54.64-54.64 19.63 0 36.843 10.353 46.476 25.895.024.038.084.017.078-.027a.042.042 0 0 1 .054-.045l16.578 5.376a2 2 0 0 0 2.566-1.456l3.394-14.814a1.975 1.975 0 0 0-.219-1.44C873.983 15.987 848.118 0 818.518 0c-44.427 0-80.442 36.015-80.442 80.442 0 44.427 36.015 80.442 80.442 80.442Z" fill="url(#p)"/><path fill-rule="evenodd" clip-rule="evenodd" d="M752.843 326c-55.335 0-100.396-43.988-102.122-98.905-.047-1.492 1.525-2.466 2.856-1.789l30.443 15.499c.517.263.893.74 1.04 1.301 7.804 29.789 34.906 51.766 67.141 51.766 38.329 0 69.401-31.072 69.401-69.402 0-38.329-31.072-69.401-69.401-69.401-24.934 0-46.796 13.149-59.032 32.89-.03.049-.106.022-.099-.035a.052.052 0 0 0-.069-.057l-21.618 7.011a2 2 0 0 1-2.566-1.456l-4.489-19.599a1.984 1.984 0 0 1 .217-1.44c17.717-30.343 50.627-50.731 88.298-50.731 56.429 0 102.174 45.745 102.174 102.174 0 56.429-45.745 102.174-102.174 102.174Z" fill="url(#q)"/><path d="M601.025 297.618c-1.384-1.219-.523-3.502 1.321-3.502h149.222a2 2 0 0 1 2 2V324a2 2 0 0 1-2 2H602.346c-1.844 0-2.705-2.283-1.321-3.501l12.431-10.939a2 2 0 0 0 0-3.003l-12.431-10.939Z" fill="url(#r)"/><path d="M771.427 311.56a2 2 0 0 0 0-3.003l-12.431-10.939c-1.384-1.219-.523-3.502 1.321-3.502h131.649c.473 0 .93.168 1.292.473l16.476 13.942a2 2 0 0 1 0 3.054l-16.476 13.942a2 2 0 0 1-1.292.473H760.317c-1.844 0-2.705-2.283-1.321-3.501l12.431-10.939Z" fill="url(#s)"/><path d="M797.495 84.464v5.304h-1.656V86h-14.664l-.024 3.768h-1.656l.024-5.304h.84c1.104-.064 1.872-.936 2.304-2.616.432-1.696.696-4.096.792-7.2l.192-5.448h11.328v15.264h2.52Zm-12.456-9.648c-.08 2.56-.28 4.672-.6 6.336-.304 1.648-.824 2.752-1.56 3.312h10.344V70.736h-8.04l-.144 4.08Zm27.079 5.4h-10.56c.096 1.312.6 2.376 1.512 3.192.912.8 2.064 1.2 3.456 1.2.784 0 1.504-.136 2.16-.408a4.847 4.847 0 0 0 1.704-1.248l.96 1.104a5.388 5.388 0 0 1-2.112 1.536c-.832.352-1.752.528-2.76.528-1.296 0-2.448-.272-3.456-.816A6.077 6.077 0 0 1 800.694 83c-.56-.976-.84-2.08-.84-3.312 0-1.232.264-2.336.792-3.312a5.933 5.933 0 0 1 2.208-2.28c.944-.544 2-.816 3.168-.816 1.168 0 2.216.272 3.144.816a5.764 5.764 0 0 1 2.184 2.28c.528.96.792 2.064.792 3.312l-.024.528Zm-6.096-5.472c-1.216 0-2.24.392-3.072 1.176-.816.768-1.28 1.776-1.392 3.024h8.952c-.112-1.248-.584-2.256-1.416-3.024-.816-.784-1.84-1.176-3.072-1.176Zm10.612-1.368h1.704v10.032l8.424-10.032h1.512V86h-1.704V75.968L818.17 86h-1.536V73.376Zm5.736-1.824c-1.088 0-1.952-.272-2.592-.816-.64-.544-.968-1.312-.984-2.304h1.224c.016.624.24 1.128.672 1.512.432.368.992.552 1.68.552s1.248-.184 1.68-.552c.448-.384.68-.888.696-1.512h1.224c-.016.992-.352 1.76-1.008 2.304-.64.544-1.504.816-2.592.816Zm21.828 1.824V86h-1.704V74.888h-6.048l-.168 3.12c-.128 2.624-.432 4.64-.912 6.048-.48 1.408-1.336 2.112-2.568 2.112-.336 0-.744-.064-1.224-.192l.12-1.464c.288.064.488.096.6.096.656 0 1.152-.304 1.488-.912.336-.608.56-1.36.672-2.256.112-.896.208-2.08.288-3.552l.216-4.512h9.24Zm5.564 0h1.704v10.032l8.424-10.032h1.512V86h-1.704V75.968L851.298 86h-1.536V73.376ZM742.132 204.2V221h-1.728v-15.264h-3.96V204.2h5.688Zm4.928 9.552h6.288v1.488h-6.288v-1.488Zm20.883 5.712V221h-11.784v-1.224l6.984-6.84c.88-.864 1.472-1.608 1.776-2.232.32-.64.48-1.28.48-1.92 0-.992-.344-1.76-1.032-2.304-.672-.56-1.64-.84-2.904-.84-1.968 0-3.496.624-4.584 1.872l-1.224-1.056c.656-.768 1.488-1.36 2.496-1.776 1.024-.416 2.176-.624 3.456-.624 1.712 0 3.064.408 4.056 1.224 1.008.8 1.512 1.904 1.512 3.312 0 .864-.192 1.696-.576 2.496-.384.8-1.112 1.72-2.184 2.76l-5.712 5.616h9.24Zm-61.109 12.912h1.704v5.592h7.944v-5.592h1.704V245h-1.704v-5.568h-7.944V245h-1.704v-12.624Zm27.956 6.84h-10.56c.096 1.312.6 2.376 1.512 3.192.912.8 2.064 1.2 3.456 1.2.784 0 1.504-.136 2.16-.408a4.847 4.847 0 0 0 1.704-1.248l.96 1.104a5.388 5.388 0 0 1-2.112 1.536c-.832.352-1.752.528-2.76.528-1.296 0-2.448-.272-3.456-.816a6.077 6.077 0 0 1-2.328-2.304c-.56-.976-.84-2.08-.84-3.312 0-1.232.264-2.336.792-3.312a5.933 5.933 0 0 1 2.208-2.28c.944-.544 2-.816 3.168-.816 1.168 0 2.216.272 3.144.816a5.764 5.764 0 0 1 2.184 2.28c.528.96.792 2.064.792 3.312l-.024.528Zm-6.096-5.472c-1.216 0-2.24.392-3.072 1.176-.816.768-1.28 1.776-1.392 3.024h8.952c-.112-1.248-.584-2.256-1.416-3.024-.816-.784-1.84-1.176-3.072-1.176Zm22.666 9.768v4.536h-1.608V245h-11.304v3.048h-1.608v-4.536h.72c.848-.048 1.424-.672 1.728-1.872.304-1.2.512-2.88.624-5.04l.168-4.224h9.312v11.136h1.968Zm-9.888-6.816c-.08 1.792-.232 3.272-.456 4.44-.224 1.152-.624 1.944-1.2 2.376h7.872v-9.624h-6.072l-.144 2.808Zm24.968 2.52h-10.56c.096 1.312.6 2.376 1.512 3.192.912.8 2.064 1.2 3.456 1.2.784 0 1.504-.136 2.16-.408a4.847 4.847 0 0 0 1.704-1.248l.96 1.104a5.388 5.388 0 0 1-2.112 1.536c-.832.352-1.752.528-2.76.528-1.296 0-2.448-.272-3.456-.816a6.077 6.077 0 0 1-2.328-2.304c-.56-.976-.84-2.08-.84-3.312 0-1.232.264-2.336.792-3.312a5.933 5.933 0 0 1 2.208-2.28c.944-.544 2-.816 3.168-.816 1.168 0 2.216.272 3.144.816a5.764 5.764 0 0 1 2.184 2.28c.528.96.792 2.064.792 3.312l-.024.528Zm-6.096-5.472c-1.216 0-2.24.392-3.072 1.176-.816.768-1.28 1.776-1.392 3.024h8.952c-.112-1.248-.584-2.256-1.416-3.024-.816-.784-1.84-1.176-3.072-1.176Zm20.675-1.368V245h-1.704v-11.112h-6.048l-.168 3.12c-.128 2.624-.432 4.64-.912 6.048-.48 1.408-1.336 2.112-2.568 2.112-.336 0-.744-.064-1.224-.192l.12-1.464c.288.064.488.096.6.096.656 0 1.152-.304 1.488-.912.336-.608.56-1.36.672-2.256.112-.896.208-2.08.288-3.552l.216-4.512h9.24Zm5.564 0h1.704v10.032l8.424-10.032h1.512V245h-1.704v-10.032l-8.4 10.032h-1.536v-12.624ZM1083.8 355.2c1.46 0 2.72.24 3.79.72 1.09.48 1.92 1.168 2.5 2.064.58.896.86 1.96.86 3.192 0 1.216-.28 2.28-.86 3.192-.58.896-1.41 1.584-2.5 2.064-1.07.48-2.33.72-3.79.72h-3.79V372h-3.12v-16.8h6.91Zm-.14 9.312c1.36 0 2.39-.288 3.09-.864.71-.576 1.06-1.4 1.06-2.472s-.35-1.896-1.06-2.472c-.7-.576-1.73-.864-3.09-.864h-3.65v6.672h3.65Zm21.26 3.6h-8.4l-1.66 3.888h-3.21l7.56-16.8h3.07l7.58 16.8h-3.26l-1.68-3.888Zm-1.03-2.448-3.17-7.344-3.15 7.344h6.32Zm9.29-10.464h13.08v2.568h-10.01v4.128h4.97c2.02 0 3.55.424 4.59 1.272 1.05.832 1.58 2.04 1.58 3.624 0 1.664-.58 2.952-1.73 3.864-1.15.896-2.79 1.344-4.92 1.344h-7.56v-16.8Zm7.39 14.4c1.2 0 2.12-.232 2.74-.696.62-.464.94-1.136.94-2.016 0-1.728-1.23-2.592-3.68-2.592h-4.32v5.304h4.32Zm18.73 2.64c-1.71 0-3.25-.368-4.63-1.104a8.46 8.46 0 0 1-3.24-3.096c-.78-1.328-1.17-2.808-1.17-4.44 0-1.632.39-3.104 1.17-4.416a8.233 8.233 0 0 1 3.24-3.096c1.38-.752 2.92-1.128 4.63-1.128 1.72 0 3.26.376 4.64 1.128a8.286 8.286 0 0 1 3.24 3.072c.78 1.312 1.17 2.792 1.17 4.44 0 1.648-.39 3.128-1.17 4.44a8.46 8.46 0 0 1-3.24 3.096c-1.38.736-2.92 1.104-4.64 1.104Zm0-2.736c1.12 0 2.13-.248 3.03-.744a5.6 5.6 0 0 0 2.11-2.112c.51-.912.77-1.928.77-3.048s-.26-2.128-.77-3.024a5.384 5.384 0 0 0-2.11-2.112c-.9-.512-1.91-.768-3.03-.768-1.12 0-2.12.256-3.02.768-.9.496-1.6 1.2-2.11 2.112-.51.896-.77 1.904-.77 3.024s.26 2.136.77 3.048a5.53 5.53 0 0 0 2.11 2.112c.9.496 1.9.744 3.02.744Zm25.18-11.664h-5.57V372h-3.1v-14.16h-5.54v-2.64h14.21v2.64Zm13.7 10.272h-8.4l-1.65 3.888h-3.22l7.56-16.8h3.07l7.59 16.8h-3.27l-1.68-3.888Zm-1.03-2.448-3.17-7.344-3.14 7.344h6.31Zm23.65-10.704c1.65 0 3.13.376 4.44 1.128a7.972 7.972 0 0 1 3.12 3.072c.75 1.312 1.13 2.792 1.13 4.44 0 1.648-.38 3.128-1.13 4.44a8.14 8.14 0 0 1-3.12 3.096c-1.31.736-2.79 1.104-4.44 1.104-1.51 0-2.88-.312-4.13-.936a8.322 8.322 0 0 1-3.05-2.616c-.78-1.12-1.27-2.392-1.46-3.816h-2.64V372h-3.07v-16.8h3.07v6.888h2.69c.22-1.392.72-2.624 1.51-3.696a8.134 8.134 0 0 1 3.02-2.52c1.23-.608 2.59-.912 4.06-.912Zm0 14.544c1.04 0 1.98-.248 2.83-.744a5.201 5.201 0 0 0 1.99-2.088c.48-.896.72-1.92.72-3.072 0-1.152-.24-2.176-.72-3.072a5.201 5.201 0 0 0-1.99-2.088c-.85-.496-1.79-.744-2.83-.744s-1.99.248-2.83.744c-.84.496-1.5 1.192-2 2.088-.48.896-.72 1.92-.72 3.072 0 1.152.24 2.176.72 3.072.5.896 1.16 1.592 2 2.088.84.496 1.79.744 2.83.744Zm34.5-14.304V372h-21.58v-16.8h3.07v14.16h6.19V355.2h3.08v14.16h6.16V355.2h3.08Zm2.42 14.16v6.216h-2.88V372h-2.69v-2.64h5.57Zm16.32.024V372h-12.6v-16.8h12.26v2.616h-9.14v4.368h8.11v2.568h-8.11v4.632h9.48Zm16.8 0V372h-12.6v-16.8h12.26v2.616h-9.14v4.368h8.11v2.568h-8.11v4.632h9.48Zm26.43-14.184V372h-3.07v-14.16h-8.72V372h-3.07v-16.8h14.86Zm13.23 17.04c-1.71 0-3.25-.368-4.63-1.104-1.38-.752-2.46-1.784-3.24-3.096-.78-1.328-1.18-2.808-1.18-4.44 0-1.632.4-3.104 1.18-4.416a8.103 8.103 0 0 1 3.24-3.096c1.38-.752 2.92-1.128 4.63-1.128s3.26.376 4.63 1.128c1.38.736 2.46 1.76 3.24 3.072.79 1.312 1.18 2.792 1.18 4.44 0 1.648-.39 3.128-1.18 4.44-.78 1.312-1.86 2.344-3.24 3.096-1.37.736-2.92 1.104-4.63 1.104Zm0-2.736c1.12 0 2.13-.248 3.03-.744a5.6 5.6 0 0 0 2.11-2.112c.51-.912.77-1.928.77-3.048s-.26-2.128-.77-3.024a5.384 5.384 0 0 0-2.11-2.112c-.9-.512-1.91-.768-3.03-.768-1.12 0-2.13.256-3.02.768-.9.496-1.6 1.2-2.11 2.112-.52.896-.77 1.904-.77 3.024s.25 2.136.77 3.048a5.53 5.53 0 0 0 2.11 2.112c.89.496 1.9.744 3.02.744Zm28.3 2.736c-1.7 0-3.23-.368-4.61-1.104a8.38 8.38 0 0 1-3.21-3.096c-.77-1.312-1.16-2.792-1.16-4.44 0-1.648.4-3.128 1.18-4.44a8.233 8.233 0 0 1 3.22-3.072c1.37-.752 2.91-1.128 4.6-1.128 1.38 0 2.64.24 3.77.72 1.14.48 2.1 1.176 2.88 2.088l-2.01 1.896c-1.22-1.312-2.72-1.968-4.49-1.968-1.15 0-2.19.256-3.1.768a5.349 5.349 0 0 0-2.13 2.088c-.52.896-.77 1.912-.77 3.048 0 1.136.25 2.152.77 3.048.51.896 1.22 1.6 2.13 2.112.91.496 1.95.744 3.1.744 1.77 0 3.27-.664 4.49-1.992l2.01 1.92a7.616 7.616 0 0 1-2.9 2.088c-1.14.48-2.39.72-3.77.72Zm32.57-17.04V372h-3.12v-7.2h-8.69v7.2h-3.12v-16.8h3.12v6.936h8.69V355.2h3.12Zm13.21 17.04c-1.71 0-3.26-.368-4.63-1.104-1.38-.752-2.46-1.784-3.24-3.096-.79-1.328-1.18-2.808-1.18-4.44 0-1.632.39-3.104 1.18-4.416a8.103 8.103 0 0 1 3.24-3.096c1.37-.752 2.92-1.128 4.63-1.128s3.25.376 4.63 1.128c1.38.736 2.46 1.76 3.24 3.072.78 1.312 1.18 2.792 1.18 4.44 0 1.648-.4 3.128-1.18 4.44-.78 1.312-1.86 2.344-3.24 3.096-1.38.736-2.92 1.104-4.63 1.104Zm0-2.736c1.12 0 2.13-.248 3.02-.744a5.53 5.53 0 0 0 2.11-2.112c.52-.912.77-1.928.77-3.048s-.25-2.128-.77-3.024a5.32 5.32 0 0 0-2.11-2.112c-.89-.512-1.9-.768-3.02-.768s-2.13.256-3.03.768c-.89.496-1.6 1.2-2.11 2.112-.51.896-.77 1.904-.77 3.024s.26 2.136.77 3.048a5.6 5.6 0 0 0 2.11 2.112c.9.496 1.91.744 3.03.744Zm24.28-6.24c1.07.288 1.89.784 2.45 1.488.56.688.84 1.552.84 2.592 0 1.472-.55 2.616-1.63 3.432-1.09.816-2.67 1.224-4.73 1.224h-7.97v-16.8h7.51c1.89 0 3.36.376 4.42 1.128 1.05.752 1.58 1.816 1.58 3.192 0 .88-.21 1.64-.65 2.28-.41.64-1.02 1.128-1.82 1.464Zm-7.97-.888h4.18c1.01 0 1.77-.2 2.3-.6.53-.4.79-.992.79-1.776s-.26-1.376-.79-1.776c-.53-.416-1.29-.624-2.3-.624h-4.18v4.776Zm4.8 7.224c2.21 0 3.31-.832 3.31-2.496 0-1.632-1.1-2.448-3.31-2.448h-4.8v4.944h4.8Zm18.48-8.712c2.02 0 3.56.456 4.64 1.368 1.08.896 1.63 2.232 1.63 4.008 0 1.856-.59 3.28-1.78 4.272-1.18.976-2.85 1.464-4.99 1.464h-7.22v-16.8h3.07v5.688h4.65Zm-.64 8.712c1.21 0 2.15-.28 2.8-.84.66-.56.99-1.376.99-2.448 0-2.032-1.27-3.048-3.79-3.048h-4.01v6.336h4.01Zm9.33-14.4h3.07V372h-3.07v-16.8Zm23.95 16.8-.03-11.136-5.52 9.216h-1.39l-5.52-9.072V372h-2.95v-16.8h2.57l6.65 11.112 6.57-11.112h2.55l.04 16.8h-2.97Zm8.42-16.8h3.07v11.928l9.03-11.928h2.9V372h-3.07v-11.904L1468.13 372h-2.9v-16.8Zm-377.28 38.064c1.08.288 1.89.784 2.45 1.488.56.688.84 1.552.84 2.592 0 1.472-.54 2.616-1.63 3.432-1.09.816-2.66 1.224-4.73 1.224h-7.97v-16.8h7.52c1.88 0 3.36.376 4.41 1.128 1.06.752 1.59 1.816 1.59 3.192 0 .88-.22 1.64-.65 2.28-.42.64-1.03 1.128-1.83 1.464Zm-7.96-.888h4.17c1.01 0 1.78-.2 2.31-.6.52-.4.79-.992.79-1.776s-.27-1.376-.79-1.776c-.53-.416-1.3-.624-2.31-.624h-4.17v4.776Zm4.8 7.224c2.2 0 3.31-.832 3.31-2.496 0-1.632-1.11-2.448-3.31-2.448h-4.8v4.944h4.8Zm18.5 2.64c-1.71 0-3.25-.368-4.63-1.104a8.46 8.46 0 0 1-3.24-3.096c-.78-1.328-1.17-2.808-1.17-4.44 0-1.632.39-3.104 1.17-4.416a8.233 8.233 0 0 1 3.24-3.096c1.38-.752 2.92-1.128 4.63-1.128 1.72 0 3.26.376 4.64 1.128a8.286 8.286 0 0 1 3.24 3.072c.78 1.312 1.17 2.792 1.17 4.44 0 1.648-.39 3.128-1.17 4.44a8.46 8.46 0 0 1-3.24 3.096c-1.38.736-2.92 1.104-4.64 1.104Zm0-2.736c1.12 0 2.13-.248 3.03-.744a5.6 5.6 0 0 0 2.11-2.112c.51-.912.77-1.928.77-3.048s-.26-2.128-.77-3.024a5.384 5.384 0 0 0-2.11-2.112c-.9-.512-1.91-.768-3.03-.768-1.12 0-2.12.256-3.02.768-.9.496-1.6 1.2-2.11 2.112-.51.896-.77 1.904-.77 3.024s.26 2.136.77 3.048a5.53 5.53 0 0 0 2.11 2.112c.9.496 1.9.744 3.02.744Zm21.58-6.264c1.01.32 1.8.84 2.36 1.56.57.704.86 1.536.86 2.496 0 1.008-.33 1.888-.98 2.64-.66.736-1.54 1.304-2.64 1.704-1.09.4-2.28.6-3.58.6-1.12 0-2.25-.152-3.38-.456-1.12-.32-2.16-.792-3.12-1.416l1-2.28c.74.496 1.56.88 2.45 1.152.9.256 1.79.384 2.67.384 1.26 0 2.31-.248 3.14-.744.85-.496 1.27-1.176 1.27-2.04 0-.736-.3-1.296-.91-1.68-.61-.384-1.45-.576-2.52-.576h-3.91v-2.448h3.67c.93 0 1.66-.192 2.18-.576.53-.384.8-.904.8-1.56 0-.784-.36-1.392-1.08-1.824-.71-.432-1.61-.648-2.72-.648-.75 0-1.52.112-2.32.336-.8.208-1.56.52-2.26.936l-.98-2.52c.86-.464 1.77-.808 2.73-1.032a12.2 12.2 0 0 1 2.91-.36c1.24 0 2.39.192 3.43.576 1.05.384 1.89.936 2.52 1.656.62.704.93 1.536.93 2.496 0 .832-.22 1.56-.67 2.184-.45.624-1.06 1.104-1.85 1.44Zm22.91 8.76-.02-11.136-5.52 9.216h-1.4l-5.52-9.072V402h-2.95v-16.8h2.57l6.65 11.112 6.57-11.112h2.55l.05 16.8h-2.98Zm16.17.24c-1.71 0-3.25-.368-4.63-1.104a8.46 8.46 0 0 1-3.24-3.096c-.78-1.328-1.17-2.808-1.17-4.44 0-1.632.39-3.104 1.17-4.416a8.233 8.233 0 0 1 3.24-3.096c1.38-.752 2.92-1.128 4.63-1.128 1.72 0 3.26.376 4.64 1.128a8.286 8.286 0 0 1 3.24 3.072c.78 1.312 1.17 2.792 1.17 4.44 0 1.648-.39 3.128-1.17 4.44a8.46 8.46 0 0 1-3.24 3.096c-1.38.736-2.92 1.104-4.64 1.104Zm0-2.736c1.12 0 2.13-.248 3.03-.744a5.6 5.6 0 0 0 2.11-2.112c.51-.912.77-1.928.77-3.048s-.26-2.128-.77-3.024a5.384 5.384 0 0 0-2.11-2.112c-.9-.512-1.91-.768-3.03-.768-1.12 0-2.12.256-3.02.768-.9.496-1.6 1.2-2.11 2.112-.51.896-.77 1.904-.77 3.024s.26 2.136.77 3.048a5.53 5.53 0 0 0 2.11 2.112c.9.496 1.9.744 3.02.744Zm27.3-4.584h-2.88V402h-3.05v-7.08h-2.88l-4.25 7.08h-3.6l5.28-8.76-4.92-8.04h3.32l4.1 7.032h2.95V385.2h3.05v7.032h2.9l4.13-7.032h3.31l-4.89 8.064 5.25 8.736h-3.6l-4.22-7.08Zm25.64-9.72V402h-3.12v-7.2h-8.69v7.2h-3.12v-16.8h3.12v6.936h8.69V385.2h3.12Zm13.21 17.04c-1.71 0-3.26-.368-4.63-1.104-1.38-.752-2.46-1.784-3.24-3.096-.79-1.328-1.18-2.808-1.18-4.44 0-1.632.39-3.104 1.18-4.416a8.103 8.103 0 0 1 3.24-3.096c1.37-.752 2.92-1.128 4.63-1.128s3.25.376 4.63 1.128c1.38.736 2.46 1.76 3.24 3.072.78 1.312 1.18 2.792 1.18 4.44 0 1.648-.4 3.128-1.18 4.44-.78 1.312-1.86 2.344-3.24 3.096-1.38.736-2.92 1.104-4.63 1.104Zm0-2.736c1.12 0 2.13-.248 3.02-.744a5.53 5.53 0 0 0 2.11-2.112c.52-.912.77-1.928.77-3.048s-.25-2.128-.77-3.024a5.32 5.32 0 0 0-2.11-2.112c-.89-.512-1.9-.768-3.02-.768s-2.13.256-3.03.768c-.89.496-1.6 1.2-2.11 2.112-.51.896-.77 1.904-.77 3.024s.26 2.136.77 3.048a5.6 5.6 0 0 0 2.11 2.112c.9.496 1.91.744 3.03.744Zm20.94 2.736c-1.69 0-3.23-.368-4.61-1.104a8.38 8.38 0 0 1-3.21-3.096c-.77-1.312-1.15-2.792-1.15-4.44 0-1.648.39-3.128 1.17-4.44a8.3 8.3 0 0 1 3.22-3.072c1.37-.752 2.91-1.128 4.61-1.128 1.37 0 2.63.24 3.76.72 1.14.48 2.1 1.176 2.88 2.088l-2.01 1.896c-1.22-1.312-2.71-1.968-4.49-1.968-1.15 0-2.18.256-3.1.768a5.349 5.349 0 0 0-2.13 2.088c-.51.896-.77 1.912-.77 3.048 0 1.136.26 2.152.77 3.048.51.896 1.22 1.6 2.13 2.112.92.496 1.95.744 3.1.744 1.78 0 3.27-.664 4.49-1.992l2.01 1.92a7.616 7.616 0 0 1-2.9 2.088c-1.14.48-2.39.72-3.77.72Zm22.3-14.4h-5.57V402h-3.1v-14.16h-5.54v-2.64h14.21v2.64Zm15.52-2.64V402h-3.07v-4.68h-4.49l-3.12 4.68h-3.29l3.6-5.184c-1.17-.432-2.07-1.112-2.71-2.04-.62-.944-.94-2.08-.94-3.408 0-1.28.29-2.384.87-3.312.57-.928 1.39-1.632 2.45-2.112 1.05-.496 2.29-.744 3.72-.744h6.98Zm-6.89 2.64c-1.28 0-2.26.296-2.95.888-.67.592-1.01 1.456-1.01 2.592 0 1.104.33 1.96.99 2.568.65.592 1.6.888 2.85.888h3.94v-6.936h-3.82Zm27.78 14.16-.02-11.136-5.52 9.216h-1.4l-5.52-9.072V402h-2.95v-16.8h2.57l6.65 11.112 6.57-11.112h2.55l.05 16.8h-2.98Zm8.42-16.8h3.07v11.928l9.03-11.928h2.9V402h-3.07v-11.904L1321.08 402h-2.91v-16.8Z" fill="#F4F4F4"/><rect x="1074.54" y="236" width="121" height="90" rx="4" fill="url(#t)"/><defs><linearGradient id="k" x1="12.043" y1="324.5" x2="122.543" y2="236" gradientUnits="userSpaceOnUse"><stop stop-color="#6A11CB"/><stop offset="1" stop-color="#2575FC"/></linearGradient><linearGradient id="a" x1="1672.51" y1="407.25" x2="195.543" y2="407.25" gradientUnits="userSpaceOnUse"><stop stop-color="#266EF9"/><stop offset="1" stop-color="#6219CF"/></linearGradient><linearGradient id="c" x1="319.544" y1="328.5" x2="426.544" y2="236" gradientUnits="userSpaceOnUse"><stop stop-color="#6A11CB"/><stop offset="1" stop-color="#2575FC"/></linearGradient><linearGradient id="d" x1="316.544" y1="326" x2="420.544" y2="240.5" gradientUnits="userSpaceOnUse"><stop stop-color="#6A11CB"/><stop offset="1" stop-color="#2575FC"/></linearGradient><linearGradient id="e" x1="10.543" y1="323" x2="123.043" y2="236" gradientUnits="userSpaceOnUse"><stop stop-color="#6A11CB"/><stop offset="1" stop-color="#2575FC"/></linearGradient><linearGradient id="f" x1="16.043" y1="324.5" x2="124.043" y2="234.5" gradientUnits="userSpaceOnUse"><stop stop-color="#6A11CB"/><stop offset="1" stop-color="#2575FC"/></linearGradient><linearGradient id="g" x1="13.543" y1="326" x2="123.043" y2="237.5" gradientUnits="userSpaceOnUse"><stop stop-color="#6A11CB"/><stop offset="1" stop-color="#2575FC"/></linearGradient><linearGradient id="h" x1="17.543" y1="327.5" x2="121.543" y2="236" gradientUnits="userSpaceOnUse"><stop stop-color="#6A11CB"/><stop offset="1" stop-color="#2575FC"/></linearGradient><linearGradient id="i" x1="17.544" y1="323" x2="120.043" y2="234.5" gradientUnits="userSpaceOnUse"><stop stop-color="#6A11CB"/><stop offset="1" stop-color="#2575FC"/></linearGradient><linearGradient id="j" x1="13.543" y1="326" x2="121.543" y2="236" gradientUnits="userSpaceOnUse"><stop stop-color="#6A11CB"/><stop offset="1" stop-color="#2575FC"/></linearGradient><linearGradient id="b" x1="329.044" y1="323" x2="420.544" y2="236" gradientUnits="userSpaceOnUse"><stop stop-color="#6A11CB"/><stop offset="1" stop-color="#2575FC"/></linearGradient><linearGradient id="l" x1="14.543" y1="326" x2="120.043" y2="234.5" gradientUnits="userSpaceOnUse"><stop stop-color="#6A11CB"/><stop offset="1" stop-color="#2575FC"/></linearGradient><linearGradient id="m" x1="17.544" y1="326" x2="127.044" y2="233.5" gradientUnits="userSpaceOnUse"><stop stop-color="#6A11CB"/><stop offset="1" stop-color="#2575FC"/></linearGradient><linearGradient id="n" x1="193.544" y1="393" x2="240.544" y2="393" gradientUnits="userSpaceOnUse"><stop stop-color="#6516CE"/><stop offset="1" stop-color="#2671FA"/></linearGradient><linearGradient id="o" x1="539.543" y1="393" x2="487.043" y2="393" gradientUnits="userSpaceOnUse"><stop stop-color="#2671FA"/><stop offset="1" stop-color="#6319CF"/></linearGradient><linearGradient id="p" x1="849.543" y1="8.5" x2="771.543" y2="161" gradientUnits="userSpaceOnUse"><stop stop-color="#2672FA"/><stop offset="1" stop-color="#621BD0"/></linearGradient><linearGradient id="q" x1="807.543" y1="136" x2="605.543" y2="326" gradientUnits="userSpaceOnUse"><stop stop-color="#2671FA"/><stop offset="1" stop-color="#611CD1"/></linearGradient><linearGradient id="r" x1="830.043" y1="149" x2="597.543" y2="326" gradientUnits="userSpaceOnUse"><stop stop-color="#2671FA"/><stop offset="1" stop-color="#621ACF"/></linearGradient><linearGradient id="s" x1="822.043" y1="150.5" x2="599.043" y2="326" gradientUnits="userSpaceOnUse"><stop stop-color="#286FF9"/><stop offset="1" stop-color="#621BD0"/></linearGradient><linearGradient id="t" x1="1195.54" y1="236" x2="1074.54" y2="326" gradientUnits="userSpaceOnUse"><stop stop-color="#266EF9"/><stop offset="1" stop-color="#5D1ED1"/></linearGradient></defs></svg>