<svg width="1484" height="622" viewBox="0 0 1484 622" fill="none" xmlns="http://www.w3.org/2000/svg">
<path d="M355.799 615.02V619.682H353.639V617H343.973V619.682H341.795L341.813 615.02H342.353C343.145 614.984 343.697 614.402 344.009 613.274C344.333 612.134 344.531 610.508 344.603 608.396L344.747 604.4H353.981V615.02H355.799ZM346.655 608.612C346.595 610.244 346.463 611.606 346.259 612.698C346.055 613.778 345.731 614.552 345.287 615.02H351.677V606.38H346.745L346.655 608.612ZM358.561 604.4H360.865V613.346L367.633 604.4H369.811V617H367.507V608.072L360.739 617H358.561V604.4ZM380.508 610.43C381.264 610.67 381.852 611.06 382.272 611.6C382.704 612.128 382.92 612.752 382.92 613.472C382.92 614.228 382.674 614.888 382.182 615.452C381.69 616.004 381.03 616.43 380.202 616.73C379.386 617.03 378.492 617.18 377.52 617.18C376.68 617.18 375.834 617.066 374.982 616.838C374.142 616.598 373.362 616.244 372.642 615.776L373.398 614.066C373.95 614.438 374.562 614.726 375.234 614.93C375.906 615.122 376.572 615.218 377.232 615.218C378.18 615.218 378.966 615.032 379.59 614.66C380.226 614.288 380.544 613.778 380.544 613.13C380.544 612.578 380.316 612.158 379.86 611.87C379.404 611.582 378.774 611.438 377.97 611.438H375.036V609.602H377.79C378.486 609.602 379.032 609.458 379.428 609.17C379.824 608.882 380.022 608.492 380.022 608C380.022 607.412 379.752 606.956 379.212 606.632C378.684 606.308 378.006 606.146 377.178 606.146C376.614 606.146 376.032 606.23 375.432 606.398C374.832 606.554 374.268 606.788 373.74 607.1L373.002 605.21C373.65 604.862 374.334 604.604 375.054 604.436C375.786 604.256 376.512 604.166 377.232 604.166C378.168 604.166 379.026 604.31 379.806 604.598C380.598 604.886 381.228 605.3 381.696 605.84C382.164 606.368 382.398 606.992 382.398 607.712C382.398 608.336 382.23 608.882 381.894 609.35C381.558 609.818 381.096 610.178 380.508 610.43ZM394.465 614.084H388.165L386.923 617H384.511L390.181 604.4H392.485L398.173 617H395.725L394.465 614.084ZM393.691 612.248L391.315 606.74L388.957 612.248H393.691ZM400.663 604.4H402.967V613.346L409.735 604.4H411.913V617H409.609V608.072L402.841 617H400.663V604.4ZM406.261 603.554C405.181 603.554 404.365 603.332 403.813 602.888C403.273 602.444 402.997 601.796 402.985 600.944H404.623C404.635 601.388 404.779 601.73 405.055 601.97C405.331 602.21 405.733 602.33 406.261 602.33C406.777 602.33 407.179 602.21 407.467 601.97C407.767 601.73 407.923 601.388 407.935 600.944H409.555C409.543 601.784 409.255 602.432 408.691 602.888C408.139 603.332 407.329 603.554 406.261 603.554ZM427.182 604.4V617H424.842V611.6H418.326V617H415.986V604.4H418.326V609.602H424.842V604.4H427.182Z" fill="#F4F4F4"/>
<path d="M518.491 604.4C519.583 604.4 520.531 604.58 521.335 604.94C522.151 605.3 522.775 605.816 523.207 606.488C523.639 607.16 523.855 607.958 523.855 608.882C523.855 609.794 523.639 610.592 523.207 611.276C522.775 611.948 522.151 612.464 521.335 612.824C520.531 613.184 519.583 613.364 518.491 613.364H515.647V617H513.307V604.4H518.491ZM518.383 611.384C519.403 611.384 520.177 611.168 520.705 610.736C521.233 610.304 521.497 609.686 521.497 608.882C521.497 608.078 521.233 607.46 520.705 607.028C520.177 606.596 519.403 606.38 518.383 606.38H515.647V611.384H518.383ZM534.328 614.084H528.028L526.786 617H524.374L530.044 604.4H532.348L538.036 617H535.588L534.328 614.084ZM533.554 612.248L531.178 606.74L528.82 612.248H533.554ZM547.133 610.43C547.889 610.67 548.477 611.06 548.897 611.6C549.329 612.128 549.545 612.752 549.545 613.472C549.545 614.228 549.299 614.888 548.807 615.452C548.315 616.004 547.655 616.43 546.827 616.73C546.011 617.03 545.117 617.18 544.145 617.18C543.305 617.18 542.459 617.066 541.607 616.838C540.767 616.598 539.987 616.244 539.267 615.776L540.023 614.066C540.575 614.438 541.187 614.726 541.859 614.93C542.531 615.122 543.197 615.218 543.857 615.218C544.805 615.218 545.591 615.032 546.215 614.66C546.851 614.288 547.169 613.778 547.169 613.13C547.169 612.578 546.941 612.158 546.485 611.87C546.029 611.582 545.399 611.438 544.595 611.438H541.661V609.602H544.415C545.111 609.602 545.657 609.458 546.053 609.17C546.449 608.882 546.647 608.492 546.647 608C546.647 607.412 546.377 606.956 545.837 606.632C545.309 606.308 544.631 606.146 543.803 606.146C543.239 606.146 542.657 606.23 542.057 606.398C541.457 606.554 540.893 606.788 540.365 607.1L539.627 605.21C540.275 604.862 540.959 604.604 541.679 604.436C542.411 604.256 543.137 604.166 543.857 604.166C544.793 604.166 545.651 604.31 546.431 604.598C547.223 604.886 547.853 605.3 548.321 605.84C548.789 606.368 549.023 606.992 549.023 607.712C549.023 608.336 548.855 608.882 548.519 609.35C548.183 609.818 547.721 610.178 547.133 610.43ZM557.922 604.4C559.014 604.4 559.962 604.58 560.766 604.94C561.582 605.3 562.206 605.816 562.638 606.488C563.07 607.16 563.286 607.958 563.286 608.882C563.286 609.794 563.07 610.592 562.638 611.276C562.206 611.948 561.582 612.464 560.766 612.824C559.962 613.184 559.014 613.364 557.922 613.364H555.078V617H552.738V604.4H557.922ZM557.814 611.384C558.834 611.384 559.608 611.168 560.136 610.736C560.664 610.304 560.928 609.686 560.928 608.882C560.928 608.078 560.664 607.46 560.136 607.028C559.608 606.596 558.834 606.38 557.814 606.38H555.078V611.384H557.814ZM573.759 614.084H567.459L566.217 617H563.805L569.475 604.4H571.779L577.467 617H575.019L573.759 614.084ZM572.985 612.248L570.609 606.74L568.251 612.248H572.985ZM579.957 604.4H589.767V606.326H582.261V609.422H585.987C587.499 609.422 588.645 609.74 589.425 610.376C590.217 611 590.613 611.906 590.613 613.094C590.613 614.342 590.181 615.308 589.317 615.992C588.453 616.664 587.223 617 585.627 617H579.957V604.4ZM585.501 615.2C586.401 615.2 587.085 615.026 587.553 614.678C588.021 614.33 588.255 613.826 588.255 613.166C588.255 611.87 587.337 611.222 585.501 611.222H582.261V615.2H585.501ZM599.547 617.18C598.263 617.18 597.105 616.904 596.073 616.352C595.041 615.788 594.231 615.014 593.643 614.03C593.055 613.034 592.761 611.924 592.761 610.7C592.761 609.476 593.055 608.372 593.643 607.388C594.231 606.392 595.041 605.618 596.073 605.066C597.105 604.502 598.263 604.22 599.547 604.22C600.831 604.22 601.989 604.502 603.021 605.066C604.053 605.618 604.863 606.386 605.451 607.37C606.039 608.354 606.333 609.464 606.333 610.7C606.333 611.936 606.039 613.046 605.451 614.03C604.863 615.014 604.053 615.788 603.021 616.352C601.989 616.904 600.831 617.18 599.547 617.18ZM599.547 615.128C600.387 615.128 601.143 614.942 601.815 614.57C602.487 614.186 603.015 613.658 603.399 612.986C603.783 612.302 603.975 611.54 603.975 610.7C603.975 609.86 603.783 609.104 603.399 608.432C603.015 607.748 602.487 607.22 601.815 606.848C601.143 606.464 600.387 606.272 599.547 606.272C598.707 606.272 597.951 606.464 597.279 606.848C596.607 607.22 596.079 607.748 595.695 608.432C595.311 609.104 595.119 609.86 595.119 610.7C595.119 611.54 595.311 612.302 595.695 612.986C596.079 613.658 596.607 614.186 597.279 614.57C597.951 614.942 598.707 615.128 599.547 615.128ZM618.429 606.38H614.253V617H611.931V606.38H607.773V604.4H618.429V606.38ZM625.631 611.69H623.291V617H620.987V604.4H623.291V609.674H625.703L629.321 604.4H631.805L627.503 610.502L631.967 617H629.321L625.631 611.69ZM642.236 614.084H635.936L634.694 617H632.282L637.952 604.4H640.256L645.944 617H643.496L642.236 614.084ZM641.462 612.248L639.086 606.74L636.728 612.248H641.462Z" fill="#F4F4F4"/>
<path d="M687.451 606.38H683.275V617H680.953V606.38H676.795V604.4H687.451V606.38ZM699.46 615.038V617H690.01V604.4H699.208V606.362H692.35V609.638H698.434V611.564H692.35V615.038H699.46ZM708.351 617.18C707.079 617.18 705.927 616.904 704.895 616.352C703.875 615.788 703.071 615.014 702.483 614.03C701.907 613.046 701.619 611.936 701.619 610.7C701.619 609.464 701.913 608.354 702.501 607.37C703.089 606.386 703.893 605.618 704.913 605.066C705.945 604.502 707.097 604.22 708.369 604.22C709.401 604.22 710.343 604.4 711.195 604.76C712.047 605.12 712.767 605.642 713.355 606.326L711.843 607.748C710.931 606.764 709.809 606.272 708.477 606.272C707.613 606.272 706.839 606.464 706.155 606.848C705.471 607.22 704.937 607.742 704.553 608.414C704.169 609.086 703.977 609.848 703.977 610.7C703.977 611.552 704.169 612.314 704.553 612.986C704.937 613.658 705.471 614.186 706.155 614.57C706.839 614.942 707.613 615.128 708.477 615.128C709.809 615.128 710.931 614.63 711.843 613.634L713.355 615.074C712.767 615.758 712.041 616.28 711.177 616.64C710.325 617 709.383 617.18 708.351 617.18ZM725.071 606.38H720.895V617H718.573V606.38H714.415V604.4H725.071V606.38ZM727.648 604.4H729.952V613.346L736.72 604.4H738.898V617H736.594V608.072L729.826 617H727.648V604.4ZM748.154 604.4C749.246 604.4 750.194 604.58 750.998 604.94C751.814 605.3 752.438 605.816 752.87 606.488C753.302 607.16 753.518 607.958 753.518 608.882C753.518 609.794 753.302 610.592 752.87 611.276C752.438 611.948 751.814 612.464 750.998 612.824C750.194 613.184 749.246 613.364 748.154 613.364H745.31V617H742.97V604.4H748.154ZM748.046 611.384C749.066 611.384 749.84 611.168 750.368 610.736C750.896 610.304 751.16 609.686 751.16 608.882C751.16 608.078 750.896 607.46 750.368 607.028C749.84 606.596 749.066 606.38 748.046 606.38H745.31V611.384H748.046ZM762.28 617.18C760.996 617.18 759.838 616.904 758.806 616.352C757.774 615.788 756.964 615.014 756.376 614.03C755.788 613.034 755.494 611.924 755.494 610.7C755.494 609.476 755.788 608.372 756.376 607.388C756.964 606.392 757.774 605.618 758.806 605.066C759.838 604.502 760.996 604.22 762.28 604.22C763.564 604.22 764.722 604.502 765.754 605.066C766.786 605.618 767.596 606.386 768.184 607.37C768.772 608.354 769.066 609.464 769.066 610.7C769.066 611.936 768.772 613.046 768.184 614.03C767.596 615.014 766.786 615.788 765.754 616.352C764.722 616.904 763.564 617.18 762.28 617.18ZM762.28 615.128C763.12 615.128 763.876 614.942 764.548 614.57C765.22 614.186 765.748 613.658 766.132 612.986C766.516 612.302 766.708 611.54 766.708 610.7C766.708 609.86 766.516 609.104 766.132 608.432C765.748 607.748 765.22 607.22 764.548 606.848C763.876 606.464 763.12 606.272 762.28 606.272C761.44 606.272 760.684 606.464 760.012 606.848C759.34 607.22 758.812 607.748 758.428 608.432C758.044 609.104 757.852 609.86 757.852 610.7C757.852 611.54 758.044 612.302 758.428 612.986C758.812 613.658 759.34 614.186 760.012 614.57C760.684 614.942 761.44 615.128 762.28 615.128ZM780.491 610.448C781.295 610.664 781.907 611.036 782.327 611.564C782.747 612.08 782.957 612.728 782.957 613.508C782.957 614.612 782.549 615.47 781.733 616.082C780.917 616.694 779.735 617 778.187 617H772.211V604.4H777.845C779.261 604.4 780.365 604.682 781.157 605.246C781.949 605.81 782.345 606.608 782.345 607.64C782.345 608.3 782.183 608.87 781.859 609.35C781.547 609.83 781.091 610.196 780.491 610.448ZM774.515 609.782H777.647C778.403 609.782 778.979 609.632 779.375 609.332C779.771 609.032 779.969 608.588 779.969 608C779.969 607.412 779.771 606.968 779.375 606.668C778.979 606.356 778.403 606.2 777.647 606.2H774.515V609.782ZM778.115 615.2C779.771 615.2 780.599 614.576 780.599 613.328C780.599 612.104 779.771 611.492 778.115 611.492H774.515V615.2H778.115ZM794.515 614.084H788.215L786.973 617H784.561L790.231 604.4H792.535L798.223 617H795.775L794.515 614.084ZM793.741 612.248L791.365 606.74L789.007 612.248H793.741ZM811.891 604.4V617H809.551V611.6H803.035V617H800.695V604.4H803.035V609.602H809.551V604.4H811.891ZM815.983 604.4H818.287V613.346L825.055 604.4H827.233V617H824.929V608.072L818.161 617H815.983V604.4ZM840.756 615.038V617H831.306V604.4H840.504V606.362H833.646V609.638H839.73V611.564H833.646V615.038H840.756Z" fill="#F4F4F4"/>
<path d="M910.503 604.4V617H908.163V611.6H901.647V617H899.307V604.4H901.647V609.602H908.163V604.4H910.503ZM922.93 614.084H916.63L915.388 617H912.976L918.646 604.4H920.95L926.638 617H924.19L922.93 614.084ZM922.156 612.248L919.78 606.74L917.422 612.248H922.156ZM939.962 604.4V617H937.658V606.38H932.69L932.582 609.53C932.522 611.294 932.378 612.728 932.15 613.832C931.922 614.924 931.556 615.758 931.052 616.334C930.548 616.898 929.852 617.18 928.964 617.18C928.652 617.18 928.226 617.12 927.686 617L927.848 614.966C928.004 615.014 928.184 615.038 928.388 615.038C929.12 615.038 929.636 614.606 929.936 613.742C930.248 612.866 930.44 611.492 930.512 609.62L930.692 604.4H939.962ZM952.399 614.084H946.099L944.857 617H942.445L948.115 604.4H950.419L956.107 617H953.659L952.399 614.084ZM951.625 612.248L949.249 606.74L946.891 612.248H951.625ZM971.159 615.02V619.682H968.999V617H959.333V619.682H957.155L957.173 615.02H957.713C958.505 614.984 959.057 614.402 959.369 613.274C959.693 612.134 959.891 610.508 959.963 608.396L960.107 604.4H969.341V615.02H971.159ZM962.015 608.612C961.955 610.244 961.823 611.606 961.619 612.698C961.415 613.778 961.091 614.552 960.647 615.02H967.037V606.38H962.105L962.015 608.612ZM978.546 611.69H976.206V617H973.902V604.4H976.206V609.674H978.618L982.236 604.4H984.72L980.418 610.502L984.882 617H982.236L978.546 611.69ZM995.151 614.084H988.851L987.609 617H985.197L990.867 604.4H993.171L998.859 617H996.411L995.151 614.084ZM994.377 612.248L992.001 606.74L989.643 612.248H994.377Z" fill="#F4F4F4"/>
<path d="M1084.47 604.4V617H1082.16V606.38H1075.63V617H1073.33V604.4H1084.47ZM1094.39 617.18C1093.11 617.18 1091.95 616.904 1090.92 616.352C1089.89 615.788 1089.08 615.014 1088.49 614.03C1087.9 613.034 1087.61 611.924 1087.61 610.7C1087.61 609.476 1087.9 608.372 1088.49 607.388C1089.08 606.392 1089.89 605.618 1090.92 605.066C1091.95 604.502 1093.11 604.22 1094.39 604.22C1095.68 604.22 1096.83 604.502 1097.87 605.066C1098.9 605.618 1099.71 606.386 1100.3 607.37C1100.88 608.354 1101.18 609.464 1101.18 610.7C1101.18 611.936 1100.88 613.046 1100.3 614.03C1099.71 615.014 1098.9 615.788 1097.87 616.352C1096.83 616.904 1095.68 617.18 1094.39 617.18ZM1094.39 615.128C1095.23 615.128 1095.99 614.942 1096.66 614.57C1097.33 614.186 1097.86 613.658 1098.24 612.986C1098.63 612.302 1098.82 611.54 1098.82 610.7C1098.82 609.86 1098.63 609.104 1098.24 608.432C1097.86 607.748 1097.33 607.22 1096.66 606.848C1095.99 606.464 1095.23 606.272 1094.39 606.272C1093.55 606.272 1092.8 606.464 1092.12 606.848C1091.45 607.22 1090.92 607.748 1090.54 608.432C1090.16 609.104 1089.96 609.86 1089.96 610.7C1089.96 611.54 1090.16 612.302 1090.54 612.986C1090.92 613.658 1091.45 614.186 1092.12 614.57C1092.8 614.942 1093.55 615.128 1094.39 615.128ZM1116.45 615.02V619.682H1114.29V617H1104.62V619.682H1102.44L1102.46 615.02H1103C1103.79 614.984 1104.34 614.402 1104.66 613.274C1104.98 612.134 1105.18 610.508 1105.25 608.396L1105.39 604.4H1114.63V615.02H1116.45ZM1107.3 608.612C1107.24 610.244 1107.11 611.606 1106.91 612.698C1106.7 613.778 1106.38 614.552 1105.93 615.02H1112.32V606.38H1107.39L1107.3 608.612ZM1131.68 615.02V619.682H1129.52V617H1119.86V619.682H1117.68L1117.7 615.02H1118.24C1119.03 614.984 1119.58 614.402 1119.89 613.274C1120.22 612.134 1120.41 610.508 1120.49 608.396L1120.63 604.4H1129.86V615.02H1131.68ZM1122.54 608.612C1122.48 610.244 1122.35 611.606 1122.14 612.698C1121.94 613.778 1121.61 614.552 1121.17 615.02H1127.56V606.38H1122.63L1122.54 608.612ZM1143.87 615.038V617H1134.42V604.4H1143.62V606.362H1136.76V609.638H1142.85V611.564H1136.76V615.038H1143.87ZM1152.21 604.4C1153.3 604.4 1154.25 604.58 1155.05 604.94C1155.87 605.3 1156.49 605.816 1156.92 606.488C1157.36 607.16 1157.57 607.958 1157.57 608.882C1157.57 609.794 1157.36 610.592 1156.92 611.276C1156.49 611.948 1155.87 612.464 1155.05 612.824C1154.25 613.184 1153.3 613.364 1152.21 613.364H1149.36V617H1147.02V604.4H1152.21ZM1152.1 611.384C1153.12 611.384 1153.89 611.168 1154.42 610.736C1154.95 610.304 1155.21 609.686 1155.21 608.882C1155.21 608.078 1154.95 607.46 1154.42 607.028C1153.89 606.596 1153.12 606.38 1152.1 606.38H1149.36V611.384H1152.1ZM1171.06 611.69H1168.9V617H1166.61V611.69H1164.45L1161.27 617H1158.57L1162.53 610.43L1158.84 604.4H1161.32L1164.4 609.674H1166.61V604.4H1168.9V609.674H1171.08L1174.17 604.4H1176.66L1172.99 610.448L1176.93 617H1174.23L1171.06 611.69ZM1183.74 611.69H1181.4V617H1179.09V604.4H1181.4V609.674H1183.81L1187.43 604.4H1189.91L1185.61 610.502L1190.07 617H1187.43L1183.74 611.69ZM1200.34 614.084H1194.04L1192.8 617H1190.39L1196.06 604.4H1198.36L1204.05 617H1201.6L1200.34 614.084ZM1199.57 612.248L1197.19 606.74L1194.83 612.248H1199.57Z" fill="#F4F4F4"/>
<path d="M386.828 563V471.5C386.828 468.739 389.066 466.5 391.828 466.5L571.84 466.5M571.84 466.5V563M571.84 466.5H759.989M759.989 466.5V563M759.989 466.5H759.847M949.705 466.5V563M949.705 466.5H1132.85C1135.62 466.5 1137.85 468.739 1137.85 471.5V563M949.705 466.5L759.847 466.5M759.847 466.5V359" stroke="url(#paint0_linear_445_42)" stroke-width="3"/>
<rect x="312.721" y="236" width="108.071" height="25.9982" rx="4" fill="url(#paint1_linear_445_42)"/>
<rect x="319.348" y="268.115" width="107.561" height="25.9982" rx="4" fill="url(#paint2_linear_445_42)"/>
<rect x="325.975" y="300.23" width="108.071" height="25.9982" rx="4" fill="url(#paint3_linear_445_42)"/>
<path d="M301.008 370.2H314.088V372.768H304.08V376.896H309.048C311.064 376.896 312.592 377.32 313.632 378.168C314.688 379 315.216 380.208 315.216 381.792C315.216 383.456 314.64 384.744 313.488 385.656C312.336 386.552 310.696 387 308.568 387H301.008V370.2ZM308.4 384.6C309.6 384.6 310.512 384.368 311.136 383.904C311.76 383.44 312.072 382.768 312.072 381.888C312.072 380.16 310.848 379.296 308.4 379.296H304.08V384.6H308.4ZM324.345 369.96C325.977 369.96 327.441 370.336 328.737 371.088C330.049 371.824 331.073 372.848 331.809 374.16C332.545 375.472 332.913 376.952 332.913 378.6C332.913 380.248 332.545 381.728 331.809 383.04C331.073 384.352 330.049 385.384 328.737 386.136C327.441 386.872 325.977 387.24 324.345 387.24C322.921 387.24 321.625 387 320.457 386.52C319.305 386.04 318.345 385.344 317.577 384.432L319.545 382.512C320.777 383.84 322.321 384.504 324.177 384.504C325.617 384.504 326.833 384.064 327.825 383.184C328.833 382.304 329.449 381.144 329.673 379.704H322.161V377.232H329.625C329.353 375.872 328.721 374.776 327.729 373.944C326.753 373.112 325.569 372.696 324.177 372.696C322.321 372.696 320.777 373.36 319.545 374.688L317.577 372.768C318.345 371.856 319.305 371.16 320.457 370.68C321.625 370.2 322.921 369.96 324.345 369.96ZM343.304 379.92H340.184V387H337.112V370.2H340.184V377.232H343.4L348.224 370.2H351.536L345.8 378.336L351.752 387H348.224L343.304 379.92ZM369.34 370.2V387H366.268V372.84H359.644L359.5 377.04C359.42 379.392 359.228 381.304 358.924 382.776C358.62 384.232 358.132 385.344 357.46 386.112C356.788 386.864 355.86 387.24 354.676 387.24C354.26 387.24 353.692 387.16 352.972 387L353.188 384.288C353.396 384.352 353.636 384.384 353.908 384.384C354.884 384.384 355.572 383.808 355.972 382.656C356.388 381.488 356.644 379.656 356.74 377.16L356.98 370.2H369.34ZM382.562 387.24C380.85 387.24 379.306 386.872 377.93 386.136C376.554 385.384 375.474 384.352 374.69 383.04C373.906 381.712 373.514 380.232 373.514 378.6C373.514 376.968 373.906 375.496 374.69 374.184C375.474 372.856 376.554 371.824 377.93 371.088C379.306 370.336 380.85 369.96 382.562 369.96C384.274 369.96 385.818 370.336 387.194 371.088C388.57 371.824 389.65 372.848 390.434 374.16C391.218 375.472 391.61 376.952 391.61 378.6C391.61 380.248 391.218 381.728 390.434 383.04C389.65 384.352 388.57 385.384 387.194 386.136C385.818 386.872 384.274 387.24 382.562 387.24ZM382.562 384.504C383.682 384.504 384.69 384.256 385.586 383.76C386.482 383.248 387.186 382.544 387.698 381.648C388.21 380.736 388.466 379.72 388.466 378.6C388.466 377.48 388.21 376.472 387.698 375.576C387.186 374.664 386.482 373.96 385.586 373.464C384.69 372.952 383.682 372.696 382.562 372.696C381.442 372.696 380.434 372.952 379.538 373.464C378.642 373.96 377.938 374.664 377.426 375.576C376.914 376.472 376.658 377.48 376.658 378.6C376.658 379.72 376.914 380.736 377.426 381.648C377.938 382.544 378.642 383.248 379.538 383.76C380.434 384.256 381.442 384.504 382.562 384.504ZM407.18 372.84H398.852L398.876 387H395.804V370.2H407.204L407.18 372.84ZM308.712 417.24C307.016 417.24 305.48 416.872 304.104 416.136C302.744 415.384 301.672 414.352 300.888 413.04C300.12 411.728 299.736 410.248 299.736 408.6C299.736 406.952 300.128 405.472 300.912 404.16C301.696 402.848 302.768 401.824 304.128 401.088C305.504 400.336 307.04 399.96 308.736 399.96C310.112 399.96 311.368 400.2 312.504 400.68C313.64 401.16 314.6 401.856 315.384 402.768L313.368 404.664C312.152 403.352 310.656 402.696 308.88 402.696C307.728 402.696 306.696 402.952 305.784 403.464C304.872 403.96 304.16 404.656 303.648 405.552C303.136 406.448 302.88 407.464 302.88 408.6C302.88 409.736 303.136 410.752 303.648 411.648C304.16 412.544 304.872 413.248 305.784 413.76C306.696 414.256 307.728 414.504 308.88 414.504C310.656 414.504 312.152 413.84 313.368 412.512L315.384 414.432C314.6 415.344 313.632 416.04 312.48 416.52C311.344 417 310.088 417.24 308.712 417.24ZM333.881 400.2V417H330.809V402.84H322.097V417H319.025V400.2H333.881ZM346.25 400.2C347.706 400.2 348.97 400.44 350.042 400.92C351.13 401.4 351.962 402.088 352.538 402.984C353.114 403.88 353.402 404.944 353.402 406.176C353.402 407.392 353.114 408.456 352.538 409.368C351.962 410.264 351.13 410.952 350.042 411.432C348.97 411.912 347.706 412.152 346.25 412.152H342.458V417H339.338V400.2H346.25ZM346.106 409.512C347.466 409.512 348.498 409.224 349.202 408.648C349.906 408.072 350.258 407.248 350.258 406.176C350.258 405.104 349.906 404.28 349.202 403.704C348.498 403.128 347.466 402.84 346.106 402.84H342.458V409.512H346.106ZM357.098 400.2H360.17V412.128L369.194 400.2H372.098V417H369.026V405.096L360.002 417H357.098V400.2ZM392.456 400.2V417H389.336V409.8H380.648V417H377.528V400.2H380.648V407.136H389.336V400.2H392.456ZM410.081 402.84H404.513V417H401.417V402.84H395.873V400.2H410.081V402.84ZM423.784 413.112H415.384L413.728 417H410.512L418.072 400.2H421.144L428.728 417H425.464L423.784 413.112ZM422.752 410.664L419.584 403.32L416.44 410.664H422.752Z" fill="#F4F4F4"/>
<path d="M2.91946 370.2H15.9995V372.768H5.99146V376.896H10.9595C12.9755 376.896 14.5035 377.32 15.5435 378.168C16.5995 379 17.1275 380.208 17.1275 381.792C17.1275 383.456 16.5515 384.744 15.3995 385.656C14.2475 386.552 12.6075 387 10.4795 387H2.91946V370.2ZM10.3115 384.6C11.5115 384.6 12.4235 384.368 13.0475 383.904C13.6715 383.44 13.9835 382.768 13.9835 381.888C13.9835 380.16 12.7595 379.296 10.3115 379.296H5.99146V384.6H10.3115ZM26.2559 369.96C27.8879 369.96 29.3519 370.336 30.6479 371.088C31.9599 371.824 32.9839 372.848 33.7199 374.16C34.4559 375.472 34.8239 376.952 34.8239 378.6C34.8239 380.248 34.4559 381.728 33.7199 383.04C32.9839 384.352 31.9599 385.384 30.6479 386.136C29.3519 386.872 27.8879 387.24 26.2559 387.24C24.8319 387.24 23.5359 387 22.3679 386.52C21.2159 386.04 20.2559 385.344 19.4879 384.432L21.4559 382.512C22.6879 383.84 24.2319 384.504 26.0879 384.504C27.5279 384.504 28.7439 384.064 29.7359 383.184C30.7439 382.304 31.3599 381.144 31.5839 379.704H24.0719V377.232H31.5359C31.2639 375.872 30.6319 374.776 29.6399 373.944C28.6639 373.112 27.4799 372.696 26.0879 372.696C24.2319 372.696 22.6879 373.36 21.4559 374.688L19.4879 372.768C20.2559 371.856 21.2159 371.16 22.3679 370.68C23.5359 370.2 24.8319 369.96 26.2559 369.96ZM45.215 379.92H42.095V387H39.023V370.2H42.095V377.232H45.311L50.135 370.2H53.447L47.711 378.336L53.663 387H50.135L45.215 379.92ZM71.2512 370.2V387H68.1792V372.84H61.5552L61.4112 377.04C61.3312 379.392 61.1392 381.304 60.8352 382.776C60.5312 384.232 60.0432 385.344 59.3712 386.112C58.6992 386.864 57.7712 387.24 56.5872 387.24C56.1712 387.24 55.6032 387.16 54.8832 387L55.0992 384.288C55.3072 384.352 55.5472 384.384 55.8192 384.384C56.7952 384.384 57.4832 383.808 57.8832 382.656C58.2992 381.488 58.5552 379.656 58.6512 377.16L58.8912 370.2H71.2512ZM84.4733 387.24C82.7613 387.24 81.2173 386.872 79.8413 386.136C78.4653 385.384 77.3853 384.352 76.6013 383.04C75.8173 381.712 75.4253 380.232 75.4253 378.6C75.4253 376.968 75.8173 375.496 76.6013 374.184C77.3853 372.856 78.4653 371.824 79.8413 371.088C81.2173 370.336 82.7613 369.96 84.4733 369.96C86.1853 369.96 87.7293 370.336 89.1053 371.088C90.4813 371.824 91.5613 372.848 92.3453 374.16C93.1293 375.472 93.5213 376.952 93.5213 378.6C93.5213 380.248 93.1293 381.728 92.3453 383.04C91.5613 384.352 90.4813 385.384 89.1053 386.136C87.7293 386.872 86.1853 387.24 84.4733 387.24ZM84.4733 384.504C85.5933 384.504 86.6013 384.256 87.4973 383.76C88.3933 383.248 89.0973 382.544 89.6093 381.648C90.1213 380.736 90.3773 379.72 90.3773 378.6C90.3773 377.48 90.1213 376.472 89.6093 375.576C89.0973 374.664 88.3933 373.96 87.4973 373.464C86.6013 372.952 85.5933 372.696 84.4733 372.696C83.3533 372.696 82.3453 372.952 81.4493 373.464C80.5533 373.96 79.8493 374.664 79.3373 375.576C78.8253 376.472 78.5693 377.48 78.5693 378.6C78.5693 379.72 78.8253 380.736 79.3373 381.648C79.8493 382.544 80.5533 383.248 81.4493 383.76C82.3453 384.256 83.3533 384.504 84.4733 384.504ZM109.091 372.84H100.763L100.787 387H97.7148V370.2H109.115L109.091 372.84ZM17.7755 400.2V417H14.7035V402.84H5.99146V417H2.91946V400.2H17.7755ZM30.1446 400.2C31.6006 400.2 32.8646 400.44 33.9366 400.92C35.0246 401.4 35.8566 402.088 36.4326 402.984C37.0086 403.88 37.2966 404.944 37.2966 406.176C37.2966 407.392 37.0086 408.456 36.4326 409.368C35.8566 410.264 35.0246 410.952 33.9366 411.432C32.8646 411.912 31.6006 412.152 30.1446 412.152H26.3526V417H23.2326V400.2H30.1446ZM30.0006 409.512C31.3606 409.512 32.3926 409.224 33.0966 408.648C33.8006 408.072 34.1526 407.248 34.1526 406.176C34.1526 405.104 33.8006 404.28 33.0966 403.704C32.3926 403.128 31.3606 402.84 30.0006 402.84H26.3526V409.512H30.0006ZM48.9786 417.24C47.2666 417.24 45.7226 416.872 44.3466 416.136C42.9706 415.384 41.8906 414.352 41.1066 413.04C40.3226 411.712 39.9306 410.232 39.9306 408.6C39.9306 406.968 40.3226 405.496 41.1066 404.184C41.8906 402.856 42.9706 401.824 44.3466 401.088C45.7226 400.336 47.2666 399.96 48.9786 399.96C50.6906 399.96 52.2346 400.336 53.6106 401.088C54.9866 401.824 56.0666 402.848 56.8506 404.16C57.6346 405.472 58.0266 406.952 58.0266 408.6C58.0266 410.248 57.6346 411.728 56.8506 413.04C56.0666 414.352 54.9866 415.384 53.6106 416.136C52.2346 416.872 50.6906 417.24 48.9786 417.24ZM48.9786 414.504C50.0986 414.504 51.1066 414.256 52.0026 413.76C52.8986 413.248 53.6026 412.544 54.1146 411.648C54.6266 410.736 54.8826 409.72 54.8826 408.6C54.8826 407.48 54.6266 406.472 54.1146 405.576C53.6026 404.664 52.8986 403.96 52.0026 403.464C51.1066 402.952 50.0986 402.696 48.9786 402.696C47.8586 402.696 46.8506 402.952 45.9546 403.464C45.0586 403.96 44.3546 404.664 43.8426 405.576C43.3306 406.472 43.0746 407.48 43.0746 408.6C43.0746 409.72 43.3306 410.736 43.8426 411.648C44.3546 412.544 45.0586 413.248 45.9546 413.76C46.8506 414.256 47.8586 414.504 48.9786 414.504ZM74.7961 414.384V417H62.1961V400.2H74.4601V402.816H65.3161V407.184H73.4281V409.752H65.3161V414.384H74.7961ZM85.1862 409.92H82.0662V417H78.9942V400.2H82.0662V407.232H85.2822L90.1062 400.2H93.4182L87.6822 408.336L93.6342 417H90.1062L85.1862 409.92ZM108.5 402.84H102.932V417H99.836V402.84H94.292V400.2H108.5V402.84ZM122.203 413.112H113.803L112.147 417H108.931L116.491 400.2H119.563L127.147 417H123.883L122.203 413.112ZM121.171 410.664L118.003 403.32L114.859 410.664H121.171Z" fill="#F4F4F4"/>
<rect x="0.543457" y="236" width="36.1936" height="25.9982" rx="4" fill="url(#paint4_linear_445_42)"/>
<rect x="7.17041" y="268.115" width="36.1936" height="25.9982" rx="4" fill="url(#paint5_linear_445_42)"/>
<rect x="13.7974" y="300.23" width="36.1936" height="25.9982" rx="4" fill="url(#paint6_linear_445_42)"/>
<rect x="43.364" y="236" width="36.1936" height="25.9982" rx="4" fill="url(#paint7_linear_445_42)"/>
<rect x="49.9911" y="268.115" width="36.1936" height="25.9982" rx="4" fill="url(#paint8_linear_445_42)"/>
<rect x="56.618" y="300.23" width="36.1936" height="25.9982" rx="4" fill="url(#paint9_linear_445_42)"/>
<rect x="86.1847" y="236" width="36.1936" height="25.9982" rx="4" fill="url(#paint10_linear_445_42)"/>
<rect x="92.8116" y="268.115" width="36.1936" height="25.9982" rx="4" fill="url(#paint11_linear_445_42)"/>
<rect x="99.4387" y="300.23" width="36.1936" height="25.9982" rx="4" fill="url(#paint12_linear_445_42)"/>
<path d="M240.632 393L225.632 384.34L225.632 401.66L240.632 393ZM193.632 394.5L227.132 394.5L227.132 391.5L193.632 391.5L193.632 394.5Z" fill="url(#paint13_linear_445_42)"/>
<path d="M1016.54 393L1001.54 384.34L1001.54 401.66L1016.54 393ZM969.539 394.5L1003.04 394.5L1003.04 391.5L969.539 391.5L969.539 394.5Z" fill="#0250C5"/>
<path d="M539.046 393L524.046 384.34L524.046 401.66L539.046 393ZM492.046 394.5L525.546 394.5L525.546 391.5L492.046 391.5L492.046 394.5Z" fill="url(#paint14_linear_445_42)"/>
<path d="M607.126 402.24C605.43 402.24 603.894 401.872 602.518 401.136C601.158 400.384 600.086 399.352 599.302 398.04C598.534 396.728 598.15 395.248 598.15 393.6C598.15 391.952 598.542 390.472 599.326 389.16C600.11 387.848 601.182 386.824 602.542 386.088C603.918 385.336 605.454 384.96 607.15 384.96C608.526 384.96 609.782 385.2 610.918 385.68C612.054 386.16 613.014 386.856 613.798 387.768L611.782 389.664C610.566 388.352 609.07 387.696 607.294 387.696C606.142 387.696 605.11 387.952 604.198 388.464C603.286 388.96 602.574 389.656 602.062 390.552C601.55 391.448 601.294 392.464 601.294 393.6C601.294 394.736 601.55 395.752 602.062 396.648C602.574 397.544 603.286 398.248 604.198 398.76C605.11 399.256 606.142 399.504 607.294 399.504C609.07 399.504 610.566 398.84 611.782 397.512L613.798 399.432C613.014 400.344 612.046 401.04 610.894 401.52C609.758 402 608.502 402.24 607.126 402.24ZM632.295 385.2V402H629.223V387.84H620.511V402H617.439V385.2H632.295ZM644.664 385.2C646.12 385.2 647.384 385.44 648.456 385.92C649.544 386.4 650.376 387.088 650.952 387.984C651.528 388.88 651.816 389.944 651.816 391.176C651.816 392.392 651.528 393.456 650.952 394.368C650.376 395.264 649.544 395.952 648.456 396.432C647.384 396.912 646.12 397.152 644.664 397.152H640.872V402H637.752V385.2H644.664ZM644.52 394.512C645.88 394.512 646.912 394.224 647.616 393.648C648.32 393.072 648.672 392.248 648.672 391.176C648.672 390.104 648.32 389.28 647.616 388.704C646.912 388.128 645.88 387.84 644.52 387.84H640.872V394.512H644.52ZM655.512 385.2H658.584V397.128L667.608 385.2H670.512V402H667.44V390.096L658.416 402H655.512V385.2ZM690.87 385.2V402H687.75V394.8H679.062V402H675.942V385.2H679.062V392.136H687.75V385.2H690.87ZM708.495 387.84H702.927V402H699.831V387.84H694.287V385.2H708.495V387.84Z" fill="#F4F4F4"/>
<path fill-rule="evenodd" clip-rule="evenodd" d="M818.518 160.884C861.851 160.884 897.182 126.621 898.895 83.7078C898.955 82.2159 897.383 81.2447 896.053 81.9221L872.876 93.7212C872.359 93.9844 871.983 94.4613 871.834 95.022C865.626 118.378 844.335 135.588 819.024 135.588C788.847 135.588 764.384 111.125 764.384 80.9485C764.384 50.7718 788.847 26.3086 819.024 26.3086C838.654 26.3086 855.867 36.6606 865.5 52.2032C865.524 52.2415 865.584 52.2205 865.578 52.1758V52.1758C865.574 52.1454 865.603 52.1212 865.632 52.1307L882.21 57.5072C883.327 57.8695 884.514 57.1959 884.776 56.0513L888.17 41.2368C888.282 40.7464 888.206 40.2306 887.951 39.7966C873.983 15.9867 848.118 0 818.518 0C774.091 0 738.076 36.0151 738.076 80.442C738.076 124.869 774.091 160.884 818.518 160.884Z" fill="url(#paint15_linear_445_42)"/>
<path fill-rule="evenodd" clip-rule="evenodd" d="M752.843 326C697.508 326 652.447 282.012 650.721 227.095C650.674 225.603 652.246 224.629 653.577 225.306L684.02 240.805C684.537 241.068 684.913 241.545 685.06 242.106C692.864 271.895 719.966 293.872 752.201 293.872C790.53 293.872 821.602 262.8 821.602 224.47C821.602 186.141 790.53 155.069 752.201 155.069C727.267 155.069 705.405 168.218 693.169 187.959C693.139 188.008 693.063 187.981 693.07 187.924V187.924C693.075 187.885 693.038 187.854 693.001 187.867L671.383 194.878C670.266 195.24 669.079 194.566 668.817 193.422L664.328 173.823C664.216 173.333 664.292 172.817 664.545 172.383C682.262 142.04 715.172 121.652 752.843 121.652C809.272 121.652 855.017 167.397 855.017 223.826C855.017 280.255 809.272 326 752.843 326Z" fill="url(#paint16_linear_445_42)"/>
<path d="M601.025 297.618C599.641 296.399 600.502 294.116 602.346 294.116H751.568C752.672 294.116 753.568 295.012 753.568 296.116V324C753.568 325.105 752.672 326 751.568 326H602.346C600.502 326 599.641 323.717 601.025 322.499L613.456 311.56C614.361 310.763 614.361 309.353 613.456 308.557L601.025 297.618Z" fill="url(#paint17_linear_445_42)"/>
<path d="M771.427 311.56C772.332 310.763 772.332 309.353 771.427 308.557L758.996 297.618C757.612 296.399 758.473 294.116 760.317 294.116H891.966C892.439 294.116 892.896 294.284 893.258 294.589L909.734 308.531C910.679 309.33 910.679 310.786 909.734 311.585L893.258 325.527C892.896 325.833 892.439 326 891.966 326H760.317C758.473 326 757.612 323.717 758.996 322.499L771.427 311.56Z" fill="url(#paint18_linear_445_42)"/>
<path d="M797.495 84.464V89.768H795.839V86H781.175L781.151 89.768H779.495L779.519 84.464H780.359C781.463 84.4 782.231 83.528 782.663 81.848C783.095 80.152 783.359 77.752 783.455 74.648L783.647 69.2H794.975V84.464H797.495ZM785.039 74.816C784.959 77.376 784.759 79.488 784.439 81.152C784.135 82.8 783.615 83.904 782.879 84.464H793.223V70.736H785.183L785.039 74.816ZM812.118 80.216H801.558C801.654 81.528 802.158 82.592 803.07 83.408C803.982 84.208 805.134 84.608 806.526 84.608C807.31 84.608 808.03 84.472 808.686 84.2C809.342 83.912 809.91 83.496 810.39 82.952L811.35 84.056C810.79 84.728 810.086 85.24 809.238 85.592C808.406 85.944 807.486 86.12 806.478 86.12C805.182 86.12 804.03 85.848 803.022 85.304C802.03 84.744 801.254 83.976 800.694 83C800.134 82.024 799.854 80.92 799.854 79.688C799.854 78.456 800.118 77.352 800.646 76.376C801.19 75.4 801.926 74.64 802.854 74.096C803.798 73.552 804.854 73.28 806.022 73.28C807.19 73.28 808.238 73.552 809.166 74.096C810.094 74.64 810.822 75.4 811.35 76.376C811.878 77.336 812.142 78.44 812.142 79.688L812.118 80.216ZM806.022 74.744C804.806 74.744 803.782 75.136 802.95 75.92C802.134 76.688 801.67 77.696 801.558 78.944H810.51C810.398 77.696 809.926 76.688 809.094 75.92C808.278 75.136 807.254 74.744 806.022 74.744ZM816.634 73.376H818.338V83.408L826.762 73.376H828.274V86H826.57V75.968L818.17 86H816.634V73.376ZM822.37 71.552C821.282 71.552 820.418 71.28 819.778 70.736C819.138 70.192 818.81 69.424 818.794 68.432H820.018C820.034 69.056 820.258 69.56 820.69 69.944C821.122 70.312 821.682 70.496 822.37 70.496C823.058 70.496 823.618 70.312 824.05 69.944C824.498 69.56 824.73 69.056 824.746 68.432H825.97C825.954 69.424 825.618 70.192 824.962 70.736C824.322 71.28 823.458 71.552 822.37 71.552ZM844.198 73.376V86H842.494V74.888H836.446L836.278 78.008C836.15 80.632 835.846 82.648 835.366 84.056C834.886 85.464 834.03 86.168 832.798 86.168C832.462 86.168 832.054 86.104 831.574 85.976L831.694 84.512C831.982 84.576 832.182 84.608 832.294 84.608C832.95 84.608 833.446 84.304 833.782 83.696C834.118 83.088 834.342 82.336 834.454 81.44C834.566 80.544 834.662 79.36 834.742 77.888L834.958 73.376H844.198ZM849.762 73.376H851.466V83.408L859.89 73.376H861.402V86H859.698V75.968L851.298 86H849.762V73.376Z" fill="#F4F4F4"/>
<path d="M742.132 204.2V221H740.404V205.736H736.444V204.2H742.132ZM747.06 213.752H753.348V215.24H747.06V213.752ZM767.943 219.464V221H756.159V219.776L763.143 212.936C764.023 212.072 764.615 211.328 764.919 210.704C765.239 210.064 765.399 209.424 765.399 208.784C765.399 207.792 765.055 207.024 764.367 206.48C763.695 205.92 762.727 205.64 761.463 205.64C759.495 205.64 757.967 206.264 756.879 207.512L755.655 206.456C756.311 205.688 757.143 205.096 758.151 204.68C759.175 204.264 760.327 204.056 761.607 204.056C763.319 204.056 764.671 204.464 765.663 205.28C766.671 206.08 767.175 207.184 767.175 208.592C767.175 209.456 766.983 210.288 766.599 211.088C766.215 211.888 765.487 212.808 764.415 213.848L758.703 219.464H767.943ZM706.834 232.376H708.538V237.968H716.482V232.376H718.186V245H716.482V239.432H708.538V245H706.834V232.376ZM734.79 239.216H724.23C724.326 240.528 724.83 241.592 725.742 242.408C726.654 243.208 727.806 243.608 729.198 243.608C729.982 243.608 730.702 243.472 731.358 243.2C732.014 242.912 732.582 242.496 733.062 241.952L734.022 243.056C733.462 243.728 732.758 244.24 731.91 244.592C731.078 244.944 730.158 245.12 729.15 245.12C727.854 245.12 726.702 244.848 725.694 244.304C724.702 243.744 723.926 242.976 723.366 242C722.806 241.024 722.526 239.92 722.526 238.688C722.526 237.456 722.79 236.352 723.318 235.376C723.862 234.4 724.598 233.64 725.526 233.096C726.47 232.552 727.526 232.28 728.694 232.28C729.862 232.28 730.91 232.552 731.838 233.096C732.766 233.64 733.494 234.4 734.022 235.376C734.55 236.336 734.814 237.44 734.814 238.688L734.79 239.216ZM728.694 233.744C727.478 233.744 726.454 234.136 725.622 234.92C724.806 235.688 724.342 236.696 724.23 237.944H733.182C733.07 236.696 732.598 235.688 731.766 234.92C730.95 234.136 729.926 233.744 728.694 233.744ZM751.36 243.512V248.048H749.752V245H738.448V248.048H736.84V243.512H737.56C738.408 243.464 738.984 242.84 739.288 241.64C739.592 240.44 739.8 238.76 739.912 236.6L740.08 232.376H749.392V243.512H751.36ZM741.472 236.696C741.392 238.488 741.24 239.968 741.016 241.136C740.792 242.288 740.392 243.08 739.816 243.512H747.688V233.888H741.616L741.472 236.696ZM766.44 239.216H755.88C755.976 240.528 756.48 241.592 757.392 242.408C758.304 243.208 759.456 243.608 760.848 243.608C761.632 243.608 762.352 243.472 763.008 243.2C763.664 242.912 764.232 242.496 764.712 241.952L765.672 243.056C765.112 243.728 764.408 244.24 763.56 244.592C762.728 244.944 761.808 245.12 760.8 245.12C759.504 245.12 758.352 244.848 757.344 244.304C756.352 243.744 755.576 242.976 755.016 242C754.456 241.024 754.176 239.92 754.176 238.688C754.176 237.456 754.44 236.352 754.968 235.376C755.512 234.4 756.248 233.64 757.176 233.096C758.12 232.552 759.176 232.28 760.344 232.28C761.512 232.28 762.56 232.552 763.488 233.096C764.416 233.64 765.144 234.4 765.672 235.376C766.2 236.336 766.464 237.44 766.464 238.688L766.44 239.216ZM760.344 233.744C759.128 233.744 758.104 234.136 757.272 234.92C756.456 235.688 755.992 236.696 755.88 237.944H764.832C764.72 236.696 764.248 235.688 763.416 234.92C762.6 234.136 761.576 233.744 760.344 233.744ZM781.019 232.376V245H779.315V233.888H773.267L773.099 237.008C772.971 239.632 772.667 241.648 772.187 243.056C771.707 244.464 770.851 245.168 769.619 245.168C769.283 245.168 768.875 245.104 768.395 244.976L768.515 243.512C768.803 243.576 769.003 243.608 769.115 243.608C769.771 243.608 770.267 243.304 770.603 242.696C770.939 242.088 771.163 241.336 771.275 240.44C771.387 239.544 771.483 238.36 771.563 236.888L771.779 232.376H781.019ZM786.583 232.376H788.287V242.408L796.711 232.376H798.223V245H796.519V234.968L788.119 245H786.583V232.376Z" fill="#F4F4F4"/>
<path d="M1083.8 355.2C1085.26 355.2 1086.52 355.44 1087.59 355.92C1088.68 356.4 1089.51 357.088 1090.09 357.984C1090.67 358.88 1090.95 359.944 1090.95 361.176C1090.95 362.392 1090.67 363.456 1090.09 364.368C1089.51 365.264 1088.68 365.952 1087.59 366.432C1086.52 366.912 1085.26 367.152 1083.8 367.152H1080.01V372H1076.89V355.2H1083.8ZM1083.66 364.512C1085.02 364.512 1086.05 364.224 1086.75 363.648C1087.46 363.072 1087.81 362.248 1087.81 361.176C1087.81 360.104 1087.46 359.28 1086.75 358.704C1086.05 358.128 1085.02 357.84 1083.66 357.84H1080.01V364.512H1083.66ZM1104.92 368.112H1096.52L1094.86 372H1091.65L1099.21 355.2H1102.28L1109.86 372H1106.6L1104.92 368.112ZM1103.89 365.664L1100.72 358.32L1097.57 365.664H1103.89ZM1113.18 355.2H1126.26V357.768H1116.25V361.896H1121.22C1123.24 361.896 1124.77 362.32 1125.81 363.168C1126.86 364 1127.39 365.208 1127.39 366.792C1127.39 368.456 1126.81 369.744 1125.66 370.656C1124.51 371.552 1122.87 372 1120.74 372H1113.18V355.2ZM1120.57 369.6C1121.77 369.6 1122.69 369.368 1123.31 368.904C1123.93 368.44 1124.25 367.768 1124.25 366.888C1124.25 365.16 1123.02 364.296 1120.57 364.296H1116.25V369.6H1120.57ZM1139.3 372.24C1137.59 372.24 1136.05 371.872 1134.67 371.136C1133.3 370.384 1132.22 369.352 1131.43 368.04C1130.65 366.712 1130.26 365.232 1130.26 363.6C1130.26 361.968 1130.65 360.496 1131.43 359.184C1132.22 357.856 1133.3 356.824 1134.67 356.088C1136.05 355.336 1137.59 354.96 1139.3 354.96C1141.02 354.96 1142.56 355.336 1143.94 356.088C1145.31 356.824 1146.39 357.848 1147.18 359.16C1147.96 360.472 1148.35 361.952 1148.35 363.6C1148.35 365.248 1147.96 366.728 1147.18 368.04C1146.39 369.352 1145.31 370.384 1143.94 371.136C1142.56 371.872 1141.02 372.24 1139.3 372.24ZM1139.3 369.504C1140.42 369.504 1141.43 369.256 1142.33 368.76C1143.22 368.248 1143.93 367.544 1144.44 366.648C1144.95 365.736 1145.21 364.72 1145.21 363.6C1145.21 362.48 1144.95 361.472 1144.44 360.576C1143.93 359.664 1143.22 358.96 1142.33 358.464C1141.43 357.952 1140.42 357.696 1139.3 357.696C1138.18 357.696 1137.18 357.952 1136.28 358.464C1135.38 358.96 1134.68 359.664 1134.17 360.576C1133.66 361.472 1133.4 362.48 1133.4 363.6C1133.4 364.72 1133.66 365.736 1134.17 366.648C1134.68 367.544 1135.38 368.248 1136.28 368.76C1137.18 369.256 1138.18 369.504 1139.3 369.504ZM1164.48 357.84H1158.91V372H1155.81V357.84H1150.27V355.2H1164.48V357.84ZM1178.18 368.112H1169.78L1168.13 372H1164.91L1172.47 355.2H1175.54L1183.13 372H1179.86L1178.18 368.112ZM1177.15 365.664L1173.98 358.32L1170.84 365.664H1177.15ZM1200.8 354.96C1202.45 354.96 1203.93 355.336 1205.24 356.088C1206.57 356.824 1207.61 357.848 1208.36 359.16C1209.11 360.472 1209.49 361.952 1209.49 363.6C1209.49 365.248 1209.11 366.728 1208.36 368.04C1207.61 369.352 1206.57 370.384 1205.24 371.136C1203.93 371.872 1202.45 372.24 1200.8 372.24C1199.29 372.24 1197.92 371.928 1196.67 371.304C1195.44 370.68 1194.42 369.808 1193.62 368.688C1192.84 367.568 1192.35 366.296 1192.16 364.872H1189.52V372H1186.45V355.2H1189.52V362.088H1192.21C1192.43 360.696 1192.93 359.464 1193.72 358.392C1194.52 357.304 1195.53 356.464 1196.74 355.872C1197.97 355.264 1199.33 354.96 1200.8 354.96ZM1200.8 369.504C1201.84 369.504 1202.78 369.256 1203.63 368.76C1204.48 368.264 1205.14 367.568 1205.62 366.672C1206.1 365.776 1206.34 364.752 1206.34 363.6C1206.34 362.448 1206.1 361.424 1205.62 360.528C1205.14 359.632 1204.48 358.936 1203.63 358.44C1202.78 357.944 1201.84 357.696 1200.8 357.696C1199.76 357.696 1198.81 357.944 1197.97 358.44C1197.13 358.936 1196.47 359.632 1195.97 360.528C1195.49 361.424 1195.25 362.448 1195.25 363.6C1195.25 364.752 1195.49 365.776 1195.97 366.672C1196.47 367.568 1197.13 368.264 1197.97 368.76C1198.81 369.256 1199.76 369.504 1200.8 369.504ZM1235.3 355.2V372H1213.72V355.2H1216.79V369.36H1222.98V355.2H1226.06V369.36H1232.22V355.2H1235.3ZM1237.72 369.36V375.576H1234.84V372H1232.15V369.36H1237.72ZM1254.04 369.384V372H1241.44V355.2H1253.7V357.816H1244.56V362.184H1252.67V364.752H1244.56V369.384H1254.04ZM1270.84 369.384V372H1258.24V355.2H1270.5V357.816H1261.36V362.184H1269.47V364.752H1261.36V369.384H1270.84ZM1297.27 355.2V372H1294.2V357.84H1285.48V372H1282.41V355.2H1297.27ZM1310.5 372.24C1308.79 372.24 1307.25 371.872 1305.87 371.136C1304.49 370.384 1303.41 369.352 1302.63 368.04C1301.85 366.712 1301.45 365.232 1301.45 363.6C1301.45 361.968 1301.85 360.496 1302.63 359.184C1303.41 357.856 1304.49 356.824 1305.87 356.088C1307.25 355.336 1308.79 354.96 1310.5 354.96C1312.21 354.96 1313.76 355.336 1315.13 356.088C1316.51 356.824 1317.59 357.848 1318.37 359.16C1319.16 360.472 1319.55 361.952 1319.55 363.6C1319.55 365.248 1319.16 366.728 1318.37 368.04C1317.59 369.352 1316.51 370.384 1315.13 371.136C1313.76 371.872 1312.21 372.24 1310.5 372.24ZM1310.5 369.504C1311.62 369.504 1312.63 369.256 1313.53 368.76C1314.42 368.248 1315.13 367.544 1315.64 366.648C1316.15 365.736 1316.41 364.72 1316.41 363.6C1316.41 362.48 1316.15 361.472 1315.64 360.576C1315.13 359.664 1314.42 358.96 1313.53 358.464C1312.63 357.952 1311.62 357.696 1310.5 357.696C1309.38 357.696 1308.37 357.952 1307.48 358.464C1306.58 358.96 1305.88 359.664 1305.37 360.576C1304.85 361.472 1304.6 362.48 1304.6 363.6C1304.6 364.72 1304.85 365.736 1305.37 366.648C1305.88 367.544 1306.58 368.248 1307.48 368.76C1308.37 369.256 1309.38 369.504 1310.5 369.504ZM1338.8 372.24C1337.1 372.24 1335.57 371.872 1334.19 371.136C1332.83 370.384 1331.76 369.352 1330.98 368.04C1330.21 366.728 1329.82 365.248 1329.82 363.6C1329.82 361.952 1330.22 360.472 1331 359.16C1331.78 357.848 1332.86 356.824 1334.22 356.088C1335.59 355.336 1337.13 354.96 1338.82 354.96C1340.2 354.96 1341.46 355.2 1342.59 355.68C1343.73 356.16 1344.69 356.856 1345.47 357.768L1343.46 359.664C1342.24 358.352 1340.74 357.696 1338.97 357.696C1337.82 357.696 1336.78 357.952 1335.87 358.464C1334.96 358.96 1334.25 359.656 1333.74 360.552C1333.22 361.448 1332.97 362.464 1332.97 363.6C1332.97 364.736 1333.22 365.752 1333.74 366.648C1334.25 367.544 1334.96 368.248 1335.87 368.76C1336.78 369.256 1337.82 369.504 1338.97 369.504C1340.74 369.504 1342.24 368.84 1343.46 367.512L1345.47 369.432C1344.69 370.344 1343.72 371.04 1342.57 371.52C1341.43 372 1340.18 372.24 1338.8 372.24ZM1371.37 355.2V372H1368.25V364.8H1359.56V372H1356.44V355.2H1359.56V362.136H1368.25V355.2H1371.37ZM1384.58 372.24C1382.87 372.24 1381.32 371.872 1379.95 371.136C1378.57 370.384 1377.49 369.352 1376.71 368.04C1375.92 366.712 1375.53 365.232 1375.53 363.6C1375.53 361.968 1375.92 360.496 1376.71 359.184C1377.49 357.856 1378.57 356.824 1379.95 356.088C1381.32 355.336 1382.87 354.96 1384.58 354.96C1386.29 354.96 1387.83 355.336 1389.21 356.088C1390.59 356.824 1391.67 357.848 1392.45 359.16C1393.23 360.472 1393.63 361.952 1393.63 363.6C1393.63 365.248 1393.23 366.728 1392.45 368.04C1391.67 369.352 1390.59 370.384 1389.21 371.136C1387.83 371.872 1386.29 372.24 1384.58 372.24ZM1384.58 369.504C1385.7 369.504 1386.71 369.256 1387.6 368.76C1388.5 368.248 1389.2 367.544 1389.71 366.648C1390.23 365.736 1390.48 364.72 1390.48 363.6C1390.48 362.48 1390.23 361.472 1389.71 360.576C1389.2 359.664 1388.5 358.96 1387.6 358.464C1386.71 357.952 1385.7 357.696 1384.58 357.696C1383.46 357.696 1382.45 357.952 1381.55 358.464C1380.66 358.96 1379.95 359.664 1379.44 360.576C1378.93 361.472 1378.67 362.48 1378.67 363.6C1378.67 364.72 1378.93 365.736 1379.44 366.648C1379.95 367.544 1380.66 368.248 1381.55 368.76C1382.45 369.256 1383.46 369.504 1384.58 369.504ZM1408.86 363.264C1409.93 363.552 1410.75 364.048 1411.31 364.752C1411.87 365.44 1412.15 366.304 1412.15 367.344C1412.15 368.816 1411.6 369.96 1410.52 370.776C1409.43 371.592 1407.85 372 1405.79 372H1397.82V355.2H1405.33C1407.22 355.2 1408.69 355.576 1409.75 356.328C1410.8 357.08 1411.33 358.144 1411.33 359.52C1411.33 360.4 1411.12 361.16 1410.68 361.8C1410.27 362.44 1409.66 362.928 1408.86 363.264ZM1400.89 362.376H1405.07C1406.08 362.376 1406.84 362.176 1407.37 361.776C1407.9 361.376 1408.16 360.784 1408.16 360C1408.16 359.216 1407.9 358.624 1407.37 358.224C1406.84 357.808 1406.08 357.6 1405.07 357.6H1400.89V362.376ZM1405.69 369.6C1407.9 369.6 1409 368.768 1409 367.104C1409 365.472 1407.9 364.656 1405.69 364.656H1400.89V369.6H1405.69ZM1424.17 360.888C1426.19 360.888 1427.73 361.344 1428.81 362.256C1429.89 363.152 1430.44 364.488 1430.44 366.264C1430.44 368.12 1429.85 369.544 1428.66 370.536C1427.48 371.512 1425.81 372 1423.67 372H1416.45V355.2H1419.52V360.888H1424.17ZM1423.53 369.6C1424.74 369.6 1425.68 369.32 1426.33 368.76C1426.99 368.2 1427.32 367.384 1427.32 366.312C1427.32 364.28 1426.05 363.264 1423.53 363.264H1419.52V369.6H1423.53ZM1432.86 355.2H1435.93V372H1432.86V355.2ZM1456.81 372L1456.78 360.864L1451.26 370.08H1449.87L1444.35 361.008V372H1441.4V355.2H1443.97L1450.62 366.312L1457.19 355.2H1459.74L1459.78 372H1456.81ZM1465.23 355.2H1468.3V367.128L1477.33 355.2H1480.23V372H1477.16V360.096L1468.13 372H1465.23V355.2ZM1087.95 393.264C1089.03 393.552 1089.84 394.048 1090.4 394.752C1090.96 395.44 1091.24 396.304 1091.24 397.344C1091.24 398.816 1090.7 399.96 1089.61 400.776C1088.52 401.592 1086.95 402 1084.88 402H1076.91V385.2H1084.43C1086.31 385.2 1087.79 385.576 1088.84 386.328C1089.9 387.08 1090.43 388.144 1090.43 389.52C1090.43 390.4 1090.21 391.16 1089.78 391.8C1089.36 392.44 1088.75 392.928 1087.95 393.264ZM1079.99 392.376H1084.16C1085.17 392.376 1085.94 392.176 1086.47 391.776C1086.99 391.376 1087.26 390.784 1087.26 390C1087.26 389.216 1086.99 388.624 1086.47 388.224C1085.94 387.808 1085.17 387.6 1084.16 387.6H1079.99V392.376ZM1084.79 399.6C1086.99 399.6 1088.1 398.768 1088.1 397.104C1088.1 395.472 1086.99 394.656 1084.79 394.656H1079.99V399.6H1084.79ZM1103.29 402.24C1101.58 402.24 1100.04 401.872 1098.66 401.136C1097.29 400.384 1096.21 399.352 1095.42 398.04C1094.64 396.712 1094.25 395.232 1094.25 393.6C1094.25 391.968 1094.64 390.496 1095.42 389.184C1096.21 387.856 1097.29 386.824 1098.66 386.088C1100.04 385.336 1101.58 384.96 1103.29 384.96C1105.01 384.96 1106.55 385.336 1107.93 386.088C1109.3 386.824 1110.38 387.848 1111.17 389.16C1111.95 390.472 1112.34 391.952 1112.34 393.6C1112.34 395.248 1111.95 396.728 1111.17 398.04C1110.38 399.352 1109.3 400.384 1107.93 401.136C1106.55 401.872 1105.01 402.24 1103.29 402.24ZM1103.29 399.504C1104.41 399.504 1105.42 399.256 1106.32 398.76C1107.21 398.248 1107.92 397.544 1108.43 396.648C1108.94 395.736 1109.2 394.72 1109.2 393.6C1109.2 392.48 1108.94 391.472 1108.43 390.576C1107.92 389.664 1107.21 388.96 1106.32 388.464C1105.42 387.952 1104.41 387.696 1103.29 387.696C1102.17 387.696 1101.17 387.952 1100.27 388.464C1099.37 388.96 1098.67 389.664 1098.16 390.576C1097.65 391.472 1097.39 392.48 1097.39 393.6C1097.39 394.72 1097.65 395.736 1098.16 396.648C1098.67 397.544 1099.37 398.248 1100.27 398.76C1101.17 399.256 1102.17 399.504 1103.29 399.504ZM1124.87 393.24C1125.88 393.56 1126.67 394.08 1127.23 394.8C1127.8 395.504 1128.09 396.336 1128.09 397.296C1128.09 398.304 1127.76 399.184 1127.11 399.936C1126.45 400.672 1125.57 401.24 1124.47 401.64C1123.38 402.04 1122.19 402.24 1120.89 402.24C1119.77 402.24 1118.64 402.088 1117.51 401.784C1116.39 401.464 1115.35 400.992 1114.39 400.368L1115.39 398.088C1116.13 398.584 1116.95 398.968 1117.84 399.24C1118.74 399.496 1119.63 399.624 1120.51 399.624C1121.77 399.624 1122.82 399.376 1123.65 398.88C1124.5 398.384 1124.92 397.704 1124.92 396.84C1124.92 396.104 1124.62 395.544 1124.01 395.16C1123.4 394.776 1122.56 394.584 1121.49 394.584H1117.58V392.136H1121.25C1122.18 392.136 1122.91 391.944 1123.43 391.56C1123.96 391.176 1124.23 390.656 1124.23 390C1124.23 389.216 1123.87 388.608 1123.15 388.176C1122.44 387.744 1121.54 387.528 1120.43 387.528C1119.68 387.528 1118.91 387.64 1118.11 387.864C1117.31 388.072 1116.55 388.384 1115.85 388.8L1114.87 386.28C1115.73 385.816 1116.64 385.472 1117.6 385.248C1118.58 385.008 1119.55 384.888 1120.51 384.888C1121.75 384.888 1122.9 385.08 1123.94 385.464C1124.99 385.848 1125.83 386.4 1126.46 387.12C1127.08 387.824 1127.39 388.656 1127.39 389.616C1127.39 390.448 1127.17 391.176 1126.72 391.8C1126.27 392.424 1125.66 392.904 1124.87 393.24ZM1147.78 402L1147.76 390.864L1142.24 400.08H1140.84L1135.32 391.008V402H1132.37V385.2H1134.94L1141.59 396.312L1148.16 385.2H1150.71L1150.76 402H1147.78ZM1163.95 402.24C1162.24 402.24 1160.7 401.872 1159.32 401.136C1157.95 400.384 1156.87 399.352 1156.08 398.04C1155.3 396.712 1154.91 395.232 1154.91 393.6C1154.91 391.968 1155.3 390.496 1156.08 389.184C1156.87 387.856 1157.95 386.824 1159.32 386.088C1160.7 385.336 1162.24 384.96 1163.95 384.96C1165.67 384.96 1167.21 385.336 1168.59 386.088C1169.96 386.824 1171.04 387.848 1171.83 389.16C1172.61 390.472 1173 391.952 1173 393.6C1173 395.248 1172.61 396.728 1171.83 398.04C1171.04 399.352 1169.96 400.384 1168.59 401.136C1167.21 401.872 1165.67 402.24 1163.95 402.24ZM1163.95 399.504C1165.07 399.504 1166.08 399.256 1166.98 398.76C1167.87 398.248 1168.58 397.544 1169.09 396.648C1169.6 395.736 1169.86 394.72 1169.86 393.6C1169.86 392.48 1169.6 391.472 1169.09 390.576C1168.58 389.664 1167.87 388.96 1166.98 388.464C1166.08 387.952 1165.07 387.696 1163.95 387.696C1162.83 387.696 1161.83 387.952 1160.93 388.464C1160.03 388.96 1159.33 389.664 1158.82 390.576C1158.31 391.472 1158.05 392.48 1158.05 393.6C1158.05 394.72 1158.31 395.736 1158.82 396.648C1159.33 397.544 1160.03 398.248 1160.93 398.76C1161.83 399.256 1162.83 399.504 1163.95 399.504ZM1191.25 394.92H1188.37V402H1185.32V394.92H1182.44L1178.19 402H1174.59L1179.87 393.24L1174.95 385.2H1178.27L1182.37 392.232H1185.32V385.2H1188.37V392.232H1191.27L1195.4 385.2H1198.71L1193.82 393.264L1199.07 402H1195.47L1191.25 394.92ZM1216.89 385.2V402H1213.77V394.8H1205.08V402H1201.96V385.2H1205.08V392.136H1213.77V385.2H1216.89ZM1230.1 402.24C1228.39 402.24 1226.84 401.872 1225.47 401.136C1224.09 400.384 1223.01 399.352 1222.23 398.04C1221.44 396.712 1221.05 395.232 1221.05 393.6C1221.05 391.968 1221.44 390.496 1222.23 389.184C1223.01 387.856 1224.09 386.824 1225.47 386.088C1226.84 385.336 1228.39 384.96 1230.1 384.96C1231.81 384.96 1233.35 385.336 1234.73 386.088C1236.11 386.824 1237.19 387.848 1237.97 389.16C1238.75 390.472 1239.15 391.952 1239.15 393.6C1239.15 395.248 1238.75 396.728 1237.97 398.04C1237.19 399.352 1236.11 400.384 1234.73 401.136C1233.35 401.872 1231.81 402.24 1230.1 402.24ZM1230.1 399.504C1231.22 399.504 1232.23 399.256 1233.12 398.76C1234.02 398.248 1234.72 397.544 1235.23 396.648C1235.75 395.736 1236 394.72 1236 393.6C1236 392.48 1235.75 391.472 1235.23 390.576C1234.72 389.664 1234.02 388.96 1233.12 388.464C1232.23 387.952 1231.22 387.696 1230.1 387.696C1228.98 387.696 1227.97 387.952 1227.07 388.464C1226.18 388.96 1225.47 389.664 1224.96 390.576C1224.45 391.472 1224.19 392.48 1224.19 393.6C1224.19 394.72 1224.45 395.736 1224.96 396.648C1225.47 397.544 1226.18 398.248 1227.07 398.76C1227.97 399.256 1228.98 399.504 1230.1 399.504ZM1251.04 402.24C1249.35 402.24 1247.81 401.872 1246.43 401.136C1245.07 400.384 1244 399.352 1243.22 398.04C1242.45 396.728 1242.07 395.248 1242.07 393.6C1242.07 391.952 1242.46 390.472 1243.24 389.16C1244.03 387.848 1245.1 386.824 1246.46 386.088C1247.83 385.336 1249.37 384.96 1251.07 384.96C1252.44 384.96 1253.7 385.2 1254.83 385.68C1255.97 386.16 1256.93 386.856 1257.71 387.768L1255.7 389.664C1254.48 388.352 1252.99 387.696 1251.21 387.696C1250.06 387.696 1249.03 387.952 1248.11 388.464C1247.2 388.96 1246.49 389.656 1245.98 390.552C1245.47 391.448 1245.21 392.464 1245.21 393.6C1245.21 394.736 1245.47 395.752 1245.98 396.648C1246.49 397.544 1247.2 398.248 1248.11 398.76C1249.03 399.256 1250.06 399.504 1251.21 399.504C1252.99 399.504 1254.48 398.84 1255.7 397.512L1257.71 399.432C1256.93 400.344 1255.96 401.04 1254.81 401.52C1253.67 402 1252.42 402.24 1251.04 402.24ZM1273.34 387.84H1267.77V402H1264.67V387.84H1259.13V385.2H1273.34V387.84ZM1288.86 385.2V402H1285.79V397.32H1281.64H1281.3L1278.18 402H1274.89L1278.49 396.816C1277.32 396.384 1276.42 395.704 1275.78 394.776C1275.16 393.832 1274.84 392.696 1274.84 391.368C1274.84 390.088 1275.13 388.984 1275.71 388.056C1276.28 387.128 1277.1 386.424 1278.16 385.944C1279.21 385.448 1280.45 385.2 1281.88 385.2H1288.86ZM1281.97 387.84C1280.69 387.84 1279.71 388.136 1279.02 388.728C1278.35 389.32 1278.01 390.184 1278.01 391.32C1278.01 392.424 1278.34 393.28 1279 393.888C1279.65 394.48 1280.6 394.776 1281.85 394.776H1285.79V387.84H1281.97ZM1309.75 402L1309.73 390.864L1304.21 400.08H1302.81L1297.29 391.008V402H1294.34V385.2H1296.91L1303.56 396.312L1310.13 385.2H1312.68L1312.73 402H1309.75ZM1318.17 385.2H1321.24V397.128L1330.27 385.2H1333.17V402H1330.1V390.096L1321.08 402H1318.17V385.2Z" fill="#F4F4F4"/>
<rect x="1074.54" y="236" width="121" height="90" rx="4" fill="url(#paint19_linear_445_42)"/>
<defs>
<linearGradient id="paint0_linear_445_42" x1="1672.51" y1="407.25" x2="195.543" y2="407.25" gradientUnits="userSpaceOnUse">
<stop stop-color="#266EF9"/>
<stop offset="1" stop-color="#6219CF"/>
</linearGradient>
<linearGradient id="paint1_linear_445_42" x1="329.044" y1="323" x2="420.544" y2="236" gradientUnits="userSpaceOnUse">
<stop stop-color="#6A11CB"/>
<stop offset="1" stop-color="#2575FC"/>
</linearGradient>
<linearGradient id="paint2_linear_445_42" x1="319.544" y1="328.5" x2="426.544" y2="236" gradientUnits="userSpaceOnUse">
<stop stop-color="#6A11CB"/>
<stop offset="1" stop-color="#2575FC"/>
</linearGradient>
<linearGradient id="paint3_linear_445_42" x1="316.544" y1="326" x2="420.544" y2="240.5" gradientUnits="userSpaceOnUse">
<stop stop-color="#6A11CB"/>
<stop offset="1" stop-color="#2575FC"/>
</linearGradient>
<linearGradient id="paint4_linear_445_42" x1="10.5435" y1="323" x2="123.043" y2="236" gradientUnits="userSpaceOnUse">
<stop stop-color="#6A11CB"/>
<stop offset="1" stop-color="#2575FC"/>
</linearGradient>
<linearGradient id="paint5_linear_445_42" x1="16.0434" y1="324.5" x2="124.043" y2="234.5" gradientUnits="userSpaceOnUse">
<stop stop-color="#6A11CB"/>
<stop offset="1" stop-color="#2575FC"/>
</linearGradient>
<linearGradient id="paint6_linear_445_42" x1="13.5434" y1="326" x2="123.043" y2="237.5" gradientUnits="userSpaceOnUse">
<stop stop-color="#6A11CB"/>
<stop offset="1" stop-color="#2575FC"/>
</linearGradient>
<linearGradient id="paint7_linear_445_42" x1="17.5434" y1="327.5" x2="121.543" y2="236" gradientUnits="userSpaceOnUse">
<stop stop-color="#6A11CB"/>
<stop offset="1" stop-color="#2575FC"/>
</linearGradient>
<linearGradient id="paint8_linear_445_42" x1="17.5435" y1="323" x2="120.043" y2="234.5" gradientUnits="userSpaceOnUse">
<stop stop-color="#6A11CB"/>
<stop offset="1" stop-color="#2575FC"/>
</linearGradient>
<linearGradient id="paint9_linear_445_42" x1="13.5435" y1="326" x2="121.543" y2="236" gradientUnits="userSpaceOnUse">
<stop stop-color="#6A11CB"/>
<stop offset="1" stop-color="#2575FC"/>
</linearGradient>
<linearGradient id="paint10_linear_445_42" x1="12.0435" y1="324.5" x2="122.543" y2="236" gradientUnits="userSpaceOnUse">
<stop stop-color="#6A11CB"/>
<stop offset="1" stop-color="#2575FC"/>
</linearGradient>
<linearGradient id="paint11_linear_445_42" x1="14.5435" y1="326" x2="120.043" y2="234.5" gradientUnits="userSpaceOnUse">
<stop stop-color="#6A11CB"/>
<stop offset="1" stop-color="#2575FC"/>
</linearGradient>
<linearGradient id="paint12_linear_445_42" x1="17.5435" y1="326" x2="127.044" y2="233.5" gradientUnits="userSpaceOnUse">
<stop stop-color="#6A11CB"/>
<stop offset="1" stop-color="#2575FC"/>
</linearGradient>
<linearGradient id="paint13_linear_445_42" x1="193.544" y1="393" x2="240.544" y2="393" gradientUnits="userSpaceOnUse">
<stop stop-color="#6516CE"/>
<stop offset="1" stop-color="#2671FA"/>
</linearGradient>
<linearGradient id="paint14_linear_445_42" x1="539.543" y1="393" x2="487.043" y2="393" gradientUnits="userSpaceOnUse">
<stop stop-color="#2671FA"/>
<stop offset="1" stop-color="#6319CF"/>
</linearGradient>
<linearGradient id="paint15_linear_445_42" x1="849.543" y1="8.50001" x2="771.543" y2="161" gradientUnits="userSpaceOnUse">
<stop stop-color="#2672FA"/>
<stop offset="1" stop-color="#621BD0"/>
</linearGradient>
<linearGradient id="paint16_linear_445_42" x1="807.543" y1="136" x2="605.543" y2="326" gradientUnits="userSpaceOnUse">
<stop stop-color="#2671FA"/>
<stop offset="1" stop-color="#611CD1"/>
</linearGradient>
<linearGradient id="paint17_linear_445_42" x1="830.043" y1="149" x2="597.543" y2="326" gradientUnits="userSpaceOnUse">
<stop stop-color="#2671FA"/>
<stop offset="1" stop-color="#621ACF"/>
</linearGradient>
<linearGradient id="paint18_linear_445_42" x1="822.043" y1="150.5" x2="599.043" y2="326" gradientUnits="userSpaceOnUse">
<stop stop-color="#286FF9"/>
<stop offset="1" stop-color="#621BD0"/>
</linearGradient>
<linearGradient id="paint19_linear_445_42" x1="1195.54" y1="236" x2="1074.54" y2="326" gradientUnits="userSpaceOnUse">
<stop stop-color="#266EF9"/>
<stop offset="1" stop-color="#5D1ED1"/>
</linearGradient>
</defs>
</svg>
