<svg width="1484" height="622" viewBox="0 0 1484 622" fill="none" xmlns="http://www.w3.org/2000/svg">
<path d="M343.235 604.4H348.743C350.087 604.4 351.281 604.664 352.325 605.192C353.369 605.708 354.179 606.446 354.755 607.406C355.331 608.354 355.619 609.452 355.619 610.7C355.619 611.948 355.331 613.052 354.755 614.012C354.179 614.96 353.369 615.698 352.325 616.226C351.281 616.742 350.087 617 348.743 617H343.235V604.4ZM348.635 615.02C349.559 615.02 350.369 614.846 351.065 614.498C351.773 614.138 352.313 613.634 352.685 612.986C353.069 612.326 353.261 611.564 353.261 610.7C353.261 609.836 353.069 609.08 352.685 608.432C352.313 607.772 351.773 607.268 351.065 606.92C350.369 606.56 349.559 606.38 348.635 606.38H345.575V615.02H348.635ZM368.097 615.038V617H358.647V604.4H367.845V606.362H360.987V609.638H367.071V611.564H360.987V615.038H368.097ZM375.151 617.18C374.179 617.18 373.237 617.042 372.325 616.766C371.425 616.49 370.711 616.124 370.183 615.668L370.993 613.85C371.509 614.258 372.139 614.594 372.883 614.858C373.639 615.11 374.395 615.236 375.151 615.236C376.087 615.236 376.783 615.086 377.239 614.786C377.707 614.486 377.941 614.09 377.941 613.598C377.941 613.238 377.809 612.944 377.545 612.716C377.293 612.476 376.969 612.29 376.573 612.158C376.177 612.026 375.637 611.876 374.953 611.708C373.993 611.48 373.213 611.252 372.613 611.024C372.025 610.796 371.515 610.442 371.083 609.962C370.663 609.47 370.453 608.81 370.453 607.982C370.453 607.286 370.639 606.656 371.011 606.092C371.395 605.516 371.965 605.06 372.721 604.724C373.489 604.388 374.425 604.22 375.529 604.22C376.297 604.22 377.053 604.316 377.797 604.508C378.541 604.7 379.183 604.976 379.723 605.336L378.985 607.154C378.433 606.83 377.857 606.584 377.257 606.416C376.657 606.248 376.075 606.164 375.511 606.164C374.587 606.164 373.897 606.32 373.441 606.632C372.997 606.944 372.775 607.358 372.775 607.874C372.775 608.234 372.901 608.528 373.153 608.756C373.417 608.984 373.747 609.164 374.143 609.296C374.539 609.428 375.079 609.578 375.763 609.746C376.699 609.962 377.467 610.19 378.067 610.43C378.667 610.658 379.177 611.012 379.597 611.492C380.029 611.972 380.245 612.62 380.245 613.436C380.245 614.132 380.053 614.762 379.669 615.326C379.297 615.89 378.727 616.34 377.959 616.676C377.191 617.012 376.255 617.18 375.151 617.18ZM383.105 604.4H385.445V617H383.105V604.4ZM397.998 610.556H400.212V615.578C399.564 616.094 398.808 616.49 397.944 616.766C397.08 617.042 396.192 617.18 395.28 617.18C393.996 617.18 392.838 616.904 391.806 616.352C390.774 615.788 389.964 615.014 389.376 614.03C388.788 613.046 388.494 611.936 388.494 610.7C388.494 609.464 388.788 608.354 389.376 607.37C389.964 606.386 390.774 605.618 391.806 605.066C392.85 604.502 394.02 604.22 395.316 604.22C396.372 604.22 397.332 604.394 398.196 604.742C399.06 605.09 399.786 605.6 400.374 606.272L398.898 607.712C397.938 606.752 396.78 606.272 395.424 606.272C394.536 606.272 393.744 606.458 393.048 606.83C392.364 607.202 391.824 607.724 391.428 608.396C391.044 609.068 390.852 609.836 390.852 610.7C390.852 611.54 391.044 612.296 391.428 612.968C391.824 613.64 392.364 614.168 393.048 614.552C393.744 614.936 394.53 615.128 395.406 615.128C396.39 615.128 397.254 614.912 397.998 614.48V610.556ZM415.034 604.4V617H413.108L406.16 608.468V617H403.838V604.4H405.764L412.712 612.932V604.4H415.034Z" fill="#F4F4F4"/>
<path d="M500.692 604.4H506.2C507.544 604.4 508.738 604.664 509.782 605.192C510.826 605.708 511.636 606.446 512.212 607.406C512.788 608.354 513.076 609.452 513.076 610.7C513.076 611.948 512.788 613.052 512.212 614.012C511.636 614.96 510.826 615.698 509.782 616.226C508.738 616.742 507.544 617 506.2 617H500.692V604.4ZM506.092 615.02C507.016 615.02 507.826 614.846 508.522 614.498C509.23 614.138 509.77 613.634 510.142 612.986C510.526 612.326 510.718 611.564 510.718 610.7C510.718 609.836 510.526 609.08 510.142 608.432C509.77 607.772 509.23 607.268 508.522 606.92C507.826 606.56 507.016 606.38 506.092 606.38H503.032V615.02H506.092ZM525.553 615.038V617H516.103V604.4H525.301V606.362H518.443V609.638H524.527V611.564H518.443V615.038H525.553ZM540.046 604.4L534.556 617H532.252L526.744 604.4H529.282L533.476 614.12L537.706 604.4H540.046ZM551.366 615.038V617H541.916V604.4H551.114V606.362H544.256V609.638H550.34V611.564H544.256V615.038H551.366ZM554.514 604.4H556.854V615.02H563.442V617H554.514V604.4ZM571.487 617.18C570.203 617.18 569.045 616.904 568.013 616.352C566.981 615.788 566.171 615.014 565.583 614.03C564.995 613.034 564.701 611.924 564.701 610.7C564.701 609.476 564.995 608.372 565.583 607.388C566.171 606.392 566.981 605.618 568.013 605.066C569.045 604.502 570.203 604.22 571.487 604.22C572.771 604.22 573.929 604.502 574.961 605.066C575.993 605.618 576.803 606.386 577.391 607.37C577.979 608.354 578.273 609.464 578.273 610.7C578.273 611.936 577.979 613.046 577.391 614.03C576.803 615.014 575.993 615.788 574.961 616.352C573.929 616.904 572.771 617.18 571.487 617.18ZM571.487 615.128C572.327 615.128 573.083 614.942 573.755 614.57C574.427 614.186 574.955 613.658 575.339 612.986C575.723 612.302 575.915 611.54 575.915 610.7C575.915 609.86 575.723 609.104 575.339 608.432C574.955 607.748 574.427 607.22 573.755 606.848C573.083 606.464 572.327 606.272 571.487 606.272C570.647 606.272 569.891 606.464 569.219 606.848C568.547 607.22 568.019 607.748 567.635 608.432C567.251 609.104 567.059 609.86 567.059 610.7C567.059 611.54 567.251 612.302 567.635 612.986C568.019 613.658 568.547 614.186 569.219 614.57C569.891 614.942 570.647 615.128 571.487 615.128ZM586.477 604.4C587.569 604.4 588.517 604.58 589.321 604.94C590.137 605.3 590.761 605.816 591.193 606.488C591.625 607.16 591.841 607.958 591.841 608.882C591.841 609.794 591.625 610.592 591.193 611.276C590.761 611.948 590.137 612.464 589.321 612.824C588.517 613.184 587.569 613.364 586.477 613.364H583.633V617H581.293V604.4H586.477ZM586.369 611.384C587.389 611.384 588.163 611.168 588.691 610.736C589.219 610.304 589.483 609.686 589.483 608.882C589.483 608.078 589.219 607.46 588.691 607.028C588.163 606.596 587.389 606.38 586.369 606.38H583.633V611.384H586.369ZM606.292 617L606.274 608.648L602.134 615.56H601.09L596.95 608.756V617H594.718V604.4H596.644L601.648 612.752L606.562 604.4H608.488L608.506 617H606.292ZM621.9 615.038V617H612.449V604.4H621.648V606.362H614.789V609.638H620.874V611.564H614.789V615.038H621.9ZM636.244 604.4V617H634.318L627.37 608.468V617H625.048V604.4H626.974L633.922 612.932V604.4H636.244ZM642.716 606.38H638.54V604.4H649.232V606.38H645.056V617H642.716V606.38Z" fill="#F4F4F4"/>
<path d="M724.248 606.38H720.072V604.4H730.764V606.38H726.588V617H724.248V606.38ZM742.51 615.038V617H733.06V604.4H742.258V606.362H735.4V609.638H741.484V611.564H735.4V615.038H742.51ZM749.565 617.18C748.593 617.18 747.651 617.042 746.739 616.766C745.839 616.49 745.125 616.124 744.597 615.668L745.407 613.85C745.923 614.258 746.553 614.594 747.297 614.858C748.053 615.11 748.809 615.236 749.565 615.236C750.501 615.236 751.197 615.086 751.653 614.786C752.121 614.486 752.355 614.09 752.355 613.598C752.355 613.238 752.223 612.944 751.959 612.716C751.707 612.476 751.383 612.29 750.987 612.158C750.591 612.026 750.051 611.876 749.367 611.708C748.407 611.48 747.627 611.252 747.027 611.024C746.439 610.796 745.929 610.442 745.497 609.962C745.077 609.47 744.867 608.81 744.867 607.982C744.867 607.286 745.053 606.656 745.425 606.092C745.809 605.516 746.379 605.06 747.135 604.724C747.903 604.388 748.839 604.22 749.943 604.22C750.711 604.22 751.467 604.316 752.211 604.508C752.955 604.7 753.597 604.976 754.137 605.336L753.399 607.154C752.847 606.83 752.271 606.584 751.671 606.416C751.071 606.248 750.489 606.164 749.925 606.164C749.001 606.164 748.311 606.32 747.855 606.632C747.411 606.944 747.189 607.358 747.189 607.874C747.189 608.234 747.315 608.528 747.567 608.756C747.831 608.984 748.161 609.164 748.557 609.296C748.953 609.428 749.493 609.578 750.177 609.746C751.113 609.962 751.881 610.19 752.481 610.43C753.081 610.658 753.591 611.012 754.011 611.492C754.443 611.972 754.659 612.62 754.659 613.436C754.659 614.132 754.467 614.762 754.083 615.326C753.711 615.89 753.141 616.34 752.373 616.676C751.605 617.012 750.669 617.18 749.565 617.18ZM759.899 606.38H755.723V604.4H766.415V606.38H762.239V617H759.899V606.38ZM768.711 604.4H771.051V617H768.711V604.4ZM786.195 604.4V617H784.269L777.321 608.468V617H774.999V604.4H776.925L783.873 612.932V604.4H786.195ZM798.716 610.556H800.93V615.578C800.282 616.094 799.526 616.49 798.662 616.766C797.798 617.042 796.91 617.18 795.998 617.18C794.714 617.18 793.556 616.904 792.524 616.352C791.492 615.788 790.682 615.014 790.094 614.03C789.506 613.046 789.212 611.936 789.212 610.7C789.212 609.464 789.506 608.354 790.094 607.37C790.682 606.386 791.492 605.618 792.524 605.066C793.568 604.502 794.738 604.22 796.034 604.22C797.09 604.22 798.05 604.394 798.914 604.742C799.778 605.09 800.504 605.6 801.092 606.272L799.616 607.712C798.656 606.752 797.498 606.272 796.142 606.272C795.254 606.272 794.462 606.458 793.766 606.83C793.082 607.202 792.542 607.724 792.146 608.396C791.762 609.068 791.57 609.836 791.57 610.7C791.57 611.54 791.762 612.296 792.146 612.968C792.542 613.64 793.082 614.168 793.766 614.552C794.462 614.936 795.248 615.128 796.124 615.128C797.108 615.128 797.972 614.912 798.716 614.48V610.556Z" fill="#F4F4F4"/>
<path d="M892.864 614.084H886.564L885.322 617H882.91L888.58 604.4H890.884L896.572 617H894.124L892.864 614.084ZM892.09 612.248L889.714 606.74L887.356 612.248H892.09ZM898.714 604.4H904.222C905.566 604.4 906.76 604.664 907.804 605.192C908.848 605.708 909.658 606.446 910.234 607.406C910.81 608.354 911.098 609.452 911.098 610.7C911.098 611.948 910.81 613.052 910.234 614.012C909.658 614.96 908.848 615.698 907.804 616.226C906.76 616.742 905.566 617 904.222 617H898.714V604.4ZM904.114 615.02C905.038 615.02 905.848 614.846 906.544 614.498C907.252 614.138 907.792 613.634 908.164 612.986C908.548 612.326 908.74 611.564 908.74 610.7C908.74 609.836 908.548 609.08 908.164 608.432C907.792 607.772 907.252 607.268 906.544 606.92C905.848 606.56 905.038 606.38 904.114 606.38H901.054V615.02H904.114ZM915.824 617.18C915.02 617.18 914.276 617.024 913.592 616.712C912.92 616.388 912.368 615.938 911.936 615.362L913.268 613.76C913.964 614.72 914.798 615.2 915.77 615.2C917.078 615.2 917.732 614.426 917.732 612.878V606.362H913.25V604.4H920.072V612.752C920.072 614.228 919.712 615.338 918.992 616.082C918.272 616.814 917.216 617.18 915.824 617.18ZM929.312 617.18C927.572 617.18 926.216 616.694 925.244 615.722C924.272 614.738 923.786 613.334 923.786 611.51V604.4H926.126V611.42C926.126 613.892 927.194 615.128 929.33 615.128C931.454 615.128 932.516 613.892 932.516 611.42V604.4H934.82V611.51C934.82 613.334 934.334 614.738 933.362 615.722C932.402 616.694 931.052 617.18 929.312 617.18ZM942.543 617.18C941.571 617.18 940.629 617.042 939.717 616.766C938.817 616.49 938.103 616.124 937.575 615.668L938.385 613.85C938.901 614.258 939.531 614.594 940.275 614.858C941.031 615.11 941.787 615.236 942.543 615.236C943.479 615.236 944.175 615.086 944.631 614.786C945.099 614.486 945.333 614.09 945.333 613.598C945.333 613.238 945.201 612.944 944.937 612.716C944.685 612.476 944.361 612.29 943.965 612.158C943.569 612.026 943.029 611.876 942.345 611.708C941.385 611.48 940.605 611.252 940.005 611.024C939.417 610.796 938.907 610.442 938.475 609.962C938.055 609.47 937.845 608.81 937.845 607.982C937.845 607.286 938.031 606.656 938.403 606.092C938.787 605.516 939.357 605.06 940.113 604.724C940.881 604.388 941.817 604.22 942.921 604.22C943.689 604.22 944.445 604.316 945.189 604.508C945.933 604.7 946.575 604.976 947.115 605.336L946.377 607.154C945.825 606.83 945.249 606.584 944.649 606.416C944.049 606.248 943.467 606.164 942.903 606.164C941.979 606.164 941.289 606.32 940.833 606.632C940.389 606.944 940.167 607.358 940.167 607.874C940.167 608.234 940.293 608.528 940.545 608.756C940.809 608.984 941.139 609.164 941.535 609.296C941.931 609.428 942.471 609.578 943.155 609.746C944.091 609.962 944.859 610.19 945.459 610.43C946.059 610.658 946.569 611.012 946.989 611.492C947.421 611.972 947.637 612.62 947.637 613.436C947.637 614.132 947.445 614.762 947.061 615.326C946.689 615.89 946.119 616.34 945.351 616.676C944.583 617.012 943.647 617.18 942.543 617.18ZM952.878 606.38H948.702V604.4H959.394V606.38H955.218V617H952.878V606.38ZM973.264 617L973.246 608.648L969.106 615.56H968.062L963.922 608.756V617H961.69V604.4H963.616L968.62 612.752L973.534 604.4H975.46L975.478 617H973.264ZM988.871 615.038V617H979.421V604.4H988.619V606.362H981.761V609.638H987.845V611.564H981.761V615.038H988.871ZM1003.22 604.4V617H1001.29L994.342 608.468V617H992.02V604.4H993.946L1000.89 612.932V604.4H1003.22ZM1009.69 606.38H1005.51V604.4H1016.2V606.38H1012.03V617H1009.69V606.38Z" fill="#F4F4F4"/>
<path d="M1096.6 617.18C1095.63 617.18 1094.68 617.042 1093.77 616.766C1092.87 616.49 1092.16 616.124 1091.63 615.668L1092.44 613.85C1092.96 614.258 1093.59 614.594 1094.33 614.858C1095.09 615.11 1095.84 615.236 1096.6 615.236C1097.53 615.236 1098.23 615.086 1098.69 614.786C1099.15 614.486 1099.39 614.09 1099.39 613.598C1099.39 613.238 1099.26 612.944 1098.99 612.716C1098.74 612.476 1098.42 612.29 1098.02 612.158C1097.62 612.026 1097.08 611.876 1096.4 611.708C1095.44 611.48 1094.66 611.252 1094.06 611.024C1093.47 610.796 1092.96 610.442 1092.53 609.962C1092.11 609.47 1091.9 608.81 1091.9 607.982C1091.9 607.286 1092.09 606.656 1092.46 606.092C1092.84 605.516 1093.41 605.06 1094.17 604.724C1094.94 604.388 1095.87 604.22 1096.98 604.22C1097.74 604.22 1098.5 604.316 1099.24 604.508C1099.99 604.7 1100.63 604.976 1101.17 605.336L1100.43 607.154C1099.88 606.83 1099.3 606.584 1098.7 606.416C1098.1 606.248 1097.52 606.164 1096.96 606.164C1096.03 606.164 1095.34 606.32 1094.89 606.632C1094.44 606.944 1094.22 607.358 1094.22 607.874C1094.22 608.234 1094.35 608.528 1094.6 608.756C1094.86 608.984 1095.19 609.164 1095.59 609.296C1095.99 609.428 1096.53 609.578 1097.21 609.746C1098.15 609.962 1098.91 610.19 1099.51 610.43C1100.11 610.658 1100.62 611.012 1101.04 611.492C1101.48 611.972 1101.69 612.62 1101.69 613.436C1101.69 614.132 1101.5 614.762 1101.12 615.326C1100.74 615.89 1100.17 616.34 1099.41 616.676C1098.64 617.012 1097.7 617.18 1096.6 617.18ZM1109.97 617.18C1108.23 617.18 1106.87 616.694 1105.9 615.722C1104.93 614.738 1104.44 613.334 1104.44 611.51V604.4H1106.78V611.42C1106.78 613.892 1107.85 615.128 1109.99 615.128C1112.11 615.128 1113.17 613.892 1113.17 611.42V604.4H1115.48V611.51C1115.48 613.334 1114.99 614.738 1114.02 615.722C1113.06 616.694 1111.71 617.18 1109.97 617.18ZM1124.48 604.4C1125.57 604.4 1126.52 604.58 1127.32 604.94C1128.14 605.3 1128.76 605.816 1129.2 606.488C1129.63 607.16 1129.84 607.958 1129.84 608.882C1129.84 609.794 1129.63 610.592 1129.2 611.276C1128.76 611.948 1128.14 612.464 1127.32 612.824C1126.52 613.184 1125.57 613.364 1124.48 613.364H1121.64V617H1119.3V604.4H1124.48ZM1124.37 611.384C1125.39 611.384 1126.17 611.168 1126.69 610.736C1127.22 610.304 1127.49 609.686 1127.49 608.882C1127.49 608.078 1127.22 607.46 1126.69 607.028C1126.17 606.596 1125.39 606.38 1124.37 606.38H1121.64V611.384H1124.37ZM1137.9 604.4C1139 604.4 1139.94 604.58 1140.75 604.94C1141.56 605.3 1142.19 605.816 1142.62 606.488C1143.05 607.16 1143.27 607.958 1143.27 608.882C1143.27 609.794 1143.05 610.592 1142.62 611.276C1142.19 611.948 1141.56 612.464 1140.75 612.824C1139.94 613.184 1139 613.364 1137.9 613.364H1135.06V617H1132.72V604.4H1137.9ZM1137.8 611.384C1138.82 611.384 1139.59 611.168 1140.12 610.736C1140.65 610.304 1140.91 609.686 1140.91 608.882C1140.91 608.078 1140.65 607.46 1140.12 607.028C1139.59 606.596 1138.82 606.38 1137.8 606.38H1135.06V611.384H1137.8ZM1152.21 617.18C1150.92 617.18 1149.76 616.904 1148.73 616.352C1147.7 615.788 1146.89 615.014 1146.3 614.03C1145.71 613.034 1145.42 611.924 1145.42 610.7C1145.42 609.476 1145.71 608.372 1146.3 607.388C1146.89 606.392 1147.7 605.618 1148.73 605.066C1149.76 604.502 1150.92 604.22 1152.21 604.22C1153.49 604.22 1154.65 604.502 1155.68 605.066C1156.71 605.618 1157.52 606.386 1158.11 607.37C1158.7 608.354 1158.99 609.464 1158.99 610.7C1158.99 611.936 1158.7 613.046 1158.11 614.03C1157.52 615.014 1156.71 615.788 1155.68 616.352C1154.65 616.904 1153.49 617.18 1152.21 617.18ZM1152.21 615.128C1153.05 615.128 1153.8 614.942 1154.47 614.57C1155.15 614.186 1155.67 613.658 1156.06 612.986C1156.44 612.302 1156.63 611.54 1156.63 610.7C1156.63 609.86 1156.44 609.104 1156.06 608.432C1155.67 607.748 1155.15 607.22 1154.47 606.848C1153.8 606.464 1153.05 606.272 1152.21 606.272C1151.37 606.272 1150.61 606.464 1149.94 606.848C1149.27 607.22 1148.74 607.748 1148.35 608.432C1147.97 609.104 1147.78 609.86 1147.78 610.7C1147.78 611.54 1147.97 612.302 1148.35 612.986C1148.74 613.658 1149.27 614.186 1149.94 614.57C1150.61 614.942 1151.37 615.128 1152.21 615.128ZM1170.26 617L1167.68 613.31C1167.58 613.322 1167.41 613.328 1167.2 613.328H1164.35V617H1162.01V604.4H1167.2C1168.29 604.4 1169.24 604.58 1170.04 604.94C1170.86 605.3 1171.48 605.816 1171.91 606.488C1172.35 607.16 1172.56 607.958 1172.56 608.882C1172.56 609.83 1172.33 610.646 1171.86 611.33C1171.4 612.014 1170.74 612.524 1169.88 612.86L1172.78 617H1170.26ZM1170.2 608.882C1170.2 608.078 1169.94 607.46 1169.41 607.028C1168.88 606.596 1168.11 606.38 1167.09 606.38H1164.35V611.402H1167.09C1168.11 611.402 1168.88 611.186 1169.41 610.754C1169.94 610.31 1170.2 609.686 1170.2 608.882ZM1178.1 606.38H1173.92V604.4H1184.62V606.38H1180.44V617H1178.1V606.38Z" fill="#F4F4F4"/>
<path d="M386.828 563V471.5C386.828 468.739 389.066 466.5 391.828 466.5L571.84 466.5M571.84 466.5V563M571.84 466.5H759.989M759.989 466.5V563M759.989 466.5H759.847M949.705 466.5V563M949.705 466.5H1132.85C1135.62 466.5 1137.85 468.739 1137.85 471.5V563M949.705 466.5L759.847 466.5M759.847 466.5V359" stroke="url(#paint0_linear_517_45)" stroke-width="3"/>
<rect x="312.721" y="236" width="108.071" height="25.9982" rx="4" fill="url(#paint1_linear_517_45)"/>
<rect x="319.348" y="268.115" width="107.561" height="25.9982" rx="4" fill="url(#paint2_linear_517_45)"/>
<rect x="325.975" y="300.23" width="108.071" height="25.9982" rx="4" fill="url(#paint3_linear_517_45)"/>
<path d="M306.096 387.24C304.8 387.24 303.544 387.056 302.328 386.688C301.128 386.32 300.176 385.832 299.472 385.224L300.552 382.8C301.24 383.344 302.08 383.792 303.072 384.144C304.08 384.48 305.088 384.648 306.096 384.648C307.344 384.648 308.272 384.448 308.88 384.048C309.504 383.648 309.816 383.12 309.816 382.464C309.816 381.984 309.64 381.592 309.288 381.288C308.952 380.968 308.52 380.72 307.992 380.544C307.464 380.368 306.744 380.168 305.832 379.944C304.552 379.64 303.512 379.336 302.712 379.032C301.928 378.728 301.248 378.256 300.672 377.616C300.112 376.96 299.832 376.08 299.832 374.976C299.832 374.048 300.08 373.208 300.576 372.456C301.088 371.688 301.848 371.08 302.856 370.632C303.88 370.184 305.128 369.96 306.6 369.96C307.624 369.96 308.632 370.088 309.624 370.344C310.616 370.6 311.472 370.968 312.192 371.448L311.208 373.872C310.472 373.44 309.704 373.112 308.904 372.888C308.104 372.664 307.328 372.552 306.576 372.552C305.344 372.552 304.424 372.76 303.816 373.176C303.224 373.592 302.928 374.144 302.928 374.832C302.928 375.312 303.096 375.704 303.432 376.008C303.784 376.312 304.224 376.552 304.752 376.728C305.28 376.904 306 377.104 306.912 377.328C308.16 377.616 309.184 377.92 309.984 378.24C310.784 378.544 311.464 379.016 312.024 379.656C312.6 380.296 312.888 381.16 312.888 382.248C312.888 383.176 312.632 384.016 312.12 384.768C311.624 385.52 310.864 386.12 309.84 386.568C308.816 387.016 307.568 387.24 306.096 387.24ZM323.614 370.2C325.07 370.2 326.334 370.44 327.406 370.92C328.494 371.4 329.326 372.088 329.902 372.984C330.478 373.88 330.766 374.944 330.766 376.176C330.766 377.392 330.478 378.456 329.902 379.368C329.326 380.264 328.494 380.952 327.406 381.432C326.334 381.912 325.07 382.152 323.614 382.152H319.822V387H316.702V370.2H323.614ZM323.47 379.512C324.83 379.512 325.862 379.224 326.566 378.648C327.27 378.072 327.622 377.248 327.622 376.176C327.622 375.104 327.27 374.28 326.566 373.704C325.862 373.128 324.83 372.84 323.47 372.84H319.822V379.512H323.47ZM345.594 387L342.162 382.08C342.018 382.096 341.802 382.104 341.514 382.104H337.722V387H334.602V370.2H341.514C342.97 370.2 344.234 370.44 345.306 370.92C346.394 371.4 347.226 372.088 347.802 372.984C348.378 373.88 348.666 374.944 348.666 376.176C348.666 377.44 348.354 378.528 347.73 379.44C347.122 380.352 346.242 381.032 345.09 381.48L348.954 387H345.594ZM345.522 376.176C345.522 375.104 345.17 374.28 344.466 373.704C343.762 373.128 342.73 372.84 341.37 372.84H337.722V379.536H341.37C342.73 379.536 343.762 379.248 344.466 378.672C345.17 378.08 345.522 377.248 345.522 376.176ZM352.876 370.2H355.996V387H352.876V370.2ZM376.189 370.2V387H373.621L364.357 375.624V387H361.261V370.2H363.829L373.093 381.576V370.2H376.189ZM384.818 372.84H379.25V370.2H393.506V372.84H387.938V387H384.818V372.84ZM395.89 370.2H398.482L398.266 376.848H396.082L395.89 370.2ZM408.004 387.24C406.708 387.24 405.452 387.056 404.236 386.688C403.036 386.32 402.084 385.832 401.38 385.224L402.46 382.8C403.148 383.344 403.988 383.792 404.98 384.144C405.988 384.48 406.996 384.648 408.004 384.648C409.252 384.648 410.18 384.448 410.788 384.048C411.412 383.648 411.724 383.12 411.724 382.464C411.724 381.984 411.548 381.592 411.196 381.288C410.86 380.968 410.428 380.72 409.9 380.544C409.372 380.368 408.652 380.168 407.74 379.944C406.46 379.64 405.42 379.336 404.62 379.032C403.836 378.728 403.156 378.256 402.58 377.616C402.02 376.96 401.74 376.08 401.74 374.976C401.74 374.048 401.988 373.208 402.484 372.456C402.996 371.688 403.756 371.08 404.764 370.632C405.788 370.184 407.036 369.96 408.508 369.96C409.532 369.96 410.54 370.088 411.532 370.344C412.524 370.6 413.38 370.968 414.1 371.448L413.116 373.872C412.38 373.44 411.612 373.112 410.812 372.888C410.012 372.664 409.236 372.552 408.484 372.552C407.252 372.552 406.332 372.76 405.724 373.176C405.132 373.592 404.836 374.144 404.836 374.832C404.836 375.312 405.004 375.704 405.34 376.008C405.692 376.312 406.132 376.552 406.66 376.728C407.188 376.904 407.908 377.104 408.82 377.328C410.068 377.616 411.092 377.92 411.892 378.24C412.692 378.544 413.372 379.016 413.932 379.656C414.508 380.296 414.796 381.16 414.796 382.248C414.796 383.176 414.54 384.016 414.028 384.768C413.532 385.52 412.772 386.12 411.748 386.568C410.724 387.016 409.476 387.24 408.004 387.24ZM312.792 408.264C313.72 408.568 314.456 409.08 315 409.8C315.544 410.504 315.816 411.384 315.816 412.44C315.816 413.896 315.256 415.024 314.136 415.824C313.016 416.608 311.384 417 309.24 417H300.888V400.2H308.76C310.744 400.2 312.272 400.592 313.344 401.376C314.416 402.144 314.952 403.208 314.952 404.568C314.952 405.4 314.76 406.136 314.376 406.776C313.992 407.416 313.464 407.912 312.792 408.264ZM304.008 402.648V407.28H308.424C309.512 407.28 310.344 407.088 310.92 406.704C311.512 406.304 311.808 405.728 311.808 404.976C311.808 404.208 311.512 403.632 310.92 403.248C310.344 402.848 309.512 402.648 308.424 402.648H304.008ZM309.048 414.552C311.464 414.552 312.672 413.744 312.672 412.128C312.672 410.512 311.464 409.704 309.048 409.704H304.008V414.552H309.048ZM330.762 413.112H322.362L320.706 417H317.49L325.05 400.2H328.122L335.706 417H332.442L330.762 413.112ZM329.73 410.664L326.562 403.32L323.418 410.664H329.73ZM346.104 417.24C344.408 417.24 342.872 416.872 341.496 416.136C340.136 415.384 339.064 414.352 338.28 413.04C337.512 411.728 337.128 410.248 337.128 408.6C337.128 406.952 337.52 405.472 338.304 404.16C339.088 402.848 340.16 401.824 341.52 401.088C342.896 400.336 344.432 399.96 346.128 399.96C347.504 399.96 348.76 400.2 349.896 400.68C351.032 401.16 351.992 401.856 352.776 402.768L350.76 404.664C349.544 403.352 348.048 402.696 346.272 402.696C345.12 402.696 344.088 402.952 343.176 403.464C342.264 403.96 341.552 404.656 341.04 405.552C340.528 406.448 340.272 407.464 340.272 408.6C340.272 409.736 340.528 410.752 341.04 411.648C341.552 412.544 342.264 413.248 343.176 413.76C344.088 414.256 345.12 414.504 346.272 414.504C348.048 414.504 349.544 413.84 350.76 412.512L352.776 414.432C351.992 415.344 351.024 416.04 349.872 416.52C348.736 417 347.48 417.24 346.104 417.24ZM362.27 409.968L359.606 412.704V417H356.486V400.2H359.606V408.816L367.91 400.2H371.414L364.358 407.712L371.846 417H368.198L362.27 409.968ZM374.69 400.2H377.81V414.36H386.594V417H374.69V400.2ZM397.321 417.24C395.609 417.24 394.065 416.872 392.689 416.136C391.313 415.384 390.233 414.352 389.449 413.04C388.665 411.712 388.273 410.232 388.273 408.6C388.273 406.968 388.665 405.496 389.449 404.184C390.233 402.856 391.313 401.824 392.689 401.088C394.065 400.336 395.609 399.96 397.321 399.96C399.033 399.96 400.577 400.336 401.953 401.088C403.329 401.824 404.409 402.848 405.193 404.16C405.977 405.472 406.369 406.952 406.369 408.6C406.369 410.248 405.977 411.728 405.193 413.04C404.409 414.352 403.329 415.384 401.953 416.136C400.577 416.872 399.033 417.24 397.321 417.24ZM397.321 414.504C398.441 414.504 399.449 414.256 400.345 413.76C401.241 413.248 401.945 412.544 402.457 411.648C402.969 410.736 403.225 409.72 403.225 408.6C403.225 407.48 402.969 406.472 402.457 405.576C401.945 404.664 401.241 403.96 400.345 403.464C399.449 402.952 398.441 402.696 397.321 402.696C396.201 402.696 395.193 402.952 394.297 403.464C393.401 403.96 392.697 404.664 392.185 405.576C391.673 406.472 391.417 407.48 391.417 408.6C391.417 409.72 391.673 410.736 392.185 411.648C392.697 412.544 393.401 413.248 394.297 413.76C395.193 414.256 396.201 414.504 397.321 414.504ZM421.868 408.408H424.82V415.104C423.956 415.792 422.948 416.32 421.796 416.688C420.644 417.056 419.46 417.24 418.244 417.24C416.532 417.24 414.988 416.872 413.612 416.136C412.236 415.384 411.156 414.352 410.372 413.04C409.588 411.728 409.196 410.248 409.196 408.6C409.196 406.952 409.588 405.472 410.372 404.16C411.156 402.848 412.236 401.824 413.612 401.088C415.004 400.336 416.564 399.96 418.292 399.96C419.7 399.96 420.98 400.192 422.132 400.656C423.284 401.12 424.252 401.8 425.036 402.696L423.068 404.616C421.788 403.336 420.244 402.696 418.436 402.696C417.252 402.696 416.196 402.944 415.268 403.44C414.356 403.936 413.636 404.632 413.108 405.528C412.596 406.424 412.34 407.448 412.34 408.6C412.34 409.72 412.596 410.728 413.108 411.624C413.636 412.52 414.356 413.224 415.268 413.736C416.196 414.248 417.244 414.504 418.412 414.504C419.724 414.504 420.876 414.216 421.868 413.64V408.408Z" fill="#F4F4F4"/>
<path d="M10.168 370.2C11.624 370.2 12.888 370.44 13.96 370.92C15.048 371.4 15.88 372.088 16.456 372.984C17.032 373.88 17.32 374.944 17.32 376.176C17.32 377.392 17.032 378.456 16.456 379.368C15.88 380.264 15.048 380.952 13.96 381.432C12.888 381.912 11.624 382.152 10.168 382.152H6.376V387H3.256V370.2H10.168ZM10.024 379.512C11.384 379.512 12.416 379.224 13.12 378.648C13.824 378.072 14.176 377.248 14.176 376.176C14.176 375.104 13.824 374.28 13.12 373.704C12.416 373.128 11.384 372.84 10.024 372.84H6.376V379.512H10.024ZM32.1477 387L28.7157 382.08C28.5717 382.096 28.3557 382.104 28.0677 382.104H24.2757V387H21.1557V370.2H28.0677C29.5237 370.2 30.7877 370.44 31.8597 370.92C32.9477 371.4 33.7797 372.088 34.3557 372.984C34.9317 373.88 35.2197 374.944 35.2197 376.176C35.2197 377.44 34.9077 378.528 34.2837 379.44C33.6757 380.352 32.7957 381.032 31.6437 381.48L35.5077 387H32.1477ZM32.0757 376.176C32.0757 375.104 31.7237 374.28 31.0197 373.704C30.3157 373.128 29.2837 372.84 27.9237 372.84H24.2757V379.536H27.9237C29.2837 379.536 30.3157 379.248 31.0197 378.672C31.7237 378.08 32.0757 377.248 32.0757 376.176ZM47.2784 387.24C45.5664 387.24 44.0224 386.872 42.6464 386.136C41.2704 385.384 40.1904 384.352 39.4064 383.04C38.6224 381.712 38.2304 380.232 38.2304 378.6C38.2304 376.968 38.6224 375.496 39.4064 374.184C40.1904 372.856 41.2704 371.824 42.6464 371.088C44.0224 370.336 45.5664 369.96 47.2784 369.96C48.9904 369.96 50.5344 370.336 51.9104 371.088C53.2864 371.824 54.3664 372.848 55.1504 374.16C55.9344 375.472 56.3264 376.952 56.3264 378.6C56.3264 380.248 55.9344 381.728 55.1504 383.04C54.3664 384.352 53.2864 385.384 51.9104 386.136C50.5344 386.872 48.9904 387.24 47.2784 387.24ZM47.2784 384.504C48.3984 384.504 49.4064 384.256 50.3024 383.76C51.1984 383.248 51.9024 382.544 52.4144 381.648C52.9264 380.736 53.1824 379.72 53.1824 378.6C53.1824 377.48 52.9264 376.472 52.4144 375.576C51.9024 374.664 51.1984 373.96 50.3024 373.464C49.4064 372.952 48.3984 372.696 47.2784 372.696C46.1584 372.696 45.1504 372.952 44.2544 373.464C43.3584 373.96 42.6544 374.664 42.1424 375.576C41.6304 376.472 41.3744 377.48 41.3744 378.6C41.3744 379.72 41.6304 380.736 42.1424 381.648C42.6544 382.544 43.3584 383.248 44.2544 383.76C45.1504 384.256 46.1584 384.504 47.2784 384.504ZM62.6179 387.24C61.5459 387.24 60.5539 387.032 59.6419 386.616C58.7459 386.184 58.0099 385.584 57.4339 384.816L59.2099 382.68C60.1379 383.96 61.2499 384.6 62.5459 384.6C64.2899 384.6 65.1619 383.568 65.1619 381.504V372.816H59.1859V370.2H68.2819V381.336C68.2819 383.304 67.8019 384.784 66.8419 385.776C65.8819 386.752 64.4739 387.24 62.6179 387.24ZM85.9782 384.384V387H73.3782V370.2H85.6422V372.816H76.4982V377.184H84.6102V379.752H76.4982V384.384H85.9782ZM97.882 387.24C96.186 387.24 94.65 386.872 93.274 386.136C91.914 385.384 90.842 384.352 90.058 383.04C89.29 381.728 88.906 380.248 88.906 378.6C88.906 376.952 89.298 375.472 90.082 374.16C90.866 372.848 91.938 371.824 93.298 371.088C94.674 370.336 96.21 369.96 97.906 369.96C99.282 369.96 100.538 370.2 101.674 370.68C102.81 371.16 103.77 371.856 104.554 372.768L102.538 374.664C101.322 373.352 99.826 372.696 98.05 372.696C96.898 372.696 95.866 372.952 94.954 373.464C94.042 373.96 93.33 374.656 92.818 375.552C92.306 376.448 92.05 377.464 92.05 378.6C92.05 379.736 92.306 380.752 92.818 381.648C93.33 382.544 94.042 383.248 94.954 383.76C95.866 384.256 96.898 384.504 98.05 384.504C99.826 384.504 101.322 383.84 102.538 382.512L104.554 384.432C103.77 385.344 102.802 386.04 101.65 386.52C100.514 387 99.258 387.24 97.882 387.24ZM111.484 372.84H105.916V370.2H120.172V372.84H114.604V387H111.484V372.84ZM122.556 370.2H125.148L124.932 376.848H122.748L122.556 370.2ZM134.669 387.24C133.373 387.24 132.117 387.056 130.901 386.688C129.701 386.32 128.749 385.832 128.045 385.224L129.125 382.8C129.813 383.344 130.653 383.792 131.645 384.144C132.653 384.48 133.661 384.648 134.669 384.648C135.917 384.648 136.845 384.448 137.453 384.048C138.077 383.648 138.389 383.12 138.389 382.464C138.389 381.984 138.213 381.592 137.861 381.288C137.525 380.968 137.093 380.72 136.565 380.544C136.037 380.368 135.317 380.168 134.405 379.944C133.125 379.64 132.085 379.336 131.285 379.032C130.501 378.728 129.821 378.256 129.245 377.616C128.685 376.96 128.405 376.08 128.405 374.976C128.405 374.048 128.653 373.208 129.149 372.456C129.661 371.688 130.421 371.08 131.429 370.632C132.453 370.184 133.701 369.96 135.173 369.96C136.197 369.96 137.205 370.088 138.197 370.344C139.189 370.6 140.045 370.968 140.765 371.448L139.781 373.872C139.045 373.44 138.277 373.112 137.477 372.888C136.677 372.664 135.901 372.552 135.149 372.552C133.917 372.552 132.997 372.76 132.389 373.176C131.797 373.592 131.501 374.144 131.501 374.832C131.501 375.312 131.669 375.704 132.005 376.008C132.357 376.312 132.797 376.552 133.325 376.728C133.853 376.904 134.573 377.104 135.485 377.328C136.733 377.616 137.757 377.92 138.557 378.24C139.357 378.544 140.037 379.016 140.597 379.656C141.173 380.296 141.461 381.16 141.461 382.248C141.461 383.176 141.205 384.016 140.693 384.768C140.197 385.52 139.437 386.12 138.413 386.568C137.389 387.016 136.141 387.24 134.669 387.24ZM15.16 408.264C16.088 408.568 16.824 409.08 17.368 409.8C17.912 410.504 18.184 411.384 18.184 412.44C18.184 413.896 17.624 415.024 16.504 415.824C15.384 416.608 13.752 417 11.608 417H3.256V400.2H11.128C13.112 400.2 14.64 400.592 15.712 401.376C16.784 402.144 17.32 403.208 17.32 404.568C17.32 405.4 17.128 406.136 16.744 406.776C16.36 407.416 15.832 407.912 15.16 408.264ZM6.376 402.648V407.28H10.792C11.88 407.28 12.712 407.088 13.288 406.704C13.88 406.304 14.176 405.728 14.176 404.976C14.176 404.208 13.88 403.632 13.288 403.248C12.712 402.848 11.88 402.648 10.792 402.648H6.376ZM11.416 414.552C13.832 414.552 15.04 413.744 15.04 412.128C15.04 410.512 13.832 409.704 11.416 409.704H6.376V414.552H11.416ZM33.1298 413.112H24.7298L23.0738 417H19.8578L27.4178 400.2H30.4898L38.0738 417H34.8098L33.1298 413.112ZM32.0978 410.664L28.9298 403.32L25.7858 410.664H32.0978ZM48.472 417.24C46.776 417.24 45.24 416.872 43.864 416.136C42.504 415.384 41.432 414.352 40.648 413.04C39.88 411.728 39.496 410.248 39.496 408.6C39.496 406.952 39.888 405.472 40.672 404.16C41.456 402.848 42.528 401.824 43.888 401.088C45.264 400.336 46.8 399.96 48.496 399.96C49.872 399.96 51.128 400.2 52.264 400.68C53.4 401.16 54.36 401.856 55.144 402.768L53.128 404.664C51.912 403.352 50.416 402.696 48.64 402.696C47.488 402.696 46.456 402.952 45.544 403.464C44.632 403.96 43.92 404.656 43.408 405.552C42.896 406.448 42.64 407.464 42.64 408.6C42.64 409.736 42.896 410.752 43.408 411.648C43.92 412.544 44.632 413.248 45.544 413.76C46.456 414.256 47.488 414.504 48.64 414.504C50.416 414.504 51.912 413.84 53.128 412.512L55.144 414.432C54.36 415.344 53.392 416.04 52.24 416.52C51.104 417 49.848 417.24 48.472 417.24ZM64.6375 409.968L61.9735 412.704V417H58.8535V400.2H61.9735V408.816L70.2775 400.2H73.7815L66.7255 407.712L74.2135 417H70.5655L64.6375 409.968ZM77.0579 400.2H80.1779V414.36H88.9619V417H77.0579V400.2ZM99.6884 417.24C97.9764 417.24 96.4324 416.872 95.0564 416.136C93.6804 415.384 92.6004 414.352 91.8164 413.04C91.0324 411.712 90.6404 410.232 90.6404 408.6C90.6404 406.968 91.0324 405.496 91.8164 404.184C92.6004 402.856 93.6804 401.824 95.0564 401.088C96.4324 400.336 97.9764 399.96 99.6884 399.96C101.4 399.96 102.944 400.336 104.32 401.088C105.696 401.824 106.776 402.848 107.56 404.16C108.344 405.472 108.736 406.952 108.736 408.6C108.736 410.248 108.344 411.728 107.56 413.04C106.776 414.352 105.696 415.384 104.32 416.136C102.944 416.872 101.4 417.24 99.6884 417.24ZM99.6884 414.504C100.808 414.504 101.816 414.256 102.712 413.76C103.608 413.248 104.312 412.544 104.824 411.648C105.336 410.736 105.592 409.72 105.592 408.6C105.592 407.48 105.336 406.472 104.824 405.576C104.312 404.664 103.608 403.96 102.712 403.464C101.816 402.952 100.808 402.696 99.6884 402.696C98.5684 402.696 97.5604 402.952 96.6644 403.464C95.7684 403.96 95.0644 404.664 94.5524 405.576C94.0404 406.472 93.7844 407.48 93.7844 408.6C93.7844 409.72 94.0404 410.736 94.5524 411.648C95.0644 412.544 95.7684 413.248 96.6644 413.76C97.5604 414.256 98.5684 414.504 99.6884 414.504ZM124.236 408.408H127.188V415.104C126.324 415.792 125.316 416.32 124.163 416.688C123.011 417.056 121.828 417.24 120.612 417.24C118.9 417.24 117.355 416.872 115.98 416.136C114.603 415.384 113.523 414.352 112.739 413.04C111.955 411.728 111.563 410.248 111.563 408.6C111.563 406.952 111.955 405.472 112.739 404.16C113.523 402.848 114.603 401.824 115.98 401.088C117.372 400.336 118.932 399.96 120.659 399.96C122.068 399.96 123.348 400.192 124.499 400.656C125.652 401.12 126.62 401.8 127.404 402.696L125.436 404.616C124.156 403.336 122.612 402.696 120.804 402.696C119.62 402.696 118.564 402.944 117.636 403.44C116.724 403.936 116.003 404.632 115.476 405.528C114.964 406.424 114.707 407.448 114.707 408.6C114.707 409.72 114.964 410.728 115.476 411.624C116.003 412.52 116.724 413.224 117.636 413.736C118.564 414.248 119.612 414.504 120.78 414.504C122.092 414.504 123.244 414.216 124.236 413.64V408.408Z" fill="#F4F4F4"/>
<rect x="0.543457" y="236" width="36.1936" height="25.9982" rx="4" fill="url(#paint4_linear_517_45)"/>
<rect x="7.17041" y="268.115" width="36.1936" height="25.9982" rx="4" fill="url(#paint5_linear_517_45)"/>
<rect x="13.7974" y="300.23" width="36.1936" height="25.9982" rx="4" fill="url(#paint6_linear_517_45)"/>
<rect x="43.364" y="236" width="36.1936" height="25.9982" rx="4" fill="url(#paint7_linear_517_45)"/>
<rect x="49.9911" y="268.115" width="36.1936" height="25.9982" rx="4" fill="url(#paint8_linear_517_45)"/>
<rect x="56.618" y="300.23" width="36.1936" height="25.9982" rx="4" fill="url(#paint9_linear_517_45)"/>
<rect x="86.1847" y="236" width="36.1936" height="25.9982" rx="4" fill="url(#paint10_linear_517_45)"/>
<rect x="92.8116" y="268.115" width="36.1936" height="25.9982" rx="4" fill="url(#paint11_linear_517_45)"/>
<rect x="99.4387" y="300.23" width="36.1936" height="25.9982" rx="4" fill="url(#paint12_linear_517_45)"/>
<path d="M240.632 393L225.632 384.34L225.632 401.66L240.632 393ZM193.632 394.5L227.132 394.5L227.132 391.5L193.632 391.5L193.632 394.5Z" fill="url(#paint13_linear_517_45)"/>
<path d="M1016.54 393L1001.54 384.34L1001.54 401.66L1016.54 393ZM969.539 394.5L1003.04 394.5L1003.04 391.5L969.539 391.5L969.539 394.5Z" fill="#0250C5"/>
<path d="M539.046 393L524.046 384.34L524.046 401.66L539.046 393ZM492.046 394.5L525.546 394.5L525.546 391.5L492.046 391.5L492.046 394.5Z" fill="url(#paint14_linear_517_45)"/>
<path d="M604.51 402.24C603.214 402.24 601.958 402.056 600.742 401.688C599.542 401.32 598.59 400.832 597.886 400.224L598.966 397.8C599.654 398.344 600.494 398.792 601.486 399.144C602.494 399.48 603.502 399.648 604.51 399.648C605.758 399.648 606.686 399.448 607.294 399.048C607.918 398.648 608.23 398.12 608.23 397.464C608.23 396.984 608.054 396.592 607.702 396.288C607.366 395.968 606.934 395.72 606.406 395.544C605.878 395.368 605.158 395.168 604.246 394.944C602.966 394.64 601.926 394.336 601.126 394.032C600.342 393.728 599.662 393.256 599.086 392.616C598.526 391.96 598.246 391.08 598.246 389.976C598.246 389.048 598.494 388.208 598.99 387.456C599.502 386.688 600.262 386.08 601.27 385.632C602.294 385.184 603.542 384.96 605.014 384.96C606.038 384.96 607.046 385.088 608.038 385.344C609.03 385.6 609.886 385.968 610.606 386.448L609.622 388.872C608.886 388.44 608.118 388.112 607.318 387.888C606.518 387.664 605.742 387.552 604.99 387.552C603.758 387.552 602.838 387.76 602.23 388.176C601.638 388.592 601.342 389.144 601.342 389.832C601.342 390.312 601.51 390.704 601.846 391.008C602.198 391.312 602.638 391.552 603.166 391.728C603.694 391.904 604.414 392.104 605.326 392.328C606.574 392.616 607.598 392.92 608.398 393.24C609.198 393.544 609.878 394.016 610.438 394.656C611.014 395.296 611.302 396.16 611.302 397.248C611.302 398.176 611.046 399.016 610.534 399.768C610.038 400.52 609.278 401.12 608.254 401.568C607.23 402.016 605.982 402.24 604.51 402.24ZM622.028 385.2C623.484 385.2 624.748 385.44 625.82 385.92C626.908 386.4 627.74 387.088 628.316 387.984C628.892 388.88 629.18 389.944 629.18 391.176C629.18 392.392 628.892 393.456 628.316 394.368C627.74 395.264 626.908 395.952 625.82 396.432C624.748 396.912 623.484 397.152 622.028 397.152H618.236V402H615.116V385.2H622.028ZM621.884 394.512C623.244 394.512 624.276 394.224 624.98 393.648C625.684 393.072 626.036 392.248 626.036 391.176C626.036 390.104 625.684 389.28 624.98 388.704C624.276 388.128 623.244 387.84 621.884 387.84H618.236V394.512H621.884ZM644.008 402L640.576 397.08C640.432 397.096 640.216 397.104 639.928 397.104H636.136V402H633.016V385.2H639.928C641.384 385.2 642.648 385.44 643.72 385.92C644.808 386.4 645.64 387.088 646.216 387.984C646.792 388.88 647.08 389.944 647.08 391.176C647.08 392.44 646.768 393.528 646.144 394.44C645.536 395.352 644.656 396.032 643.504 396.48L647.368 402H644.008ZM643.936 391.176C643.936 390.104 643.584 389.28 642.88 388.704C642.176 388.128 641.144 387.84 639.784 387.84H636.136V394.536H639.784C641.144 394.536 642.176 394.248 642.88 393.672C643.584 393.08 643.936 392.248 643.936 391.176ZM651.29 385.2H654.41V402H651.29V385.2ZM674.602 385.2V402H672.034L662.77 390.624V402H659.674V385.2H662.242L671.506 396.576V385.2H674.602ZM683.232 387.84H677.664V385.2H691.92V387.84H686.352V402H683.232V387.84Z" fill="#F4F4F4"/>
<path fill-rule="evenodd" clip-rule="evenodd" d="M818.518 160.884C861.851 160.884 897.182 126.621 898.895 83.7078C898.955 82.2159 897.383 81.2447 896.053 81.9221L872.876 93.7212C872.359 93.9844 871.983 94.4613 871.834 95.022C865.626 118.378 844.335 135.588 819.024 135.588C788.847 135.588 764.384 111.125 764.384 80.9485C764.384 50.7717 788.847 26.3086 819.024 26.3086C838.654 26.3086 855.867 36.6606 865.5 52.2032C865.524 52.2415 865.584 52.2205 865.578 52.1758C865.574 52.1454 865.603 52.1212 865.632 52.1306L882.21 57.5072C883.327 57.8695 884.514 57.1959 884.776 56.0513L888.17 41.2368C888.282 40.7464 888.206 40.2306 887.951 39.7966C873.983 15.9867 848.118 0 818.518 0C774.091 0 738.076 36.0151 738.076 80.442C738.076 124.869 774.091 160.884 818.518 160.884Z" fill="url(#paint15_linear_517_45)"/>
<path fill-rule="evenodd" clip-rule="evenodd" d="M752.843 326C697.508 326 652.447 282.012 650.721 227.095C650.674 225.603 652.246 224.629 653.577 225.306L684.02 240.805C684.537 241.068 684.913 241.545 685.06 242.106C692.863 271.895 719.966 293.872 752.201 293.872C790.53 293.872 821.602 262.8 821.602 224.47C821.602 186.141 790.53 155.069 752.201 155.069C727.267 155.069 705.405 168.218 693.169 187.959C693.139 188.008 693.063 187.981 693.07 187.924C693.075 187.885 693.038 187.854 693.001 187.867L671.383 194.878C670.266 195.24 669.079 194.566 668.817 193.422L664.328 173.823C664.216 173.333 664.292 172.817 664.546 172.383C682.262 142.04 715.172 121.652 752.843 121.652C809.272 121.652 855.017 167.397 855.017 223.826C855.017 280.255 809.272 326 752.843 326Z" fill="url(#paint16_linear_517_45)"/>
<path d="M601.025 297.618C599.641 296.399 600.502 294.116 602.346 294.116H751.568C752.672 294.116 753.568 295.012 753.568 296.116V324C753.568 325.105 752.672 326 751.568 326H602.346C600.502 326 599.641 323.717 601.025 322.499L613.456 311.56C614.361 310.763 614.361 309.353 613.456 308.557L601.025 297.618Z" fill="url(#paint17_linear_517_45)"/>
<path d="M771.427 311.56C772.332 310.763 772.332 309.353 771.427 308.557L758.996 297.618C757.612 296.399 758.473 294.116 760.317 294.116H891.966C892.439 294.116 892.896 294.284 893.258 294.589L909.734 308.531C910.679 309.33 910.679 310.786 909.734 311.585L893.258 325.527C892.896 325.833 892.439 326 891.966 326H760.317C758.473 326 757.612 323.717 758.996 322.499L771.427 311.56Z" fill="url(#paint18_linear_517_45)"/>
<path d="M792.901 69.2H799.741C801.517 69.2 803.085 69.56 804.445 70.28C805.805 70.984 806.861 71.976 807.613 73.256C808.365 74.52 808.741 75.968 808.741 77.6C808.741 79.232 808.365 80.688 807.613 81.968C806.861 83.232 805.805 84.224 804.445 84.944C803.085 85.648 801.517 86 799.741 86H792.901V69.2ZM799.645 84.464C801.117 84.464 802.405 84.176 803.509 83.6C804.613 83.008 805.469 82.2 806.077 81.176C806.685 80.136 806.989 78.944 806.989 77.6C806.989 76.256 806.685 75.072 806.077 74.048C805.469 73.008 804.613 72.2 803.509 71.624C802.405 71.032 801.117 70.736 799.645 70.736H794.677V84.464H799.645ZM817.505 73.28C819.153 73.28 820.417 73.696 821.297 74.528C822.177 75.344 822.617 76.56 822.617 78.176V86H820.985V84.032C820.601 84.688 820.033 85.2 819.281 85.568C818.545 85.936 817.665 86.12 816.641 86.12C815.233 86.12 814.113 85.784 813.281 85.112C812.449 84.44 812.033 83.552 812.033 82.448C812.033 81.376 812.417 80.512 813.185 79.856C813.969 79.2 815.209 78.872 816.905 78.872H820.913V78.104C820.913 77.016 820.609 76.192 820.001 75.632C819.393 75.056 818.505 74.768 817.337 74.768C816.537 74.768 815.769 74.904 815.033 75.176C814.297 75.432 813.665 75.792 813.137 76.256L812.369 74.984C813.009 74.44 813.777 74.024 814.673 73.736C815.569 73.432 816.513 73.28 817.505 73.28ZM816.905 84.776C817.865 84.776 818.689 84.56 819.377 84.128C820.065 83.68 820.577 83.04 820.913 82.208V80.144H816.953C814.793 80.144 813.713 80.896 813.713 82.4C813.713 83.136 813.993 83.72 814.553 84.152C815.113 84.568 815.897 84.776 816.905 84.776ZM827.965 73.376H829.669V86H827.965V73.376ZM828.829 70.616C828.477 70.616 828.181 70.496 827.941 70.256C827.701 70.016 827.581 69.728 827.581 69.392C827.581 69.072 827.701 68.792 827.941 68.552C828.181 68.312 828.477 68.192 828.829 68.192C829.181 68.192 829.477 68.312 829.717 68.552C829.957 68.776 830.077 69.048 830.077 69.368C830.077 69.72 829.957 70.016 829.717 70.256C829.477 70.496 829.181 70.616 828.829 70.616ZM835.13 68.192H836.834V86H835.13V68.192ZM852.904 73.376L846.592 87.512C846.08 88.696 845.488 89.536 844.816 90.032C844.144 90.528 843.336 90.776 842.392 90.776C841.784 90.776 841.216 90.68 840.688 90.488C840.16 90.296 839.704 90.008 839.32 89.624L840.112 88.352C840.752 88.992 841.52 89.312 842.416 89.312C842.992 89.312 843.48 89.152 843.88 88.832C844.296 88.512 844.68 87.968 845.032 87.2L845.584 85.976L839.944 73.376H841.72L846.472 84.104L851.224 73.376H852.904Z" fill="#F4F4F4"/>
<path d="M742.132 204.2V221H740.404V205.736H736.444V204.2H742.132ZM747.06 213.752H753.348V215.24H747.06V213.752ZM767.943 219.464V221H756.159V219.776L763.143 212.936C764.023 212.072 764.615 211.328 764.919 210.704C765.239 210.064 765.399 209.424 765.399 208.784C765.399 207.792 765.055 207.024 764.367 206.48C763.695 205.92 762.727 205.64 761.463 205.64C759.495 205.64 757.967 206.264 756.879 207.512L755.655 206.456C756.311 205.688 757.143 205.096 758.151 204.68C759.175 204.264 760.327 204.056 761.607 204.056C763.319 204.056 764.671 204.464 765.663 205.28C766.671 206.08 767.175 207.184 767.175 208.592C767.175 209.456 766.983 210.288 766.599 211.088C766.215 211.888 765.487 212.808 764.415 213.848L758.703 219.464H767.943ZM734.264 232.376L729.488 245H727.88L723.896 234.656L719.912 245H718.304L713.552 232.376H715.184L719.144 243.104L723.2 232.376H724.664L728.696 243.104L732.704 232.376H734.264ZM748.19 239.216H737.63C737.726 240.528 738.23 241.592 739.142 242.408C740.054 243.208 741.206 243.608 742.598 243.608C743.382 243.608 744.102 243.472 744.758 243.2C745.414 242.912 745.982 242.496 746.462 241.952L747.422 243.056C746.862 243.728 746.158 244.24 745.31 244.592C744.478 244.944 743.558 245.12 742.55 245.12C741.254 245.12 740.102 244.848 739.094 244.304C738.102 243.744 737.326 242.976 736.766 242C736.206 241.024 735.926 239.92 735.926 238.688C735.926 237.456 736.19 236.352 736.718 235.376C737.262 234.4 737.998 233.64 738.926 233.096C739.87 232.552 740.926 232.28 742.094 232.28C743.262 232.28 744.31 232.552 745.238 233.096C746.166 233.64 746.894 234.4 747.422 235.376C747.95 236.336 748.214 237.44 748.214 238.688L748.19 239.216ZM742.094 233.744C740.878 233.744 739.854 234.136 739.022 234.92C738.206 235.688 737.742 236.696 737.63 237.944H746.582C746.47 236.696 745.998 235.688 745.166 234.92C744.35 234.136 743.326 233.744 742.094 233.744ZM763.395 239.216H752.835C752.931 240.528 753.435 241.592 754.347 242.408C755.259 243.208 756.411 243.608 757.803 243.608C758.587 243.608 759.307 243.472 759.963 243.2C760.619 242.912 761.187 242.496 761.667 241.952L762.627 243.056C762.067 243.728 761.363 244.24 760.515 244.592C759.683 244.944 758.763 245.12 757.755 245.12C756.459 245.12 755.307 244.848 754.299 244.304C753.307 243.744 752.531 242.976 751.971 242C751.411 241.024 751.131 239.92 751.131 238.688C751.131 237.456 751.395 236.352 751.923 235.376C752.467 234.4 753.203 233.64 754.131 233.096C755.075 232.552 756.131 232.28 757.299 232.28C758.467 232.28 759.515 232.552 760.443 233.096C761.371 233.64 762.099 234.4 762.627 235.376C763.155 236.336 763.419 237.44 763.419 238.688L763.395 239.216ZM757.299 233.744C756.083 233.744 755.059 234.136 754.227 234.92C753.411 235.688 752.947 236.696 752.835 237.944H761.787C761.675 236.696 761.203 235.688 760.371 234.92C759.555 234.136 758.531 233.744 757.299 233.744ZM772.287 238.664L769.311 241.4V245H767.607V227.192H769.311V239.264L776.847 232.376H778.959L773.559 237.536L779.463 245H777.375L772.287 238.664ZM785.75 245.12C784.726 245.12 783.742 244.976 782.798 244.688C781.87 244.384 781.142 244.008 780.614 243.56L781.382 242.216C781.91 242.632 782.574 242.976 783.374 243.248C784.174 243.504 785.006 243.632 785.87 243.632C787.022 243.632 787.87 243.456 788.414 243.104C788.974 242.736 789.254 242.224 789.254 241.568C789.254 241.104 789.102 240.744 788.798 240.488C788.494 240.216 788.11 240.016 787.646 239.888C787.182 239.744 786.566 239.608 785.798 239.48C784.774 239.288 783.95 239.096 783.326 238.904C782.702 238.696 782.166 238.352 781.718 237.872C781.286 237.392 781.07 236.728 781.07 235.88C781.07 234.824 781.51 233.96 782.39 233.288C783.27 232.616 784.494 232.28 786.062 232.28C786.878 232.28 787.694 232.392 788.51 232.616C789.326 232.824 789.998 233.104 790.526 233.456L789.782 234.824C788.742 234.104 787.502 233.744 786.062 233.744C784.974 233.744 784.15 233.936 783.59 234.32C783.046 234.704 782.774 235.208 782.774 235.832C782.774 236.312 782.926 236.696 783.23 236.984C783.55 237.272 783.942 237.488 784.406 237.632C784.87 237.76 785.51 237.896 786.326 238.04C787.334 238.232 788.142 238.424 788.75 238.616C789.358 238.808 789.878 239.136 790.31 239.6C790.742 240.064 790.958 240.704 790.958 241.52C790.958 242.624 790.494 243.504 789.566 244.16C788.654 244.8 787.382 245.12 785.75 245.12Z" fill="#F4F4F4"/>
<path d="M1101.35 355.2L1095.78 372H1092.47L1088.31 359.568L1084.09 372H1080.75L1075.19 355.2H1078.43L1082.6 367.968L1086.95 355.2H1089.83L1094.07 368.04L1098.37 355.2H1101.35ZM1112.27 372.24C1110.56 372.24 1109.01 371.872 1107.64 371.136C1106.26 370.384 1105.18 369.352 1104.4 368.04C1103.61 366.712 1103.22 365.232 1103.22 363.6C1103.22 361.968 1103.61 360.496 1104.4 359.184C1105.18 357.856 1106.26 356.824 1107.64 356.088C1109.01 355.336 1110.56 354.96 1112.27 354.96C1113.98 354.96 1115.53 355.336 1116.9 356.088C1118.28 356.824 1119.36 357.848 1120.14 359.16C1120.93 360.472 1121.32 361.952 1121.32 363.6C1121.32 365.248 1120.93 366.728 1120.14 368.04C1119.36 369.352 1118.28 370.384 1116.9 371.136C1115.53 371.872 1113.98 372.24 1112.27 372.24ZM1112.27 369.504C1113.39 369.504 1114.4 369.256 1115.29 368.76C1116.19 368.248 1116.89 367.544 1117.41 366.648C1117.92 365.736 1118.17 364.72 1118.17 363.6C1118.17 362.48 1117.92 361.472 1117.41 360.576C1116.89 359.664 1116.19 358.96 1115.29 358.464C1114.4 357.952 1113.39 357.696 1112.27 357.696C1111.15 357.696 1110.14 357.952 1109.25 358.464C1108.35 358.96 1107.65 359.664 1107.13 360.576C1106.62 361.472 1106.37 362.48 1106.37 363.6C1106.37 364.72 1106.62 365.736 1107.13 366.648C1107.65 367.544 1108.35 368.248 1109.25 368.76C1110.14 369.256 1111.15 369.504 1112.27 369.504ZM1136.34 372L1132.9 367.08C1132.76 367.096 1132.54 367.104 1132.26 367.104H1128.46V372H1125.34V355.2H1132.26C1133.71 355.2 1134.98 355.44 1136.05 355.92C1137.14 356.4 1137.97 357.088 1138.54 357.984C1139.12 358.88 1139.41 359.944 1139.41 361.176C1139.41 362.44 1139.1 363.528 1138.47 364.44C1137.86 365.352 1136.98 366.032 1135.83 366.48L1139.7 372H1136.34ZM1136.26 361.176C1136.26 360.104 1135.91 359.28 1135.21 358.704C1134.5 358.128 1133.47 357.84 1132.11 357.84H1128.46V364.536H1132.11C1133.47 364.536 1134.5 364.248 1135.21 363.672C1135.91 363.08 1136.26 362.248 1136.26 361.176ZM1149.4 364.968L1146.74 367.704V372H1143.62V355.2H1146.74V363.816L1155.04 355.2H1158.55L1151.49 362.712L1158.98 372H1155.33L1149.4 364.968ZM1161.82 355.2H1164.94V372H1161.82V355.2ZM1185.14 355.2V372H1182.57L1173.3 360.624V372H1170.21V355.2H1172.78L1182.04 366.576V355.2H1185.14ZM1201.83 363.408H1204.78V370.104C1203.92 370.792 1202.91 371.32 1201.76 371.688C1200.61 372.056 1199.42 372.24 1198.21 372.24C1196.49 372.24 1194.95 371.872 1193.57 371.136C1192.2 370.384 1191.12 369.352 1190.33 368.04C1189.55 366.728 1189.16 365.248 1189.16 363.6C1189.16 361.952 1189.55 360.472 1190.33 359.16C1191.12 357.848 1192.2 356.824 1193.57 356.088C1194.97 355.336 1196.53 354.96 1198.25 354.96C1199.66 354.96 1200.94 355.192 1202.09 355.656C1203.25 356.12 1204.21 356.8 1205 357.696L1203.03 359.616C1201.75 358.336 1200.21 357.696 1198.4 357.696C1197.21 357.696 1196.16 357.944 1195.23 358.44C1194.32 358.936 1193.6 359.632 1193.07 360.528C1192.56 361.424 1192.3 362.448 1192.3 363.6C1192.3 364.72 1192.56 365.728 1193.07 366.624C1193.6 367.52 1194.32 368.224 1195.23 368.736C1196.16 369.248 1197.21 369.504 1198.37 369.504C1199.69 369.504 1200.84 369.216 1201.83 368.64V363.408ZM1222.18 372.24C1220.88 372.24 1219.62 372.056 1218.41 371.688C1217.21 371.32 1216.26 370.832 1215.55 370.224L1216.63 367.8C1217.32 368.344 1218.16 368.792 1219.15 369.144C1220.16 369.48 1221.17 369.648 1222.18 369.648C1223.42 369.648 1224.35 369.448 1224.96 369.048C1225.58 368.648 1225.9 368.12 1225.9 367.464C1225.9 366.984 1225.72 366.592 1225.37 366.288C1225.03 365.968 1224.6 365.72 1224.07 365.544C1223.54 365.368 1222.82 365.168 1221.91 364.944C1220.63 364.64 1219.59 364.336 1218.79 364.032C1218.01 363.728 1217.33 363.256 1216.75 362.616C1216.19 361.96 1215.91 361.08 1215.91 359.976C1215.91 359.048 1216.16 358.208 1216.66 357.456C1217.17 356.688 1217.93 356.08 1218.94 355.632C1219.96 355.184 1221.21 354.96 1222.68 354.96C1223.7 354.96 1224.71 355.088 1225.7 355.344C1226.7 355.6 1227.55 355.968 1228.27 356.448L1227.29 358.872C1226.55 358.44 1225.78 358.112 1224.98 357.888C1224.18 357.664 1223.41 357.552 1222.66 357.552C1221.42 357.552 1220.5 357.76 1219.9 358.176C1219.3 358.592 1219.01 359.144 1219.01 359.832C1219.01 360.312 1219.18 360.704 1219.51 361.008C1219.86 361.312 1220.3 361.552 1220.83 361.728C1221.36 361.904 1222.08 362.104 1222.99 362.328C1224.24 362.616 1225.26 362.92 1226.06 363.24C1226.86 363.544 1227.54 364.016 1228.1 364.656C1228.68 365.296 1228.97 366.16 1228.97 367.248C1228.97 368.176 1228.71 369.016 1228.2 369.768C1227.7 370.52 1226.94 371.12 1225.92 371.568C1224.9 372.016 1223.65 372.24 1222.18 372.24ZM1240.63 372.24C1238.92 372.24 1237.37 371.872 1236 371.136C1234.62 370.384 1233.54 369.352 1232.76 368.04C1231.97 366.712 1231.58 365.232 1231.58 363.6C1231.58 361.968 1231.97 360.496 1232.76 359.184C1233.54 357.856 1234.62 356.824 1236 356.088C1237.37 355.336 1238.92 354.96 1240.63 354.96C1242.34 354.96 1243.89 355.336 1245.26 356.088C1246.64 356.824 1247.72 357.848 1248.5 359.16C1249.29 360.472 1249.68 361.952 1249.68 363.6C1249.68 365.248 1249.29 366.728 1248.5 368.04C1247.72 369.352 1246.64 370.384 1245.26 371.136C1243.89 371.872 1242.34 372.24 1240.63 372.24ZM1240.63 369.504C1241.75 369.504 1242.76 369.256 1243.65 368.76C1244.55 368.248 1245.25 367.544 1245.77 366.648C1246.28 365.736 1246.53 364.72 1246.53 363.6C1246.53 362.48 1246.28 361.472 1245.77 360.576C1245.25 359.664 1244.55 358.96 1243.65 358.464C1242.76 357.952 1241.75 357.696 1240.63 357.696C1239.51 357.696 1238.5 357.952 1237.61 358.464C1236.71 358.96 1236.01 359.664 1235.49 360.576C1234.98 361.472 1234.73 362.48 1234.73 363.6C1234.73 364.72 1234.98 365.736 1235.49 366.648C1236.01 367.544 1236.71 368.248 1237.61 368.76C1238.5 369.256 1239.51 369.504 1240.63 369.504ZM1256.83 357.816V362.928H1264.94V365.568H1256.83V372H1253.71V355.2H1265.97V357.816H1256.83ZM1273.23 357.84H1267.66V355.2H1281.92V357.84H1276.35V372H1273.23V357.84ZM1309.3 355.2L1303.73 372H1300.42L1296.27 359.568L1292.04 372H1288.71L1283.14 355.2H1286.38L1290.56 367.968L1294.9 355.2H1297.78L1302.03 368.04L1306.32 355.2H1309.3ZM1322.92 368.112H1314.52L1312.86 372H1309.65L1317.21 355.2H1320.28L1327.86 372H1324.6L1322.92 368.112ZM1321.89 365.664L1318.72 358.32L1315.57 365.664H1321.89ZM1341.71 372L1338.28 367.08C1338.13 367.096 1337.92 367.104 1337.63 367.104H1333.84V372H1330.72V355.2H1337.63C1339.09 355.2 1340.35 355.44 1341.42 355.92C1342.51 356.4 1343.34 357.088 1343.92 357.984C1344.49 358.88 1344.78 359.944 1344.78 361.176C1344.78 362.44 1344.47 363.528 1343.85 364.44C1343.24 365.352 1342.36 366.032 1341.21 366.48L1345.07 372H1341.71ZM1341.64 361.176C1341.64 360.104 1341.29 359.28 1340.58 358.704C1339.88 358.128 1338.85 357.84 1337.49 357.84H1333.84V364.536H1337.49C1338.85 364.536 1339.88 364.248 1340.58 363.672C1341.29 363.08 1341.64 362.248 1341.64 361.176ZM1361.59 369.384V372H1348.99V355.2H1361.26V357.816H1352.11V362.184H1360.23V364.752H1352.11V369.384H1361.59ZM1397.7 355.2L1392.13 372H1388.82L1384.66 359.568L1380.44 372H1377.1L1371.54 355.2H1374.78L1378.95 367.968L1383.3 355.2H1386.18L1390.42 368.04L1394.72 355.2H1397.7ZM1400.96 355.2H1404.08V372H1400.96V355.2ZM1412.75 357.84H1407.18V355.2H1421.44V357.84H1415.87V372H1412.75V357.84ZM1439.43 355.2V372H1436.31V364.8H1427.62V372H1424.5V355.2H1427.62V362.136H1436.31V355.2H1439.43ZM1091.72 385.2V402H1089.15L1079.89 390.624V402H1076.79V385.2H1079.36L1088.63 396.576V385.2H1091.72ZM1109.54 399.384V402H1096.94V385.2H1109.21V387.816H1100.06V392.184H1108.18V394.752H1100.06V399.384H1109.54ZM1138.06 385.2L1132.49 402H1129.18L1125.03 389.568L1120.8 402H1117.47L1111.9 385.2H1115.14L1119.32 397.968L1123.66 385.2H1126.54L1130.79 398.04L1135.08 385.2H1138.06ZM1152.15 387.816V392.928H1160.26V395.568H1152.15V402H1149.03V385.2H1161.29V387.816H1152.15ZM1177.63 399.384V402H1165.03V385.2H1177.29V387.816H1168.15V392.184H1176.26V394.752H1168.15V399.384H1177.63ZM1192.72 398.112H1184.32L1182.67 402H1179.45L1187.01 385.2H1190.08L1197.67 402H1194.4L1192.72 398.112ZM1191.69 395.664L1188.52 388.32L1185.38 395.664H1191.69ZM1203.09 387.84H1197.52V385.2H1211.77V387.84H1206.21V402H1203.09V387.84ZM1221.76 402.24C1219.44 402.24 1217.63 401.592 1216.33 400.296C1215.04 398.984 1214.39 397.112 1214.39 394.68V385.2H1217.51V394.56C1217.51 397.856 1218.93 399.504 1221.78 399.504C1224.61 399.504 1226.03 397.856 1226.03 394.56V385.2H1229.1V394.68C1229.1 397.112 1228.45 398.984 1227.16 400.296C1225.88 401.592 1224.08 402.24 1221.76 402.24ZM1245.18 402L1241.75 397.08C1241.6 397.096 1241.39 397.104 1241.1 397.104H1237.31V402H1234.19V385.2H1241.1C1242.56 385.2 1243.82 385.44 1244.89 385.92C1245.98 386.4 1246.81 387.088 1247.39 387.984C1247.96 388.88 1248.25 389.944 1248.25 391.176C1248.25 392.44 1247.94 393.528 1247.32 394.44C1246.71 395.352 1245.83 396.032 1244.68 396.48L1248.54 402H1245.18ZM1245.11 391.176C1245.11 390.104 1244.76 389.28 1244.05 388.704C1243.35 388.128 1242.32 387.84 1240.96 387.84H1237.31V394.536H1240.96C1242.32 394.536 1243.35 394.248 1244.05 393.672C1244.76 393.08 1245.11 392.248 1245.11 391.176ZM1265.06 399.384V402H1252.46V385.2H1264.73V387.816H1255.58V392.184H1263.7V394.752H1255.58V399.384H1265.06ZM1274.47 402.24C1273.17 402.24 1271.92 402.056 1270.7 401.688C1269.5 401.32 1268.55 400.832 1267.85 400.224L1268.93 397.8C1269.61 398.344 1270.45 398.792 1271.45 399.144C1272.45 399.48 1273.46 399.648 1274.47 399.648C1275.72 399.648 1276.65 399.448 1277.25 399.048C1277.88 398.648 1278.19 398.12 1278.19 397.464C1278.19 396.984 1278.01 396.592 1277.66 396.288C1277.33 395.968 1276.89 395.72 1276.37 395.544C1275.84 395.368 1275.12 395.168 1274.21 394.944C1272.93 394.64 1271.89 394.336 1271.09 394.032C1270.3 393.728 1269.62 393.256 1269.05 392.616C1268.49 391.96 1268.21 391.08 1268.21 389.976C1268.21 389.048 1268.45 388.208 1268.95 387.456C1269.46 386.688 1270.22 386.08 1271.23 385.632C1272.25 385.184 1273.5 384.96 1274.97 384.96C1276 384.96 1277.01 385.088 1278 385.344C1278.99 385.6 1279.85 385.968 1280.57 386.448L1279.58 388.872C1278.85 388.44 1278.08 388.112 1277.28 387.888C1276.48 387.664 1275.7 387.552 1274.95 387.552C1273.72 387.552 1272.8 387.76 1272.19 388.176C1271.6 388.592 1271.3 389.144 1271.3 389.832C1271.3 390.312 1271.47 390.704 1271.81 391.008C1272.16 391.312 1272.6 391.552 1273.13 391.728C1273.65 391.904 1274.37 392.104 1275.29 392.328C1276.53 392.616 1277.56 392.92 1278.36 393.24C1279.16 393.544 1279.84 394.016 1280.4 394.656C1280.97 395.296 1281.26 396.16 1281.26 397.248C1281.26 398.176 1281.01 399.016 1280.49 399.768C1280 400.52 1279.24 401.12 1278.21 401.568C1277.19 402.016 1275.94 402.24 1274.47 402.24Z" fill="#F4F4F4"/>
<rect x="1074.54" y="236" width="121" height="90" rx="4" fill="url(#paint19_linear_517_45)"/>
<defs>
<linearGradient id="paint0_linear_517_45" x1="1672.51" y1="407.25" x2="195.543" y2="407.25" gradientUnits="userSpaceOnUse">
<stop stop-color="#266EF9"/>
<stop offset="1" stop-color="#6219CF"/>
</linearGradient>
<linearGradient id="paint1_linear_517_45" x1="329.044" y1="323" x2="420.544" y2="236" gradientUnits="userSpaceOnUse">
<stop stop-color="#6A11CB"/>
<stop offset="1" stop-color="#2575FC"/>
</linearGradient>
<linearGradient id="paint2_linear_517_45" x1="319.544" y1="328.5" x2="426.544" y2="236" gradientUnits="userSpaceOnUse">
<stop stop-color="#6A11CB"/>
<stop offset="1" stop-color="#2575FC"/>
</linearGradient>
<linearGradient id="paint3_linear_517_45" x1="316.544" y1="326" x2="420.544" y2="240.5" gradientUnits="userSpaceOnUse">
<stop stop-color="#6A11CB"/>
<stop offset="1" stop-color="#2575FC"/>
</linearGradient>
<linearGradient id="paint4_linear_517_45" x1="10.5435" y1="323" x2="123.043" y2="236" gradientUnits="userSpaceOnUse">
<stop stop-color="#6A11CB"/>
<stop offset="1" stop-color="#2575FC"/>
</linearGradient>
<linearGradient id="paint5_linear_517_45" x1="16.0434" y1="324.5" x2="124.043" y2="234.5" gradientUnits="userSpaceOnUse">
<stop stop-color="#6A11CB"/>
<stop offset="1" stop-color="#2575FC"/>
</linearGradient>
<linearGradient id="paint6_linear_517_45" x1="13.5434" y1="326" x2="123.043" y2="237.5" gradientUnits="userSpaceOnUse">
<stop stop-color="#6A11CB"/>
<stop offset="1" stop-color="#2575FC"/>
</linearGradient>
<linearGradient id="paint7_linear_517_45" x1="17.5434" y1="327.5" x2="121.543" y2="236" gradientUnits="userSpaceOnUse">
<stop stop-color="#6A11CB"/>
<stop offset="1" stop-color="#2575FC"/>
</linearGradient>
<linearGradient id="paint8_linear_517_45" x1="17.5435" y1="323" x2="120.043" y2="234.5" gradientUnits="userSpaceOnUse">
<stop stop-color="#6A11CB"/>
<stop offset="1" stop-color="#2575FC"/>
</linearGradient>
<linearGradient id="paint9_linear_517_45" x1="13.5435" y1="326" x2="121.543" y2="236" gradientUnits="userSpaceOnUse">
<stop stop-color="#6A11CB"/>
<stop offset="1" stop-color="#2575FC"/>
</linearGradient>
<linearGradient id="paint10_linear_517_45" x1="12.0435" y1="324.5" x2="122.543" y2="236" gradientUnits="userSpaceOnUse">
<stop stop-color="#6A11CB"/>
<stop offset="1" stop-color="#2575FC"/>
</linearGradient>
<linearGradient id="paint11_linear_517_45" x1="14.5435" y1="326" x2="120.043" y2="234.5" gradientUnits="userSpaceOnUse">
<stop stop-color="#6A11CB"/>
<stop offset="1" stop-color="#2575FC"/>
</linearGradient>
<linearGradient id="paint12_linear_517_45" x1="17.5435" y1="326" x2="127.044" y2="233.5" gradientUnits="userSpaceOnUse">
<stop stop-color="#6A11CB"/>
<stop offset="1" stop-color="#2575FC"/>
</linearGradient>
<linearGradient id="paint13_linear_517_45" x1="193.544" y1="393" x2="240.544" y2="393" gradientUnits="userSpaceOnUse">
<stop stop-color="#6516CE"/>
<stop offset="1" stop-color="#2671FA"/>
</linearGradient>
<linearGradient id="paint14_linear_517_45" x1="539.543" y1="393" x2="487.043" y2="393" gradientUnits="userSpaceOnUse">
<stop stop-color="#2671FA"/>
<stop offset="1" stop-color="#6319CF"/>
</linearGradient>
<linearGradient id="paint15_linear_517_45" x1="849.543" y1="8.50001" x2="771.543" y2="161" gradientUnits="userSpaceOnUse">
<stop stop-color="#2672FA"/>
<stop offset="1" stop-color="#621BD0"/>
</linearGradient>
<linearGradient id="paint16_linear_517_45" x1="807.543" y1="136" x2="605.543" y2="326" gradientUnits="userSpaceOnUse">
<stop stop-color="#2671FA"/>
<stop offset="1" stop-color="#611CD1"/>
</linearGradient>
<linearGradient id="paint17_linear_517_45" x1="830.043" y1="149" x2="597.543" y2="326" gradientUnits="userSpaceOnUse">
<stop stop-color="#2671FA"/>
<stop offset="1" stop-color="#621ACF"/>
</linearGradient>
<linearGradient id="paint18_linear_517_45" x1="822.043" y1="150.5" x2="599.043" y2="326" gradientUnits="userSpaceOnUse">
<stop stop-color="#286FF9"/>
<stop offset="1" stop-color="#621BD0"/>
</linearGradient>
<linearGradient id="paint19_linear_517_45" x1="1195.54" y1="236" x2="1074.54" y2="326" gradientUnits="userSpaceOnUse">
<stop stop-color="#266EF9"/>
<stop offset="1" stop-color="#5D1ED1"/>
</linearGradient>
</defs>
</svg>
