<svg width="32" height="32" fill="none" xmlns="http://www.w3.org/2000/svg"><path d="M4.868 4.485C11.19-1.64 21.3-1.475 27.424 4.88a13.557 13.557 0 0 0 1.713-2.996c2.009 6.124 3.227 11.261 2.766 15.246a15.912 15.912 0 0 1-3.721 9.154c-5.664 6.718-15.74 7.574-22.458 1.91l-.128-.114-.007-.005a1.298 1.298 0 0 1-.23-.2l-.018-.021-.21-.187a6.663 6.663 0 0 1-.591-.55l-.067-.076c-6.125-6.322-5.928-16.431.395-22.556zm2.37 21.437c-.592-.461-1.448-.395-1.91.197-.405.522-.403 1.247.007 1.727l.006.008.254.226.025.017c.576.378 1.35.3 1.792-.235l.024-.03a1.387 1.387 0 0 0-.197-1.91zM28.973 3.53c-1.646 3.458-5.73 6.092-9.253 6.915-3.326.79-6.224.132-9.286 1.317-6.981 2.668-6.85 10.966-3.03 12.843l.23.131s2.76-.548 5.489-1.273l.233-.062c1.09-.294 2.162-.614 3.038-.937 4.544-1.679 9.55-5.828 11.196-10.636-.856 5.005-5.17 9.846-9.484 12.052-2.305 1.186-4.083 1.45-7.87 2.766-.46.165-.823.33-.823.33l.139-.019.092-.012.091-.011c.836-.104 1.588-.156 1.588-.156 5.367-.263 13.797 1.515 17.716-3.72 4.018-5.335 1.778-13.963-.066-19.528z" fill="#6DB33F"/></svg>