<svg width="315" height="326" fill="none" xmlns="http://www.w3.org/2000/svg"><path fill-rule="evenodd" clip-rule="evenodd" d="M221.518 160.884c43.333 0 78.664-34.263 80.377-77.176.06-1.492-1.512-2.463-2.842-1.786l-23.177 11.8c-.517.262-.893.74-1.042 1.3-6.208 23.356-27.499 40.566-52.81 40.566-30.177 0-54.64-24.463-54.64-54.64 0-30.176 24.463-54.64 54.64-54.64 19.63 0 36.843 10.353 46.476 25.895.024.038.084.017.078-.027a.042.042 0 0 1 .054-.045l16.578 5.376a2 2 0 0 0 2.566-1.456l3.394-14.814a1.975 1.975 0 0 0-.219-1.44C276.983 15.987 251.118 0 221.518 0c-44.427 0-80.442 36.015-80.442 80.442 0 44.427 36.015 80.442 80.442 80.442z" fill="url(#a)"/><path fill-rule="evenodd" clip-rule="evenodd" d="M155.843 326c-55.335 0-100.396-43.988-102.122-98.905-.047-1.492 1.525-2.466 2.856-1.789l30.443 15.499c.517.263.893.74 1.04 1.301 7.803 29.789 34.906 51.766 67.141 51.766 38.329 0 69.401-31.072 69.401-69.402 0-38.329-31.072-69.401-69.401-69.401-24.934 0-46.796 13.149-59.032 32.89-.03.049-.106.022-.099-.035a.053.053 0 0 0-.07-.057l-21.617 7.011a2 2 0 0 1-2.566-1.456l-4.489-19.599a1.978 1.978 0 0 1 .218-1.44c17.716-30.343 50.626-50.731 88.297-50.731 56.429 0 102.174 45.745 102.174 102.174 0 56.429-45.745 102.174-102.174 102.174z" fill="url(#b)"/><path d="M4.025 297.618c-1.384-1.219-.523-3.502 1.321-3.502h149.222a2 2 0 0 1 2 2V324a2 2 0 0 1-2 2H5.346c-1.844 0-2.705-2.283-1.321-3.501l12.43-10.939a2 2 0 0 0 0-3.003l-12.43-10.939z" fill="url(#c)"/><path d="M174.427 311.56a2 2 0 0 0 0-3.003l-12.431-10.939c-1.384-1.219-.523-3.502 1.321-3.502h131.649c.473 0 .93.168 1.292.473l16.476 13.942a2 2 0 0 1 0 3.054l-16.476 13.942a2 2 0 0 1-1.292.473H163.317c-1.844 0-2.705-2.283-1.321-3.501l12.431-10.939z" fill="url(#d)"/><defs><linearGradient id="a" x1="252.543" y1="8.5" x2="174.543" y2="161" gradientUnits="userSpaceOnUse"><stop stop-color="#2672FA"/><stop offset="1" stop-color="#621BD0"/></linearGradient><linearGradient id="b" x1="210.543" y1="136" x2="8.543" y2="326" gradientUnits="userSpaceOnUse"><stop stop-color="#2671FA"/><stop offset="1" stop-color="#611CD1"/></linearGradient><linearGradient id="c" x1="233.043" y1="149" x2=".543" y2="326" gradientUnits="userSpaceOnUse"><stop stop-color="#2671FA"/><stop offset="1" stop-color="#621ACF"/></linearGradient><linearGradient id="d" x1="225.043" y1="150.5" x2="2.043" y2="326" gradientUnits="userSpaceOnUse"><stop stop-color="#286FF9"/><stop offset="1" stop-color="#621BD0"/></linearGradient></defs></svg>