<svg width="50" height="50" fill="none" xmlns="http://www.w3.org/2000/svg"><path d="M8.333 22.75c0-1.886 0-2.828.586-3.414.586-.586 1.529-.586 3.414-.586h25.334c1.885 0 2.828 0 3.414.586.586.586.586 1.528.586 3.414v15c0 2.828 0 4.243-.88 5.121-.878.879-2.292.879-5.12.879H14.333c-2.828 0-4.242 0-5.121-.879-.879-.878-.879-2.293-.879-5.121v-15z" stroke="#fff" stroke-width="2"/><path d="M33.333 16.667v-2.084c0-3.115 0-4.673-.67-5.833a5 5 0 0 0-1.83-1.83c-1.16-.67-2.718-.67-5.833-.67v0c-3.116 0-4.673 0-5.834.67a5 5 0 0 0-1.83 1.83c-.67 1.16-.67 2.718-.67 5.833v2.084" stroke="#fff" stroke-width="2" stroke-linecap="round"/><circle cx="25" cy="31.25" fill="#fff" r="4.167"/></svg>