<svg width="44" height="31" fill="none" xmlns="http://www.w3.org/2000/svg"><g clip-path="url(#a)"><path d="M43.092 11.813c-.991-.67-3.262-.922-5.037-.587-.206-1.675-1.156-3.141-2.807-4.44l-.95-.67-.66.963c-.826 1.257-1.238 3.017-1.115 4.692.041.587.248 1.634.867 2.555-.578.336-1.775.755-3.344.755H.2l-.083.335c-.289 1.675-.289 6.912 3.096 10.933 2.56 3.058 6.358 4.608 11.353 4.608 10.816 0 18.825-5.069 22.582-14.243 1.486.042 4.665 0 6.275-3.142.042-.083.124-.251.413-.88l.165-.334-.908-.545zM24.06 0h-4.54v4.189h4.54V0zm0 5.027h-4.54v4.189h4.54v-4.19zm-5.367 0h-4.54v4.189h4.54v-4.19zm-5.366 0H8.785v4.189h4.542v-4.19zM7.96 10.054H3.419v4.189h4.54v-4.19zm5.367 0H8.785v4.189h4.542v-4.19zm5.366 0h-4.54v4.189h4.54v-4.19zm5.367 0h-4.54v4.189h4.54v-4.19zm5.367 0h-4.541v4.189h4.541v-4.19z" fill="#2396ED"/></g><defs><clipPath id="a"><path fill="#fff" d="M0 0h44v31H0z"/></clipPath></defs></svg>