<svg width="44" height="31" viewBox="0 0 44 31" fill="none" xmlns="http://www.w3.org/2000/svg">
<g clip-path="url(#clip0_2_488)">
<path d="M43.0919 11.813C42.101 11.1427 39.8304 10.8914 38.0553 11.2265C37.849 9.55085 36.8994 8.0848 35.248 6.78615L34.2986 6.11588L33.6379 7.07939C32.8124 8.33615 32.3995 10.0956 32.5233 11.7713C32.5645 12.3576 32.771 13.4049 33.3902 14.3265C32.8124 14.6617 31.6151 15.0806 30.0464 15.0806H0.198591L0.116091 15.4157C-0.173003 17.0912 -0.173003 22.3275 3.21225 26.349C5.77181 29.4069 9.5699 30.9569 14.5651 30.9569C25.3812 30.9569 33.3902 25.888 37.1471 16.7142C38.6333 16.7561 41.8121 16.7142 43.4222 13.5723C43.4635 13.4885 43.546 13.321 43.8349 12.6927L44.0001 12.3576L43.0919 11.813ZM24.0602 0H19.5192V4.18902H24.0602V0ZM24.0602 5.02686H19.5192V9.21588H24.0602V5.02669V5.02686ZM18.6934 5.02686H14.1524V9.21588H18.6934V5.02669V5.02686ZM13.3266 5.02686H8.78547V9.21588H13.3266V5.02669V5.02686ZM7.95978 10.0537H3.41867V14.2427H7.95961V10.0536L7.95978 10.0537ZM13.3266 10.0537H8.78547V14.2427H13.3266V10.0536V10.0537ZM18.6934 10.0537H14.1524V14.2427H18.6934V10.0536V10.0537ZM24.0603 10.0537H19.5191V14.2427H24.0603V10.0536V10.0537ZM29.4271 10.0537H24.8859V14.2427H29.4271V10.0536V10.0537Z" fill="#2396ED"/>
</g>
<defs>
<clipPath id="clip0_2_488">
<rect width="44" height="31" fill="white"/>
</clipPath>
</defs>
</svg>
