<svg width="35" height="48" viewBox="0 0 35 48" fill="none" xmlns="http://www.w3.org/2000/svg">
<path d="M11.2866 37.106C11.2866 37.106 9.48221 38.1707 12.5708 38.531C16.3127 38.9641 18.225 38.9021 22.3485 38.1101C22.3485 38.1101 23.4327 38.7998 24.9466 39.3973C15.7029 43.4173 4.02603 39.1644 11.2866 37.106Z" fill="#5382A1"/>
<path d="M10.1571 31.8601C10.1571 31.8601 8.1333 33.3803 11.2242 33.7046C15.2213 34.123 18.3779 34.1573 23.8401 33.0901C23.8401 33.0901 24.5956 33.8672 25.7835 34.2923C14.6072 37.6084 2.15883 34.5538 10.1571 31.8601Z" fill="#5382A1"/>
<path d="M19.6796 22.9617C21.9573 25.6225 19.0812 28.017 19.0812 28.017C19.0812 28.017 24.8645 24.9876 22.2085 21.1939C19.7278 17.6563 17.8254 15.8984 28.124 9.83789C28.124 9.83789 11.9587 13.9345 19.6796 22.9616" fill="#E76F00"/>
<path d="M31.9053 40.9861C31.9053 40.9861 33.2406 42.1024 30.4346 42.9661C25.099 44.6063 8.22707 45.1016 3.54008 43.0315C1.8553 42.2879 5.01487 41.2558 6.00868 41.0391C7.04514 40.811 7.63754 40.8536 7.63754 40.8536C5.76381 39.5142 -4.47341 43.4835 2.43758 44.6201C21.2847 47.7215 36.7939 43.2236 31.9053 40.9861Z" fill="#5382A1"/>
<path d="M12.1543 26.425C12.1543 26.425 3.57232 28.4935 9.11531 29.2444C11.4557 29.5624 16.1212 29.4905 20.4671 29.1209C24.0187 28.8171 27.5851 28.1707 27.5851 28.1707C27.5851 28.1707 26.3327 28.7149 25.4267 29.3426C16.7117 31.6684 -0.124144 30.5865 4.72267 28.2074C8.82164 26.197 12.1544 26.425 12.1544 26.425" fill="#5382A1"/>
<path d="M27.5496 35.1569C36.409 30.4856 32.3127 25.9967 29.4537 26.6015C28.7529 26.7494 28.4405 26.8776 28.4405 26.8776C28.4405 26.8776 28.7006 26.4642 29.1975 26.2852C34.8535 24.2674 39.2035 32.2362 27.3716 35.3923C27.3716 35.3924 27.5087 35.2681 27.5496 35.1569Z" fill="#5382A1"/>
<path d="M22.2084 0.0514083C22.2084 0.0514083 27.1149 5.03176 17.5549 12.6897C9.88898 18.8329 15.8068 22.3355 17.5518 26.3374C13.077 22.2407 9.793 18.6343 11.9962 15.278C15.2298 10.3507 24.188 7.96198 22.2084 0.0512695" fill="#E76F00"/>
<path d="M13.025 47.8149C21.5287 48.3673 34.5872 47.5084 34.8964 43.4255C34.8964 43.4255 34.302 44.9735 27.8685 46.2026C20.6104 47.5885 11.6586 47.4267 6.34912 46.5385C6.34926 46.5385 7.43603 47.4513 13.0251 47.8149" fill="#5382A1"/>
</svg>
