<svg width="28" height="31" fill="none" xmlns="http://www.w3.org/2000/svg"><g clip-path="url(#a)"><path d="M.225 23.243c.144.25.353.438.61.578l12.355 6.94c.513.296 1.139.296 1.636 0l12.356-6.94c.513-.28.818-.812.818-1.39V8.551c0-.578-.305-1.11-.818-1.39L14.826.222a1.615 1.615 0 0 0-1.636 0L.835 7.163c-.53.28-.835.812-.835 1.39v13.894c0 .281.064.547.225.797z" fill="#009639"/><path d="M10.045 20.79a1.506 1.506 0 0 1-.464 1.096 1.619 1.619 0 0 1-1.125.451 1.619 1.619 0 0 1-1.125-.452 1.506 1.506 0 0 1-.463-1.096V10.178c0-.828.754-1.5 1.797-1.5.754 0 1.637.296 2.166.937l.481.563 6.643 7.736v-7.705a1.506 1.506 0 0 1 .464-1.096 1.619 1.619 0 0 1 1.125-.451 1.62 1.62 0 0 1 1.125.451c.148.144.265.315.344.503.08.188.12.39.12.593v10.612c0 .828-.755 1.5-1.798 1.5-.754 0-1.636-.297-2.166-.938L10.045 13.1v7.69z" fill="#fff"/></g><defs><clipPath id="a"><path fill="#fff" d="M0 0h28v31H0z"/></clipPath></defs></svg>