<svg width="31" height="32" fill="none" xmlns="http://www.w3.org/2000/svg"><path d="M30.88 19.162c-.186-.564-.673-.956-1.303-1.05-.297-.045-.637-.026-1.039.057-.701.145-1.222.2-1.601.211 1.433-2.422 2.598-5.185 3.27-7.785 1.084-4.205.505-6.12-.173-6.987C28.241 1.315 25.625.083 22.47.045a13.394 13.394 0 0 0-3.932.551 14.628 14.628 0 0 0-2.3-.21c-1.518-.024-2.86.307-4.005.988a18.252 18.252 0 0 0-2.83-.711C6.636.208 4.407.563 2.776 1.716.802 3.112-.114 5.537.056 8.926.11 10 .71 13.273 1.657 16.377c.544 1.784 1.124 3.265 1.724 4.403.851 1.614 1.762 2.565 2.784 2.906.573.19 1.614.325 2.708-.588.14.168.324.335.57.49.312.198.694.359 1.075.454 1.373.344 2.66.258 3.757-.224.007.195.012.382.016.543.008.262.015.518.024.758.065 1.62.176 2.881.502 3.763.018.049.042.123.067.201.163.5.436 1.335 1.129 1.99.717.677 1.585.885 2.38.885.398 0 .779-.052 1.112-.124 1.19-.255 2.54-.643 3.517-2.036.924-1.316 1.373-3.299 1.454-6.423l.03-.253.019-.165.218.019.056.004c1.21.055 2.692-.202 3.601-.625.72-.334 3.022-1.55 2.48-3.194z" fill="#000"/><path d="M28.809 19.481c-3.601.744-3.849-.476-3.849-.476 3.802-5.648 5.392-12.817 4.02-14.571C25.238-.353 18.76 1.91 18.652 1.97l-.035.006a12.832 12.832 0 0 0-2.402-.25c-1.63-.027-2.866.427-3.804 1.14 0-.001-11.556-4.766-11.019 5.992.115 2.289 3.278 17.318 7.05 12.779 1.38-1.66 2.712-3.064 2.712-3.064.661.44 1.453.665 2.284.584l.064-.055c-.02.206-.01.408.026.647-.972 1.087-.686 1.277-2.629 1.678-1.966.405-.81 1.127-.057 1.316.914.229 3.029.553 4.458-1.45l-.057.229c.38.305.648 1.986.603 3.51-.044 1.523-.074 2.569.226 3.386.3.817.599 2.655 3.153 2.107 2.134-.458 3.24-1.644 3.394-3.623.109-1.407.356-1.199.372-2.457l.198-.595c.228-1.907.036-2.522 1.35-2.236l.32.028c.968.044 2.235-.156 2.978-.502 1.6-.743 2.55-1.985.972-1.659z" fill="#336791"/><path d="M13.087 9.882c-.324-.045-.618-.003-.767.11a.282.282 0 0 0-.116.187c-.019.134.075.282.132.358.163.216.402.365.637.398a.718.718 0 0 0 .102.007c.393 0 .75-.307.782-.533.04-.283-.371-.472-.77-.527M23.838 9.89c-.03-.221-.425-.284-.8-.232-.373.052-.736.22-.706.443.025.173.337.469.706.469a.671.671 0 0 0 .094-.007.909.909 0 0 0 .514-.281c.13-.138.206-.291.192-.391z" fill="#fff"/><path d="M30.007 19.397c-.137-.416-.579-.55-1.313-.397-2.18.45-2.961.138-3.218-.051 1.695-2.584 3.09-5.708 3.841-8.623.357-1.38.553-2.663.57-3.708.017-1.147-.178-1.99-.58-2.504-1.623-2.076-4.005-3.19-6.889-3.22-1.982-.023-3.656.485-3.981.628a9.917 9.917 0 0 0-2.24-.288c-1.489-.024-2.775.333-3.84 1.06a17.124 17.124 0 0 0-3.12-.82c-2.527-.407-4.536-.098-5.969.918C1.558 3.605.768 5.773.921 8.836c.052 1.03.638 4.2 1.564 7.236 1.218 3.996 2.543 6.258 3.936 6.723.164.054.352.092.559.092.508 0 1.132-.229 1.78-1.01.791-.95 1.61-1.876 2.454-2.778a3.95 3.95 0 0 0 1.765.475l.004.048c-.106.127-.21.255-.311.385-.427.542-.516.655-1.888.938-.39.08-1.428.294-1.443 1.022-.017.795 1.226 1.13 1.367 1.165.494.123.969.184 1.422.184 1.103 0 2.073-.363 2.848-1.064-.024 2.835.094 5.628.434 6.479.279.696.959 2.4 3.108 2.399.315 0 .662-.037 1.044-.119 2.243-.48 3.217-1.473 3.593-3.66.202-1.17.548-3.961.71-5.459.344.108.786.157 1.264.156.997 0 2.148-.212 2.869-.547.81-.376 2.273-1.3 2.007-2.104zm-5.34-10.119c-.008.442-.069.844-.133 1.263-.07.45-.141.916-.16 1.481-.017.55.052 1.123.118 1.676.134 1.118.272 2.268-.261 3.404a4.425 4.425 0 0 1-.236-.486c-.067-.161-.21-.42-.41-.777-.774-1.39-2.59-4.648-1.66-5.977.276-.396.979-.803 2.741-.584zm-2.137-7.49c2.583.058 4.627 1.025 6.074 2.876 1.11 1.42-.113 7.879-3.65 13.45a19.89 19.89 0 0 0-.107-.134l-.045-.056c.914-1.512.735-3.007.576-4.332-.065-.544-.127-1.058-.111-1.54.016-.512.083-.951.149-1.375.08-.523.162-1.064.14-1.702a.708.708 0 0 0 .014-.24c-.057-.611-.755-2.441-2.177-4.098-.777-.906-1.911-1.92-3.46-2.604a11.657 11.657 0 0 1 2.597-.244zM8.074 21.307c-.715.86-1.208.695-1.37.642-1.057-.354-2.284-2.59-3.366-6.137-.935-3.069-1.482-6.155-1.526-7.02-.136-2.737.527-4.644 1.97-5.669 2.35-1.668 6.213-.67 7.766-.163l-.068.065C8.933 5.599 8.993 9.999 9 10.267c0 .104.008.251.02.453.044.74.125 2.117-.093 3.677-.202 1.45.244 2.868 1.225 3.892.1.105.206.205.317.3a65.561 65.561 0 0 0-2.395 2.718zm2.722-3.635c-.79-.825-1.15-1.974-.985-3.15.23-1.648.145-3.083.1-3.854l-.016-.277c.372-.33 2.097-1.255 3.327-.973.56.129.903.511 1.045 1.17.736 3.406.097 4.826-.416 5.966-.105.236-.205.458-.29.688l-.067.177c-.167.45-.323.867-.42 1.264-.84-.003-1.657-.362-2.278-1.011zm.129 4.594a1.973 1.973 0 0 1-.596-.256c.109-.051.301-.12.635-.19 1.615-.332 1.864-.567 2.409-1.26.125-.158.266-.338.462-.557.293-.328.426-.272.668-.171.197.08.388.327.465.598.037.128.078.371-.057.56-1.137 1.595-2.795 1.574-3.986 1.276zm8.452 7.873c-1.976.424-2.675-.585-3.136-1.739-.298-.745-.444-4.103-.34-7.812a.447.447 0 0 0-.02-.142 1.874 1.874 0 0 0-.055-.262c-.154-.54-.53-.99-.981-1.178-.18-.074-.508-.21-.903-.11.084-.347.23-.74.389-1.165l.066-.178c.075-.202.169-.41.268-.632.537-1.194 1.272-2.829.474-6.522-.299-1.384-1.297-2.06-2.81-1.903-.907.094-1.737.46-2.15.67-.09.046-.17.09-.247.132.116-1.394.552-4 2.185-5.647 1.028-1.038 2.397-1.55 4.065-1.523 3.286.054 5.394 1.742 6.583 3.15 1.025 1.211 1.58 2.433 1.801 3.091-1.665-.17-2.798.16-3.372.982-1.25 1.787.683 5.257 1.612 6.924.17.306.317.57.364.682.302.734.694 1.224.98 1.582.087.11.172.215.237.308-.505.146-1.41.482-1.328 2.164-.067.843-.54 4.793-.78 6.189-.319 1.843-.996 2.53-2.902 2.939zm8.247-9.447c-.516.24-1.38.42-2.2.458-.905.043-1.366-.101-1.474-.19-.051-1.048.338-1.157.75-1.273.065-.018.128-.036.19-.057.037.03.079.061.125.091.727.481 2.026.533 3.86.154l.02-.004c-.248.232-.671.542-1.27.821z" fill="#fff"/></svg>