<svg width="36" height="32" fill="none" xmlns="http://www.w3.org/2000/svg"><g clip-path="url(#a)"><path d="M34.59 24.573c-1.922 1.036-11.874 5.269-13.993 6.411-2.119 1.143-3.296 1.132-4.97.304-1.673-.827-12.264-5.252-14.172-6.195C.5 24.62 0 24.223 0 23.847v-3.763s13.788-3.105 16.014-3.931c2.226-.826 2.998-.856 4.893-.138 1.894.718 13.22 2.831 15.093 3.54v3.711c0 .372-.433.78-1.41 1.308z" fill="#912626"/><path d="M34.589 20.832c-1.921 1.035-11.873 5.268-13.992 6.41-2.119 1.143-3.296 1.132-4.97.304-1.673-.827-12.264-5.252-14.172-6.195-1.907-.943-1.947-1.592-.073-2.351 1.874-.76 12.406-5.034 14.632-5.86 2.226-.826 2.998-.856 4.893-.138 1.894.718 11.787 4.79 13.659 5.5 1.872.71 1.944 1.294.023 2.33z" fill="#C6302B"/><path d="M34.59 18.484c-1.922 1.035-11.874 5.268-13.993 6.41-2.119 1.143-3.296 1.132-4.97.305-1.673-.828-12.264-5.253-14.172-6.196C.5 18.53 0 18.133 0 17.758v-3.764s13.788-3.105 16.014-3.93c2.226-.827 2.998-.857 4.893-.14 1.894.719 13.221 2.832 15.093 3.541v3.711c0 .372-.433.78-1.41 1.308z" fill="#912626"/><path d="M34.589 14.742c-1.921 1.036-11.873 5.268-13.992 6.41-2.119 1.143-3.296 1.132-4.97.304-1.673-.826-12.264-5.252-14.172-6.195-1.907-.943-1.947-1.592-.073-2.351 1.874-.76 12.406-5.034 14.632-5.86 2.226-.826 2.998-.856 4.893-.138 1.894.718 11.787 4.79 13.659 5.5 1.872.71 1.944 1.294.023 2.33z" fill="#C6302B"/><path d="M34.59 12.168c-1.922 1.035-11.874 5.268-13.993 6.411-2.119 1.142-3.296 1.131-4.97.303-1.673-.827-12.264-5.252-14.172-6.195C.5 12.215 0 11.817 0 11.442V7.678s13.788-3.105 16.014-3.93c2.226-.827 2.998-.856 4.893-.139C22.8 4.327 34.128 6.44 36 7.15v3.712c0 .371-.433.78-1.41 1.307z" fill="#912626"/><path d="M34.589 8.426c-1.921 1.036-11.873 5.269-13.992 6.411-2.119 1.142-3.296 1.131-4.97.304-1.673-.828-12.264-5.253-14.172-6.196-1.907-.943-1.947-1.592-.073-2.351 1.874-.76 12.406-5.033 14.632-5.86C18.24-.09 19.012-.12 20.907.598c1.894.717 11.787 4.79 13.659 5.5 1.872.709 1.944 1.294.023 2.33z" fill="#C6302B"/><path d="m22.4 4.765-3.096.332-.693 1.725-1.119-1.925-3.574-.332 2.667-.995-.8-1.527 2.497 1.01 2.353-.797L20 3.836l2.4.929zM18.426 13.13l-5.776-2.477 8.277-1.314-2.5 3.792zM10.418 5.723c2.443 0 4.424.794 4.424 1.774s-1.98 1.774-4.424 1.774c-2.444 0-4.424-.795-4.424-1.774 0-.98 1.98-1.774 4.424-1.774z" fill="#fff"/><path d="m26.057 5.236 4.899 2.002-4.895 2-.004-4.002" fill="#621B1C"/><path d="m20.637 7.454 5.42-2.218.004 4.003-.531.215-4.893-2z" fill="#9A2928"/></g><defs><clipPath id="a"><path fill="#fff" d="M0 0h36v32H0z"/></clipPath></defs></svg>