<svg width="28" height="22" viewBox="0 0 28 22" fill="none" xmlns="http://www.w3.org/2000/svg">
<path d="M25.5791 13.5262L26.6398 12.4656L27.7004 13.5262L26.6398 14.5869L25.5791 13.5262ZM0.921204 1.94727C0.921204 1.11884 1.59278 0.447268 2.4212 0.447268C3.24963 0.447268 3.9212 1.11884 3.9212 1.94727L0.921204 1.94727ZM19.4029 5.22871L26.6398 12.4656L24.5184 14.5869L17.2816 7.35003L19.4029 5.22871ZM26.6398 14.5869L19.4029 21.8237L17.2816 19.7024L24.5184 12.4656L26.6398 14.5869ZM25.5791 15.0262L8.4212 15.0262L8.4212 12.0262L25.5791 12.0262L25.5791 15.0262ZM0.921204 7.52622L0.921204 1.94727L3.9212 1.94727L3.9212 7.52622L0.921204 7.52622ZM8.4212 15.0262C4.27907 15.0262 0.921204 11.6684 0.921204 7.52622L3.9212 7.52622C3.9212 10.0115 5.93592 12.0262 8.4212 12.0262L8.4212 15.0262Z" fill="white"/>
</svg>
