<svg width="147" height="151" viewBox="0 0 147 151" fill="none" xmlns="http://www.w3.org/2000/svg">
<path fill-rule="evenodd" clip-rule="evenodd" d="M21.1026 79.3208C22.3921 80.9465 24.298 81.8433 26.3162 81.8433L57.9342 81.7873C59.9524 81.7873 61.8582 80.8342 63.1477 79.2648L82.7687 54.88C84.0579 53.2542 84.5066 51.1801 84.0579 49.162L77.0505 18.7231C76.6021 16.705 75.2566 15.0792 73.4068 14.1825L45.0405 0.672708C44.1434 0.22401 43.1346 0 42.1255 0C41.1164 0 40.1073 0.224349 39.2102 0.672368L10.8442 14.2385C8.99404 15.1352 7.64857 16.761 7.20019 18.7791L0.192793 49.218C-0.311591 51.2364 0.192793 53.3102 1.48226 54.936L21.1026 79.3208ZM70.4351 47.0878H70.4911C71.5002 47.3678 72.1169 48.2652 72.1169 48.9379C71.8925 49.6666 71.1638 50.227 70.3231 50.227C70.1547 50.227 70.0427 50.227 69.8743 50.171C69.8183 50.115 69.7623 50.115 69.7063 50.115C69.6501 50.115 69.594 50.101 69.5379 50.087C69.4819 50.073 69.4259 50.059 69.37 50.059C68.9776 49.9467 68.6972 49.8347 68.3608 49.6663C68.2765 49.6383 68.1923 49.5962 68.1081 49.5541C68.0242 49.5122 67.9404 49.4703 67.8565 49.4423H67.8005C66.735 49.0496 65.7822 48.7136 64.8852 48.6016H64.7731C64.5209 48.6016 64.3631 48.6961 64.2053 48.7906C64.1527 48.8221 64.1002 48.8536 64.0441 48.8816C64.0163 48.8816 64.0024 48.8955 63.9884 48.9095C63.9744 48.9235 63.9603 48.9376 63.9321 48.9376L63.2593 48.8256C62.6989 50.5634 61.9142 52.3011 60.9051 53.8709C58.9989 56.8977 56.4763 59.3646 53.505 61.1023L53.7853 61.7751C53.7853 61.8031 53.7713 61.8171 53.7573 61.8311C53.7433 61.8451 53.7293 61.859 53.7293 61.887C53.7177 61.9455 53.7035 62.0015 53.6895 62.0571C53.6363 62.2682 53.5847 62.4732 53.6733 62.7838C53.9378 63.5782 54.4527 64.3722 55.029 65.261C55.0628 65.3132 55.0969 65.3657 55.1311 65.4186V65.4749C55.1872 65.5589 55.2432 65.6289 55.2992 65.6989C55.3552 65.7689 55.4112 65.839 55.4672 65.923C55.6915 66.2033 55.9155 66.4837 56.0839 66.82C56.1399 66.8764 56.1959 66.9883 56.2519 67.1004C56.2519 67.1284 56.266 67.1424 56.2801 67.1564C56.2942 67.1704 56.3083 67.1844 56.3083 67.2124C56.5323 67.6607 56.5323 68.1654 56.4203 68.6138C56.3079 69.0621 55.9716 69.3988 55.5792 69.6228C55.3552 69.7348 55.1308 69.7912 54.9064 69.7912C54.2337 69.7912 53.561 69.3985 53.2249 68.7258C53.2249 68.7258 53.1686 68.6698 53.1686 68.6138C53.1405 68.5575 53.1123 68.5153 53.0842 68.473C53.0563 68.4311 53.0283 68.3892 53.0002 68.3334C52.8882 68.1092 52.826 67.885 52.7638 67.6607C52.7327 67.5486 52.7016 67.4365 52.6642 67.3244L52.4959 66.82V66.764C52.465 66.6801 52.4344 66.597 52.4041 66.5145C52.0498 65.5499 51.7318 64.6841 51.3187 63.9612C51.0944 63.6248 50.8704 63.5125 50.59 63.4565C50.534 63.4005 50.534 63.4005 50.4777 63.4005L50.1416 62.7838C49.188 63.1231 48.2145 63.4039 47.2267 63.6248C45.6568 64.0172 43.975 64.1852 42.3491 64.1852C39.6585 64.1852 36.9676 63.6808 34.501 62.7278L34.1083 63.4565C34.0523 63.5125 34.0523 63.5125 33.9963 63.5125C33.9494 63.536 33.9001 63.557 33.8493 63.5786C33.6573 63.6605 33.4447 63.7512 33.2675 64.0172C32.8215 64.7111 32.5506 65.4929 32.2226 66.4398C32.1797 66.5636 32.1358 66.6903 32.0904 66.82L31.9221 67.3244C31.8848 67.4362 31.8538 67.5418 31.8227 67.6474C31.7604 67.8595 31.6981 68.0715 31.5857 68.3334C31.5297 68.3898 31.4737 68.5018 31.4177 68.6138C31.4177 68.6138 31.3617 68.6698 31.3617 68.7258C31.0253 69.3425 30.3526 69.7912 29.6798 69.7912C29.4555 69.7912 29.2311 69.7348 29.0071 69.6228C28.1663 69.2305 27.83 68.1654 28.2783 67.2124C28.2783 67.2124 28.3343 67.1564 28.3343 67.1004C28.3904 66.988 28.4464 66.876 28.5024 66.82C28.5603 66.7332 28.6144 66.6501 28.6668 66.5698C28.8173 66.3389 28.953 66.131 29.1194 65.923C29.1753 65.8392 29.2311 65.7694 29.2869 65.6995C29.3431 65.6293 29.3993 65.559 29.4555 65.4746V65.4186C30.0722 64.4655 30.5769 63.6248 30.9129 62.7838C31.025 62.3914 30.9129 62.1111 30.8009 61.8867C30.8009 61.859 30.787 61.8451 30.7731 61.8311C30.759 61.8171 30.7449 61.803 30.7449 61.7747L31.0813 61.0463C30.2402 60.5416 29.4555 60.0369 28.6707 59.4206C25.251 56.7297 22.6724 53.0299 21.327 48.8819L20.5419 48.9939C20.5139 48.9939 20.4999 48.9799 20.4859 48.9659C20.4719 48.9519 20.4579 48.9379 20.4299 48.9379C20.4185 48.9304 20.407 48.9226 20.3951 48.9146C20.2311 48.8037 20.0148 48.6576 19.7011 48.6576H19.5891C18.692 48.7696 17.7389 49.1059 16.6738 49.4986H16.6178C16.5332 49.5266 16.4488 49.5689 16.3643 49.6111C16.2807 49.6529 16.197 49.6948 16.1134 49.7227C15.777 49.891 15.4967 50.003 15.104 50.115C15.048 50.115 14.992 50.129 14.9359 50.143C14.8799 50.157 14.8239 50.171 14.7679 50.171C14.7679 50.227 14.7119 50.227 14.6559 50.227C14.4876 50.2834 14.3756 50.2834 14.2072 50.2834C13.3105 50.2834 12.5817 49.7787 12.4134 48.9936C12.245 48.0969 12.8617 47.1438 13.8708 46.9198C13.9272 46.8638 13.9832 46.8638 14.0392 46.8638C14.0954 46.8638 14.1515 46.8497 14.2076 46.8356C14.2636 46.8215 14.3196 46.8075 14.3756 46.8075C14.4253 46.8004 14.4742 46.7933 14.5223 46.7863C14.8533 46.7382 15.147 46.6955 15.4407 46.6955C15.6087 46.6395 15.833 46.6395 16.0011 46.6395H16.0574C17.2345 46.5275 18.2436 46.4151 19.0844 46.1348C19.4207 45.9668 19.5891 45.7424 19.7011 45.5181C19.7011 45.4903 19.715 45.4764 19.729 45.4624C19.743 45.4484 19.7571 45.4343 19.7571 45.4061L20.4859 45.182C19.7571 40.0247 20.8222 34.8114 23.6252 30.3828C23.6647 30.2649 23.7317 30.1745 23.8068 30.0729C23.8387 30.0298 23.8721 29.9846 23.9056 29.9345L23.3452 29.4298V29.3178C23.3452 29.0374 23.3452 28.7571 23.0648 28.477C22.4199 27.8859 21.6203 27.3976 20.6666 26.8153C20.6254 26.7901 20.584 26.7648 20.5422 26.7393C20.3738 26.6269 20.2058 26.5149 20.0375 26.4589C19.7011 26.2906 19.4207 26.1222 19.0844 25.8982C19.0284 25.8702 18.9863 25.8282 18.9442 25.7862C18.9021 25.7442 18.86 25.7022 18.804 25.6742C18.776 25.6742 18.762 25.6601 18.748 25.646C18.734 25.632 18.72 25.6179 18.692 25.6179C17.9073 24.9452 17.7389 23.8241 18.2996 23.0954C18.58 22.703 19.0844 22.4787 19.5891 22.4787C20.0396 22.482 20.4752 22.6404 20.8226 22.9274C20.8226 22.962 20.844 22.9752 20.8735 22.9935C20.8918 23.0048 20.9132 23.018 20.9346 23.0394C21.0001 23.1051 21.0655 23.1514 21.1198 23.1897C21.1584 23.217 21.1913 23.2403 21.2146 23.2637C21.495 23.5437 21.7193 23.7681 21.9437 24.0484C22.0587 24.125 22.1475 24.2279 22.2279 24.3211C22.2651 24.3642 22.3006 24.4053 22.3361 24.4408C23.1208 25.2815 23.8495 26.0106 24.5783 26.5149C24.7466 26.6269 24.9147 26.6829 25.083 26.6829C25.139 26.6829 25.1951 26.6689 25.2512 26.6549C25.3073 26.6409 25.3634 26.6269 25.4194 26.6269H25.5314L26.0921 27.0193C29.0631 23.8804 32.8752 21.694 37.1916 20.7409C38.2007 20.5166 39.2098 20.4046 40.2189 20.2925L40.2753 19.5638L40.3873 19.4518C40.4081 19.431 40.4297 19.4102 40.4518 19.3889C40.6082 19.2385 40.7866 19.0669 40.8357 18.7231C40.9247 18.0098 40.8365 17.2255 40.7403 16.3705C40.7155 16.1503 40.6902 15.9255 40.6673 15.6959V15.6399C40.6416 15.537 40.6277 15.446 40.6148 15.3613C40.5995 15.2614 40.5856 15.1704 40.5553 15.0792C40.4433 14.7429 40.3873 14.4065 40.3873 14.0142V13.5658C40.3873 13.0611 40.5556 12.6128 40.8917 12.2764C41.228 11.94 41.6764 11.716 42.1251 11.716C43.0779 11.716 43.863 12.5568 43.863 13.5658V14.0702C43.8066 14.4625 43.7506 14.7992 43.6946 15.1352C43.6386 15.3036 43.5826 15.5276 43.5826 15.6959V15.7519C43.5749 15.8291 43.5672 15.9057 43.5595 15.9818C43.4559 17.0114 43.3621 17.9438 43.4142 18.7791C43.4637 19.1234 43.6422 19.2949 43.799 19.4456C43.8209 19.4666 43.8423 19.4872 43.863 19.5078L43.975 19.6198L44.031 20.3486C48.3016 20.7452 52.3684 22.3603 55.7475 25.0015C56.5323 25.6742 57.317 26.3469 58.0458 27.1316L58.7188 26.6829H58.8309C58.9429 26.7393 59.0552 26.7393 59.1672 26.7393C59.3356 26.7393 59.5036 26.6829 59.6716 26.5709C60.4004 26.0666 61.1291 25.3939 61.9142 24.5528C62.0292 24.4763 62.118 24.3734 62.1984 24.2802C62.2356 24.237 62.2711 24.1959 62.3066 24.1604C62.5292 23.8818 62.7522 23.6589 63.0301 23.381L63.0353 23.3757C63.0913 23.3477 63.1334 23.3056 63.1755 23.2636C63.2176 23.2215 63.2597 23.1794 63.3157 23.1514L63.4277 23.0394C63.82 22.759 64.2128 22.591 64.6608 22.591C65.1655 22.591 65.6699 22.815 65.9503 23.2074C66.511 23.9364 66.3426 25.0575 65.5579 25.7302C65.5579 25.7648 65.5366 25.778 65.5071 25.7963C65.4888 25.8077 65.4673 25.821 65.4459 25.8426C65.3802 25.9081 65.3146 25.9544 65.2602 25.9928C65.2217 26.0201 65.1888 26.0433 65.1655 26.0666C64.8291 26.2909 64.5488 26.4589 64.2124 26.6269C64.1281 26.6832 64.0439 26.7253 63.9597 26.7674C63.8758 26.8094 63.7919 26.8514 63.708 26.9073C63.6644 26.934 63.621 26.9604 63.578 26.9867C62.6265 27.5678 61.8287 28.055 61.1851 28.6451C60.9611 28.9254 60.9051 29.2058 60.9051 29.4861V29.5981L60.3443 30.1025C61.8092 32.3494 62.8716 34.8344 63.4837 37.4459C64.0874 40.0359 64.2204 42.7134 63.876 45.3504L64.6048 45.5744C64.6048 45.6024 64.6188 45.6164 64.6328 45.6304C64.6468 45.6444 64.6608 45.6584 64.6608 45.6864C64.7731 45.9108 64.8852 46.1348 65.2775 46.3031C66.1746 46.5835 67.1277 46.6955 68.3048 46.8075H68.3608C68.5852 46.8638 68.7532 46.8638 68.9216 46.8638C69.2153 46.8638 69.5089 46.9065 69.8399 46.9546C69.888 46.9616 69.9369 46.9687 69.9867 46.9758C70.0429 46.9758 70.099 46.9898 70.1551 47.0039C70.2111 47.0178 70.2671 47.0318 70.3231 47.0318C70.3231 47.0878 70.3791 47.0878 70.4351 47.0878ZM44.5354 44.341L42.0688 45.5184L39.6022 44.341L38.9858 41.7065L40.6673 39.5764H43.4142L45.0961 41.7065L44.5354 44.341ZM59.1672 38.5113C59.6021 40.365 59.7346 42.2767 59.5596 44.1726L50.9824 41.7065C50.1976 41.4825 49.7492 40.6974 49.9173 39.9127C49.9733 39.6884 50.0856 39.464 50.2536 39.296L57.037 33.1857C57.9898 34.7554 58.7185 36.5495 59.1672 38.5113ZM54.3461 29.8225L47.0023 35.0358C46.3856 35.4281 45.5445 35.3158 45.0401 34.6994C44.8726 34.5316 44.8164 34.3082 44.7603 34.085L44.7597 34.0827L44.2553 24.9452C48.0732 25.3848 51.6298 27.1038 54.3461 29.8225ZM38.9856 25.0572C39.2799 25.0012 39.5742 24.9452 39.8825 24.8892L39.3782 33.858C39.3222 34.6427 38.7054 35.3154 37.8643 35.3154C37.6403 35.3154 37.36 35.2594 37.1916 35.1474L29.7358 29.8225C32.0344 27.524 34.8934 25.9539 38.0887 25.2252C38.3971 25.1692 38.6913 25.1132 38.9856 25.0572ZM27.0449 33.1853L33.7159 39.1273C34.3326 39.632 34.3886 40.5848 33.8843 41.2015C33.7159 41.4255 33.4919 41.5938 33.2115 41.6502L24.5223 44.1726C24.1859 40.3608 25.0267 36.4929 27.0449 33.1853ZM25.531 48.3769L34.445 46.8631C35.1737 46.8071 35.8465 47.3118 36.0145 48.0405C36.0705 48.3766 36.0705 48.6572 35.9585 48.9376L32.5388 57.1778C29.3995 55.1596 26.8765 52.0765 25.531 48.3769ZM45.9932 59.5322C44.7037 59.8126 43.4142 59.9806 42.0688 59.9806C40.1069 59.9806 38.2007 59.6446 36.4072 59.0839L40.8357 51.0677C41.284 50.563 42.0128 50.339 42.6295 50.6754C42.8913 50.8357 43.1197 51.045 43.3022 51.2917L47.6187 59.0839C47.3375 59.1775 47.039 59.2539 46.7327 59.3322C46.4895 59.3944 46.2414 59.4579 45.9932 59.5322ZM56.9247 51.7404C55.5232 53.9826 53.673 55.7763 51.5431 57.1778L48.0114 48.7129C47.843 48.0405 48.1234 47.3118 48.7962 46.9751C49.0202 46.8631 49.3005 46.8071 49.5809 46.8071L58.5505 48.3209C58.2141 49.554 57.6534 50.6754 56.9247 51.7404Z" fill="url(#paint0_linear_409_918)"/>
<path d="M144.95 105.954C142.713 104.406 137.588 103.825 133.58 104.599C133.115 100.728 130.971 97.3416 127.243 94.3416L125.1 92.7932L123.609 95.019C121.745 97.9222 120.813 101.987 121.093 105.858C121.186 107.212 121.652 109.632 123.05 111.761C121.745 112.535 119.043 113.502 115.501 113.502H48.1238L47.9376 114.277C47.285 118.147 47.285 130.244 54.9267 139.534C60.7046 146.598 69.2784 150.178 80.5544 150.178C104.97 150.178 123.05 138.469 131.53 117.276C134.885 117.373 142.061 117.276 145.696 110.018C145.789 109.825 145.975 109.438 146.627 107.986L147 107.212L144.95 105.954ZM101.988 78.6649H91.7377V88.3419H101.988V78.6649ZM101.988 90.2774H91.7377V99.9545H101.988V90.277V90.2774ZM89.8734 90.2774H79.6228V99.9545H89.8734V90.277V90.2774ZM77.7586 90.2774H67.5076V99.9545H77.7586V90.277V90.2774ZM65.6437 101.89H55.3927V111.567H65.6433V101.89L65.6437 101.89ZM77.7586 101.89H67.5076V111.567H77.7586V101.89V101.89ZM89.8734 101.89H79.6228V111.567H89.8734V101.89V101.89ZM101.989 101.89H91.7373V111.567H101.989V101.89V101.89ZM114.104 101.89H103.852V111.567H114.104V101.89V101.89Z" fill="url(#paint1_linear_409_918)"/>
<defs>
<linearGradient id="paint0_linear_409_918" x1="42.1135" y1="0" x2="42.1135" y2="81.8433" gradientUnits="userSpaceOnUse">
<stop stop-color="#FE9644"/>
<stop offset="1" stop-color="#FE785F"/>
</linearGradient>
<linearGradient id="paint1_linear_409_918" x1="97.338" y1="78.6649" x2="97.338" y2="150.178" gradientUnits="userSpaceOnUse">
<stop stop-color="#FD9543"/>
<stop offset="1" stop-color="#FD785D"/>
</linearGradient>
</defs>
</svg>
