<svg width="120" height="150" viewBox="0 0 120 150" fill="none" xmlns="http://www.w3.org/2000/svg">
<path d="M31.25 139.5V146H4.15V111H30.6V117.5H12.2V125.1H28.45V131.4H12.2V139.5H31.25ZM62.4949 146L55.7449 136.25H55.3449H48.2949V146H40.1949V111H55.3449C58.4449 111 61.1283 111.517 63.3949 112.55C65.6949 113.583 67.4616 115.05 68.6949 116.95C69.9283 118.85 70.5449 121.1 70.5449 123.7C70.5449 126.3 69.9116 128.55 68.6449 130.45C67.4116 132.317 65.6449 133.75 63.3449 134.75L71.1949 146H62.4949ZM62.3449 123.7C62.3449 121.733 61.7116 120.233 60.4449 119.2C59.1783 118.133 57.3283 117.6 54.8949 117.6H48.2949V129.8H54.8949C57.3283 129.8 59.1783 129.267 60.4449 128.2C61.7116 127.133 62.3449 125.633 62.3449 123.7ZM94.6125 111C97.7125 111 100.396 111.517 102.663 112.55C104.963 113.583 106.729 115.05 107.963 116.95C109.196 118.85 109.813 121.1 109.813 123.7C109.813 126.267 109.196 128.517 107.963 130.45C106.729 132.35 104.963 133.817 102.663 134.85C100.396 135.85 97.7125 136.35 94.6125 136.35H87.5625V146H79.4625V111H94.6125ZM94.1625 129.75C96.5958 129.75 98.4458 129.233 99.7125 128.2C100.979 127.133 101.613 125.633 101.613 123.7C101.613 121.733 100.979 120.233 99.7125 119.2C98.4458 118.133 96.5958 117.6 94.1625 117.6H87.5625V129.75H94.1625Z" fill="url(#paint0_linear_501_46)"/>
<path fill-rule="evenodd" clip-rule="evenodd" d="M83.1858 99H94.8161C95.5443 98.9994 96.2504 98.7497 96.8175 98.2923C97.3847 97.8349 97.7788 97.1972 97.9346 96.4848L99.2542 90.472C100.988 89.712 102.632 88.7611 104.156 87.6368L110.025 89.5088C110.72 89.7307 111.469 89.7079 112.149 89.4442C112.829 89.1805 113.399 88.6918 113.763 88.0592L119.579 77.9696C120.32 76.6672 120.064 75.0224 118.962 74.0048L114.409 69.8448C114.616 67.9604 114.616 66.0588 114.409 64.1744L118.962 60.0144C120.064 59 120.32 57.352 119.579 56.0496L113.763 45.96C113.399 45.3281 112.83 44.8398 112.151 44.5762C111.471 44.3125 110.723 44.2893 110.028 44.5104L104.156 46.3824C102.628 45.2614 100.984 44.3097 99.251 43.544L97.9346 37.5184C97.7794 36.8054 97.5159 36.258 96.9487 35.8C96.8952 36.6303 96.2896 38.52 94.8161 39.8C93.3427 41.08 90.3169 44.0667 88.9882 45.4C89.2492 47 89.6146 50.84 88.9882 53.4L89.7949 54.2255C92.8901 54.4214 95.8194 55.7397 98.0254 57.949C100.422 60.3495 101.769 63.6052 101.769 67C101.769 70.3948 100.422 73.6505 98.0254 76.051C95.6286 78.4514 92.3778 79.8 88.9882 79.8L88.2051 82.2C87.1453 83.8 83.2769 86.68 79.4615 85.4L72.3077 83C70.4433 84.1275 66.4024 86.5059 65.1538 87L64.932 88.864C65.2068 89.1014 65.522 89.2919 65.8653 89.425C66.5453 89.6887 67.2949 89.7115 67.9897 89.4896L73.8592 87.6176C75.384 88.7428 77.0289 89.6947 78.7637 90.456L80.0641 96.4848C80.2201 97.1977 80.6147 97.8358 81.1824 98.2933C81.7502 98.7508 82.4571 99.0001 83.1858 99Z" fill="url(#paint1_linear_501_46)"/>
<path fill-rule="evenodd" clip-rule="evenodd" d="M57.0056 99H38.9974C37.8691 99.0002 36.7746 98.6145 35.8954 97.9068C35.0163 97.1992 34.4053 96.2121 34.1639 95.1093L32.1503 85.7835C29.4642 84.6059 26.9172 83.1333 24.5561 81.3929L15.4679 84.2886C14.3922 84.6318 13.2315 84.5966 12.1785 84.1887C11.1256 83.7808 10.2438 83.0248 9.67955 82.0462L0.655625 66.4488C0.0972961 65.4694 -0.112287 64.3293 0.0611659 63.2152C0.234618 62.1011 0.780836 61.0789 1.61046 60.3158L8.66039 53.8807C8.55467 52.9194 8.4838 51.9553 8.44781 50.9901L28.2493 51C28.6062 55.7026 30.6323 60.1427 33.9886 63.5007C37.6998 67.2139 42.7333 69.3 47.9817 69.3C53.2302 69.3 58.2637 67.2139 61.9749 63.5007C65.3335 60.1403 67.3601 55.6964 67.715 50.9901L87.5556 51C87.5197 51.9685 87.4487 52.9359 87.3426 53.9005L94.3926 60.3355C96.0994 61.9096 96.4952 64.4539 95.3474 66.4686L86.3433 82.0759C85.779 83.0545 84.8972 83.8105 83.8443 84.2184C82.7914 84.6263 81.6306 84.6615 80.5549 84.3183L71.4667 81.4225C69.1075 83.1617 66.562 84.6327 63.8775 85.8082L61.8342 95.1093C61.593 96.2113 60.9827 97.1977 60.1046 97.9053C59.2265 98.6128 58.1331 98.9991 57.0056 99ZM87.5545 48C87.5182 47.0415 87.4476 46.0839 87.3426 45.1291L94.3926 38.6941C96.0994 37.125 96.4952 34.5757 95.3474 32.5611L86.3433 16.9538C85.7792 15.9763 84.8983 15.221 83.8464 14.8132C82.7945 14.4053 81.6349 14.3694 80.5599 14.7114L71.4667 17.6072C69.1015 15.873 66.5552 14.4009 63.8725 13.2165L61.8342 3.89565C61.5939 2.79278 60.9841 1.8052 60.1059 1.09667C59.2277 0.388129 58.1338 0.00118783 57.0056 0H38.9974C37.8692 0.00118783 36.7753 0.388129 35.8971 1.09667C35.0189 1.8052 34.4091 2.79278 34.1688 3.89565L32.1503 13.2115C30.8343 13.7808 29.548 14.4193 28.2963 15.1222C27.0001 15.8746 25.7435 16.7062 24.5364 17.5972L15.4481 14.7015C14.3724 14.3583 13.2117 14.3935 12.1587 14.8014C11.1058 15.2093 10.224 15.9653 9.65975 16.9438L0.655625 32.5512C0.0960294 33.5312 -0.114261 34.6722 0.0592196 35.7874C0.2327 36.9026 0.779661 37.9258 1.61046 38.6892L8.66039 45.1093C8.55467 46.0707 8.4838 47.0348 8.44781 48H28.2493C28.6062 43.2974 30.6324 38.8573 33.9886 35.4993C37.6998 31.7861 42.7333 29.7 47.9817 29.7C53.2302 29.7 58.2637 31.7861 61.9749 35.4993C65.3311 38.8573 67.3573 43.2974 67.7142 48H87.5545Z" fill="url(#paint2_linear_501_46)"/>
<path d="M16.5997 39.4619C15.1731 39.4619 13.8797 39.1553 12.7197 38.5419C11.5731 37.9153 10.6664 37.0553 9.99975 35.9619C9.34641 34.8553 9.01975 33.6086 9.01975 32.2219C9.01975 30.8353 9.34641 29.5953 9.99975 28.5019C10.6664 27.3953 11.5731 26.5353 12.7197 25.9219C13.8797 25.2953 15.1797 24.9819 16.6197 24.9819C17.8331 24.9819 18.9264 25.1953 19.8997 25.6219C20.8864 26.0486 21.7131 26.6619 22.3797 27.4619L20.2997 29.3819C19.3531 28.2886 18.1797 27.7419 16.7797 27.7419C15.9131 27.7419 15.1397 27.9353 14.4597 28.3219C13.7797 28.6953 13.2464 29.2219 12.8597 29.9019C12.4864 30.5819 12.2997 31.3553 12.2997 32.2219C12.2997 33.0886 12.4864 33.8619 12.8597 34.5419C13.2464 35.2219 13.7797 35.7553 14.4597 36.1419C15.1397 36.5153 15.9131 36.7019 16.7797 36.7019C18.1797 36.7019 19.3531 36.1486 20.2997 35.0419L22.3797 36.9619C21.7131 37.7753 20.8864 38.3953 19.8997 38.8219C18.9131 39.2486 17.8131 39.4619 16.5997 39.4619Z" fill="#0A0B16"/>
<path d="M53.4 23L53.38 14.6L49.26 21.52H47.8L43.7 14.78V23H40.66V9H43.34L48.58 17.7L53.74 9H56.4L56.44 23H53.4Z" fill="#0A0B16"/>
<path d="M79.6807 38.8884C78.574 38.8884 77.5007 38.7418 76.4607 38.4484C75.434 38.1418 74.6073 37.7484 73.9807 37.2684L75.0807 34.8284C75.6807 35.2684 76.394 35.6218 77.2207 35.8884C78.0473 36.1551 78.874 36.2884 79.7007 36.2884C80.6207 36.2884 81.3007 36.1551 81.7407 35.8884C82.1807 35.6084 82.4007 35.2418 82.4007 34.7884C82.4007 34.4551 82.2673 34.1818 82.0007 33.9684C81.7473 33.7418 81.414 33.5618 81.0007 33.4284C80.6007 33.2951 80.054 33.1484 79.3607 32.9884C78.294 32.7351 77.4207 32.4818 76.7407 32.2284C76.0607 31.9751 75.474 31.5684 74.9807 31.0084C74.5007 30.4484 74.2607 29.7018 74.2607 28.7684C74.2607 27.9551 74.4807 27.2218 74.9207 26.5684C75.3607 25.9018 76.0207 25.3751 76.9007 24.9884C77.794 24.6018 78.8807 24.4084 80.1607 24.4084C81.054 24.4084 81.9273 24.5151 82.7807 24.7284C83.634 24.9418 84.3807 25.2484 85.0207 25.6484L84.0207 28.1084C82.7273 27.3751 81.434 27.0084 80.1407 27.0084C79.234 27.0084 78.5607 27.1551 78.1207 27.4484C77.694 27.7418 77.4807 28.1284 77.4807 28.6084C77.4807 29.0884 77.7273 29.4484 78.2207 29.6884C78.7273 29.9151 79.494 30.1418 80.5207 30.3684C81.5873 30.6218 82.4607 30.8751 83.1407 31.1284C83.8207 31.3818 84.4007 31.7818 84.8807 32.3284C85.374 32.8751 85.6207 33.6151 85.6207 34.5484C85.6207 35.3484 85.394 36.0818 84.9407 36.7484C84.5007 37.4018 83.834 37.9218 82.9407 38.3084C82.0473 38.6951 80.9607 38.8884 79.6807 38.8884Z" fill="#0A0B16"/>
<path d="M18.36 74.24C16.9333 74.24 15.64 73.9333 14.48 73.32C13.3333 72.6933 12.4267 71.8333 11.76 70.74C11.1067 69.6333 10.78 68.3867 10.78 67C10.78 65.6133 11.1067 64.3733 11.76 63.28C12.4267 62.1733 13.3333 61.3133 14.48 60.7C15.64 60.0733 16.94 59.76 18.38 59.76C19.5933 59.76 20.6867 59.9733 21.66 60.4C22.6467 60.8267 23.4733 61.44 24.14 62.24L22.06 64.16C21.1133 63.0667 19.94 62.52 18.54 62.52C17.6733 62.52 16.9 62.7133 16.22 63.1C15.54 63.4733 15.0067 64 14.62 64.68C14.2467 65.36 14.06 66.1333 14.06 67C14.06 67.8667 14.2467 68.64 14.62 69.32C15.0067 70 15.54 70.5333 16.22 70.92C16.9 71.2933 17.6733 71.48 18.54 71.48C19.94 71.48 21.1133 70.9267 22.06 69.82L24.14 71.74C23.4733 72.5533 22.6467 73.1733 21.66 73.6C20.6733 74.0267 19.5733 74.24 18.36 74.24Z" fill="#0A0B16"/>
<path d="M51.58 93L48.88 89.1H48.72H45.9V93H42.66V79H48.72C49.96 79 51.0333 79.2067 51.94 79.62C52.86 80.0333 53.5667 80.62 54.06 81.38C54.5533 82.14 54.8 83.04 54.8 84.08C54.8 85.12 54.5467 86.02 54.04 86.78C53.5467 87.5267 52.84 88.1 51.92 88.5L55.06 93H51.58ZM51.52 84.08C51.52 83.2933 51.2667 82.6933 50.76 82.28C50.2533 81.8533 49.5133 81.64 48.54 81.64H45.9V86.52H48.54C49.5133 86.52 50.2533 86.3067 50.76 85.88C51.2667 85.4533 51.52 84.8533 51.52 84.08Z" fill="#0A0B16"/>
<path d="M82.4 75L82.38 66.6L78.26 73.52H76.8L72.7 66.78V75H69.66V61H72.34L77.58 69.7L82.74 61H85.4L85.44 75H82.4Z" fill="#0A0B16"/>
<defs>
<linearGradient id="paint0_linear_501_46" x1="57" y1="0" x2="57" y2="150" gradientUnits="userSpaceOnUse">
<stop stop-color="#6512CB"/>
<stop offset="1" stop-color="#2670FA"/>
</linearGradient>
<linearGradient id="paint1_linear_501_46" x1="48" y1="-1.16635e-08" x2="49" y2="148.5" gradientUnits="userSpaceOnUse">
<stop stop-color="#6713CC"/>
<stop offset="1" stop-color="#2265DD"/>
</linearGradient>
<linearGradient id="paint2_linear_501_46" x1="48" y1="-1.16635e-08" x2="49" y2="148.5" gradientUnits="userSpaceOnUse">
<stop stop-color="#6713CC"/>
<stop offset="1" stop-color="#2265DD"/>
</linearGradient>
</defs>
</svg>
