<svg width="131" height="143" viewBox="0 0 131 143" fill="none" xmlns="http://www.w3.org/2000/svg">
<path d="M32.4638 124.395L32.4622 124.394C23.2322 119.767 15.5296 112.867 10.1689 104.448C4.80897 96.0303 1.98898 86.4068 2.00003 76.6094V76.6071V10.2153C2.0026 8.07688 2.90421 6.00082 4.54973 4.45028C6.19934 2.89588 8.45998 2.00245 10.841 2H119.238C121.619 2.00245 123.88 2.89588 125.53 4.45028C127.175 6.00107 128.077 8.07756 128.079 10.2164V76.6071V76.6094C128.09 86.4068 125.27 96.0303 119.91 104.448C114.55 112.867 106.847 119.767 97.6171 124.394L97.6155 124.395L65.0397 140.762L32.4638 124.395Z" fill="url(#paint0_linear_409_961)" stroke="url(#paint1_linear_409_961)" stroke-width="4"/>
<path d="M46.6671 31.1719C49.1489 26.856 53.0082 23.4955 57.6282 21.6273C62.2483 19.7591 67.3623 19.4912 72.1528 20.8664C76.9433 22.2416 81.1337 25.1805 84.0542 29.2133C86.9747 33.2461 88.4567 38.14 88.2633 43.1127C88.0699 48.0854 86.2122 52.8499 82.9872 56.6444C79.7622 60.439 75.3561 63.0446 70.4732 64.0447C65.5903 65.0448 60.5125 64.3818 56.0515 62.1615C51.5905 59.9412 48.0039 56.292 45.8649 51.797C44.4358 52.8407 42.7104 53.4019 40.9397 53.3989H38.154V54.8173C38.154 55.8742 38.5551 56.8365 39.2126 57.5651C39.7744 56.9311 40.5163 56.4829 41.3396 56.2804C42.1629 56.0778 43.0284 56.1304 43.821 56.4312C44.6136 56.732 45.2956 57.2668 45.7761 57.9642C46.2567 58.6616 46.5131 59.4886 46.5111 60.3352C46.5107 60.9165 46.3886 61.4914 46.1526 62.0229C45.9166 62.5543 45.572 63.0307 45.1408 63.4214C44.7096 63.8121 44.2013 64.1085 43.6486 64.2916C43.096 64.4747 42.5111 64.5405 41.9314 64.4847C39.4221 64.3967 37.045 63.3397 35.3011 61.5363C33.5571 59.7329 32.5825 57.3241 32.5826 54.8173V33.9475C32.5826 33.2099 32.8761 32.5025 33.3985 31.9809C33.9209 31.4593 34.6295 31.1663 35.3683 31.1663H46.5111L46.6671 31.1719ZM49.2969 42.914C49.4704 47.2789 51.3515 51.4018 54.5361 54.3974C57.7207 57.393 61.9549 59.0224 66.3296 58.9357C70.7042 58.8491 74.8703 57.0533 77.9334 53.9339C80.9965 50.8145 82.7123 46.6204 82.7123 42.252C82.7123 37.8837 80.9965 33.6895 77.9334 30.5702C74.8703 27.4508 70.7042 25.655 66.3296 25.5683C61.9549 25.4817 57.7207 27.1111 54.5361 30.1067C51.3515 33.1023 49.4704 37.2252 49.2969 41.5901V42.914ZM43.7254 41.4844V36.7286H38.154V47.8366H40.9397C41.6785 47.8366 42.3871 47.5436 42.9095 47.022C43.4319 46.5005 43.7254 45.7931 43.7254 45.0554V43.0196C43.7081 42.508 43.7081 41.996 43.7254 41.4844ZM27 81.1884C27 74.9975 32.031 70.0637 38.193 70.0637H93.8571C96.8124 70.0637 99.6466 71.2358 101.736 73.322C103.826 75.4083 105 78.2379 105 81.1884C105 90.5943 100.359 97.6862 93.105 102.309C85.9624 106.853 76.335 109 66 109C55.665 109 46.0376 106.853 38.895 102.309C31.641 97.6918 27 90.5887 27 81.1884ZM38.193 75.626C35.0674 75.626 32.5714 78.1124 32.5714 81.1884C32.5714 88.4694 36.0369 93.8927 41.8924 97.6139C47.8539 101.413 56.3336 103.438 66 103.438C75.6664 103.438 84.1461 101.413 90.1076 97.6139C95.9576 93.8872 99.4286 88.475 99.4286 81.1884C99.4286 79.7131 98.8416 78.2983 97.7967 77.2552C96.7519 76.2121 95.3348 75.626 93.8571 75.626H38.193Z" fill="#0F121A"/>
<defs>
<linearGradient id="paint0_linear_409_961" x1="65.0397" y1="0" x2="65.0397" y2="143" gradientUnits="userSpaceOnUse">
<stop stop-color="#CC3D8F"/>
<stop offset="1" stop-color="#154BBF"/>
</linearGradient>
<linearGradient id="paint1_linear_409_961" x1="65.0397" y1="0" x2="65.0397" y2="143" gradientUnits="userSpaceOnUse">
<stop stop-color="#CD3E8F"/>
<stop offset="1" stop-color="#104DC0"/>
</linearGradient>
</defs>
</svg>
