<svg width="12" height="12" viewBox="0 0 12 12" fill="none" xmlns="http://www.w3.org/2000/svg">
<path d="M9.26266 7.81822L10.606 9.16153C10.8236 9.37914 10.8236 9.73197 10.606 9.94958C9.42945 11.1261 7.56685 11.2585 6.23577 10.2602L5.55883 9.75246C4.30376 8.81115 3.18885 7.69624 2.24754 6.44117L1.73984 5.76423C0.741527 4.43315 0.873897 2.57055 2.05042 1.39403C2.26803 1.17641 2.62086 1.17641 2.83847 1.39403L4.18178 2.73734C4.57231 3.12786 4.57231 3.76103 4.18178 4.15155L3.83273 4.5006C3.73356 4.59977 3.70897 4.75128 3.7717 4.87673C4.49688 6.32709 5.67291 7.50312 7.12327 8.2283C7.24872 8.29103 7.40023 8.26644 7.4994 8.16727L7.84845 7.81822C8.23897 7.42769 8.87214 7.42769 9.26266 7.81822Z" stroke="white"/>
</svg>
