<svg width="69" height="48" fill="none" xmlns="http://www.w3.org/2000/svg"><path fill-rule="evenodd" clip-rule="evenodd" d="M.972 44.401c-1.578-4.475-2.385-15.934 7.013-25.972 0-.877-5.435-6.58-3.331-18.162C7.02-.259 13.526-.365 20.61 3.426c2.805 1.053 8.784 4.668 10.257 10.704 1.473 6.037 1.49 18.894 1.315 24.568-2.9 1-7.364 4.652 0 7.528-1.578 1.686-11.31 2.299-11.573-3.843-.159-3.72 5.491-6.949 8.673-9.913 2.542-2.37 2.5-12.062-6.568-11.32C9.819 22.203.972 38.17.972 44.4zM67.418 44.401c1.578-4.475 2.384-15.934-7.014-25.971 0-.878 5.436-6.58 3.331-18.163-2.367-.526-8.872-.631-15.955 3.159-2.806 1.053-8.785 4.668-10.258 10.704-1.472 6.037-1.49 18.894-1.314 24.568 2.9 1 7.364 4.652 0 7.528 1.578 1.686 11.309 2.299 11.572-3.843.16-3.72-5.491-6.949-8.672-9.913-2.543-2.37-2.5-12.062 6.568-11.32C58.57 22.204 67.418 38.17 67.418 44.4z" fill="#F4F4F4"/></svg>