<svg width="243" height="456" fill="none" xmlns="http://www.w3.org/2000/svg"><path d="M222.657 2.442c9.941 0 18 8.059 18 18v414.755c0 9.941-8.059 18-18 18H20.61c-9.941 0-18-8.058-18-18V20.442c0-9.941 8.059-18 18-18h202.047z" fill="#667EEA" stroke="#081758" stroke-width="4"/><path fill-rule="evenodd" clip-rule="evenodd" d="M79.3 3.376H19.543c-8.837 0-16 7.163-16 16v416.887c0 8.837 7.163 16 16 16h204.179c8.836 0 16-7.163 16-16V19.376c0-8.837-7.164-16-16-16h-59.756l-6.416 6.697a16 16 0 0 1-11.554 4.932H97.269a16 16 0 0 1-11.554-4.932L79.3 3.376z" fill="#130936"/><path d="M212.388 191.88c11.046 0 20 8.954 20 20v94.226c0 11.046-8.954 20-20 20H32.345c-11.045 0-20-8.954-20-20V211.88c0-11.046 8.955-20 20-20h180.043z" fill="url(#a)" fill-opacity=".1"/><path d="M212.388 192.38c10.77 0 19.5 8.73 19.5 19.5v94.226c0 10.77-8.73 19.5-19.5 19.5H32.345c-10.77 0-19.5-8.73-19.5-19.5V211.88c0-10.77 8.73-19.5 19.5-19.5h180.043z" stroke="url(#b)" stroke-opacity=".1"/><path d="M199.186 205.082c11.045 0 20 8.954 20 20v64.154c0 11.045-8.955 20-20 20H44.815c-11.046 0-20-8.955-20-20v-64.154c0-11.046 8.954-20 20-20h154.371z" fill="#fff" fill-opacity=".1"/><path d="M212.388 334.173c11.046 0 20 8.954 20 20v69.288c0 11.046-8.954 20-20 20H32.345c-11.046 0-20-8.954-20-20v-69.288c0-11.046 8.954-20 20-20h180.043z" fill="url(#c)" fill-opacity=".1"/><path d="M212.388 334.673c10.77 0 19.5 8.731 19.5 19.5v69.288c0 10.77-8.73 19.5-19.5 19.5H32.345c-10.77 0-19.5-8.73-19.5-19.5v-69.288c0-10.769 8.73-19.5 19.5-19.5h180.043z" stroke="url(#d)" stroke-opacity=".1"/><path d="M99.374 345.175c11.046 0 20 8.954 20 20v44.35c0 11.046-8.954 20-20 20H44.815c-11.046 0-20-8.954-20-20v-44.35c0-11.046 8.954-20 20-20h54.559zM199.186 345.175c11.046 0 20 8.954 20 20v44.35c0 11.046-8.954 20-20 20h-54.559c-11.046 0-20-8.954-20-20v-44.35c0-11.046 8.954-20 20-20h54.559z" fill="#fff" fill-opacity=".1"/><path d="M212.388 25.38c11.046 0 20 8.955 20 20v117.698c0 11.045-8.954 20-20 20H32.345c-11.046 0-20-8.955-20-20V45.38c0-11.045 8.954-20 20-20h180.043z" fill="url(#e)" fill-opacity=".1"/><path d="M212.388 25.88c10.77 0 19.5 8.73 19.5 19.5v117.698c0 10.769-8.73 19.5-19.5 19.5H32.345c-10.77 0-19.5-8.731-19.5-19.5V45.38c0-10.77 8.73-19.5 19.5-19.5h180.043z" stroke="url(#f)" stroke-opacity=".1"/><g clip-path="url(#g)"><path d="M66.059 55.785c-3.557 0-6.336 1.307-8.337 3.92-2.001 2.614-3.002 5.955-3.002 10.023-.024 5.055 1.606 9.061 4.892 12.02.42.395.568.9.444 1.516l-.852 1.776A3.144 3.144 0 0 1 58 86.426c-.532.333-1.65.808-3.354 1.424l-4.687 1.517c-3.05.986-4.675 1.528-4.873 1.627-2.075.863-3.433 1.763-4.076 2.7-.691 1.553-1.037 5.486-1.037 11.798h52.172c0-6.312-.346-10.245-1.038-11.798-.642-.937-2-1.837-4.076-2.7-.197-.099-1.822-.641-4.872-1.627a4753.45 4753.45 0 0 1-4.688-1.517c-1.704-.616-2.822-1.09-3.353-1.423a3.144 3.144 0 0 1-1.204-1.387l-.852-1.776c-.124-.616.024-1.121.444-1.516 3.286-2.959 4.916-6.965 4.891-12.02 0-4.068-1-7.409-3.001-10.022-2-2.614-4.78-3.92-8.337-3.92z" fill="#fff" fill-opacity=".3"/></g><rect x="112.56" y="71.467" width="90.734" height="9.073" rx="4.537" fill="#fff" fill-opacity=".3"/><rect x="112.56" y="87.345" width="31.757" height="2.268" rx="1.134" fill="#fff" fill-opacity=".3"/><rect x="39.973" y="119.102" width="163.321" height="4.537" rx="2.268" fill="#fff" fill-opacity=".3"/><rect x="39.973" y="130.444" width="163.321" height="4.537" rx="2.268" fill="#fff" fill-opacity=".3"/><rect x="39.973" y="141.786" width="163.321" height="4.537" rx="2.268" fill="#fff" fill-opacity=".3"/><defs><linearGradient id="a" x1="122.367" y1="191.88" x2="122.367" y2="326.106" gradientUnits="userSpaceOnUse"><stop stop-color="#fff"/><stop offset="1" stop-opacity=".8"/></linearGradient><linearGradient id="b" x1="225.366" y1="326.106" x2="139.207" y2="181.824" gradientUnits="userSpaceOnUse"><stop stop-color="#fff"/><stop offset="1" stop-color="#fff" stop-opacity="0"/></linearGradient><linearGradient id="c" x1="122.367" y1="334.173" x2="122.367" y2="443.461" gradientUnits="userSpaceOnUse"><stop stop-color="#fff"/><stop offset="1" stop-opacity=".8"/></linearGradient><linearGradient id="d" x1="225.365" y1="443.461" x2="162.696" y2="314.565" gradientUnits="userSpaceOnUse"><stop stop-color="#fff"/><stop offset="1" stop-color="#fff" stop-opacity="0"/></linearGradient><linearGradient id="e" x1="122.367" y1="25.38" x2="122.367" y2="183.078" gradientUnits="userSpaceOnUse"><stop stop-color="#fff" stop-opacity=".8"/><stop offset="1"/></linearGradient><linearGradient id="f" x1="225.365" y1="183.078" x2="117.249" y2="28.971" gradientUnits="userSpaceOnUse"><stop stop-color="#fff"/><stop offset="1" stop-color="#fff" stop-opacity="0"/></linearGradient><clipPath id="g"><rect x="39.973" y="51.051" width="52.172" height="54.44" rx="2" fill="#fff"/></clipPath></defs></svg>