<svg width="140" height="79" fill="none" xmlns="http://www.w3.org/2000/svg"><g filter="url(#a)"><rect x=".371" y=".587" width="139.36" height="77.749" rx="10" fill="#fff" fill-opacity=".1"/><rect x=".871" y="1.087" width="138.36" height="76.749" rx="9.5" stroke="url(#b)"/><rect x=".871" y="1.087" width="138.36" height="76.749" rx="9.5" stroke="url(#c)"/></g><rect x="5.239" y="24.628" width="130.232" height="49.616" rx="5" fill="#332B50"/><rect x="16.802" y="37.416" width="60.856" height="3.069" rx="1.535" fill="#fff" fill-opacity=".3"/><rect x="16.802" y="48.157" width="60.856" height="3.069" rx="1.535" fill="#fff" fill-opacity=".3"/><rect x="16.802" y="58.899" width="60.856" height="3.069" rx="1.535" fill="#fff" fill-opacity=".3"/><rect x="5.239" y="4.679" width="130.232" height="15.345" rx="5" fill="#615B78"/><path d="M107.56 40.26c.77-1.333 2.694-1.333 3.464 0l10.828 18.755c.77 1.333-.193 3-1.732 3H98.464c-1.54 0-2.502-1.667-1.732-3L107.56 40.26z" fill="#667EEA"/><path d="M108.082 47.93h2.232l-.372 5.483h-1.488l-.372-5.484zm1.116 8.495c-.328 0-.604-.104-.828-.312a1.063 1.063 0 0 1-.324-.78c0-.304.108-.556.324-.756.216-.208.492-.312.828-.312.336 0 .612.104.828.312.216.2.324.452.324.756s-.112.564-.336.78a1.13 1.13 0 0 1-.816.312z" fill="#F6D365"/><defs><linearGradient id="b" x1="130.137" y1="78.335" x2="128.588" y2="63.626" gradientUnits="userSpaceOnUse"><stop stop-color="#fff" stop-opacity=".2"/><stop offset="1" stop-color="#fff" stop-opacity="0"/></linearGradient><linearGradient id="c" x1=".371" y1=".587" x2="7.928" y2="21.608" gradientUnits="userSpaceOnUse"><stop stop-color="#fff" stop-opacity=".2"/><stop offset="1" stop-color="#fff" stop-opacity="0"/></linearGradient><filter id="a" x="-3.629" y="-3.413" width="147.36" height="85.749" filterUnits="userSpaceOnUse" color-interpolation-filters="sRGB"><feFlood flood-opacity="0" result="BackgroundImageFix"/><feGaussianBlur in="BackgroundImage" stdDeviation="2"/><feComposite in2="SourceAlpha" operator="in" result="effect1_backgroundBlur_1_92"/><feBlend in="SourceGraphic" in2="effect1_backgroundBlur_1_92" result="shape"/></filter></defs></svg>