<svg width="150" height="150" viewBox="0 0 150 150" fill="none" xmlns="http://www.w3.org/2000/svg">
<path d="M108.375 51.6332L111.375 32.7889L125.625 47.1106L110.715 53.6533L108.375 51.6332ZM129.375 50.8794L144.375 65.9548C146.982 68.7093 149.919 70.8145 150 73.4925L112.9 57.6474L129.375 50.8794ZM149.25 78.392C143.082 86.2347 135.182 93.2848 127.5 101.005L104.633 96.2527C104.633 94.3683 103.443 92.6794 101.943 91.5488L106.125 65.201C108.231 65.3497 110.532 63.5692 111.067 61.9142L149.25 78.392ZM123.375 105.151L95.25 133.417L100.125 103.643C101.576 103.146 102.688 102.252 103.5 101.005L123.375 105.151ZM89.25 139.447L86.25 142.462L51 91.5829C51.5798 91.1148 51.9041 90.6036 52.125 90.0754L91.125 98.3668C91.4522 100.384 93.832 102.63 95.3229 103.266L89.25 139.447ZM82.875 145.854L78 150H71.25C58.7965 137.352 30.75 109.296 30.75 109.296L40.1977 94.8433C42.6841 95.7899 45.5854 95.6112 47.574 94.4443L82.875 145.854ZM19.5 97.9899L35.25 90.8291L36.375 92.3367L26.6563 105.096L19.5 97.9899ZM15.75 94.2211L1.875 79.8995L34.0225 86.5883L15.75 94.2211ZM0 74.6231C0.526758 70.6552 3.7957 68.0106 5.625 65.9548L18.75 52.7638L37.125 79.5226L35.2078 81.8496L0 74.6231ZM22.125 49.3719L39.75 31.6583L62.25 41.4573C61.3081 44.909 62.298 47.9182 64.125 49.3719L45.83 77.2834C43.9805 76.6489 42.7465 76.943 41.5427 77.2822L22.125 49.3719ZM43.5 28.2663C43.5 28.2663 70.125 0.753769 72 0H77.25L88.875 10.1759L72.4705 35.8361C69.8338 35.2625 66.5265 35.4545 64.684 37.2229L43.5 28.2663ZM92.25 13.5678L107.25 28.6432L103.793 51.5878C102.97 51.7456 101.851 52.1947 101.202 52.9078L77.625 42.7917C77.9933 41.159 77.6262 39.362 76.5 38.4422L92.25 13.5678ZM98.625 56.7105L98.6109 59.0213L50.625 79.5226L50.25 79.1457L68.4999 51.2313C72.0853 51.5646 75.1603 49.8456 76.5999 47.3467L98.625 56.7105ZM52.5 83.6683L100.5 62.9397L101.643 64.0704L97.4742 90.0716C95.066 90.3607 92.7103 91.8514 91.6512 93.9016L53.25 85.5528L52.5 83.6683Z" fill="url(#paint0_linear_409_849)"/>
<defs>
<linearGradient id="paint0_linear_409_849" x1="75" y1="0" x2="75" y2="150" gradientUnits="userSpaceOnUse">
<stop stop-color="#B663D8"/>
<stop offset="1" stop-color="#E95E9F"/>
</linearGradient>
</defs>
</svg>
