<svg width="32" height="32" fill="none" xmlns="http://www.w3.org/2000/svg"><path d="M28.875 0H3.125A3.125 3.125 0 0 0 0 3.125v25.75C0 30.601 1.4 32 3.125 32h25.75C30.601 32 32 30.6 32 28.875V3.125C32 1.399 30.6 0 28.875 0z" fill="#3178C6"/><path fill-rule="evenodd" clip-rule="evenodd" d="M19.813 25.438v3.125c.506.262 1.125.456 1.812.587.688.131 1.438.194 2.188.194.75 0 1.437-.069 2.125-.213a5.389 5.389 0 0 0 1.75-.687c.506-.331.937-.75 1.187-1.313.25-.562.444-1.187.444-2a4.12 4.12 0 0 0-.256-1.5 2.945 2.945 0 0 0-.75-1.125 4.966 4.966 0 0 0-1.125-.875c-.438-.25-.938-.512-1.5-.75-.413-.168-.75-.33-1.125-.493a4.876 4.876 0 0 1-.813-.488 2.231 2.231 0 0 1-.531-.525 1.098 1.098 0 0 1-.188-.625c0-.212.056-.406.169-.581.113-.175.269-.319.469-.444.2-.125.45-.219.75-.287.293-.07.619-.1 1-.1.262 0 .537.019.812.058a6.941 6.941 0 0 1 1.75.488c.275.125.531.269.75.431v-2.937c-.475-.182-1-.32-1.562-.407a12.532 12.532 0 0 0-1.938-.13 9.42 9.42 0 0 0-2.125.237 4.945 4.945 0 0 0-1.75.75c-.506.337-.875.75-1.187 1.312-.294.525-.438 1.125-.438 1.875 0 .938.269 1.75.813 2.375.537.688 1.375 1.188 2.437 1.688.431.175.813.35 1.188.518.375.17.687.344.937.525.269.182.481.382.625.594.156.213.238.463.238.75 0 .2-.049.388-.144.563a1.23 1.23 0 0 1-.444.45c-.2.125-.444.225-.75.3a4.572 4.572 0 0 1-1.062.106 5.665 5.665 0 0 1-2-.356 5.94 5.94 0 0 1-1.875-1.063l.119-.027zm-5.25-7.688h4v-2.562H7.374v2.562h4v11.438h3.188V17.75z" fill="#fff"/></svg>